<svg id="Layer_1" data-name="Layer 1" xmlns="http://www.w3.org/2000/svg" xmlns:xlink="http://www.w3.org/1999/xlink" width="200" height="200" viewBox="0 0 200 200"><defs><style>.cls-1{fill:none;}.cls-2{fill:#3a3531;}.cls-3{clip-path:url(#clip-path);}.cls-4{fill:#dfdfd9;}.cls-5{fill:#fbbb21;}</style><clipPath id="clip-path"><rect class="cls-1" x="9.33" y="13.67" width="181.33" height="181.33"/></clipPath></defs><title>maintenance_hands</title><rect class="cls-2" x="9.33" y="13.67" width="181.33" height="181.33"/><g class="cls-3"><path class="cls-4" d="M138.19,141.72c-2-2.8-6.37-2.23-10.58.26-7.22,4.27-22.85,13.32-22.85,13.32a7.88,7.88,0,0,1-.47,1.31,8.12,8.12,0,0,1-5.42,4.47,8.21,8.21,0,0,1-5.39-.53l-12.13-5.79V152.7l13,6.08a6,6,0,0,0,3.34.53l.61-.09.15,0a6.19,6.19,0,0,0,3.22-2,6.49,6.49,0,0,0,.91-1.4,6.35,6.35,0,0,0,.51-1.73,6.18,6.18,0,0,0-3.51-6.49L81,138.93c-1.84-.86-4.15-.18-6.73.27s-12.75,2.07-12.75,2.07a1.27,1.27,0,0,0-1,1.19V165.9a1,1,0,0,0,1,1h9.14a11.85,11.85,0,0,1,2,.12c.4.09,1.41.48,1.41.48l23.6,9.18a6.15,6.15,0,0,0,3.13,0,4.73,4.73,0,0,0,1.41-.54c7.38-4.61,30.14-22.35,32.63-24.3,5.74-4.46,5.09-7.6,3.31-10.14m-12-1.18a5.47,5.47,0,0,0-5.25-.6l-17.41,8.55a8.3,8.3,0,0,1,1.48,4.38Z"/><path class="cls-5" d="M99.18,109.68l9.67,9.68a7.52,7.52,0,0,0-.29,1,2.61,2.61,0,0,0-.06.27,7.62,7.62,0,0,0-.14.81c0,.09,0,.18,0,.28,0,.31,0,.62,0,.92v.14a8.38,8.38,0,0,0,.07,1.11.59.59,0,0,0,0,.13c0,.25.06.5.11.75l.08.29c0,.19.08.39.14.58s.09.26.13.38.11.32.17.48.2.48.32.72c0,0,0,.12.08.18h0a9.34,9.34,0,0,0,.5.87l0,0c.16.25.34.48.52.71l.15.19c.2.24.41.48.64.71h0c.2.2.4.38.61.56a.34.34,0,0,1,.09.08l.1.07c.16.13.32.26.49.38h0l.18.12.55.35.15.08a7.92,7.92,0,0,0,.71.37h0a8.59,8.59,0,0,0,.88.37h0c.28.1.57.18.85.25l.12,0c.3.08.6.13.9.18h0c.31,0,.6.06.9.08H119a8.14,8.14,0,0,0,.85-.08l.14,0,.08,0c.23,0,.46-.08.69-.13l.26-.06.09,0c.18-.06.42-.16.48-.3s-.13-.32-.24-.43l-5-5a2.56,2.56,0,0,1-.2-.26l0-.09a1.33,1.33,0,0,1-.09-.21l0-.11a.76.76,0,0,1,0-.21.36.36,0,0,1,0-.1,1.73,1.73,0,0,1,0-.32,1,1,0,0,1,.07-.24l0-.07.08-.17a.21.21,0,0,0,0-.06,1.71,1.71,0,0,1,.18-.2l4.12-4.13a1.06,1.06,0,0,1,.2-.17l.07,0,.16-.09.08,0,.23-.07h0a1.62,1.62,0,0,1,.31,0h.1a.85.85,0,0,1,.22,0l.11,0a1.21,1.21,0,0,1,.2.09l.1.05a2.07,2.07,0,0,1,.25.19l5,5c.1.11.29.29.43.23s.23-.3.29-.48,0-.06,0-.09a2,2,0,0,1,.05-.24c.06-.23.1-.47.14-.7,0,0,0-.06,0-.08a.59.59,0,0,0,0-.14,6.11,6.11,0,0,0,.09-.86.49.49,0,0,0,0-.12c0-.27,0-.53,0-.8a1,1,0,0,0,0-.17,9.51,9.51,0,0,0-.27-1.83s0-.06,0-.1c-.08-.29-.16-.58-.26-.86,0,0,0,0,0,0a8.71,8.71,0,0,0-.36-.89l0,0a6.85,6.85,0,0,0-.37-.71l-.07-.13c-.11-.2-.24-.38-.36-.57l-.12-.17h0c-.12-.17-.25-.34-.38-.5l-.07-.09-.08-.1c-.18-.21-.36-.41-.56-.61s-.47-.44-.71-.64a1.25,1.25,0,0,0-.19-.15,8.72,8.72,0,0,0-.72-.52l0,0a8.71,8.71,0,0,0-.88-.51h0l-.19-.09-.71-.32-.47-.16-.39-.14-.57-.13-.3-.08c-.24,0-.49-.08-.73-.12l-.15,0a10.14,10.14,0,0,0-1.1-.06h-.15c-.31,0-.61,0-.91,0l-.29,0-.8.14-.28.06a9.32,9.32,0,0,0-1,.3L108.79,107l-.77.77a2.73,2.73,0,0,1-3.84,0l-1.52-1.52Zm-24,14.95-3.82,6.65,1.66,1.66,6.65-3.81,1-2.8,20.64-20.64L98.64,103,78,123.65ZM91.15,89.31h0c.12-.34.22-.68.31-1a2.56,2.56,0,0,1,0-.27c.06-.28.1-.54.14-.81a2.4,2.4,0,0,0,0-.28c0-.31,0-.61,0-.92,0,0,0-.09,0-.14,0-.36,0-.74-.06-1.11a.61.61,0,0,1,0-.13q0-.37-.12-.75c0-.09,0-.19-.07-.29A5.47,5.47,0,0,0,91.3,83a2.43,2.43,0,0,0-.13-.38c0-.16-.1-.32-.16-.48s-.21-.48-.32-.72a1.51,1.51,0,0,0-.09-.18h0a8.71,8.71,0,0,0-.51-.88.05.05,0,0,1,0,0c-.16-.25-.34-.48-.52-.71l-.15-.19c-.21-.24-.41-.49-.64-.71h0a8.09,8.09,0,0,0-.61-.56l-.09-.08L88,78l-.5-.38h0l-.17-.12a6.53,6.53,0,0,0-.56-.35L86.57,77c-.23-.12-.47-.25-.71-.36h0c-.29-.14-.59-.26-.89-.37h0A8.29,8.29,0,0,0,84,76a.42.42,0,0,0-.12,0,8.76,8.76,0,0,0-.89-.18s0,0,0,0c-.3,0-.59-.06-.89-.07H81l-.86.08-.14,0h-.08l-.68.14-.26.06-.09,0c-.17.06-.43.16-.48.3s.12.32.23.43l5,5a2.56,2.56,0,0,1,.2.26l0,.09c0,.07.06.13.09.21l0,.1a1.92,1.92,0,0,1,0,.22s0,.07,0,.1a1.67,1.67,0,0,1,0,.32h0a1.09,1.09,0,0,1-.07.24l0,.07a1.29,1.29,0,0,1-.09.16.25.25,0,0,1,0,.07,1.56,1.56,0,0,1-.16.2L79.5,88l-.2.17-.07,0-.16.09-.08,0a2,2,0,0,1-.23.06h0a1.09,1.09,0,0,1-.31,0h-.1l-.22,0-.11,0a1,1,0,0,1-.21-.09l-.08,0a1.26,1.26,0,0,1-.27-.2l-5-5c-.12-.11-.3-.29-.44-.23s-.24.3-.3.48a.24.24,0,0,0,0,.09,2.1,2.1,0,0,0-.06.24,5.78,5.78,0,0,0-.14.7s0,0,0,.08a.78.78,0,0,1,0,.14,7.84,7.84,0,0,0-.08.86v.12a7.12,7.12,0,0,0,0,.8.86.86,0,0,1,0,.16,9.5,9.5,0,0,0,.27,1.84.36.36,0,0,0,0,.1c.07.29.16.58.25.86l0,0a6.9,6.9,0,0,0,.36.89s0,0,0,0a6.91,6.91,0,0,0,.36.72l.08.13c.11.2.23.38.36.57s.07.11.11.17h0c.12.17.25.34.38.5l.07.08.08.1a8.24,8.24,0,0,0,.56.62c.23.23.47.44.71.64l.19.15a8.58,8.58,0,0,0,.71.52l0,0c.28.19.58.35.87.51h0l.18.08a7.4,7.4,0,0,0,.71.32l.48.18.38.12.58.15.29.07c.25,0,.49.09.74.12l.15,0a10.28,10.28,0,0,0,1.1.06h.15a9.1,9.1,0,0,0,.91,0l.29,0a6.85,6.85,0,0,0,.79-.13l.28-.06a9.32,9.32,0,0,0,1-.3l9.68,9.68,3.48-3.49-1.52-1.51a2.73,2.73,0,0,1,0-3.85l.76-.76Zm33.22-4.77-17.85,17.85a.62.62,0,0,1-.89,0,.63.63,0,0,1,0-.89l17.85-17.84a.63.63,0,0,1,.89,0,.64.64,0,0,1,0,.89m-.84-2.85-18.86,18.86a.63.63,0,0,1-.88-.89L122.64,80.8a.64.64,0,0,1,.89,0,.62.62,0,0,1,0,.89m-2.85-.84L102.83,98.7a.63.63,0,0,1-.89-.89L119.79,80a.63.63,0,1,1,.89.88m5.94-3.14a6.75,6.75,0,0,0-9.55,0L104,90.78a4.06,4.06,0,0,1-4.53,4.53l-1.93,1.93a1.41,1.41,0,0,0,0,2l7.56,7.56a1.41,1.41,0,0,0,2,0l1.93-1.93a4.1,4.1,0,0,1,1.16-3.36,4,4,0,0,1,3.37-1.16l13.08-13.08a6.76,6.76,0,0,0,0-9.55"/><path class="cls-4" d="M61.81,67c2,2.8,6.37,2.23,10.58-.26,7.22-4.27,22.85-13.32,22.85-13.32a7.88,7.88,0,0,1,.47-1.31,8.14,8.14,0,0,1,10.81-3.94l12.13,5.79V56l-13-6.09a6,6,0,0,0-3.34-.53c-.21,0-.4,0-.61.09l-.15,0a6.19,6.19,0,0,0-3.22,2,6.49,6.49,0,0,0-.91,1.4A6,6,0,0,0,97,54.61a6.18,6.18,0,0,0,3.51,6.49L119,69.75c1.84.86,4.14.17,6.73-.28s12.74-2.07,12.74-2.07a1.26,1.26,0,0,0,1-1.18V42.77a1,1,0,0,0-1-1h-9.14a11.85,11.85,0,0,1-2-.12,13.34,13.34,0,0,1-1.41-.48L102.29,32A6.15,6.15,0,0,0,99.16,32a4.73,4.73,0,0,0-1.41.54c-7.38,4.61-30.14,22.35-32.63,24.3C59.38,61.27,60,64.41,61.81,67m12,1.18a5.44,5.44,0,0,0,5.25.6l17.41-8.55A8.21,8.21,0,0,1,95,55.81Z"/></g></svg>