<svg id="Layer_1" data-name="Layer 1" xmlns="http://www.w3.org/2000/svg" viewBox="0 0 200 200"><defs><style>.cls-1{fill:#faba20;}.cls-2{fill:#1d1d1b;}.cls-3{fill:#3a3531;}</style></defs><title>radar</title><path class="cls-1" d="M52.53,76.7a60.35,60.35,0,0,1-6.46-15.55c-1.71-6.07,2-9.65,8.32-8.57A33.21,33.21,0,0,1,62.31,55C74.59,60.58,85,68.8,95.4,78.13c-4.18,3.31-8.12,6.46-12.08,9.59s-4.62,5.21-2,9.55a26.83,26.83,0,0,0,6.15,7.14c5.43,4.36,8.88,3.76,13.18-1.62,2.83-3.54,5.69-7.06,8.74-10.83,9.35,10.54,18,21.09,23.36,33.91a27.24,27.24,0,0,1,2,7.56c.55,5.24-2.76,8.56-7.85,7.18-5.68-1.54-11.52-3.45-16.48-6.5A176.64,176.64,0,0,1,52.53,76.7m21.84,74c.41,5.14.76,9.65,1.16,14.71-6.23-8.92-6.36-10.08-1.16-14.71M59.06,133.16l.46-.41L69.36,141l-4.14,4.75-6.16-12.56M44.57,184.07l17.79-20.29,10,20.29Zm6-44.25c2.53,5.05,4.63,9,6.48,13.13a3.4,3.4,0,0,1-.68,2.89,119.1,119.1,0,0,1-12.45,13.07c2.14-9.33,4.26-18.66,6.65-29.09m96.17,44.54H87.75c-.86-11.4-1.68-22.21-2.51-33.24,5.78,1.89,10.93,3.94,16.28,5.24,10.46,2.57,20.94,2.9,30.93-2.05,11.07-5.48,15.06-12.71,11.39-24.36a127.54,127.54,0,0,0-12-25.75c-4.37-7.42-10.24-14-15.56-21,2.37-3,4.87-6,7.13-9.09,1.53-2.13,3.21-2.81,5.93-2.64a14.15,14.15,0,0,0,15.34-14.35c-.11-8.29-7.23-14.57-15.81-13.93-8.14.59-13.79,7.79-12.92,16.22a4.52,4.52,0,0,1-1.16,3.45c-3.43,3-7.1,5.7-10.61,8.46-6.38-4.9-12.36-9.82-18.7-14.25C76.38,50.65,66.69,45.28,55.6,42.91c-10-2.14-15.74.19-21.28,8.75-4.3,6.63-5.68,14-5.25,21.76.8,14.29,5.94,27.13,13.73,39a8.4,8.4,0,0,1,1.34,7.31C41.59,130,39.38,140.43,37,150.79c-2.55,11.12-5.14,22.22-7.76,33.57H17l.1,10.63s88.89,0,129.58,0Z"/><path class="cls-2" d="M130.87,34.56a22.19,22.19,0,0,1,22.35,22.2h4.93A27,27,0,0,0,156,46.21a27.3,27.3,0,0,0-17-15.32,27.54,27.54,0,0,0-8.11-1.22Z"/><path class="cls-2" d="M130.87,22.28a34.74,34.74,0,0,1,28.79,15.21,34,34,0,0,1,5.92,19.27h4.93a38.94,38.94,0,0,0-3.12-15.32,39.7,39.7,0,0,0-36.52-24Z"/><path class="cls-3" d="M130.87,9.89A47.21,47.21,0,0,1,170,30.56a46.55,46.55,0,0,1,8.06,26.2H183a51.45,51.45,0,0,0-4.09-20.15A52.17,52.17,0,0,0,130.87,5Z"/></svg>