<svg xmlns="http://www.w3.org/2000/svg" viewBox="0 0 200 200"><defs><style>.cls-1{fill:#faba20;}.cls-2{fill:#3a3531;}</style></defs><title>ultra_violet@2x</title><g id="Layer_1" data-name="Layer 1"><path class="cls-1" d="M131.84,135.78a32.69,32.69,0,0,0,0-13.17L148,129.19Zm-7.58,15a32.35,32.35,0,0,0,6.6-11.42l10.7,13.79Zm-14.05,9.23a32.2,32.2,0,0,0,11.41-6.59l2.38,17.3ZM100,177.18,93.41,161a32.74,32.74,0,0,0,13.18,0Zm-24-6.42,2.38-17.3a32.71,32.71,0,0,0,11.41,6.6ZM58.44,153.19l10.7-13.79a32.51,32.51,0,0,0,6.6,11.42Zm-6.43-24,16.16-6.58a32.69,32.69,0,0,0,0,13.17Zm72.25-21.62,17.3-2.37L130.87,119a32.68,32.68,0,0,0-6.61-11.42m-14.05-9.23L124,87.63l-2.38,17.3a32.35,32.35,0,0,0-11.41-6.59m-16.8-1L100,81.2l6.59,16.16a32.74,32.74,0,0,0-13.18,0M76,87.63,89.79,98.34a32.38,32.38,0,0,0-11.41,6.59ZM69.14,119,58.43,105.2l17.3,2.37A32.73,32.73,0,0,0,69.14,119M100,102.26a26.93,26.93,0,1,1-26.93,26.93A26.93,26.93,0,0,1,100,102.26m70.79-73.85L100,5,29.23,28.41l-3.18,91.08a55.75,55.75,0,0,0,29.18,51.13L100,195l44.77-24.38A55.71,55.71,0,0,0,174,119.49Z"/></g><g id="Isolation_Mode" data-name="Isolation Mode"><path class="cls-2" d="M54.36,32.22h9.83V54.15c0,7.27,2.62,10.74,10,10.74,7.26,0,10-3.47,10-10.74V32.22h9.83v22c0,12.16-6.41,19.37-19.82,19.37S54.36,66.46,54.36,54.2Z"/><polygon class="cls-2" points="109.99 32.21 120.99 56.67 122.4 60.76 122.5 60.76 123.81 56.67 134.85 32.21 145.65 32.21 126.59 73.07 118.16 73.07 99.09 32.21 109.99 32.21"/></g></svg>