<svg id="Layer_1" data-name="Layer 1" xmlns="http://www.w3.org/2000/svg" viewBox="0 0 200 200"><defs><style>.cls-1{fill:#faba20;}.cls-2{fill:#3a3531;}</style></defs><title>visual</title><path class="cls-1" d="M125.78,128.7c-.6-.76-5.83-7.73-5.83-7.73a42.86,42.86,0,0,1-20,4.91,43.37,43.37,0,1,1,34-16.62s7.57,10.22,8.05,10.88-15.63,9.31-16.24,8.56m66.93-49.14a173.14,173.14,0,0,0-26.84-26.34A140.34,140.34,0,0,0,136.58,35c-12.41-5.56-24.69-8.38-36.58-8.38S75.82,29.47,63.42,35A140.34,140.34,0,0,0,34.13,53.22,173.14,173.14,0,0,0,7.29,79.56L5,82.47l2.29,2.9a172.52,172.52,0,0,0,26.84,26.37A140.16,140.16,0,0,0,63.42,129.9c12.4,5.59,24.69,8.41,36.58,8.41s24.17-2.82,36.58-8.41a140.16,140.16,0,0,0,29.29-18.16,172.52,172.52,0,0,0,26.84-26.37l2.29-2.9Z"/><path class="cls-1" d="M149.53,129.94c.5.63-16.08,9-16.36,8.61.38.62,24,31.22,24,31.22a9.08,9.08,0,0,0,12.77,1.69,9.18,9.18,0,0,0,1.69-12.83s-21.16-27.51-22.08-28.69"/><path class="cls-2" d="M124.79,68.54A28.44,28.44,0,0,0,87.07,57.15a1.23,1.23,0,0,0-.34,1.16c1,1.94,2,3.84,3.13,5.73,2.82,5,9.71,17.31,9.71,17.31s-2.91-1.83-3.72-2.28-1.35-.81-2-1.23L76.32,66.62a30.6,30.6,0,0,0-3.92,8.86,28.45,28.45,0,0,0,21,34.64,27.05,27.05,0,0,0,18.27-1.71,27.76,27.76,0,0,0,16-19.21,27.1,27.1,0,0,0-2.81-20.66"/></svg>