<svg viewBox="0 0 144.01 45.86" xmlns="http://www.w3.org/2000/svg"><path d="m22.93 45.86a22.93 22.93 0 1 0 -22.93-22.93 22.93 22.93 0 0 0 22.93 22.93" fill="#dfe4e8"/><path d="m22.93 1a22 22 0 1 0 22 22 22 22 0 0 0 -22-22" fill="#002856"/><path d="m39.65 24.32a17.36 17.36 0 0 0 -5-8.42 17.05 17.05 0 0 0 -11.65-4.69 17.33 17.33 0 0 0 -11.9 4.62 16.91 16.91 0 0 0 -4.89 8.33v-5.16a16.72 16.72 0 1 1 33.44 0zm-32.59-1.32a16.35 16.35 0 0 1 4.39-6.83 16.85 16.85 0 0 1 11.55-4.54 16.66 16.66 0 0 1 11.41 4.56 17 17 0 0 1 4.41 6.75 16.8 16.8 0 0 1 -31.76.06m27.69 15.72a16.71 16.71 0 0 1 -28.53-11.5 16 16 0 0 1 .58-3.53 17.27 17.27 0 0 0 32.2 0 16.73 16.73 0 0 1 .64 3.47 16.61 16.61 0 0 1 -4.89 11.59m.33-31.94a17.18 17.18 0 0 0 -29.33 12.19v8.27a17.18 17.18 0 0 0 34.35 0v-8.27a17.15 17.15 0 0 0 -5-12.18" fill="#dfe4e8"/><path d="m24.72 8.13a11.68 11.68 0 0 1 1.57.23s-.7-2.13-.7-2.13zm5.35 0s.7.3 1.17.52a1.16 1.16 0 0 0 .49.18.26.26 0 0 0 .27-.23c.05-.46-.48-.67-.66-.77-.51-.25-.67-.32-1.18-.54 0 0-.07.81-.07.81m-.19 1.9a15.43 15.43 0 0 1 1.68.8s.41.31.61 0 .05-.61-.63-1a15.19 15.19 0 0 0 -1.56-.66zm-10.34-1.64c.36-.08 1-.17 1.58-.23 0 0-.87-1.9-.87-1.9zm-.5-3a15.72 15.72 0 0 1 2.17-.36l1.7 3.47 1.69-3.47a19 19 0 0 1 2.18.33l1.55 4.54.34-4a16.48 16.48 0 0 1 3.44 1.43c1.12.61 1.31 1.29 1.23 2 0 0-.1.71-.94.41a2.17 2.17 0 0 1 1.13 2.22c-.12.52-.64.79-1.42.34a17.91 17.91 0 0 0 -2.4-1.18 15.87 15.87 0 0 0 -2.81-.83l-.33-1a20.63 20.63 0 0 0 -2.26-.26l-.39.85c-.56 0-1.44 0-2 0l-.42-.85a21 21 0 0 0 -2.26.29l-.33 1c-.53.11-1.07.24-1.71.43l.1-.3a10.18 10.18 0 0 1 -1.94 1.22c-.68.33-2.54 1.27-3 .36a1.31 1.31 0 0 1 -.13-.65c.55-.36 1.34-.77 1.91-1.08 0 0-.28 1.14.87.53a2.06 2.06 0 0 0 1-.93c.27-.75-.55-.61-.86-.51-.53.15-2.47.81-2.47-.5 0-.93 1.25-1.89 2.6-2.44 2-.83 2.72-.08 2.66.55-.82.23-1 .3-1.68.53 0-.24-.16-.59-1-.24s-1 .74-.93 1.09 1.46 0 1.79-.1c1.83-.39 1.59.84 1.58.87s1.3-3.74 1.31-3.74" fill="#e0b347"/><path d="m14.53 22.57a2.79 2.79 0 0 0 1.49.37c1.11-.16 1.44-.6 2.46-.3a2.08 2.08 0 0 1 .82.51 2.41 2.41 0 0 0 -.55-.11c-1.08-.06-1.95.77-3 .5a1.71 1.71 0 0 1 -1.21-1" fill="#dfe4e8"/><path d="m20 20.86c-.26-.16-.45-.65-.14-.9s.88.16.39.68a.48.48 0 0 0 .73-.33h.16c-.06.32-.51 1-1.14.56m.53 1.86c-.35.3-1.12 2-3.09 1a2.1 2.1 0 0 0 .41 1.27 1.62 1.62 0 0 0 1.47.55c-.6.57-.2 1.42-.15 2.69a2.37 2.37 0 0 1 1-1 5.39 5.39 0 0 0 -.66 1.76c-.05 1 .94 1.79 1.8 3.05a23.89 23.89 0 0 1 .46-2.88 15 15 0 0 1 .39 4c1.48-1.17 3.19-1.17 2.44-4.29a6.58 6.58 0 0 1 1 2.35c.7-1.14 2.34-1.86 1.08-4.87a6.93 6.93 0 0 1 1.21 1.9c.2-1.44 1-3.64-.77-5.29a2.8 2.8 0 0 1 1.33 1c0-1.29.82-2-1-4.25a5.16 5.16 0 0 0 .68-1.89 6.31 6.31 0 0 0 -2.09.53.59.59 0 0 0 -.48-.33h-5.24c-.37 0-.7.49-.91 1.42a2.18 2.18 0 0 0 -.41-.23 2 2 0 0 0 -2.57 1.11 4.17 4.17 0 0 0 -.05 1.76s1.63-1.22 2.43.2" fill="#dfe4e8"/><path d="m25.53 17.7a.55.55 0 0 1 .32.12l2.06-4.47c-2.22 0-1.43 1.48-1.39 1.57s-.11 0-.11 0a.78.78 0 0 0 -.53-.21.77.77 0 1 0 0 1.53.58.58 0 0 0 .19 0 1.67 1.67 0 0 1 -2.7-.42c-.09-.14.13.16.48.16a.77.77 0 0 0 0-1.53.72.72 0 0 0 -.44.14.74.74 0 0 0 .29-.6.77.77 0 0 0 -.77-.77.77.77 0 0 0 -.76.77.76.76 0 0 0 .29.6.79.79 0 0 0 -.44-.13.77.77 0 1 0 -.02 1.54c.35 0 .57-.3.48-.16a1.68 1.68 0 0 1 -2.71.42h.2a.77.77 0 1 0 -.52-1.26s-.15 0-.11-.05.83-1.56-1.39-1.56l2.05 4.43a.55.55 0 0 1 .32-.12z" fill="#e0b347"/><path d="m28 22.73c.12-.48.07-1.16-1-2.28a10 10 0 0 1 -1.07 1c.13 1.37.18 3.47-1 4.56a4.38 4.38 0 0 0 -.49-1.86 4 4 0 0 1 -1.71 3.22 8.53 8.53 0 0 0 .12-2.37 2.07 2.07 0 0 1 -1.29 1.33l-.28-1.54s.55-.39.55-.41.18.88.18.88c.59-.55.12-1.44.68-1.64.29-.09.45.13.54.32a3.23 3.23 0 0 1 .27 1.56 4.56 4.56 0 0 0 .24-2.5.43.43 0 0 1 .29-.53.48.48 0 0 1 .49.22 4.1 4.1 0 0 1 .71 1.51 4.7 4.7 0 0 0 0-2.63c0-.15-.09-.31-.09-.31a6.87 6.87 0 0 0 2-2.47 14.17 14.17 0 0 0 -2.64 1.21l-.3-.32 1.16-.9c.07-.06.1-.14-.11-.15h-4.25c-.41 0-.81.13-.81.81l.53.45a1.48 1.48 0 0 1 1.28.21l-.09.36s-.27-.19-.41-.08c-.35.91-.94 1-1.43.86s-.61-.85-.69-1.18c-.92-.53-2.35-.62-2.46 1a1.78 1.78 0 0 1 2.25.65l2.55.73c-.87.65-2 2.71-3.47 2 1 1.08 2.1-.27 2.46.29s-1.31.76-1 2.29c.25-.25.75-.78 1.09-.47a.4.4 0 0 1 0 .52c-.73 1.53-1 2.24.14 3.45.25-1.87.36-2.38.85-2.39.72 0 1 3.14 1 3.92 1.43-.93 1.65-1.1 1.19-3.39-.09-.41 0-.65.25-.76a.58.58 0 0 1 .68.29 7.25 7.25 0 0 1 .87 1.81c.37-.61 1.33-1 .28-3.57-.17-.31-.14-.58.1-.72.52-.36 1.22.52 1.47.94-.05-.9.39-2-1-3.44-.23-.27-.23-.48 0-.66s1 0 1.41.19" fill="#d51224"/><g fill="#dfe4e8"><path d="m21.54 21.86c.75-.14.62.53 1.48.7-.72.27-1.05-.58-1.48-.7"/><path d="m26.15 19.59a2.16 2.16 0 0 1 -1.25 1 1.88 1.88 0 0 1 1.25-1"/><path d="m10.77 32.18a3 3 0 0 1 -.45-.43v-.75a12.71 12.71 0 0 0 1.42 1.25v.75c-.18-.13-.35-.28-.52-.41v4.27l-.45-.37z"/><path d="m12.09 32.55a11.85 11.85 0 0 0 1.27.84v.68a7.46 7.46 0 0 1 -.82-.51v1.31c.3.2.54.35.75.47v.58a8.22 8.22 0 0 1 -.75-.47v1.69l.88.54v.72c-.67-.42-.75-.47-1.35-.89v-5"/><path d="m15.39 39.18c-1.35.74-2.13-2.32-1.46-4.65.12-.44.52-1 1.4 0v.63c-.7-1-1-.7-1.07.88 0 2.82.6 2.78 1.13 2.42z"/><path d="m15.82 34.64a4.79 4.79 0 0 0 .55.22v2.14a5 5 0 0 0 .78.22v-2.09a3.72 3.72 0 0 0 .52.16v5l-.52-.16v-2.26l-.79-.25v2.21a5 5 0 0 1 -.55-.23z"/><path d="m18.43 35.5.47.12c.29.94.66 2.34 1 3.28v-3.1l.53.09v5c-.15 0-.25 0-.41-.06-.29-1-.72-2.24-1-3.19v3l-.55-.12v-5"/><path d="m24.06 36c.2 0 .35 0 .57-.06v4.32a7.74 7.74 0 0 0 1.19-.15v.66c-.57.09-1.18.16-1.75.2z"/><path d="m31 38.9c-1.05 1.32-2.26.7-2.17-1.73.06-1.6.82-3.06 2.14-2.74v.67c-1.81-.82-1.69 2.66-1.47 3.39s.63.56 1 .34v-1.47l-.38.17v-.59a8.63 8.63 0 0 0 .92-.43z"/><path d="m31.57 33.84.49-.27v5l-.51.27v-5"/><path d="m32.75 33.17a13.83 13.83 0 0 0 1.28-.9l-.03.73c-.27.2-.51.38-.79.56v1.39a4.64 4.64 0 0 0 .79-.55v.6a6.45 6.45 0 0 1 -.73.51v1.66c.34-.22.58-.4.86-.61v.65a13.38 13.38 0 0 1 -1.35 1z"/><path d="m34.45 36.13c.3.21.82-.36.66-1.05s-.76-1.43-.68-2.36c0 0 .13-1.3 1-1.61v.59c-.58.1-.6.76-.6.79a1.48 1.48 0 0 0 .06.46c.14.35.34.74.49 1.09.63 1.49-.2 2.74-.94 2.73z"/><path d="m22.18 36.58c-.42 0-.64.91-.64 2s.22 1.91.64 1.91.65-.86.65-1.91-.22-2-.65-2m1.17 1.94c0 1.42-.25 2.58-1.17 2.58s-1.18-1.16-1.18-2.58.35-2.52 1.18-2.52 1.17 1.15 1.17 2.57"/><path d="m27.12 36c-.42 0-.64.9-.64 2s.22 1.9.64 1.9.65-.85.65-1.9-.22-2-.65-2m1.17 1.92c0 1.41-.25 2.56-1.17 2.56s-1.12-1.15-1.12-2.56.34-2.55 1.17-2.55 1.17 1.15 1.17 2.55"/><path d="m134.44 28.92h-7.28v-4.13h7.28c1.43 0 2.4.69 2.4 2a2.11 2.11 0 0 1 -2.4 2.11m-7.28-11.56h6.74c1.46 0 2.08.8 2.08 1.71s-.62 1.74-2.08 1.74h-6.74zm-21.43 8.43 2.82-7.69 2.82 7.69zm-21.3 0 2.82-7.69h.06l2.82 7.69zm56-3.65v-.05a4.3 4.3 0 0 0 2.57-4.07c0-2-.86-5-5.78-5h-16.84v17.7l-7.62-17.7h-8.29l-6.53 15-6.47-15h-8.29l-6.76 15.56a7 7 0 0 0 .18-1.56c0-3.58-2.28-5.12-6.07-5.78-2-.34-7.2-1.11-8.91-1.39-1-.17-1.51-.57-1.51-1.25 0-1.34 1.26-2 3.53-2 3.11 0 4.22 1 4.42 2.37h7.68c-.42-4.81-4.87-6.58-12.24-6.58-8.91 0-10.56 3.79-10.56 6.46 0 3 1.62 5.13 5.81 5.75l6.77 1c2.37.37 3.22.74 3.22 1.82 0 1.74-1.85 2.14-3.56 2.14-3.53 0-4.38-1-4.56-2.51h-8c.38 5.68 5.38 6.9 12.25 6.9 2.23 0 8.39 0 10.77-3.58l-1.28 3h7.26l1.22-3.35h8.88l1.28 3.31h10l1.13-3.31h8.87l1.22 3.31h22.4c6.23 0 7.37-3.65 7.37-6.07 0-2.88-1.39-4.61-3.53-5.1"/></g></svg>