<svg id="text" xmlns="http://www.w3.org/2000/svg" width="800" height="550" viewBox="0 0 800 550"><defs><style>.cls-1{fill:none;stroke:#fbbb21;stroke-width:0.5px;}.cls-2{fill:#fbbb21;}.cls-3{fill:#3a3531;}</style></defs><title>consumables_and_dangerous_goods_shadow</title><line class="cls-1" x1="544.11" y1="145.88" x2="544.11" y2="254.18"/><path class="cls-2" d="M543.17,254.18a.94.94,0,1,0,.94-.94A.94.94,0,0,0,543.17,254.18Z"/><path class="cls-3" d="M455.87,129.32a2.59,2.59,0,0,0,1,1.74,4.33,4.33,0,0,0,2.37.53,4.21,4.21,0,0,0,1.34-.18,2.23,2.23,0,0,0,.85-.48,1.69,1.69,0,0,0,.45-.7,2.71,2.71,0,0,0,.13-.86,3.22,3.22,0,0,0-.08-.71,1.51,1.51,0,0,0-.31-.62,2.12,2.12,0,0,0-.67-.49,4.8,4.8,0,0,0-1.14-.32l-1.34-.23a9.08,9.08,0,0,1-1.39-.35,3.29,3.29,0,0,1-1-.54,2.25,2.25,0,0,1-.64-.85,3.29,3.29,0,0,1-.22-1.25,2.57,2.57,0,0,1,.31-1.27,2.69,2.69,0,0,1,.82-.89,3.76,3.76,0,0,1,1.22-.53,6.45,6.45,0,0,1,1.48-.17,5.39,5.39,0,0,1,1.68.22,3.41,3.41,0,0,1,1.11.57,2.85,2.85,0,0,1,.67.82,5.2,5.2,0,0,1,.38.93l-.84.23a5.75,5.75,0,0,0-.35-.83,2.14,2.14,0,0,0-.54-.62,2.47,2.47,0,0,0-.85-.39,5,5,0,0,0-1.25-.14,5.34,5.34,0,0,0-1.38.16,2.52,2.52,0,0,0-.9.44,1.51,1.51,0,0,0-.49.66,2.2,2.2,0,0,0-.15.81,2.55,2.55,0,0,0,.1.78,1.21,1.21,0,0,0,.36.57,2.07,2.07,0,0,0,.69.41,5.29,5.29,0,0,0,1.07.28l1.51.27a7.94,7.94,0,0,1,1.4.39,3.4,3.4,0,0,1,1,.61,2.37,2.37,0,0,1,.58.88,3.61,3.61,0,0,1,.18,1.2,2.83,2.83,0,0,1-.24,1.16,2.45,2.45,0,0,1-.71.95,3.61,3.61,0,0,1-1.18.65,5.12,5.12,0,0,1-1.65.24,7.43,7.43,0,0,1-1.61-.17,3.6,3.6,0,0,1-1.3-.53,2.91,2.91,0,0,1-.93-.95,3.35,3.35,0,0,1-.45-1.43Z"/><path class="cls-3" d="M465.55,125.13h-1.2v-.73h1.2v-2.13h.87v2.13h2.19v.73h-2.19v5.05a1.86,1.86,0,0,0,.24,1,.91.91,0,0,0,.84.39,3.1,3.1,0,0,0,.66-.06,4.09,4.09,0,0,0,.48-.13l.18.7a3.64,3.64,0,0,1-.55.17,4,4,0,0,1-.85.07,2,2,0,0,1-1-.22,1.44,1.44,0,0,1-.56-.59,2.28,2.28,0,0,1-.24-.85c0-.32,0-.65,0-1Z"/><path class="cls-3" d="M473.14,132.37a4.09,4.09,0,0,1-1.53-.28,3.07,3.07,0,0,1-1.12-.82,4,4,0,0,1-.71-1.29,5.5,5.5,0,0,1-.24-1.68,5.16,5.16,0,0,1,.26-1.71,3.92,3.92,0,0,1,.73-1.3,3.17,3.17,0,0,1,1.15-.83,3.71,3.71,0,0,1,1.52-.29,3.83,3.83,0,0,1,1.51.28,3,3,0,0,1,1.14.82,3.71,3.71,0,0,1,.72,1.28,5.46,5.46,0,0,1,.24,1.66,5.35,5.35,0,0,1-.25,1.71,3.76,3.76,0,0,1-.73,1.32,3.23,3.23,0,0,1-1.15.84A4,4,0,0,1,473.14,132.37Zm0-.75a2.74,2.74,0,0,0,1.24-.26,2.53,2.53,0,0,0,.84-.71,3.07,3.07,0,0,0,.48-1.07,5.58,5.58,0,0,0,.15-1.33,5.39,5.39,0,0,0-.15-1.3,2.94,2.94,0,0,0-.48-1.06,2.31,2.31,0,0,0-.84-.71,2.61,2.61,0,0,0-1.24-.26,2.64,2.64,0,0,0-1.24.26,2.24,2.24,0,0,0-.84.71,2.93,2.93,0,0,0-.47,1.06,5.41,5.41,0,0,0-.15,1.31,5.56,5.56,0,0,0,.15,1.32,3.06,3.06,0,0,0,.47,1.07,2.43,2.43,0,0,0,.84.71A2.77,2.77,0,0,0,473.17,131.62Z"/><path class="cls-3" d="M478.67,124.4h.87v1.27a3.44,3.44,0,0,1,1.07-1,2.34,2.34,0,0,1,1.27-.37h.31l.31,0-.11.82a4.6,4.6,0,0,0-.49,0,2.54,2.54,0,0,0-.8.14,2.19,2.19,0,0,0-.76.49,2.44,2.44,0,0,0-.57.73,2.12,2.12,0,0,0-.23,1v4.65h-.87Z"/><path class="cls-3" d="M488.51,131a4.08,4.08,0,0,1-.46.48,3.51,3.51,0,0,1-.62.41,4.17,4.17,0,0,1-.75.29,4.3,4.3,0,0,1-.91.1,3.1,3.1,0,0,1-1.95-.58,2.11,2.11,0,0,1-.74-1.75,2.24,2.24,0,0,1,.33-1.27,2.37,2.37,0,0,1,.88-.78,4.2,4.2,0,0,1,1.24-.4,13.44,13.44,0,0,1,1.45-.14l1.5-.06v-.24a2.61,2.61,0,0,0-.44-1.67,2,2,0,0,0-1.58-.52,4.16,4.16,0,0,0-.94.09,2.09,2.09,0,0,0-.64.26,1.42,1.42,0,0,0-.4.41,1.69,1.69,0,0,0-.23.51l-.79-.12c.28-1.26,1.29-1.88,3-1.88a4.13,4.13,0,0,1,1.36.19,2.16,2.16,0,0,1,.89.56,2.19,2.19,0,0,1,.49.9,4.58,4.58,0,0,1,.15,1.22v5.09h-.87Zm0-3-1.43.06a7.79,7.79,0,0,0-1.45.16,2.69,2.69,0,0,0-.95.36,1.35,1.35,0,0,0-.52.57,1.94,1.94,0,0,0-.15.8,1.6,1.6,0,0,0,.39,1.13,1.84,1.84,0,0,0,1.39.43,4.77,4.77,0,0,0,1-.11,2,2,0,0,0,.8-.37,3.55,3.55,0,0,0,.44-.38,1.75,1.75,0,0,0,.28-.39,1.57,1.57,0,0,0,.16-.49,3.83,3.83,0,0,0,.05-.63Z"/><path class="cls-3" d="M492.31,133a1.71,1.71,0,0,0,.72,1.13,3,3,0,0,0,1.69.37,2.53,2.53,0,0,0,1.88-.62,3,3,0,0,0,.6-2.1V130.6a3.41,3.41,0,0,1-1.14,1,3,3,0,0,1-1.55.37,3.26,3.26,0,0,1-1.48-.32,2.94,2.94,0,0,1-1-.87,3.71,3.71,0,0,1-.6-1.23,5.39,5.39,0,0,1-.19-1.45,5.33,5.33,0,0,1,.24-1.64,3.7,3.7,0,0,1,.69-1.25,3.12,3.12,0,0,1,1.09-.8,3.59,3.59,0,0,1,1.46-.28,3.4,3.4,0,0,1,1.3.27,3,3,0,0,1,1.22,1V124.4h.87v7.44a3.57,3.57,0,0,1-.8,2.46,3.24,3.24,0,0,1-2.53.91,5.8,5.8,0,0,1-1.22-.12,3.31,3.31,0,0,1-1-.39,2.07,2.07,0,0,1-.69-.69,2.46,2.46,0,0,1-.35-1Zm4.92-5a7.9,7.9,0,0,0-.05-.91,2.51,2.51,0,0,0-.19-.67,1.82,1.82,0,0,0-.32-.52,3.24,3.24,0,0,0-.46-.44,3.68,3.68,0,0,0-.72-.39,2.76,2.76,0,0,0-.8-.11,3,3,0,0,0-1,.17,2,2,0,0,0-.81.58,2.68,2.68,0,0,0-.54,1,4.86,4.86,0,0,0-.19,1.47,4.16,4.16,0,0,0,.22,1.46,2.8,2.8,0,0,0,.56,1,2.12,2.12,0,0,0,.78.53,2.46,2.46,0,0,0,.88.17,2.9,2.9,0,0,0,.84-.11,2.74,2.74,0,0,0,.74-.38,2.49,2.49,0,0,0,.8-1,3.75,3.75,0,0,0,.28-1.52Z"/><path class="cls-3" d="M506.62,130.11a2.64,2.64,0,0,1-1,1.63,3.45,3.45,0,0,1-2.22.63,3.24,3.24,0,0,1-2.59-1.07,4.36,4.36,0,0,1-.92-3,5.79,5.79,0,0,1,.26-1.8,3.56,3.56,0,0,1,.74-1.31,2.86,2.86,0,0,1,1.1-.8,3.44,3.44,0,0,1,1.41-.27,3.54,3.54,0,0,1,1.53.29,2.81,2.81,0,0,1,1,.79,3.29,3.29,0,0,1,.57,1.19,5.91,5.91,0,0,1,.18,1.49v.55h-5.94a4.48,4.48,0,0,0,.17,1.24,3,3,0,0,0,.49,1,2.36,2.36,0,0,0,.83.67,2.45,2.45,0,0,0,1.14.25,4,4,0,0,0,1-.11,1.83,1.83,0,0,0,.67-.33,1.51,1.51,0,0,0,.43-.48,2.87,2.87,0,0,0,.25-.62Zm-.77-2.38a4.6,4.6,0,0,0-.13-1.15,2.63,2.63,0,0,0-.42-.91,1.92,1.92,0,0,0-.75-.59,2.68,2.68,0,0,0-1.11-.21,2.41,2.41,0,0,0-1.8.7,3.54,3.54,0,0,0-.81,2.16Z"/><path class="cls-3" d="M512,121.42h.87v10.71H512Z"/><path class="cls-3" d="M518.33,132.37a4,4,0,0,1-1.52-.28,3,3,0,0,1-1.12-.82A3.67,3.67,0,0,1,515,130a5.2,5.2,0,0,1-.25-1.68,5.43,5.43,0,0,1,.26-1.71,3.94,3.94,0,0,1,.74-1.3,3.09,3.09,0,0,1,1.15-.83,3.67,3.67,0,0,1,1.51-.29,3.88,3.88,0,0,1,1.52.28,3,3,0,0,1,1.14.82,3.54,3.54,0,0,1,.71,1.28,5.16,5.16,0,0,1,.25,1.66,5.34,5.34,0,0,1-.26,1.71,3.76,3.76,0,0,1-.73,1.32,3.23,3.23,0,0,1-1.15.84A4,4,0,0,1,518.33,132.37Zm0-.75a2.78,2.78,0,0,0,1.25-.26,2.53,2.53,0,0,0,.84-.71,3.07,3.07,0,0,0,.48-1.07,5.58,5.58,0,0,0,.15-1.33,5.39,5.39,0,0,0-.15-1.3,2.94,2.94,0,0,0-.48-1.06,2.31,2.31,0,0,0-.84-.71,3.11,3.11,0,0,0-2.49,0,2.31,2.31,0,0,0-.84.71,3.11,3.11,0,0,0-.47,1.06,5.41,5.41,0,0,0-.15,1.31,5.56,5.56,0,0,0,.15,1.32,3.25,3.25,0,0,0,.47,1.07,2.53,2.53,0,0,0,.84.71A2.8,2.8,0,0,0,518.36,131.62Z"/><path class="cls-3" d="M530.41,129.61a3.39,3.39,0,0,1-1,2,3.14,3.14,0,0,1-2.2.73,3.75,3.75,0,0,1-1.5-.28,2.8,2.8,0,0,1-1.11-.81,3.66,3.66,0,0,1-.69-1.28,5.54,5.54,0,0,1-.24-1.7,5.43,5.43,0,0,1,.25-1.71,3.9,3.9,0,0,1,.72-1.3,3.1,3.1,0,0,1,1.13-.83,3.67,3.67,0,0,1,1.51-.29,3,3,0,0,1,2,.65,3.13,3.13,0,0,1,1,1.83l-.84.21a3.66,3.66,0,0,0-.25-.77,2,2,0,0,0-.42-.62,2.07,2.07,0,0,0-.64-.41,2.52,2.52,0,0,0-.91-.14,2.6,2.6,0,0,0-1.2.25,2.31,2.31,0,0,0-.82.7,2.89,2.89,0,0,0-.48,1,5.73,5.73,0,0,0-.15,1.34,5.52,5.52,0,0,0,.15,1.33,3.15,3.15,0,0,0,.46,1.07,2.15,2.15,0,0,0,.82.7,2.52,2.52,0,0,0,1.21.26,2.15,2.15,0,0,0,1.64-.55,2.9,2.9,0,0,0,.7-1.46Z"/><path class="cls-3" d="M532.18,121.42h.87V128l4-3.6h1.08L535.37,127l3.08,5.17H537.4l-2.7-4.63L533.05,129v3.15h-.87Z"/><path class="cls-3" d="M545.65,130.11a2.64,2.64,0,0,1-1,1.63,3.45,3.45,0,0,1-2.22.63,3.24,3.24,0,0,1-2.59-1.07,4.36,4.36,0,0,1-.92-3,5.51,5.51,0,0,1,.26-1.8,3.69,3.69,0,0,1,.73-1.31,3,3,0,0,1,1.11-.8,3.44,3.44,0,0,1,1.41-.27,3.54,3.54,0,0,1,1.53.29,2.7,2.7,0,0,1,1,.79,3.15,3.15,0,0,1,.58,1.19,5.91,5.91,0,0,1,.18,1.49v.55h-5.94a4.48,4.48,0,0,0,.17,1.24,3,3,0,0,0,.49,1,2.36,2.36,0,0,0,.83.67,2.45,2.45,0,0,0,1.14.25,4,4,0,0,0,1-.11,1.83,1.83,0,0,0,.67-.33,1.63,1.63,0,0,0,.43-.48,2.87,2.87,0,0,0,.25-.62Zm-.77-2.38a4.6,4.6,0,0,0-.13-1.15,2.63,2.63,0,0,0-.42-.91,1.92,1.92,0,0,0-.75-.59,2.68,2.68,0,0,0-1.11-.21,2.41,2.41,0,0,0-1.8.7,3.54,3.54,0,0,0-.81,2.16Z"/><path class="cls-3" d="M547.6,124.4h.87v1.27a3.31,3.31,0,0,1,1.06-1,2.38,2.38,0,0,1,1.28-.37h.3l.31,0-.1.82a4.77,4.77,0,0,0-.5,0,2.48,2.48,0,0,0-.79.14,2.23,2.23,0,0,0-.77.49,2.44,2.44,0,0,0-.57.73,2.12,2.12,0,0,0-.22,1v4.65h-.87Z"/><path class="cls-3" d="M560.92,131a4.21,4.21,0,0,1-.47.48,3.42,3.42,0,0,1-.61.41,3.4,3.4,0,0,1-1.67.39,3.1,3.1,0,0,1-1.95-.58,2.11,2.11,0,0,1-.73-1.75,2.24,2.24,0,0,1,.33-1.27,2.34,2.34,0,0,1,.87-.78,4.27,4.27,0,0,1,1.25-.4,13.2,13.2,0,0,1,1.45-.14l1.5-.06v-.24a2.55,2.55,0,0,0-.45-1.67,2,2,0,0,0-1.58-.52,4.22,4.22,0,0,0-.94.09,2,2,0,0,0-.63.26,1.45,1.45,0,0,0-.41.41,1.68,1.68,0,0,0-.22.51l-.8-.12c.28-1.26,1.29-1.88,3-1.88a4.19,4.19,0,0,1,1.37.19,2.23,2.23,0,0,1,.89.56,2.31,2.31,0,0,1,.49.9,4.58,4.58,0,0,1,.15,1.22v5.09h-.87Zm0-3-1.42.06a7.91,7.91,0,0,0-1.46.16,2.64,2.64,0,0,0-.94.36,1.29,1.29,0,0,0-.52.57,1.78,1.78,0,0,0-.16.8,1.56,1.56,0,0,0,.4,1.13,1.82,1.82,0,0,0,1.39.43,4.67,4.67,0,0,0,1-.11,2,2,0,0,0,.8-.37,2.94,2.94,0,0,0,.44-.38,1.8,1.8,0,0,0,.29-.39,1.88,1.88,0,0,0,.16-.49,3.92,3.92,0,0,0,0-.63Z"/><path class="cls-3" d="M563.87,124.4h.87v1.27a3.91,3.91,0,0,1,1.34-1.15,3.37,3.37,0,0,1,1.53-.35,2.43,2.43,0,0,1,1.95.73,3.11,3.11,0,0,1,.63,2.08v5.15h-.87v-4.9a2.77,2.77,0,0,0-.44-1.75,1.67,1.67,0,0,0-1.38-.54,2.79,2.79,0,0,0-1,.18,2.44,2.44,0,0,0-.91.55,2.72,2.72,0,0,0-.67.8,2.35,2.35,0,0,0-.23,1.13v4.53h-.87Z"/><path class="cls-3" d="M578,131a4.07,4.07,0,0,1-1.14,1,3.09,3.09,0,0,1-1.55.37,3.14,3.14,0,0,1-1.48-.33,3,3,0,0,1-1-.89,3.71,3.71,0,0,1-.61-1.28,6.27,6.27,0,0,1-.19-1.52,4.68,4.68,0,0,1,.92-3.08,3.14,3.14,0,0,1,2.55-1.1,3.21,3.21,0,0,1,1.29.27,3,3,0,0,1,1.23,1v-4h.87v10.71H578Zm0-3a6,6,0,0,0-.06-.91,3,3,0,0,0-.18-.67,1.82,1.82,0,0,0-.32-.52,4,4,0,0,0-.47-.44,3.19,3.19,0,0,0-.72-.39,2.76,2.76,0,0,0-.8-.11,2.8,2.8,0,0,0-1,.18,2,2,0,0,0-.8.59,3,3,0,0,0-.54,1.06,5.81,5.81,0,0,0-.19,1.57,4.77,4.77,0,0,0,.22,1.58,2.74,2.74,0,0,0,.56,1,1.87,1.87,0,0,0,.77.54,2.43,2.43,0,0,0,.87.16,2.55,2.55,0,0,0,1.59-.49,2.74,2.74,0,0,0,.81-1,3.49,3.49,0,0,0,.28-1.5Z"/><path class="cls-3" d="M584.77,130a1.78,1.78,0,0,0,.76,1.28,3.24,3.24,0,0,0,1.71.37,2.31,2.31,0,0,0,1.59-.42,1.33,1.33,0,0,0,.47-1,2.64,2.64,0,0,0-.06-.51,1,1,0,0,0-.24-.43,1.61,1.61,0,0,0-.49-.33,4.09,4.09,0,0,0-.83-.22l-.95-.15a7.13,7.13,0,0,1-1.1-.26,2.91,2.91,0,0,1-.83-.39,1.7,1.7,0,0,1-.51-.62,2.19,2.19,0,0,1-.17-.9,1.94,1.94,0,0,1,.23-.93,2.11,2.11,0,0,1,.61-.69,3.4,3.4,0,0,1,.92-.43,4.27,4.27,0,0,1,1.15-.14,5,5,0,0,1,1.33.15,2.72,2.72,0,0,1,.87.43,2,2,0,0,1,.52.63,3.42,3.42,0,0,1,.3.77l-.8.16a3.13,3.13,0,0,0-.28-.61,1.34,1.34,0,0,0-.39-.43,1.66,1.66,0,0,0-.6-.27,3.84,3.84,0,0,0-.9-.08,3.66,3.66,0,0,0-1,.11,1.71,1.71,0,0,0-.65.31,1,1,0,0,0-.35.44,1.44,1.44,0,0,0-.11.53,1.88,1.88,0,0,0,.06.49.82.82,0,0,0,.24.38,1.56,1.56,0,0,0,.5.28,5,5,0,0,0,.85.21l1.19.2a3.67,3.67,0,0,1,1.81.73,2,2,0,0,1,.6,1.58,1.92,1.92,0,0,1-.19.85,1.86,1.86,0,0,1-.55.7,2.84,2.84,0,0,1-.92.47,4.51,4.51,0,0,1-1.28.17,5.89,5.89,0,0,1-1.3-.14,2.92,2.92,0,0,1-1-.42,2.16,2.16,0,0,1-.71-.73,2.55,2.55,0,0,1-.33-1.1Z"/><path class="cls-3" d="M592,121.42h.87v4.25a3.91,3.91,0,0,1,1.34-1.15,3.37,3.37,0,0,1,1.53-.35,2.43,2.43,0,0,1,2,.73,3.11,3.11,0,0,1,.63,2.08v5.15h-.87v-4.9a2.77,2.77,0,0,0-.44-1.75,1.67,1.67,0,0,0-1.38-.54,2.79,2.79,0,0,0-.95.18,2.44,2.44,0,0,0-.91.55,2.72,2.72,0,0,0-.67.8,2.35,2.35,0,0,0-.23,1.13v4.53H592Z"/><path class="cls-3" d="M606.83,130.11a2.64,2.64,0,0,1-1,1.63,3.45,3.45,0,0,1-2.22.63,3.26,3.26,0,0,1-2.59-1.07,4.41,4.41,0,0,1-.92-3,5.79,5.79,0,0,1,.26-1.8,3.7,3.7,0,0,1,.74-1.31,2.82,2.82,0,0,1,1.11-.8,3.36,3.36,0,0,1,1.4-.27,3.54,3.54,0,0,1,1.53.29,2.81,2.81,0,0,1,1,.79,3.13,3.13,0,0,1,.57,1.19,5.48,5.48,0,0,1,.18,1.49v.55H601a4.48,4.48,0,0,0,.17,1.24,2.81,2.81,0,0,0,.5,1,2.33,2.33,0,0,0,.82.67,2.45,2.45,0,0,0,1.14.25,4,4,0,0,0,1-.11,2,2,0,0,0,.68-.33,1.47,1.47,0,0,0,.42-.48,2.44,2.44,0,0,0,.25-.62Zm-.76-2.38a4.59,4.59,0,0,0-.14-1.15,2.63,2.63,0,0,0-.42-.91,1.92,1.92,0,0,0-.75-.59,2.68,2.68,0,0,0-1.11-.21,2.41,2.41,0,0,0-1.8.7,3.54,3.54,0,0,0-.81,2.16Z"/><path class="cls-3" d="M608.83,121.42h.86v10.71h-.86Z"/><path class="cls-3" d="M610.88,124.4h1l2.63,6.79,2.68-6.79h.95L615,132.13h-1Z"/><path class="cls-3" d="M625.6,130.11a2.71,2.71,0,0,1-1,1.63,3.44,3.44,0,0,1-2.21.63,3.23,3.23,0,0,1-2.59-1.07,4.37,4.37,0,0,1-.93-3,5.5,5.5,0,0,1,.27-1.8,3.69,3.69,0,0,1,.73-1.31,3,3,0,0,1,1.11-.8,3.41,3.41,0,0,1,1.41-.27,3.5,3.5,0,0,1,1.52.29,2.73,2.73,0,0,1,1,.79,3.15,3.15,0,0,1,.58,1.19,5.91,5.91,0,0,1,.18,1.49v.55h-5.94a4.89,4.89,0,0,0,.16,1.24,3,3,0,0,0,.5,1,2.33,2.33,0,0,0,.82.67,2.5,2.5,0,0,0,1.15.25,4,4,0,0,0,1-.11,1.8,1.8,0,0,0,.68-.33,1.63,1.63,0,0,0,.43-.48,3.49,3.49,0,0,0,.25-.62Zm-.77-2.38a4.59,4.59,0,0,0-.14-1.15,2.46,2.46,0,0,0-.42-.91,1.78,1.78,0,0,0-.75-.59,2.63,2.63,0,0,0-1.1-.21,2.43,2.43,0,0,0-1.81.7,3.6,3.6,0,0,0-.81,2.16Z"/><path class="cls-3" d="M628,130a1.78,1.78,0,0,0,.76,1.28,3.3,3.3,0,0,0,1.72.37,2.31,2.31,0,0,0,1.59-.42,1.35,1.35,0,0,0,.46-1,2,2,0,0,0-.06-.51,1.13,1.13,0,0,0-.23-.43,1.67,1.67,0,0,0-.5-.33,3.91,3.91,0,0,0-.83-.22l-.94-.15a7.57,7.57,0,0,1-1.11-.26,2.84,2.84,0,0,1-.82-.39,1.52,1.52,0,0,1-.51-.62,2,2,0,0,1-.18-.9,1.94,1.94,0,0,1,.23-.93,2.11,2.11,0,0,1,.61-.69,3.33,3.33,0,0,1,.93-.43,4.14,4.14,0,0,1,1.14-.14,5,5,0,0,1,1.33.15,2.53,2.53,0,0,1,.87.43,2,2,0,0,1,.53.63,3.94,3.94,0,0,1,.29.77l-.79.16a3.85,3.85,0,0,0-.28-.61,1.5,1.5,0,0,0-.4-.43,1.66,1.66,0,0,0-.6-.27,3.84,3.84,0,0,0-.9-.08,3.59,3.59,0,0,0-1,.11,1.76,1.76,0,0,0-.66.31,1.06,1.06,0,0,0-.35.44,1.44,1.44,0,0,0-.11.53,1.53,1.53,0,0,0,.07.49.69.69,0,0,0,.24.38,1.37,1.37,0,0,0,.5.28,4.77,4.77,0,0,0,.85.21l1.18.2a3.75,3.75,0,0,1,1.82.73,2,2,0,0,1,.59,1.58,2.06,2.06,0,0,1-.18.85,1.89,1.89,0,0,1-.56.7,2.74,2.74,0,0,1-.92.47,4.44,4.44,0,0,1-1.27.17,5.76,5.76,0,0,1-1.3-.14,2.9,2.9,0,0,1-1-.42,2.13,2.13,0,0,1-.7-.73,2.3,2.3,0,0,1-.33-1.1Z"/><line class="cls-1" x1="233.61" y1="165.88" x2="233.61" y2="274.18"/><path class="cls-2" d="M232.67,274.18a.94.94,0,1,0,.94-.94A.94.94,0,0,0,232.67,274.18Z"/><path class="cls-3" d="M146.37,149.32a2.59,2.59,0,0,0,1,1.74,4.33,4.33,0,0,0,2.37.53,4.21,4.21,0,0,0,1.34-.18,2.23,2.23,0,0,0,.85-.48,1.69,1.69,0,0,0,.45-.7,3,3,0,0,0,.05-1.57,1.51,1.51,0,0,0-.31-.62,2.12,2.12,0,0,0-.67-.49,4.8,4.8,0,0,0-1.14-.32L149,147a8.65,8.65,0,0,1-1.38-.35,3.24,3.24,0,0,1-1-.54,2.25,2.25,0,0,1-.64-.85,3.29,3.29,0,0,1-.22-1.25,2.57,2.57,0,0,1,.31-1.27,2.53,2.53,0,0,1,.83-.89,3.71,3.71,0,0,1,1.21-.53,6.45,6.45,0,0,1,1.48-.17,5.39,5.39,0,0,1,1.68.22,3.41,3.41,0,0,1,1.11.57,2.85,2.85,0,0,1,.67.82,5.2,5.2,0,0,1,.38.93l-.84.23a5.75,5.75,0,0,0-.35-.83,2.14,2.14,0,0,0-.54-.62,2.47,2.47,0,0,0-.85-.39,5,5,0,0,0-1.25-.14,5.34,5.34,0,0,0-1.38.16,2.52,2.52,0,0,0-.9.44,1.51,1.51,0,0,0-.49.66,2.2,2.2,0,0,0-.15.81,2.55,2.55,0,0,0,.1.78,1.21,1.21,0,0,0,.36.57,2.07,2.07,0,0,0,.69.41,5.29,5.29,0,0,0,1.07.28l1.51.27a7.94,7.94,0,0,1,1.4.39,3.4,3.4,0,0,1,1,.61,2.37,2.37,0,0,1,.58.88,3.61,3.61,0,0,1,.18,1.2,2.83,2.83,0,0,1-.24,1.16,2.45,2.45,0,0,1-.71.95,3.51,3.51,0,0,1-1.18.65,5.12,5.12,0,0,1-1.65.24,7.43,7.43,0,0,1-1.61-.17,3.6,3.6,0,0,1-1.3-.53,2.91,2.91,0,0,1-.93-.95,3.35,3.35,0,0,1-.45-1.43Z"/><path class="cls-3" d="M156.05,145.13h-1.2v-.73h1.2v-2.13h.87v2.13h2.19v.73h-2.19v5.05a1.86,1.86,0,0,0,.24,1,.91.91,0,0,0,.84.39,3.1,3.1,0,0,0,.66-.06,4.09,4.09,0,0,0,.48-.13l.18.7a3.64,3.64,0,0,1-.55.17,4,4,0,0,1-.85.07,2,2,0,0,1-1-.22,1.44,1.44,0,0,1-.56-.59,2.28,2.28,0,0,1-.24-.85c0-.32,0-.65,0-1Z"/><path class="cls-3" d="M163.64,152.37a4,4,0,0,1-1.52-.28,3,3,0,0,1-1.13-.82,3.65,3.65,0,0,1-.7-1.29,5.2,5.2,0,0,1-.25-1.68,5.43,5.43,0,0,1,.26-1.71,3.77,3.77,0,0,1,.74-1.3,3.06,3.06,0,0,1,1.14-.83,3.71,3.71,0,0,1,1.52-.29,3.83,3.83,0,0,1,1.51.28,3,3,0,0,1,1.14.82,3.71,3.71,0,0,1,.72,1.28,5.46,5.46,0,0,1,.24,1.66,5.35,5.35,0,0,1-.25,1.71,3.76,3.76,0,0,1-.73,1.32,3.27,3.27,0,0,1-1.16.84A3.9,3.9,0,0,1,163.64,152.37Zm0-.75a2.74,2.74,0,0,0,1.24-.26,2.53,2.53,0,0,0,.84-.71,3.07,3.07,0,0,0,.48-1.07,5.58,5.58,0,0,0,.15-1.33,5.39,5.39,0,0,0-.15-1.3,2.94,2.94,0,0,0-.48-1.06,2.31,2.31,0,0,0-.84-.71,2.61,2.61,0,0,0-1.24-.26,2.67,2.67,0,0,0-1.24.26,2.16,2.16,0,0,0-.84.71,3.11,3.11,0,0,0-.47,1.06,5.41,5.41,0,0,0-.15,1.31,5.56,5.56,0,0,0,.15,1.32,3.25,3.25,0,0,0,.47,1.07,2.34,2.34,0,0,0,.84.71A2.8,2.8,0,0,0,163.67,151.62Z"/><path class="cls-3" d="M169.17,144.4H170v1.27a3.44,3.44,0,0,1,1.07-1,2.34,2.34,0,0,1,1.27-.37h.31l.31,0-.11.82a4.6,4.6,0,0,0-.49,0,2.54,2.54,0,0,0-.8.14,2.19,2.19,0,0,0-.76.49,2.44,2.44,0,0,0-.57.73,2.12,2.12,0,0,0-.23,1v4.65h-.87Z"/><path class="cls-3" d="M179,151a4.08,4.08,0,0,1-.46.48,3.51,3.51,0,0,1-.62.41,4,4,0,0,1-.76.29,4.13,4.13,0,0,1-.9.1,3.1,3.1,0,0,1-2-.58,2.11,2.11,0,0,1-.74-1.75,2.24,2.24,0,0,1,.33-1.27,2.29,2.29,0,0,1,.88-.78,4.2,4.2,0,0,1,1.24-.4,13.44,13.44,0,0,1,1.45-.14l1.5-.06v-.24a2.61,2.61,0,0,0-.44-1.67,2,2,0,0,0-1.58-.52,4.16,4.16,0,0,0-.94.09,2,2,0,0,0-.64.26,1.42,1.42,0,0,0-.4.41,1.69,1.69,0,0,0-.23.51l-.79-.12c.28-1.26,1.29-1.88,3-1.88a4.13,4.13,0,0,1,1.36.19,2.16,2.16,0,0,1,.89.56,2.19,2.19,0,0,1,.49.9,4.58,4.58,0,0,1,.15,1.22v5.09H179Zm0-3-1.43.06a7.79,7.79,0,0,0-1.45.16,2.69,2.69,0,0,0-1,.36,1.35,1.35,0,0,0-.52.57,1.94,1.94,0,0,0-.15.8,1.6,1.6,0,0,0,.39,1.13,1.84,1.84,0,0,0,1.39.43,4.6,4.6,0,0,0,1-.11,2,2,0,0,0,.81-.37,3.55,3.55,0,0,0,.44-.38,1.75,1.75,0,0,0,.28-.39,1.57,1.57,0,0,0,.16-.49,3.83,3.83,0,0,0,.05-.63Z"/><path class="cls-3" d="M182.81,153a1.71,1.71,0,0,0,.72,1.13,3,3,0,0,0,1.69.37,2.53,2.53,0,0,0,1.88-.62,3,3,0,0,0,.6-2.1V150.6a3.41,3.41,0,0,1-1.14,1A3,3,0,0,1,185,152a3.26,3.26,0,0,1-1.48-.32,2.94,2.94,0,0,1-1-.87,3.71,3.71,0,0,1-.6-1.23,5.39,5.39,0,0,1-.19-1.45,5.33,5.33,0,0,1,.24-1.64,3.7,3.7,0,0,1,.69-1.25,3.12,3.12,0,0,1,1.09-.8,3.59,3.59,0,0,1,1.46-.28,3.4,3.4,0,0,1,1.3.27,3,3,0,0,1,1.22,1V144.4h.87v7.44a3.53,3.53,0,0,1-.81,2.46,3.2,3.2,0,0,1-2.52.91,6,6,0,0,1-1.23-.12,3.36,3.36,0,0,1-1-.39,2.07,2.07,0,0,1-.69-.69,2.46,2.46,0,0,1-.35-1Zm4.92-5a6,6,0,0,0-.06-.91,2.19,2.19,0,0,0-.18-.67,1.82,1.82,0,0,0-.32-.52,3.24,3.24,0,0,0-.46-.44A3.68,3.68,0,0,0,186,145a2.76,2.76,0,0,0-.8-.11,3,3,0,0,0-1,.17,2,2,0,0,0-.81.58,2.68,2.68,0,0,0-.54,1,4.86,4.86,0,0,0-.19,1.47,4.42,4.42,0,0,0,.21,1.46,3,3,0,0,0,.57,1,2.12,2.12,0,0,0,.78.53,2.46,2.46,0,0,0,.88.17,2.9,2.9,0,0,0,.84-.11,2.74,2.74,0,0,0,.74-.38,2.58,2.58,0,0,0,.8-1,3.75,3.75,0,0,0,.28-1.52Z"/><path class="cls-3" d="M197.12,150.11a2.64,2.64,0,0,1-1,1.63,3.45,3.45,0,0,1-2.22.63,3.24,3.24,0,0,1-2.59-1.07,4.36,4.36,0,0,1-.92-3,5.51,5.51,0,0,1,.26-1.8,3.69,3.69,0,0,1,.73-1.31,2.93,2.93,0,0,1,1.12-.8,3.36,3.36,0,0,1,1.4-.27,3.54,3.54,0,0,1,1.53.29,2.81,2.81,0,0,1,1,.79,3.29,3.29,0,0,1,.57,1.19,5.91,5.91,0,0,1,.18,1.49v.55h-5.94a4.48,4.48,0,0,0,.17,1.24,3,3,0,0,0,.49,1,2.36,2.36,0,0,0,.83.67,2.45,2.45,0,0,0,1.14.25,4,4,0,0,0,1-.11,1.83,1.83,0,0,0,.67-.33,1.63,1.63,0,0,0,.43-.48,2.87,2.87,0,0,0,.25-.62Zm-.77-2.38a4.6,4.6,0,0,0-.13-1.15,2.63,2.63,0,0,0-.42-.91,1.92,1.92,0,0,0-.75-.59,2.68,2.68,0,0,0-1.11-.21,2.41,2.41,0,0,0-1.8.7,3.54,3.54,0,0,0-.81,2.16Z"/><path class="cls-3" d="M202.46,141.42h.87v10.71h-.87Z"/><path class="cls-3" d="M208.83,152.37a4,4,0,0,1-1.52-.28,3.11,3.11,0,0,1-1.13-.82,3.82,3.82,0,0,1-.7-1.29,5.2,5.2,0,0,1-.25-1.68,5.43,5.43,0,0,1,.26-1.71,3.94,3.94,0,0,1,.74-1.3,3.09,3.09,0,0,1,1.15-.83,3.67,3.67,0,0,1,1.51-.29,3.88,3.88,0,0,1,1.52.28,3,3,0,0,1,1.14.82,3.69,3.69,0,0,1,.71,1.28,5.45,5.45,0,0,1,.25,1.66,5.34,5.34,0,0,1-.26,1.71,3.76,3.76,0,0,1-.73,1.32,3.23,3.23,0,0,1-1.15.84A4,4,0,0,1,208.83,152.37Zm0-.75a2.78,2.78,0,0,0,1.25-.26,2.53,2.53,0,0,0,.84-.71,3.07,3.07,0,0,0,.48-1.07,5.58,5.58,0,0,0,.15-1.33,5.39,5.39,0,0,0-.15-1.3,2.94,2.94,0,0,0-.48-1.06,2.31,2.31,0,0,0-.84-.71,3.11,3.11,0,0,0-2.49,0,2.31,2.31,0,0,0-.84.71,3.11,3.11,0,0,0-.47,1.06,5.41,5.41,0,0,0-.15,1.31,5.56,5.56,0,0,0,.15,1.32,3.25,3.25,0,0,0,.47,1.07,2.53,2.53,0,0,0,.84.71A2.8,2.8,0,0,0,208.86,151.62Z"/><path class="cls-3" d="M220.91,149.61a3.39,3.39,0,0,1-1,2,3.14,3.14,0,0,1-2.2.73,3.75,3.75,0,0,1-1.5-.28,2.8,2.8,0,0,1-1.11-.81,3.66,3.66,0,0,1-.69-1.28,5.54,5.54,0,0,1-.24-1.7,5.43,5.43,0,0,1,.25-1.71,3.9,3.9,0,0,1,.72-1.3,3.1,3.1,0,0,1,1.13-.83,3.67,3.67,0,0,1,1.51-.29,3,3,0,0,1,2,.65,3.13,3.13,0,0,1,1,1.83l-.84.21a3.66,3.66,0,0,0-.25-.77,2,2,0,0,0-.42-.62,2.07,2.07,0,0,0-.64-.41,2.52,2.52,0,0,0-.91-.14,2.6,2.6,0,0,0-1.2.25,2.31,2.31,0,0,0-.82.7,2.89,2.89,0,0,0-.48,1,5.73,5.73,0,0,0-.15,1.34,5.52,5.52,0,0,0,.15,1.33,3.15,3.15,0,0,0,.46,1.07,2.15,2.15,0,0,0,.82.7,2.52,2.52,0,0,0,1.21.26,2.15,2.15,0,0,0,1.64-.55,2.9,2.9,0,0,0,.7-1.46Z"/><path class="cls-3" d="M222.68,141.42h.87V148l4-3.6h1.08L225.87,147l3.08,5.17h-1l-2.7-4.63L223.55,149v3.15h-.87Z"/><path class="cls-3" d="M236.15,150.11a2.64,2.64,0,0,1-1,1.63,3.45,3.45,0,0,1-2.22.63,3.24,3.24,0,0,1-2.59-1.07,4.36,4.36,0,0,1-.92-3,5.51,5.51,0,0,1,.26-1.8,3.69,3.69,0,0,1,.73-1.31,3,3,0,0,1,1.11-.8,3.44,3.44,0,0,1,1.41-.27,3.54,3.54,0,0,1,1.53.29,2.7,2.7,0,0,1,1,.79,3.15,3.15,0,0,1,.58,1.19,5.91,5.91,0,0,1,.18,1.49v.55h-5.94a4.48,4.48,0,0,0,.17,1.24,3,3,0,0,0,.49,1,2.36,2.36,0,0,0,.83.67,2.45,2.45,0,0,0,1.14.25,4,4,0,0,0,1-.11,1.83,1.83,0,0,0,.67-.33,1.63,1.63,0,0,0,.43-.48,2.87,2.87,0,0,0,.25-.62Zm-.77-2.38a4.6,4.6,0,0,0-.13-1.15,2.63,2.63,0,0,0-.42-.91,1.92,1.92,0,0,0-.75-.59,2.68,2.68,0,0,0-1.11-.21,2.41,2.41,0,0,0-1.8.7,3.54,3.54,0,0,0-.81,2.16Z"/><path class="cls-3" d="M238.1,144.4H239v1.27a3.41,3.41,0,0,1,1.06-1,2.38,2.38,0,0,1,1.28-.37h.3l.31,0-.1.82a4.77,4.77,0,0,0-.5,0,2.48,2.48,0,0,0-.79.14,2.23,2.23,0,0,0-.77.49,2.44,2.44,0,0,0-.57.73,2.12,2.12,0,0,0-.22,1v4.65h-.87Z"/><path class="cls-3" d="M251.42,151a4.21,4.21,0,0,1-.47.48,3.42,3.42,0,0,1-.61.41,3.4,3.4,0,0,1-1.67.39,3.1,3.1,0,0,1-1.95-.58A2.11,2.11,0,0,1,246,150a2.24,2.24,0,0,1,.33-1.27,2.34,2.34,0,0,1,.87-.78,4.27,4.27,0,0,1,1.25-.4,13.2,13.2,0,0,1,1.45-.14l1.5-.06v-.24a2.55,2.55,0,0,0-.45-1.67,2,2,0,0,0-1.58-.52,4.22,4.22,0,0,0-.94.09,2,2,0,0,0-.63.26,1.45,1.45,0,0,0-.41.41,1.68,1.68,0,0,0-.22.51l-.8-.12c.28-1.26,1.29-1.88,3-1.88a4.19,4.19,0,0,1,1.37.19,2.23,2.23,0,0,1,.89.56,2.31,2.31,0,0,1,.49.9,4.58,4.58,0,0,1,.15,1.22v5.09h-.87Zm0-3-1.42.06a7.91,7.91,0,0,0-1.46.16,2.64,2.64,0,0,0-.94.36,1.29,1.29,0,0,0-.52.57,1.78,1.78,0,0,0-.16.8,1.56,1.56,0,0,0,.4,1.13,1.82,1.82,0,0,0,1.39.43,4.67,4.67,0,0,0,1-.11,2,2,0,0,0,.8-.37,2.94,2.94,0,0,0,.44-.38,1.8,1.8,0,0,0,.29-.39,1.88,1.88,0,0,0,.16-.49,3.92,3.92,0,0,0,0-.63Z"/><path class="cls-3" d="M254.37,144.4h.87v1.27a3.91,3.91,0,0,1,1.34-1.15,3.37,3.37,0,0,1,1.53-.35,2.43,2.43,0,0,1,1.95.73,3.11,3.11,0,0,1,.63,2.08v5.15h-.87v-4.9a2.77,2.77,0,0,0-.44-1.75,1.67,1.67,0,0,0-1.38-.54,2.79,2.79,0,0,0-.95.18,2.44,2.44,0,0,0-.91.55,2.72,2.72,0,0,0-.67.8,2.35,2.35,0,0,0-.23,1.13v4.53h-.87Z"/><path class="cls-3" d="M268.49,151a4.07,4.07,0,0,1-1.14,1,3.09,3.09,0,0,1-1.55.37,3.14,3.14,0,0,1-1.48-.33,3,3,0,0,1-1-.89,3.69,3.69,0,0,1-.6-1.28,5.81,5.81,0,0,1-.2-1.52,4.68,4.68,0,0,1,.92-3.08,3.14,3.14,0,0,1,2.55-1.1,3.21,3.21,0,0,1,1.29.27,3,3,0,0,1,1.23,1v-4h.87v10.71h-.87Zm0-3a6,6,0,0,0-.06-.91,3,3,0,0,0-.18-.67,1.82,1.82,0,0,0-.32-.52,4,4,0,0,0-.47-.44,3.19,3.19,0,0,0-.72-.39,2.76,2.76,0,0,0-.8-.11,2.8,2.8,0,0,0-1,.18,2,2,0,0,0-.8.59,2.71,2.71,0,0,0-.53,1.06,5.4,5.4,0,0,0-.2,1.57,4.77,4.77,0,0,0,.22,1.58,2.74,2.74,0,0,0,.56,1,1.87,1.87,0,0,0,.77.54,2.43,2.43,0,0,0,.87.16,2.69,2.69,0,0,0,.83-.11,2.84,2.84,0,0,0,.76-.38,2.64,2.64,0,0,0,.81-1,3.49,3.49,0,0,0,.28-1.5Z"/><path class="cls-3" d="M275.27,150a1.78,1.78,0,0,0,.76,1.28,3.24,3.24,0,0,0,1.71.37,2.31,2.31,0,0,0,1.59-.42,1.33,1.33,0,0,0,.47-1,2,2,0,0,0-.06-.51,1,1,0,0,0-.24-.43,1.61,1.61,0,0,0-.49-.33,4.09,4.09,0,0,0-.83-.22l-.95-.15a7.13,7.13,0,0,1-1.1-.26,2.91,2.91,0,0,1-.83-.39,1.7,1.7,0,0,1-.51-.62,2.19,2.19,0,0,1-.17-.9,1.94,1.94,0,0,1,.23-.93,2.11,2.11,0,0,1,.61-.69,3.4,3.4,0,0,1,.92-.43,4.27,4.27,0,0,1,1.15-.14,5,5,0,0,1,1.33.15,2.72,2.72,0,0,1,.87.43,2,2,0,0,1,.52.63,3.42,3.42,0,0,1,.3.77l-.8.16a3.13,3.13,0,0,0-.28-.61,1.34,1.34,0,0,0-.39-.43,1.66,1.66,0,0,0-.6-.27,3.84,3.84,0,0,0-.9-.08,3.66,3.66,0,0,0-1,.11,1.71,1.71,0,0,0-.65.31,1,1,0,0,0-.35.44,1.44,1.44,0,0,0-.11.53,1.88,1.88,0,0,0,.06.49.82.82,0,0,0,.24.38,1.56,1.56,0,0,0,.5.28,5,5,0,0,0,.85.21l1.19.2a3.67,3.67,0,0,1,1.81.73,2,2,0,0,1,.6,1.58,1.92,1.92,0,0,1-.19.85,1.86,1.86,0,0,1-.55.7,2.84,2.84,0,0,1-.92.47,4.51,4.51,0,0,1-1.28.17,5.89,5.89,0,0,1-1.3-.14,2.92,2.92,0,0,1-1-.42,2.16,2.16,0,0,1-.71-.73,2.55,2.55,0,0,1-.33-1.1Z"/><path class="cls-3" d="M282.51,141.42h.87v4.25a3.91,3.91,0,0,1,1.34-1.15,3.37,3.37,0,0,1,1.53-.35,2.43,2.43,0,0,1,1.95.73,3.11,3.11,0,0,1,.63,2.08v5.15H288v-4.9a2.77,2.77,0,0,0-.44-1.75,1.67,1.67,0,0,0-1.38-.54,2.79,2.79,0,0,0-.95.18,2.44,2.44,0,0,0-.91.55,2.72,2.72,0,0,0-.67.8,2.35,2.35,0,0,0-.23,1.13v4.53h-.87Z"/><path class="cls-3" d="M297.33,150.11a2.64,2.64,0,0,1-1,1.63,3.45,3.45,0,0,1-2.22.63,3.26,3.26,0,0,1-2.59-1.07,4.41,4.41,0,0,1-.92-3,5.79,5.79,0,0,1,.26-1.8,3.7,3.7,0,0,1,.74-1.31,2.82,2.82,0,0,1,1.11-.8,3.36,3.36,0,0,1,1.4-.27,3.54,3.54,0,0,1,1.53.29,2.81,2.81,0,0,1,1,.79,3.31,3.31,0,0,1,.58,1.19,5.91,5.91,0,0,1,.17,1.49v.55h-5.93a4.48,4.48,0,0,0,.16,1.24,2.81,2.81,0,0,0,.5,1,2.33,2.33,0,0,0,.82.67,2.45,2.45,0,0,0,1.14.25,4,4,0,0,0,1-.11,2,2,0,0,0,.68-.33,1.47,1.47,0,0,0,.42-.48,2.44,2.44,0,0,0,.25-.62Zm-.76-2.38a4.59,4.59,0,0,0-.14-1.15,2.63,2.63,0,0,0-.42-.91,1.92,1.92,0,0,0-.75-.59,2.68,2.68,0,0,0-1.11-.21,2.41,2.41,0,0,0-1.8.7,3.54,3.54,0,0,0-.81,2.16Z"/><path class="cls-3" d="M299.33,141.42h.87v10.71h-.87Z"/><path class="cls-3" d="M301.38,144.4h1l2.63,6.79,2.69-6.79h.94l-3.12,7.73h-1Z"/><path class="cls-3" d="M316.09,150.11a2.64,2.64,0,0,1-1,1.63,3.42,3.42,0,0,1-2.21.63,3.23,3.23,0,0,1-2.59-1.07,4.37,4.37,0,0,1-.93-3,5.5,5.5,0,0,1,.27-1.8,3.69,3.69,0,0,1,.73-1.31,3,3,0,0,1,1.11-.8,3.41,3.41,0,0,1,1.41-.27,3.53,3.53,0,0,1,1.52.29,2.73,2.73,0,0,1,1,.79,3.15,3.15,0,0,1,.58,1.19,5.91,5.91,0,0,1,.18,1.49v.55h-5.94a4.13,4.13,0,0,0,.17,1.24,2.8,2.8,0,0,0,.49,1,2.33,2.33,0,0,0,.82.67,2.47,2.47,0,0,0,1.15.25,4,4,0,0,0,1-.11,1.88,1.88,0,0,0,.68-.33,1.63,1.63,0,0,0,.43-.48,2.86,2.86,0,0,0,.24-.62Zm-.76-2.38a4.17,4.17,0,0,0-.14-1.15,2.63,2.63,0,0,0-.42-.91,1.92,1.92,0,0,0-.75-.59,2.67,2.67,0,0,0-1.1-.21,2.43,2.43,0,0,0-1.81.7,3.6,3.6,0,0,0-.81,2.16Z"/><path class="cls-3" d="M318.51,150a1.78,1.78,0,0,0,.77,1.28,3.22,3.22,0,0,0,1.71.37,2.33,2.33,0,0,0,1.59-.42,1.35,1.35,0,0,0,.46-1,2,2,0,0,0-.06-.51,1.13,1.13,0,0,0-.23-.43,1.67,1.67,0,0,0-.5-.33,3.91,3.91,0,0,0-.83-.22l-.94-.15a7.57,7.57,0,0,1-1.11-.26,2.84,2.84,0,0,1-.82-.39,1.52,1.52,0,0,1-.51-.62,2,2,0,0,1-.17-.9,1.93,1.93,0,0,1,.22-.93,2.15,2.15,0,0,1,.62-.69,3.14,3.14,0,0,1,.92-.43,4.22,4.22,0,0,1,1.15-.14,5,5,0,0,1,1.32.15,2.53,2.53,0,0,1,.87.43,2,2,0,0,1,.53.63,3.94,3.94,0,0,1,.29.77l-.79.16a3.85,3.85,0,0,0-.28-.61,1.5,1.5,0,0,0-.4-.43,1.66,1.66,0,0,0-.6-.27,3.84,3.84,0,0,0-.9-.08,3.54,3.54,0,0,0-1,.11,1.76,1.76,0,0,0-.66.31,1.06,1.06,0,0,0-.35.44,1.42,1.42,0,0,0-.1.53,1.89,1.89,0,0,0,.05.49.82.82,0,0,0,.24.38,1.62,1.62,0,0,0,.51.28,4.56,4.56,0,0,0,.85.21l1.18.2a3.71,3.71,0,0,1,1.82.73,2,2,0,0,1,.6,1.58,2.07,2.07,0,0,1-.19.85,1.89,1.89,0,0,1-.56.7,2.74,2.74,0,0,1-.92.47,4.46,4.46,0,0,1-1.28.17,5.73,5.73,0,0,1-1.29-.14,2.9,2.9,0,0,1-1-.42,2.13,2.13,0,0,1-.7-.73,2.42,2.42,0,0,1-.33-1.1Z"/></svg>