<svg id="text" xmlns="http://www.w3.org/2000/svg" width="800" height="550" viewBox="0 0 800 550"><defs><style>.cls-1{fill:none;stroke:#fbbb21;stroke-width:0.5px;}.cls-2{fill:#fbbb21;}.cls-3{fill:#3a3531;}</style></defs><title>ejection_seat_maintenance_shadow</title><line class="cls-1" x1="499.65" y1="148.16" x2="499.65" y2="249.16"/><path class="cls-2" d="M498.71,249.16a.94.94,0,1,0,.94-.94A.94.94,0,0,0,498.71,249.16Z"/><line class="cls-1" x1="261.65" y1="148.16" x2="261.65" y2="325.16"/><path class="cls-2" d="M260.71,325.16a.94.94,0,1,0,.94-.94A.94.94,0,0,0,260.71,325.16Z"/><line class="cls-1" x1="599.65" y1="396.16" x2="599.65" y2="270.16"/><path class="cls-2" d="M600.59,270.16a.94.94,0,1,0-.94.94A.95.95,0,0,0,600.59,270.16Z"/><line class="cls-1" x1="302.65" y1="401.16" x2="302.65" y2="263.16"/><path class="cls-2" d="M303.59,263.16a.94.94,0,1,0-.94.94A.95.95,0,0,0,303.59,263.16Z"/><line class="cls-1" x1="420.65" y1="375.16" x2="420.65" y2="258.16"/><path class="cls-2" d="M421.59,258.16a.94.94,0,1,0-.94.94A.95.95,0,0,0,421.59,258.16Z"/><path class="cls-3" d="M360.34,397.33h-3.81v-.86h8.55v.86h-3.8v10.12h-.94Z"/><path class="cls-3" d="M367.72,407.7a3.88,3.88,0,0,1-1.56-.3,3.09,3.09,0,0,1-1.15-.83,4,4,0,0,1-.72-1.32,5.4,5.4,0,0,1-.26-1.72,5.31,5.31,0,0,1,.27-1.75,3.81,3.81,0,0,1,.76-1.34,3.21,3.21,0,0,1,1.17-.85,4.25,4.25,0,0,1,3.11,0,3.08,3.08,0,0,1,1.17.84,3.87,3.87,0,0,1,.73,1.31,6,6,0,0,1,0,3.46,4,4,0,0,1-.75,1.35,3.19,3.19,0,0,1-1.18.86A4,4,0,0,1,367.72,407.7Zm0-.77a2.75,2.75,0,0,0,1.28-.27,2.43,2.43,0,0,0,.86-.73,2.94,2.94,0,0,0,.49-1.09,5.92,5.92,0,0,0,.16-1.37,5.64,5.64,0,0,0-.16-1.33,2.94,2.94,0,0,0-.49-1.09,2.54,2.54,0,0,0-.86-.73,2.89,2.89,0,0,0-1.28-.26,2.94,2.94,0,0,0-1.27.26,2.45,2.45,0,0,0-.86.73,3.09,3.09,0,0,0-.48,1.09,5.67,5.67,0,0,0-.15,1.34,5.84,5.84,0,0,0,.15,1.36,3.09,3.09,0,0,0,.48,1.09,2.35,2.35,0,0,0,.86.73A2.8,2.8,0,0,0,367.75,406.93Z"/><path class="cls-3" d="M376.84,407.7a3.88,3.88,0,0,1-1.56-.3,3,3,0,0,1-1.15-.83,3.85,3.85,0,0,1-.73-1.32,5.41,5.41,0,0,1-.25-1.72,5.31,5.31,0,0,1,.27-1.75,4,4,0,0,1,.75-1.34,3.34,3.34,0,0,1,1.18-.85,4.22,4.22,0,0,1,3.1,0,2.93,2.93,0,0,1,1.17.84,3.71,3.71,0,0,1,.73,1.31,5.38,5.38,0,0,1,.26,1.71,5.64,5.64,0,0,1-.26,1.75,4.21,4.21,0,0,1-.75,1.35,3.27,3.27,0,0,1-1.18.86A4,4,0,0,1,376.84,407.7Zm0-.77a2.78,2.78,0,0,0,1.28-.27,2.43,2.43,0,0,0,.86-.73,3.11,3.11,0,0,0,.49-1.09,5.93,5.93,0,0,0,.15-1.37,5.64,5.64,0,0,0-.15-1.33,3.11,3.11,0,0,0-.49-1.09,2.54,2.54,0,0,0-.86-.73,3.26,3.26,0,0,0-2.55,0,2.45,2.45,0,0,0-.86.73,3.09,3.09,0,0,0-.48,1.09,5.18,5.18,0,0,0-.16,1.34,5.34,5.34,0,0,0,.16,1.36,3.09,3.09,0,0,0,.48,1.09,2.35,2.35,0,0,0,.86.73A2.8,2.8,0,0,0,376.87,406.93Z"/><path class="cls-3" d="M382.56,396.47h.89v11h-.89Z"/><path class="cls-3" d="M389.55,405.25a1.87,1.87,0,0,0,.79,1.31,3.37,3.37,0,0,0,1.75.38,2.41,2.41,0,0,0,1.63-.43,1.36,1.36,0,0,0,.48-1.07,2.12,2.12,0,0,0-.06-.52,1.06,1.06,0,0,0-.24-.44,1.56,1.56,0,0,0-.51-.34,4.81,4.81,0,0,0-.85-.23l-1-.15a9.05,9.05,0,0,1-1.13-.26,2.8,2.8,0,0,1-.85-.41,1.66,1.66,0,0,1-.52-.63,2.14,2.14,0,0,1-.18-.93,2,2,0,0,1,.23-.94,2.15,2.15,0,0,1,.63-.71,3.08,3.08,0,0,1,.95-.44,4.43,4.43,0,0,1,1.18-.15,4.83,4.83,0,0,1,1.36.16,2.56,2.56,0,0,1,.89.44,2.05,2.05,0,0,1,.54.64,5,5,0,0,1,.3.79l-.82.16a4,4,0,0,0-.28-.62,1.45,1.45,0,0,0-.41-.44,1.69,1.69,0,0,0-.62-.27,3.91,3.91,0,0,0-.92-.09,3.82,3.82,0,0,0-1,.11,1.82,1.82,0,0,0-.67.32,1.06,1.06,0,0,0-.36.46,1.4,1.4,0,0,0-.11.53,1.51,1.51,0,0,0,.07.5.88.88,0,0,0,.24.4,1.69,1.69,0,0,0,.52.29,5.05,5.05,0,0,0,.87.21l1.21.2a3.93,3.93,0,0,1,1.86.75,2,2,0,0,1,.62,1.62,2.06,2.06,0,0,1-.2.88,1.93,1.93,0,0,1-.57.71,2.86,2.86,0,0,1-.94.48,4.37,4.37,0,0,1-1.31.18,6.17,6.17,0,0,1-1.33-.14,3.31,3.31,0,0,1-1.05-.43,2.28,2.28,0,0,1-.72-.76,2.51,2.51,0,0,1-.34-1.12Z"/><path class="cls-3" d="M397.43,400.27H396.2v-.74h1.23v-2.18h.89v2.18h2.24v.74h-2.24v5.18a1.91,1.91,0,0,0,.24,1,.93.93,0,0,0,.86.41,3.23,3.23,0,0,0,.68-.06,3.7,3.7,0,0,0,.49-.14l.19.72a3.12,3.12,0,0,1-.56.17,4,4,0,0,1-.87.08,2.08,2.08,0,0,1-1.06-.23,1.54,1.54,0,0,1-.58-.61,2.33,2.33,0,0,1-.24-.87c0-.32,0-.67,0-1Z"/><path class="cls-3" d="M405.21,407.7a3.81,3.81,0,0,1-1.56-.3,3,3,0,0,1-1.16-.83,4,4,0,0,1-.72-1.32,5.41,5.41,0,0,1-.25-1.72,5.6,5.6,0,0,1,.26-1.75,3.81,3.81,0,0,1,.76-1.34,3.21,3.21,0,0,1,1.17-.85,3.91,3.91,0,0,1,1.56-.3,3.86,3.86,0,0,1,1.55.29,3.08,3.08,0,0,1,1.17.84,3.71,3.71,0,0,1,.73,1.31,6,6,0,0,1,0,3.46,4,4,0,0,1-.74,1.35,3.31,3.31,0,0,1-1.19.86A4,4,0,0,1,405.21,407.7Zm0-.77a2.74,2.74,0,0,0,1.27-.27,2.35,2.35,0,0,0,.86-.73,2.94,2.94,0,0,0,.49-1.09,5.42,5.42,0,0,0,.16-1.37,5.16,5.16,0,0,0-.16-1.33,2.94,2.94,0,0,0-.49-1.09,2.45,2.45,0,0,0-.86-.73,3.23,3.23,0,0,0-2.54,0,2.36,2.36,0,0,0-.86.73,3.11,3.11,0,0,0-.49,1.09,5.67,5.67,0,0,0-.15,1.34,5.84,5.84,0,0,0,.15,1.36,3.11,3.11,0,0,0,.49,1.09,2.27,2.27,0,0,0,.86.73A2.74,2.74,0,0,0,405.24,406.93Z"/><path class="cls-3" d="M410.88,399.53h.89v1.29a3.57,3.57,0,0,1,1.09-1,2.48,2.48,0,0,1,1.31-.37h.31a1.87,1.87,0,0,1,.32,0l-.11.84a3.14,3.14,0,0,0-.51-.05,2.4,2.4,0,0,0-.81.15,2.21,2.21,0,0,0-.78.5,2.43,2.43,0,0,0-.59.75,2.21,2.21,0,0,0-.23,1v4.77h-.89Z"/><path class="cls-3" d="M421,406.33a4.34,4.34,0,0,1-.48.48,2.88,2.88,0,0,1-.63.42,3,3,0,0,1-.78.3,3.82,3.82,0,0,1-.92.1,3.11,3.11,0,0,1-2-.59,2.14,2.14,0,0,1-.76-1.79,2.38,2.38,0,0,1,.34-1.31,2.46,2.46,0,0,1,.9-.79,3.85,3.85,0,0,1,1.28-.41,11.58,11.58,0,0,1,1.48-.15l1.54-.06v-.25a2.58,2.58,0,0,0-.46-1.7,2,2,0,0,0-1.62-.54,4.35,4.35,0,0,0-1,.09,1.85,1.85,0,0,0-.65.27,1.53,1.53,0,0,0-.42.42,1.81,1.81,0,0,0-.23.53l-.81-.13c.28-1.29,1.32-1.93,3.1-1.93a4.07,4.07,0,0,1,1.4.2,2.19,2.19,0,0,1,.92.57,2.31,2.31,0,0,1,.5.93,4.71,4.71,0,0,1,.15,1.25v5.21H421Zm0-3.09-1.46.06a8.28,8.28,0,0,0-1.49.16,3,3,0,0,0-1,.37,1.46,1.46,0,0,0-.53.58,1.92,1.92,0,0,0-.16.83,1.64,1.64,0,0,0,.41,1.16,1.88,1.88,0,0,0,1.42.44,4.36,4.36,0,0,0,1-.12,2,2,0,0,0,.82-.38,3.07,3.07,0,0,0,.45-.38,1.73,1.73,0,0,0,.3-.41,1.83,1.83,0,0,0,.16-.5,4.06,4.06,0,0,0,0-.64Z"/><path class="cls-3" d="M424.84,408.31a1.76,1.76,0,0,0,.74,1.16,3.17,3.17,0,0,0,1.73.38,2.54,2.54,0,0,0,1.92-.64,3,3,0,0,0,.62-2.14v-1.19a3.56,3.56,0,0,1-1.16,1.07,3.22,3.22,0,0,1-1.59.38,3.28,3.28,0,0,1-1.52-.33,3,3,0,0,1-1.06-.89,3.67,3.67,0,0,1-.62-1.27,5.57,5.57,0,0,1-.2-1.48,5.29,5.29,0,0,1,.25-1.68,3.67,3.67,0,0,1,.7-1.28,3.2,3.2,0,0,1,1.13-.82,3.54,3.54,0,0,1,1.49-.29,3.46,3.46,0,0,1,1.34.28,3.13,3.13,0,0,1,1.24,1v-1.08h.89v7.63a3.66,3.66,0,0,1-.82,2.52,3.32,3.32,0,0,1-2.59.92,6.1,6.1,0,0,1-1.25-.12,3.1,3.1,0,0,1-1-.39,2.19,2.19,0,0,1-.71-.71,2.47,2.47,0,0,1-.36-1.07Zm5-5.13a8.14,8.14,0,0,0-.05-.93,2.64,2.64,0,0,0-.19-.7,2.06,2.06,0,0,0-.33-.53,3.34,3.34,0,0,0-.47-.44,2.86,2.86,0,0,0-.74-.4,2.57,2.57,0,0,0-.82-.12,2.91,2.91,0,0,0-1,.18,2.09,2.09,0,0,0-.83.58,2.89,2.89,0,0,0-.56,1,5,5,0,0,0-.2,1.5,4.28,4.28,0,0,0,.23,1.49,2.78,2.78,0,0,0,.57,1,2.18,2.18,0,0,0,.8.54,2.41,2.41,0,0,0,.91.17,3.08,3.08,0,0,0,.86-.1,2.7,2.7,0,0,0,.75-.39,2.66,2.66,0,0,0,.83-1,3.79,3.79,0,0,0,.28-1.56Z"/><path class="cls-3" d="M439.51,405.37a2.75,2.75,0,0,1-1,1.68,3.53,3.53,0,0,1-2.27.65,3.33,3.33,0,0,1-2.66-1.1,4.49,4.49,0,0,1-.94-3,5.77,5.77,0,0,1,.27-1.85,3.86,3.86,0,0,1,.75-1.34,3.11,3.11,0,0,1,1.14-.83,4.09,4.09,0,0,1,3,0,2.88,2.88,0,0,1,1.06.81,3.23,3.23,0,0,1,.59,1.22,6.17,6.17,0,0,1,.18,1.53v.56h-6.08a4.65,4.65,0,0,0,.16,1.27,3.2,3.2,0,0,0,.51,1,2.38,2.38,0,0,0,.85.69,2.58,2.58,0,0,0,1.17.26,3.68,3.68,0,0,0,1-.12,1.71,1.71,0,0,0,.69-.33,1.61,1.61,0,0,0,.44-.5,2.44,2.44,0,0,0,.25-.64Zm-.79-2.42a4.47,4.47,0,0,0-.14-1.19,2.49,2.49,0,0,0-.43-.93,2,2,0,0,0-.77-.61,2.75,2.75,0,0,0-1.13-.21,2.45,2.45,0,0,0-1.85.72,3.6,3.6,0,0,0-.83,2.22Z"/><path class="cls-3" d="M445,396.47h.89v11H445Z"/><path class="cls-3" d="M451.51,407.7a3.88,3.88,0,0,1-1.56-.3,3.09,3.09,0,0,1-1.15-.83,4,4,0,0,1-.72-1.32,5.4,5.4,0,0,1-.26-1.72,5.31,5.31,0,0,1,.27-1.75,3.81,3.81,0,0,1,.76-1.34,3.21,3.21,0,0,1,1.17-.85,4.25,4.25,0,0,1,3.11,0,3.08,3.08,0,0,1,1.17.84,3.87,3.87,0,0,1,.73,1.31,6,6,0,0,1,0,3.46,4,4,0,0,1-.75,1.35,3.19,3.19,0,0,1-1.18.86A4,4,0,0,1,451.51,407.7Zm0-.77a2.75,2.75,0,0,0,1.28-.27,2.43,2.43,0,0,0,.86-.73,2.94,2.94,0,0,0,.49-1.09,5.92,5.92,0,0,0,.16-1.37,5.64,5.64,0,0,0-.16-1.33,2.94,2.94,0,0,0-.49-1.09,2.54,2.54,0,0,0-.86-.73,2.89,2.89,0,0,0-1.28-.26,2.94,2.94,0,0,0-1.27.26,2.45,2.45,0,0,0-.86.73,3.09,3.09,0,0,0-.48,1.09,5.67,5.67,0,0,0-.15,1.34,5.84,5.84,0,0,0,.15,1.36,3.09,3.09,0,0,0,.48,1.09,2.35,2.35,0,0,0,.86.73A2.8,2.8,0,0,0,451.54,406.93Z"/><path class="cls-3" d="M463.89,404.87a3.5,3.5,0,0,1-1.06,2.08,3.26,3.26,0,0,1-2.26.75,3.92,3.92,0,0,1-1.54-.29,3,3,0,0,1-1.14-.83,3.82,3.82,0,0,1-.7-1.31,5.54,5.54,0,0,1-.25-1.74,5.6,5.6,0,0,1,.26-1.75,3.94,3.94,0,0,1,.74-1.34,3.18,3.18,0,0,1,1.16-.85,3.83,3.83,0,0,1,1.55-.3,3.06,3.06,0,0,1,2.08.67,3.18,3.18,0,0,1,1,1.88l-.86.21a4.16,4.16,0,0,0-.26-.8,2.34,2.34,0,0,0-.43-.63,1.9,1.9,0,0,0-.66-.41,3,3,0,0,0-2.16.11,2.4,2.4,0,0,0-.84.71,2.8,2.8,0,0,0-.49,1.09,5.9,5.9,0,0,0,0,2.73,3.18,3.18,0,0,0,.47,1.09,2.37,2.37,0,0,0,.84.73,2.77,2.77,0,0,0,1.24.26,2.22,2.22,0,0,0,1.68-.56,3,3,0,0,0,.72-1.5Z"/><path class="cls-3" d="M465.7,396.47h.9v6.75l4.07-3.69h1.11l-2.8,2.62,3.15,5.3h-1.08l-2.76-4.75-1.69,1.52v3.23h-.9Z"/><path class="cls-3" d="M479.52,405.37a2.69,2.69,0,0,1-1,1.68,3.53,3.53,0,0,1-2.27.65,3.33,3.33,0,0,1-2.66-1.1,4.49,4.49,0,0,1-.94-3,5.77,5.77,0,0,1,.27-1.85,3.86,3.86,0,0,1,.75-1.34,3.11,3.11,0,0,1,1.14-.83,4.09,4.09,0,0,1,3,0,3,3,0,0,1,1.06.81,3.23,3.23,0,0,1,.59,1.22,6.17,6.17,0,0,1,.18,1.53v.56h-6.09a4.64,4.64,0,0,0,.17,1.27,3.2,3.2,0,0,0,.51,1,2.38,2.38,0,0,0,.85.69,2.55,2.55,0,0,0,1.17.26,3.73,3.73,0,0,0,1-.12,1.71,1.71,0,0,0,.69-.33,1.61,1.61,0,0,0,.44-.5,2.44,2.44,0,0,0,.25-.64Zm-.78-2.42a4.92,4.92,0,0,0-.14-1.19,2.49,2.49,0,0,0-.43-.93,2,2,0,0,0-.77-.61,2.75,2.75,0,0,0-1.13-.21,2.45,2.45,0,0,0-1.85.72,3.6,3.6,0,0,0-.83,2.22Z"/><path class="cls-3" d="M481.52,399.53h.9v1.29a3.46,3.46,0,0,1,1.09-1,2.44,2.44,0,0,1,1.3-.37h.32a1.76,1.76,0,0,1,.31,0l-.1.84a3.36,3.36,0,0,0-.51-.05,2.32,2.32,0,0,0-1.6.65,2.4,2.4,0,0,0-.58.75,2.09,2.09,0,0,0-.23,1v4.77h-.9Z"/><path class="cls-3" d="M172.87,122.94h6.9v.85h-6v4h5.66v.87H173.8v4.37H180l-.22.86h-6.94Z"/><path class="cls-3" d="M179.55,135.79a3.36,3.36,0,0,0,.48.14,3.82,3.82,0,0,0,.65,0,.92.92,0,0,0,.86-.39,2,2,0,0,0,.23-1V126h.89v8c0,.36,0,.7,0,1a2.53,2.53,0,0,1-.25.87,1.59,1.59,0,0,1-.57.61,2,2,0,0,1-1,.23,3.81,3.81,0,0,1-.84-.07,4,4,0,0,1-.54-.16Zm2.16-12.85h1v1.34h-1Z"/><path class="cls-3" d="M191.47,131.84a2.66,2.66,0,0,1-1,1.68,3.53,3.53,0,0,1-2.27.65,3.31,3.31,0,0,1-2.65-1.1,4.51,4.51,0,0,1-.95-3,5.75,5.75,0,0,1,.27-1.84,4,4,0,0,1,.75-1.35,3.38,3.38,0,0,1,1.14-.82,3.77,3.77,0,0,1,1.44-.28,3.89,3.89,0,0,1,1.57.3,2.87,2.87,0,0,1,1.05.82,3.23,3.23,0,0,1,.59,1.22,5.7,5.7,0,0,1,.19,1.52v.57h-6.09a4.7,4.7,0,0,0,.17,1.27,2.84,2.84,0,0,0,.51,1,2.36,2.36,0,0,0,.84.69,2.58,2.58,0,0,0,1.17.26,3.63,3.63,0,0,0,1-.12,2.17,2.17,0,0,0,.7-.33,1.57,1.57,0,0,0,.43-.5,2.45,2.45,0,0,0,.26-.64Zm-.78-2.43a4.83,4.83,0,0,0-.14-1.18,2.85,2.85,0,0,0-.43-.93,2.11,2.11,0,0,0-.77-.61,2.83,2.83,0,0,0-1.14-.21,2.46,2.46,0,0,0-1.85.72,3.65,3.65,0,0,0-.83,2.21Z"/><path class="cls-3" d="M200.17,131.34a3.5,3.5,0,0,1-1.06,2.08,3.25,3.25,0,0,1-2.26.75,4,4,0,0,1-1.54-.29,3.06,3.06,0,0,1-1.14-.83,3.82,3.82,0,0,1-.7-1.31,6.1,6.1,0,0,1,0-3.49,3.94,3.94,0,0,1,.74-1.34,3.29,3.29,0,0,1,1.16-.86,4,4,0,0,1,1.55-.3,3.11,3.11,0,0,1,2.08.67,3.24,3.24,0,0,1,1,1.89l-.86.21a4.16,4.16,0,0,0-.26-.8,2.34,2.34,0,0,0-.43-.63,1.85,1.85,0,0,0-.65-.41,2.66,2.66,0,0,0-.93-.16,2.54,2.54,0,0,0-1.23.27,2.43,2.43,0,0,0-.85.71,3,3,0,0,0-.49,1.08,5.95,5.95,0,0,0,0,2.74,3,3,0,0,0,.48,1.09,2.14,2.14,0,0,0,.83.72,2.67,2.67,0,0,0,1.24.27,2.22,2.22,0,0,0,1.68-.56,2.93,2.93,0,0,0,.72-1.5Z"/><path class="cls-3" d="M202.43,126.74H201.2V126h1.23v-2.18h.89V126h2.25v.74h-2.25v5.18a1.82,1.82,0,0,0,.25,1,.92.92,0,0,0,.86.41,3.3,3.3,0,0,0,.68-.06,4.84,4.84,0,0,0,.49-.14l.18.72a3.8,3.8,0,0,1-.56.17,4,4,0,0,1-.87.08,2.11,2.11,0,0,1-1.06-.23,1.51,1.51,0,0,1-.57-.61,2.33,2.33,0,0,1-.24-.87c0-.33,0-.67,0-1Z"/><path class="cls-3" d="M207,122.94h1v1.34h-1Zm.06,3.06h.9v7.92h-.9Z"/><path class="cls-3" d="M213.64,134.17a3.81,3.81,0,0,1-1.56-.3,2.93,2.93,0,0,1-1.15-.84,3.71,3.71,0,0,1-.73-1.31A5.45,5.45,0,0,1,210,130a5.31,5.31,0,0,1,.27-1.75,4,4,0,0,1,.75-1.34,3.27,3.27,0,0,1,1.18-.86,4,4,0,0,1,1.55-.3,3.86,3.86,0,0,1,1.55.3,3.08,3.08,0,0,1,1.17.84,3.71,3.71,0,0,1,.73,1.31,5.78,5.78,0,0,1,0,3.46,3.87,3.87,0,0,1-.74,1.34,3.14,3.14,0,0,1-1.19.87A4.11,4.11,0,0,1,213.64,134.17Zm0-.77a2.78,2.78,0,0,0,1.28-.27,2.64,2.64,0,0,0,.86-.73,3.11,3.11,0,0,0,.49-1.09,5.93,5.93,0,0,0,.15-1.37,5.64,5.64,0,0,0-.15-1.33,3.11,3.11,0,0,0-.49-1.09,2.64,2.64,0,0,0-.86-.73,3.15,3.15,0,0,0-2.55,0,2.45,2.45,0,0,0-.86.73,3.09,3.09,0,0,0-.48,1.09,5.18,5.18,0,0,0-.16,1.34,5.39,5.39,0,0,0,.16,1.36,3.09,3.09,0,0,0,.48,1.09,2.45,2.45,0,0,0,.86.73A2.77,2.77,0,0,0,213.67,133.4Z"/><path class="cls-3" d="M219.31,126h.89v1.29a4.11,4.11,0,0,1,1.38-1.17,3.51,3.51,0,0,1,1.56-.37,2.51,2.51,0,0,1,2,.76,3.18,3.18,0,0,1,.64,2.14v5.27h-.89v-5a2.88,2.88,0,0,0-.44-1.79,1.75,1.75,0,0,0-1.42-.55,2.9,2.9,0,0,0-1,.18,2.6,2.6,0,0,0-.93.56,3.09,3.09,0,0,0-.7.83,2.46,2.46,0,0,0-.23,1.16v4.64h-.89Z"/><path class="cls-3" d="M231.8,131.72a1.83,1.83,0,0,0,.78,1.31,3.37,3.37,0,0,0,1.75.38A2.41,2.41,0,0,0,236,133a1.38,1.38,0,0,0,.48-1.08,2.1,2.1,0,0,0-.06-.51,1.06,1.06,0,0,0-.24-.44,1.56,1.56,0,0,0-.51-.34,4.08,4.08,0,0,0-.85-.23l-1-.15a9.05,9.05,0,0,1-1.13-.26,2.8,2.8,0,0,1-.85-.41,1.66,1.66,0,0,1-.52-.63,2.14,2.14,0,0,1-.18-.93,2,2,0,0,1,.23-1,2.14,2.14,0,0,1,.64-.7,2.92,2.92,0,0,1,.94-.44,4.43,4.43,0,0,1,1.18-.16,4.8,4.8,0,0,1,1.36.17,2.55,2.55,0,0,1,.89.43,2.09,2.09,0,0,1,.54.65,3.7,3.7,0,0,1,.3.78l-.82.17a3.22,3.22,0,0,0-.28-.62,1.45,1.45,0,0,0-.41-.44,1.71,1.71,0,0,0-.61-.27,3.53,3.53,0,0,0-.93-.1,3.78,3.78,0,0,0-1,.12,2.09,2.09,0,0,0-.67.31,1.24,1.24,0,0,0-.36.47,1.39,1.39,0,0,0-.1.53,1.9,1.9,0,0,0,.06.5.88.88,0,0,0,.24.4,1.69,1.69,0,0,0,.52.29,5.05,5.05,0,0,0,.87.21l1.21.2a3.83,3.83,0,0,1,1.86.75,2,2,0,0,1,.62,1.62,2.06,2.06,0,0,1-.2.88,1.9,1.9,0,0,1-.56.71,3,3,0,0,1-1,.48,4.32,4.32,0,0,1-1.31.18A6.17,6.17,0,0,1,233,134a3.56,3.56,0,0,1-1.05-.43,2.28,2.28,0,0,1-.72-.76,2.51,2.51,0,0,1-.34-1.12Z"/><path class="cls-3" d="M245.6,131.84a2.69,2.69,0,0,1-1,1.68,3.56,3.56,0,0,1-2.28.65,3.31,3.31,0,0,1-2.65-1.1,4.51,4.51,0,0,1-.95-3,5.75,5.75,0,0,1,.27-1.84,3.86,3.86,0,0,1,.76-1.35,3.25,3.25,0,0,1,1.13-.82,3.77,3.77,0,0,1,1.44-.28,3.85,3.85,0,0,1,1.57.3,2.87,2.87,0,0,1,1.05.82,3.4,3.4,0,0,1,.6,1.22,6.15,6.15,0,0,1,.18,1.52v.57h-6.09a4.7,4.7,0,0,0,.17,1.27,2.84,2.84,0,0,0,.51,1,2.45,2.45,0,0,0,.84.69,2.58,2.58,0,0,0,1.17.26,3.76,3.76,0,0,0,1-.12,2.21,2.21,0,0,0,.69-.33,1.74,1.74,0,0,0,.44-.5,2.44,2.44,0,0,0,.25-.64Zm-.78-2.43a4.83,4.83,0,0,0-.14-1.18,2.66,2.66,0,0,0-.43-.93,2,2,0,0,0-.77-.61,2.83,2.83,0,0,0-1.14-.21,2.43,2.43,0,0,0-1.84.72,3.59,3.59,0,0,0-.83,2.21Z"/><path class="cls-3" d="M252.64,132.8a4.21,4.21,0,0,1-.47.48,3.46,3.46,0,0,1-.63.42,3.41,3.41,0,0,1-1.71.4,3.12,3.12,0,0,1-2-.6,2.14,2.14,0,0,1-.75-1.78,2.3,2.3,0,0,1,.34-1.31,2.46,2.46,0,0,1,.89-.8,4.17,4.17,0,0,1,1.28-.4,11.77,11.77,0,0,1,1.48-.15l1.54-.06v-.25a2.62,2.62,0,0,0-.45-1.7,2,2,0,0,0-1.62-.54,4.35,4.35,0,0,0-1,.09,1.9,1.9,0,0,0-.66.27,1.6,1.6,0,0,0-.41.41,1.63,1.63,0,0,0-.23.54l-.82-.13c.29-1.29,1.32-1.94,3.11-1.94a4.09,4.09,0,0,1,1.4.21,2.15,2.15,0,0,1,.91.57,2.22,2.22,0,0,1,.5.92,4.84,4.84,0,0,1,.15,1.26v5.21h-.89Zm0-3.09-1.46.06a8.17,8.17,0,0,0-1.49.16,2.93,2.93,0,0,0-1,.37,1.33,1.33,0,0,0-.53.58,1.92,1.92,0,0,0-.16.83,1.65,1.65,0,0,0,.4,1.16,1.91,1.91,0,0,0,1.43.43,4.26,4.26,0,0,0,1-.11,1.89,1.89,0,0,0,.82-.38,3.21,3.21,0,0,0,.46-.38,1.91,1.91,0,0,0,.29-.41,1.55,1.55,0,0,0,.16-.5,4,4,0,0,0,0-.64Z"/><path class="cls-3" d="M256.12,126.74h-1.23V126h1.23v-2.18H257V126h2.24v.74H257v5.18a1.82,1.82,0,0,0,.25,1,.92.92,0,0,0,.86.41,3.2,3.2,0,0,0,.67-.06,4.39,4.39,0,0,0,.5-.14l.18.72a3.8,3.8,0,0,1-.56.17,4,4,0,0,1-.87.08,2.08,2.08,0,0,1-1.06-.23,1.54,1.54,0,0,1-.58-.61,2.33,2.33,0,0,1-.24-.87c0-.33,0-.67,0-1Z"/><path class="cls-3" d="M264.65,131.72a1.83,1.83,0,0,0,.78,1.31,3.41,3.41,0,0,0,1.76.38,2.41,2.41,0,0,0,1.63-.43,1.41,1.41,0,0,0,.47-1.08,2.1,2.1,0,0,0-.06-.51A1.06,1.06,0,0,0,269,131a1.41,1.41,0,0,0-.5-.34,4.19,4.19,0,0,0-.86-.23l-1-.15a9.49,9.49,0,0,1-1.13-.26,2.74,2.74,0,0,1-.84-.41,1.58,1.58,0,0,1-.52-.63A2.14,2.14,0,0,1,264,128a2,2,0,0,1,.86-1.65,3,3,0,0,1,.95-.44,4.35,4.35,0,0,1,1.17-.16,4.7,4.7,0,0,1,1.36.17,2.46,2.46,0,0,1,.89.43,2.09,2.09,0,0,1,.54.65,3.7,3.7,0,0,1,.3.78l-.81.17a4,4,0,0,0-.29-.62,1.31,1.31,0,0,0-.4-.44,1.76,1.76,0,0,0-.62-.27,3.45,3.45,0,0,0-.92-.1,3.73,3.73,0,0,0-1,.12,2,2,0,0,0-.67.31,1.14,1.14,0,0,0-.36.47,1.4,1.4,0,0,0-.11.53,1.9,1.9,0,0,0,.06.5.82.82,0,0,0,.25.4,1.52,1.52,0,0,0,.51.29,5.05,5.05,0,0,0,.87.21l1.22.2a3.83,3.83,0,0,1,1.86.75,2,2,0,0,1,.61,1.62,2,2,0,0,1-.76,1.59,2.92,2.92,0,0,1-1,.48,4.25,4.25,0,0,1-1.3.18,6.1,6.1,0,0,1-1.33-.14,3.51,3.51,0,0,1-1.06-.43,2.49,2.49,0,0,1-.72-.76,2.64,2.64,0,0,1-.34-1.12Z"/><path class="cls-3" d="M278.47,131.84a2.69,2.69,0,0,1-1,1.68,3.56,3.56,0,0,1-2.28.65,3.31,3.31,0,0,1-2.65-1.1,4.51,4.51,0,0,1-.95-3,5.75,5.75,0,0,1,.27-1.84,3.86,3.86,0,0,1,.76-1.35,3.25,3.25,0,0,1,1.13-.82,3.77,3.77,0,0,1,1.44-.28,3.85,3.85,0,0,1,1.57.3,2.87,2.87,0,0,1,1.05.82,3.24,3.24,0,0,1,.6,1.22,6.15,6.15,0,0,1,.18,1.52v.57h-6.09a4.7,4.7,0,0,0,.17,1.27,2.84,2.84,0,0,0,.51,1,2.45,2.45,0,0,0,.84.69,2.58,2.58,0,0,0,1.17.26,3.76,3.76,0,0,0,1-.12,2.21,2.21,0,0,0,.69-.33,1.74,1.74,0,0,0,.44-.5,2.44,2.44,0,0,0,.25-.64Zm-.78-2.43a4.83,4.83,0,0,0-.14-1.18,2.66,2.66,0,0,0-.43-.93,2,2,0,0,0-.77-.61,2.83,2.83,0,0,0-1.14-.21,2.43,2.43,0,0,0-1.84.72,3.59,3.59,0,0,0-.83,2.21Z"/><path class="cls-3" d="M280.47,126h.89v1.29a3.57,3.57,0,0,1,1.09-1,2.48,2.48,0,0,1,1.31-.37h.32l.31,0-.11.85a3.13,3.13,0,0,0-.5,0,2.42,2.42,0,0,0-.82.15,2.16,2.16,0,0,0-.78.5,2.46,2.46,0,0,0-.59.75,2.21,2.21,0,0,0-.23,1v4.77h-.89Z"/><path class="cls-3" d="M285.13,126h1l2.69,6.95L291.6,126h1l-3.2,7.92h-1Z"/><path class="cls-3" d="M293.72,122.94h1v1.34h-1Zm.06,3.06h.9v7.92h-.9Z"/><path class="cls-3" d="M303.58,131.34a3.5,3.5,0,0,1-1.06,2.08,3.26,3.26,0,0,1-2.26.75,3.92,3.92,0,0,1-1.54-.29,3.06,3.06,0,0,1-1.14-.83,3.66,3.66,0,0,1-.7-1.31,6.1,6.1,0,0,1,0-3.49,3.78,3.78,0,0,1,.74-1.34,3.2,3.2,0,0,1,1.16-.86,4,4,0,0,1,1.54-.3,3.12,3.12,0,0,1,2.09.67,3.24,3.24,0,0,1,1,1.89l-.86.21a4.16,4.16,0,0,0-.26-.8,2.34,2.34,0,0,0-.43-.63,1.9,1.9,0,0,0-.66-.41,2.87,2.87,0,0,0-2.16.11,2.4,2.4,0,0,0-.84.71,2.82,2.82,0,0,0-.49,1.08,5.95,5.95,0,0,0,0,2.74,3.18,3.18,0,0,0,.47,1.09,2.25,2.25,0,0,0,.84.72,2.64,2.64,0,0,0,1.24.27,2.22,2.22,0,0,0,1.68-.56,3,3,0,0,0,.72-1.5Z"/><path class="cls-3" d="M312,131.84a2.69,2.69,0,0,1-1,1.68,3.54,3.54,0,0,1-2.28.65,3.33,3.33,0,0,1-2.65-1.1,4.5,4.5,0,0,1-.94-3,5.75,5.75,0,0,1,.27-1.84,3.84,3.84,0,0,1,.75-1.35,3.2,3.2,0,0,1,1.14-.82,3.68,3.68,0,0,1,1.43-.28,3.85,3.85,0,0,1,1.57.3,2.87,2.87,0,0,1,1.05.82,3.24,3.24,0,0,1,.6,1.22,6.15,6.15,0,0,1,.18,1.52v.57h-6.09a4.7,4.7,0,0,0,.17,1.27,3,3,0,0,0,.51,1,2.4,2.4,0,0,0,.85.69,2.51,2.51,0,0,0,1.16.26,3.76,3.76,0,0,0,1-.12,2,2,0,0,0,.69-.33,1.61,1.61,0,0,0,.44-.5,2.44,2.44,0,0,0,.25-.64Zm-.78-2.43a4.83,4.83,0,0,0-.14-1.18,2.49,2.49,0,0,0-.43-.93,2,2,0,0,0-.77-.61,2.83,2.83,0,0,0-1.14-.21,2.44,2.44,0,0,0-1.84.72,3.59,3.59,0,0,0-.83,2.21Z"/><path class="cls-3" d="M317.91,131.72a1.83,1.83,0,0,0,.78,1.31,3.39,3.39,0,0,0,1.75.38,2.4,2.4,0,0,0,1.63-.43,1.38,1.38,0,0,0,.48-1.08,2.1,2.1,0,0,0-.06-.51,1.06,1.06,0,0,0-.24-.44,1.56,1.56,0,0,0-.51-.34,4.08,4.08,0,0,0-.85-.23l-1-.15a9.05,9.05,0,0,1-1.13-.26,2.92,2.92,0,0,1-.85-.41,1.66,1.66,0,0,1-.52-.63,2.15,2.15,0,0,1-.17-.93,1.91,1.91,0,0,1,.23-1,2,2,0,0,1,.63-.7,2.92,2.92,0,0,1,.94-.44,4.48,4.48,0,0,1,1.18-.16,4.75,4.75,0,0,1,1.36.17,2.55,2.55,0,0,1,.89.43,2.09,2.09,0,0,1,.54.65,3.7,3.7,0,0,1,.3.78l-.82.17a3.22,3.22,0,0,0-.28-.62,1.33,1.33,0,0,0-.41-.44,1.71,1.71,0,0,0-.61-.27,3.53,3.53,0,0,0-.93-.1,3.78,3.78,0,0,0-1,.12,1.93,1.93,0,0,0-.66.31,1.27,1.27,0,0,0-.37.47,1.39,1.39,0,0,0-.1.53,1.9,1.9,0,0,0,.06.5.88.88,0,0,0,.24.4,1.69,1.69,0,0,0,.52.29,5.05,5.05,0,0,0,.87.21l1.21.2a3.83,3.83,0,0,1,1.86.75,2,2,0,0,1,.62,1.62,2.21,2.21,0,0,1-.19.88,2,2,0,0,1-.57.71,2.92,2.92,0,0,1-1,.48,4.32,4.32,0,0,1-1.31.18,6.17,6.17,0,0,1-1.33-.14,3.56,3.56,0,0,1-1.05-.43,2.28,2.28,0,0,1-.72-.76,2.51,2.51,0,0,1-.34-1.12Z"/><path class="cls-3" d="M325.78,126.74h-1.23V126h1.23v-2.18h.89V126h2.24v.74h-2.24v5.18a1.82,1.82,0,0,0,.25,1,.92.92,0,0,0,.86.41,3.2,3.2,0,0,0,.67-.06,4.39,4.39,0,0,0,.5-.14l.18.72a3.8,3.8,0,0,1-.56.17,4,4,0,0,1-.87.08,2.11,2.11,0,0,1-1.06-.23,1.54,1.54,0,0,1-.58-.61,2.77,2.77,0,0,1-.24-.87c0-.33,0-.67,0-1Z"/><path class="cls-3" d="M335.45,132.8a3.62,3.62,0,0,1-.48.48,2.88,2.88,0,0,1-.63.42,3.53,3.53,0,0,1-.77.3,4,4,0,0,1-.93.1,3.12,3.12,0,0,1-2-.6,2.14,2.14,0,0,1-.76-1.78,2.38,2.38,0,0,1,.34-1.31,2.58,2.58,0,0,1,.9-.8,4.17,4.17,0,0,1,1.28-.4,11.58,11.58,0,0,1,1.48-.15l1.54-.06v-.25a2.62,2.62,0,0,0-.45-1.7,2.06,2.06,0,0,0-1.63-.54,4.35,4.35,0,0,0-1,.09,1.85,1.85,0,0,0-.65.27,1.64,1.64,0,0,0-.42.41,1.87,1.87,0,0,0-.23.54l-.81-.13c.29-1.29,1.32-1.94,3.1-1.94a4,4,0,0,1,1.4.21,2.19,2.19,0,0,1,.92.57,2.22,2.22,0,0,1,.5.92,4.84,4.84,0,0,1,.15,1.26v5.21h-.89Zm0-3.09-1.46.06a8.28,8.28,0,0,0-1.49.16,3,3,0,0,0-1,.37,1.46,1.46,0,0,0-.53.58,2.08,2.08,0,0,0-.16.83,1.66,1.66,0,0,0,.41,1.16,1.9,1.9,0,0,0,1.42.43,4.28,4.28,0,0,0,1-.11,2,2,0,0,0,.82-.38,3.21,3.21,0,0,0,.46-.38,2.34,2.34,0,0,0,.29-.41,1.83,1.83,0,0,0,.16-.5,4.06,4.06,0,0,0,0-.64Z"/><path class="cls-3" d="M338.48,126h.89v1.29a4.11,4.11,0,0,1,1.38-1.17,3.45,3.45,0,0,1,1.56-.37,2.52,2.52,0,0,1,2,.76,3.18,3.18,0,0,1,.64,2.14v5.27h-.89v-5a2.81,2.81,0,0,0-.45-1.79,1.72,1.72,0,0,0-1.41-.55,3,3,0,0,0-1,.18,2.79,2.79,0,0,0-.93.56,2.87,2.87,0,0,0-.69.83,2.46,2.46,0,0,0-.23,1.16v4.64h-.89Z"/><path class="cls-3" d="M353,132.73a4,4,0,0,1-1.17,1.05,3,3,0,0,1-1.59.39,3.24,3.24,0,0,1-1.51-.34,3,3,0,0,1-1.05-.91,3.87,3.87,0,0,1-.62-1.31,6.2,6.2,0,0,1-.2-1.57,4.76,4.76,0,0,1,.95-3.15,3.2,3.2,0,0,1,2.6-1.14,3.65,3.65,0,0,1,1.33.28,3.11,3.11,0,0,1,1.26,1v-4.14h.89v11H353Zm0-3.08a6.46,6.46,0,0,0-.06-.94,3.15,3.15,0,0,0-.18-.69,2.37,2.37,0,0,0-.33-.53,3.54,3.54,0,0,0-.49-.44,2.41,2.41,0,0,0-.73-.4,2.31,2.31,0,0,0-.82-.13,2.77,2.77,0,0,0-1.05.2,2.08,2.08,0,0,0-.82.6,3.22,3.22,0,0,0-.55,1.08,5.75,5.75,0,0,0-.2,1.61,5.08,5.08,0,0,0,.23,1.63,3.1,3.1,0,0,0,.57,1,1.92,1.92,0,0,0,.8.55,2.46,2.46,0,0,0,.88.17,3.13,3.13,0,0,0,.85-.11,2.63,2.63,0,0,0,.78-.4,2.75,2.75,0,0,0,.83-1,3.63,3.63,0,0,0,.29-1.53Z"/><path class="cls-3" d="M263.48,414h1l2.58,9.81,2.72-9.76h1l2.64,9.74,2.62-9.79h1l-3.09,11h-1.09l-2.64-9.76-2.65,9.76h-1Z"/><path class="cls-3" d="M281.29,425.17a3.81,3.81,0,0,1-1.56-.29,3,3,0,0,1-1.16-.84,3.85,3.85,0,0,1-.72-1.31,5.45,5.45,0,0,1-.25-1.72,5.31,5.31,0,0,1,.27-1.75,4,4,0,0,1,.75-1.34,3.27,3.27,0,0,1,1.18-.86,4.15,4.15,0,0,1,3.1,0,3.08,3.08,0,0,1,1.17.84,3.71,3.71,0,0,1,.73,1.31,5.78,5.78,0,0,1,0,3.46,3.87,3.87,0,0,1-.74,1.34,3.25,3.25,0,0,1-1.19.87A4.11,4.11,0,0,1,281.29,425.17Zm0-.76a2.78,2.78,0,0,0,1.28-.27,2.64,2.64,0,0,0,.86-.73,3.08,3.08,0,0,0,.49-1.1,5.78,5.78,0,0,0,.15-1.36,5.64,5.64,0,0,0-.15-1.33,3.11,3.11,0,0,0-.49-1.09,2.64,2.64,0,0,0-.86-.73,3.15,3.15,0,0,0-2.55,0,2.45,2.45,0,0,0-.86.73,3.09,3.09,0,0,0-.48,1.09,5.18,5.18,0,0,0-.16,1.34,5.26,5.26,0,0,0,.16,1.35,3.06,3.06,0,0,0,.48,1.1,2.45,2.45,0,0,0,.86.73A2.77,2.77,0,0,0,281.32,424.41Z"/><path class="cls-3" d="M287,417h.89v1.29a3.57,3.57,0,0,1,1.09-1,2.5,2.5,0,0,1,1.31-.37h.32l.31,0-.11.85a3.13,3.13,0,0,0-.5,0,2.42,2.42,0,0,0-.82.15,2.16,2.16,0,0,0-.78.5,2.46,2.46,0,0,0-.59.75,2.21,2.21,0,0,0-.23,1v4.77H287Z"/><path class="cls-3" d="M292.14,414H293v6.75l4.08-3.69h1.11l-2.8,2.61,3.15,5.31h-1.08l-2.76-4.75L293,421.7v3.23h-.89Z"/><path class="cls-3" d="M303.15,414H304v4.24a4.31,4.31,0,0,1,1.19-1.05,3.05,3.05,0,0,1,1.56-.38,3.39,3.39,0,0,1,1.51.32,2.94,2.94,0,0,1,1.07.87,3.8,3.8,0,0,1,.63,1.31,6,6,0,0,1,.21,1.63,5.88,5.88,0,0,1-.26,1.8,3.94,3.94,0,0,1-.71,1.35,3,3,0,0,1-1.12.84,3.43,3.43,0,0,1-1.46.29,3.38,3.38,0,0,1-1.4-.29,3.14,3.14,0,0,1-1.22-1v1.08h-.89Zm.86,7.34a8,8,0,0,0,.05.91,2.87,2.87,0,0,0,.19.7,2.23,2.23,0,0,0,.33.54,2.33,2.33,0,0,0,.49.44,2.36,2.36,0,0,0,.72.4,2.49,2.49,0,0,0,.85.13,2.77,2.77,0,0,0,1.05-.2,2.08,2.08,0,0,0,.82-.6,3,3,0,0,0,.54-1.09,5.43,5.43,0,0,0,.2-1.62,4.93,4.93,0,0,0-.22-1.61,3,3,0,0,0-.58-1,2,2,0,0,0-.8-.56,2.72,2.72,0,0,0-.87-.16,3.21,3.21,0,0,0-.86.11,2.28,2.28,0,0,0-.77.4,2.75,2.75,0,0,0-.84,1,3.46,3.46,0,0,0-.3,1.54Z"/><path class="cls-3" d="M318.73,422.85a2.75,2.75,0,0,1-1,1.68,3.53,3.53,0,0,1-2.27.64,3.33,3.33,0,0,1-2.66-1.09,4.5,4.5,0,0,1-.94-3,5.75,5.75,0,0,1,.27-1.84,4,4,0,0,1,.75-1.35A3.2,3.2,0,0,1,314,417a4,4,0,0,1,3,0,3,3,0,0,1,1.06.82,3.23,3.23,0,0,1,.59,1.22,6.15,6.15,0,0,1,.18,1.52v.57h-6.09a4.7,4.7,0,0,0,.17,1.27,3.2,3.2,0,0,0,.51,1,2.49,2.49,0,0,0,.85.69,2.55,2.55,0,0,0,1.17.26,3.73,3.73,0,0,0,1-.12,2,2,0,0,0,.69-.33,1.61,1.61,0,0,0,.44-.5,2.44,2.44,0,0,0,.25-.64Zm-.79-2.43a4.39,4.39,0,0,0-.14-1.18,2.49,2.49,0,0,0-.43-.93,2,2,0,0,0-.77-.61,2.75,2.75,0,0,0-1.13-.21,2.45,2.45,0,0,0-1.85.72,3.59,3.59,0,0,0-.83,2.21Z"/><path class="cls-3" d="M320.72,417h.89v1.29a4.21,4.21,0,0,1,1.38-1.17,3.51,3.51,0,0,1,1.56-.37,2.51,2.51,0,0,1,2,.76,3.18,3.18,0,0,1,.65,2.14v5.27h-.9v-5a2.82,2.82,0,0,0-.44-1.79,1.75,1.75,0,0,0-1.42-.55,3,3,0,0,0-1,.18,2.6,2.6,0,0,0-.93.56,2.87,2.87,0,0,0-.69.83,2.33,2.33,0,0,0-.24,1.16v4.64h-.89Z"/><path class="cls-3" d="M336,422.35a3.51,3.51,0,0,1-1.07,2.08,3.21,3.21,0,0,1-2.25.74,3.92,3.92,0,0,1-1.54-.28,3.06,3.06,0,0,1-1.14-.83,3.84,3.84,0,0,1-.71-1.31,5.9,5.9,0,0,1-.24-1.74,5.32,5.32,0,0,1,.26-1.75,3.78,3.78,0,0,1,.74-1.34,3.12,3.12,0,0,1,1.16-.86,3.78,3.78,0,0,1,1.54-.3,3.14,3.14,0,0,1,2.09.67,3.35,3.35,0,0,1,1,1.89l-.86.21a4.18,4.18,0,0,0-.27-.8,2.13,2.13,0,0,0-.43-.63,1.85,1.85,0,0,0-.65-.41,2.58,2.58,0,0,0-.93-.16,2.72,2.72,0,0,0-1.23.26,2.57,2.57,0,0,0-.85.72,3.15,3.15,0,0,0-.49,1.08,6.33,6.33,0,0,0,0,2.74,3.28,3.28,0,0,0,.48,1.09,2.17,2.17,0,0,0,.84.72,2.61,2.61,0,0,0,1.24.27,2.2,2.2,0,0,0,1.68-.57,2.93,2.93,0,0,0,.71-1.49Z"/><path class="cls-3" d="M337.82,414h.89v4.35a4.11,4.11,0,0,1,1.38-1.17,3.45,3.45,0,0,1,1.56-.37,2.51,2.51,0,0,1,2,.76,3.18,3.18,0,0,1,.64,2.14v5.27h-.89v-5a2.81,2.81,0,0,0-.45-1.79,1.71,1.71,0,0,0-1.41-.55,3,3,0,0,0-1,.18,2.79,2.79,0,0,0-.93.56,3.24,3.24,0,0,0-.69.83,2.46,2.46,0,0,0-.23,1.16v4.64h-.89Z"/><path class="cls-3" d="M402.83,121.94h6.9v.85h-6v4h5.66v.87h-5.66v4.37H410l-.22.86h-6.95Z"/><path class="cls-3" d="M409.52,134.79a2.74,2.74,0,0,0,.48.14,3.78,3.78,0,0,0,.64,0,.91.91,0,0,0,.86-.39,1.87,1.87,0,0,0,.23-1V125h.89v8a8.56,8.56,0,0,1-.05,1,2.53,2.53,0,0,1-.25.87,1.49,1.49,0,0,1-.56.61,2,2,0,0,1-1,.23,3.81,3.81,0,0,1-.84-.07,4.63,4.63,0,0,1-.55-.16Zm2.15-12.85h1v1.34h-1Z"/><path class="cls-3" d="M421.44,130.84a2.75,2.75,0,0,1-1,1.68,3.53,3.53,0,0,1-2.27.65,3.33,3.33,0,0,1-2.66-1.1,4.5,4.5,0,0,1-.94-3,5.75,5.75,0,0,1,.27-1.84,4,4,0,0,1,.75-1.35,3.2,3.2,0,0,1,1.14-.82,3.7,3.7,0,0,1,1.44-.28,3.84,3.84,0,0,1,1.56.3,3,3,0,0,1,1.06.82,3.23,3.23,0,0,1,.59,1.22,6.15,6.15,0,0,1,.18,1.52v.57h-6.09a4.7,4.7,0,0,0,.17,1.27,3.2,3.2,0,0,0,.51,1,2.49,2.49,0,0,0,.85.69,2.55,2.55,0,0,0,1.17.26,3.73,3.73,0,0,0,1-.12,2,2,0,0,0,.69-.33,1.61,1.61,0,0,0,.44-.5,2.44,2.44,0,0,0,.25-.64Zm-.79-2.43a4.39,4.39,0,0,0-.14-1.18,2.49,2.49,0,0,0-.43-.93,2,2,0,0,0-.77-.61,2.75,2.75,0,0,0-1.13-.21,2.45,2.45,0,0,0-1.85.72,3.59,3.59,0,0,0-.83,2.21Z"/><path class="cls-3" d="M430.14,130.34a3.55,3.55,0,0,1-1.06,2.08,3.26,3.26,0,0,1-2.26.75,3.92,3.92,0,0,1-1.54-.29,3.06,3.06,0,0,1-1.14-.83,3.84,3.84,0,0,1-.71-1.31,5.9,5.9,0,0,1-.24-1.74,5.32,5.32,0,0,1,.26-1.75,3.78,3.78,0,0,1,.74-1.34,3.12,3.12,0,0,1,1.16-.86,4,4,0,0,1,1.54-.3,3.14,3.14,0,0,1,2.09.67,3.35,3.35,0,0,1,1,1.89l-.86.21a4.16,4.16,0,0,0-.26-.8,2.37,2.37,0,0,0-.44-.63,1.85,1.85,0,0,0-.65-.41,2.87,2.87,0,0,0-2.16.11,2.31,2.31,0,0,0-.84.71,3,3,0,0,0-.5,1.08,6.33,6.33,0,0,0,0,2.74,3.4,3.4,0,0,0,.48,1.09,2.25,2.25,0,0,0,.84.72,2.61,2.61,0,0,0,1.24.27,2.24,2.24,0,0,0,1.68-.56,3,3,0,0,0,.71-1.5Z"/><path class="cls-3" d="M432.4,125.74h-1.23V125h1.23v-2.18h.89V125h2.24v.74h-2.24v5.18a1.91,1.91,0,0,0,.24,1,.94.94,0,0,0,.87.41,3.2,3.2,0,0,0,.67-.06,3.7,3.7,0,0,0,.49-.14l.19.72a4.21,4.21,0,0,1-.56.17,4,4,0,0,1-.87.08,2.08,2.08,0,0,1-1.06-.23,1.54,1.54,0,0,1-.58-.61,2.33,2.33,0,0,1-.24-.87c0-.33,0-.67,0-1Z"/><path class="cls-3" d="M437,121.94h1v1.34h-1Zm.06,3.06H438v7.92h-.89Z"/><path class="cls-3" d="M443.61,133.17a3.89,3.89,0,0,1-1.57-.3,3,3,0,0,1-1.15-.84,3.85,3.85,0,0,1-.72-1.31,5.45,5.45,0,0,1-.26-1.72,5.31,5.31,0,0,1,.27-1.75,3.81,3.81,0,0,1,.76-1.34,3.24,3.24,0,0,1,1.17-.86,4.05,4.05,0,0,1,1.56-.3,3.86,3.86,0,0,1,1.55.3,3.08,3.08,0,0,1,1.17.84,3.87,3.87,0,0,1,.73,1.31,5.39,5.39,0,0,1,.25,1.71,5.64,5.64,0,0,1-.26,1.75,3.73,3.73,0,0,1-.75,1.34,3.11,3.11,0,0,1-1.18.87A4.14,4.14,0,0,1,443.61,133.17Zm0-.77a2.74,2.74,0,0,0,1.27-.27,2.45,2.45,0,0,0,.86-.73,2.94,2.94,0,0,0,.49-1.09,5.42,5.42,0,0,0,.16-1.37,5.16,5.16,0,0,0-.16-1.33,2.94,2.94,0,0,0-.49-1.09,2.45,2.45,0,0,0-.86-.73,3.12,3.12,0,0,0-2.54,0,2.36,2.36,0,0,0-.86.73,3.11,3.11,0,0,0-.49,1.09,5.67,5.67,0,0,0-.15,1.34,5.9,5.9,0,0,0,.15,1.36,3.11,3.11,0,0,0,.49,1.09,2.36,2.36,0,0,0,.86.73A2.74,2.74,0,0,0,443.64,132.4Z"/><path class="cls-3" d="M449.28,125h.89v1.29a4.18,4.18,0,0,1,1.37-1.17,3.52,3.52,0,0,1,1.57-.37,2.48,2.48,0,0,1,2,.76,3.18,3.18,0,0,1,.65,2.14v5.27h-.89v-5a2.81,2.81,0,0,0-.45-1.79,1.74,1.74,0,0,0-1.41-.55,3,3,0,0,0-1,.18,2.79,2.79,0,0,0-.93.56,2.87,2.87,0,0,0-.69.83,2.46,2.46,0,0,0-.23,1.16v4.64h-.89Z"/><path class="cls-3" d="M461.76,130.72a1.84,1.84,0,0,0,.79,1.31,3.37,3.37,0,0,0,1.75.38,2.41,2.41,0,0,0,1.63-.43,1.38,1.38,0,0,0,.47-1.08,2.1,2.1,0,0,0-.06-.51,1.17,1.17,0,0,0-.23-.44,1.56,1.56,0,0,0-.51-.34,4.19,4.19,0,0,0-.86-.23l-1-.15a9.05,9.05,0,0,1-1.13-.26,2.69,2.69,0,0,1-.85-.41,1.66,1.66,0,0,1-.52-.63,2.14,2.14,0,0,1-.18-.93,2,2,0,0,1,.86-1.65,3,3,0,0,1,1-.44,4.35,4.35,0,0,1,1.17-.16,4.7,4.7,0,0,1,1.36.17,2.52,2.52,0,0,1,.9.43,2.05,2.05,0,0,1,.53.65,3.7,3.7,0,0,1,.3.78l-.81.17a3.23,3.23,0,0,0-.29-.62,1.31,1.31,0,0,0-.4-.44,1.76,1.76,0,0,0-.62-.27,3.4,3.4,0,0,0-.92-.1,3.78,3.78,0,0,0-1,.12,2,2,0,0,0-.67.31,1.14,1.14,0,0,0-.36.47,1.4,1.4,0,0,0-.11.53,1.9,1.9,0,0,0,.06.5.9.9,0,0,0,.25.4,1.52,1.52,0,0,0,.51.29,5.05,5.05,0,0,0,.87.21l1.22.2a3.83,3.83,0,0,1,1.86.75,2,2,0,0,1,.61,1.62,2,2,0,0,1-.76,1.59,2.86,2.86,0,0,1-.94.48,4.37,4.37,0,0,1-1.31.18A6.1,6.1,0,0,1,463,133a3.35,3.35,0,0,1-1.05-.43,2.41,2.41,0,0,1-.73-.76,2.64,2.64,0,0,1-.33-1.12Z"/><path class="cls-3" d="M475.57,130.84a2.7,2.7,0,0,1-1,1.68,3.53,3.53,0,0,1-2.27.65,3.31,3.31,0,0,1-2.65-1.1,4.51,4.51,0,0,1-1-3,5.75,5.75,0,0,1,.27-1.84,4,4,0,0,1,.75-1.35,3.38,3.38,0,0,1,1.14-.82,3.77,3.77,0,0,1,1.44-.28,3.89,3.89,0,0,1,1.57.3,2.87,2.87,0,0,1,1.05.82,3.23,3.23,0,0,1,.59,1.22,5.7,5.7,0,0,1,.19,1.52v.57h-6.09a4.33,4.33,0,0,0,.17,1.27,3,3,0,0,0,.5,1,2.49,2.49,0,0,0,.85.69,2.58,2.58,0,0,0,1.17.26,3.63,3.63,0,0,0,1-.12,2.17,2.17,0,0,0,.7-.33,1.57,1.57,0,0,0,.43-.5,2.45,2.45,0,0,0,.26-.64Zm-.79-2.43a4.85,4.85,0,0,0-.13-1.18,2.67,2.67,0,0,0-.44-.93,2,2,0,0,0-.76-.61,2.83,2.83,0,0,0-1.14-.21,2.45,2.45,0,0,0-1.85.72,3.65,3.65,0,0,0-.83,2.21Z"/><path class="cls-3" d="M482.61,131.8a3.62,3.62,0,0,1-.48.48,2.88,2.88,0,0,1-.63.42,3.53,3.53,0,0,1-.77.3,4,4,0,0,1-.93.1,3.12,3.12,0,0,1-2-.6,2.12,2.12,0,0,1-.76-1.78,2.38,2.38,0,0,1,.34-1.31,2.58,2.58,0,0,1,.9-.8,4.09,4.09,0,0,1,1.28-.4,11.58,11.58,0,0,1,1.48-.15l1.54-.06v-.25a2.56,2.56,0,0,0-.46-1.7,2,2,0,0,0-1.62-.54,4.35,4.35,0,0,0-1,.09,1.85,1.85,0,0,0-.65.27,1.64,1.64,0,0,0-.42.41,1.87,1.87,0,0,0-.23.54l-.81-.13c.28-1.29,1.32-1.94,3.1-1.94a4,4,0,0,1,1.4.21,2.19,2.19,0,0,1,.92.57,2.34,2.34,0,0,1,.5.92,4.84,4.84,0,0,1,.15,1.26v5.21h-.89Zm0-3.09-1.46.06a8.28,8.28,0,0,0-1.49.16,3,3,0,0,0-1,.37,1.46,1.46,0,0,0-.53.58,1.92,1.92,0,0,0-.16.83,1.66,1.66,0,0,0,.41,1.16,1.88,1.88,0,0,0,1.42.43,4.34,4.34,0,0,0,1-.11,2,2,0,0,0,.82-.38,3.07,3.07,0,0,0,.45-.38,2,2,0,0,0,.3-.41,1.83,1.83,0,0,0,.16-.5,4.06,4.06,0,0,0,0-.64Z"/><path class="cls-3" d="M486.08,125.74h-1.23V125h1.23v-2.18h.9V125h2.24v.74H487v5.18a1.91,1.91,0,0,0,.24,1,.93.93,0,0,0,.86.41,3.3,3.3,0,0,0,.68-.06,4.19,4.19,0,0,0,.49-.14l.19.72a3.71,3.71,0,0,1-1.43.25,2.15,2.15,0,0,1-1.07-.23,1.59,1.59,0,0,1-.57-.61,2.33,2.33,0,0,1-.24-.87c0-.33-.05-.67-.05-1Z"/><path class="cls-3" d="M494.14,121.94H495v4.35a4.11,4.11,0,0,1,1.38-1.17,3.45,3.45,0,0,1,1.56-.37,2.51,2.51,0,0,1,2,.76,3.18,3.18,0,0,1,.64,2.14v5.27h-.89v-5a2.81,2.81,0,0,0-.45-1.79,1.71,1.71,0,0,0-1.41-.55,3,3,0,0,0-1,.18,2.79,2.79,0,0,0-.93.56,3.24,3.24,0,0,0-.69.83,2.46,2.46,0,0,0-.23,1.16v4.64h-.89Z"/><path class="cls-3" d="M507.76,131.8a3.62,3.62,0,0,1-.48.48,2.88,2.88,0,0,1-.63.42,3.53,3.53,0,0,1-.77.3,3.84,3.84,0,0,1-.93.1,3.12,3.12,0,0,1-2-.6,2.14,2.14,0,0,1-.75-1.78,2.38,2.38,0,0,1,.33-1.31,2.58,2.58,0,0,1,.9-.8,4.17,4.17,0,0,1,1.28-.4,11.77,11.77,0,0,1,1.48-.15l1.54-.06v-.25a2.62,2.62,0,0,0-.45-1.7,2.06,2.06,0,0,0-1.63-.54,4.48,4.48,0,0,0-1,.09,1.85,1.85,0,0,0-.65.27,1.6,1.6,0,0,0-.41.41,1.63,1.63,0,0,0-.23.54l-.82-.13c.29-1.29,1.32-1.94,3.11-1.94a4,4,0,0,1,1.39.21,2.19,2.19,0,0,1,.92.57,2.22,2.22,0,0,1,.5.92,4.84,4.84,0,0,1,.15,1.26v5.21h-.89Zm0-3.09-1.46.06a8.29,8.29,0,0,0-1.5.16,2.87,2.87,0,0,0-1,.37,1.42,1.42,0,0,0-.54.58,2.08,2.08,0,0,0-.16.83,1.66,1.66,0,0,0,.41,1.16,1.9,1.9,0,0,0,1.42.43,4.28,4.28,0,0,0,1-.11,2,2,0,0,0,.82-.38,3.21,3.21,0,0,0,.46-.38,2.34,2.34,0,0,0,.29-.41,1.83,1.83,0,0,0,.16-.5,4,4,0,0,0,.05-.64Z"/><path class="cls-3" d="M510.79,125h.89v1.29a4.11,4.11,0,0,1,1.38-1.17,3.48,3.48,0,0,1,1.56-.37,2.51,2.51,0,0,1,2,.76,3.18,3.18,0,0,1,.64,2.14v5.27h-.89v-5a2.88,2.88,0,0,0-.44-1.79,1.75,1.75,0,0,0-1.42-.55,3,3,0,0,0-1,.18,2.65,2.65,0,0,0-.92.56,3.09,3.09,0,0,0-.7.83,2.46,2.46,0,0,0-.23,1.16v4.64h-.89Z"/><path class="cls-3" d="M525.26,131.73a4.09,4.09,0,0,1-1.16,1.05,3.07,3.07,0,0,1-1.59.39,3.28,3.28,0,0,1-1.52-.34,3.18,3.18,0,0,1-1-.91,4.06,4.06,0,0,1-.62-1.31,6.2,6.2,0,0,1-.2-1.57,4.76,4.76,0,0,1,1-3.15,3.21,3.21,0,0,1,2.61-1.14A3.56,3.56,0,0,1,524,125a3.11,3.11,0,0,1,1.26,1v-4.14h.89v11h-.89Zm0-3.08a6.46,6.46,0,0,0-.06-.94,3.15,3.15,0,0,0-.18-.69,1.82,1.82,0,0,0-.33-.53,3.54,3.54,0,0,0-.49-.44,2.41,2.41,0,0,0-.73-.4,2.31,2.31,0,0,0-.82-.13,2.68,2.68,0,0,0-1,.2,2,2,0,0,0-.83.6,3,3,0,0,0-.54,1.08,5.4,5.4,0,0,0-.2,1.61,5.1,5.1,0,0,0,.22,1.63,3,3,0,0,0,.58,1,1.89,1.89,0,0,0,.79.55,2.46,2.46,0,0,0,.88.17,3.26,3.26,0,0,0,.86-.11,2.48,2.48,0,0,0,.77-.4,2.66,2.66,0,0,0,.83-1,3.48,3.48,0,0,0,.29-1.53Z"/><path class="cls-3" d="M528.35,121.94h.89v11h-.89Z"/><path class="cls-3" d="M531.42,121.94h1v1.34h-1Zm.06,3.06h.9v7.92h-.9Z"/><path class="cls-3" d="M534.57,125h.9v1.29a4.18,4.18,0,0,1,1.37-1.17,3.51,3.51,0,0,1,1.56-.37,2.49,2.49,0,0,1,2,.76,3.18,3.18,0,0,1,.65,2.14v5.27h-.89v-5a2.81,2.81,0,0,0-.45-1.79,1.74,1.74,0,0,0-1.41-.55,3,3,0,0,0-1,.18,2.79,2.79,0,0,0-.93.56,2.87,2.87,0,0,0-.69.83,2.34,2.34,0,0,0-.23,1.16v4.64h-.9Z"/><path class="cls-3" d="M544,133.78a1.75,1.75,0,0,0,.73,1.16,3.21,3.21,0,0,0,1.74.38,2.58,2.58,0,0,0,1.92-.64,3.05,3.05,0,0,0,.62-2.15v-1.18a3.67,3.67,0,0,1-1.16,1.07,3.24,3.24,0,0,1-1.6.38,3.31,3.31,0,0,1-1.52-.33,3.06,3.06,0,0,1-1.06-.89,3.84,3.84,0,0,1-.61-1.27,5.19,5.19,0,0,1-.2-1.48,5.54,5.54,0,0,1,.24-1.68,3.69,3.69,0,0,1,.71-1.28,3.16,3.16,0,0,1,1.12-.82,3.57,3.57,0,0,1,1.49-.3,3.44,3.44,0,0,1,1.34.29,3.15,3.15,0,0,1,1.25,1V125h.89v7.63a3.71,3.71,0,0,1-.82,2.52,3.33,3.33,0,0,1-2.59.92,6.2,6.2,0,0,1-1.26-.12,3.38,3.38,0,0,1-1-.39,2.32,2.32,0,0,1-.72-.71,2.6,2.6,0,0,1-.35-1.07Zm5-5.13a6.46,6.46,0,0,0-.06-.94,2.32,2.32,0,0,0-.18-.69,2.37,2.37,0,0,0-.33-.53,3,3,0,0,0-.48-.44,2.57,2.57,0,0,0-.74-.4,2.22,2.22,0,0,0-.81-.13,3,3,0,0,0-1.05.19,2.24,2.24,0,0,0-.83.58,2.92,2.92,0,0,0-.55,1,5.09,5.09,0,0,0-.2,1.5,4.32,4.32,0,0,0,.22,1.5,2.79,2.79,0,0,0,.58,1,2.1,2.1,0,0,0,.8.54,2.41,2.41,0,0,0,.91.17,2.76,2.76,0,0,0,.86-.11,2.94,2.94,0,0,0,.75-.38,2.63,2.63,0,0,0,.82-1,3.78,3.78,0,0,0,.29-1.56Z"/><path class="cls-3" d="M555.94,125.74h-1.23V125h1.23v-2.18h.9V125h2.24v.74h-2.24v5.18a1.91,1.91,0,0,0,.24,1,.93.93,0,0,0,.86.41,3.23,3.23,0,0,0,.68-.06,4.19,4.19,0,0,0,.49-.14l.19.72a4,4,0,0,1-.57.17,3.92,3.92,0,0,1-.86.08,2.08,2.08,0,0,1-1.06-.23,1.54,1.54,0,0,1-.58-.61,2.33,2.33,0,0,1-.24-.87c0-.33,0-.67,0-1Z"/><path class="cls-3" d="M560.57,125h.89v1.29a3.6,3.6,0,0,1,1.1-1,2.44,2.44,0,0,1,1.3-.37h.32l.31,0-.1.85a3.36,3.36,0,0,0-.51,0,2.42,2.42,0,0,0-.82.15,2.16,2.16,0,0,0-.78.5,2.46,2.46,0,0,0-.59.75,2.21,2.21,0,0,0-.23,1v4.77h-.89Z"/><path class="cls-3" d="M568.74,133.17a3.81,3.81,0,0,1-1.56-.3A3,3,0,0,1,566,132a3.85,3.85,0,0,1-.72-1.31,5.45,5.45,0,0,1-.25-1.72,5.31,5.31,0,0,1,.27-1.75,3.8,3.8,0,0,1,.75-1.34,3.24,3.24,0,0,1,1.17-.86,4.09,4.09,0,0,1,1.56-.3,3.86,3.86,0,0,1,1.55.3,3.08,3.08,0,0,1,1.17.84,3.71,3.71,0,0,1,.73,1.31,6,6,0,0,1,0,3.46,3.87,3.87,0,0,1-.74,1.34,3.22,3.22,0,0,1-1.19.87A4.11,4.11,0,0,1,568.74,133.17Zm0-.77a2.74,2.74,0,0,0,1.27-.27,2.45,2.45,0,0,0,.86-.73,3.12,3.12,0,0,0,.5-1.09,5.93,5.93,0,0,0,.15-1.37,5.64,5.64,0,0,0-.15-1.33,3.12,3.12,0,0,0-.5-1.09,2.45,2.45,0,0,0-.86-.73,3.12,3.12,0,0,0-2.54,0,2.45,2.45,0,0,0-.86.73,3.3,3.3,0,0,0-.49,1.09A5.67,5.67,0,0,0,566,129a5.9,5.9,0,0,0,.15,1.36,3.3,3.3,0,0,0,.49,1.09,2.45,2.45,0,0,0,.86.73A2.74,2.74,0,0,0,568.77,132.4Z"/><path class="cls-3" d="M574.45,121.94h.9v11h-.9Z"/><path class="cls-3" d="M577.59,121.94h.89v11h-.89Z"/><path class="cls-3" d="M587.29,130.84a2.69,2.69,0,0,1-1,1.68,3.54,3.54,0,0,1-2.28.65,3.33,3.33,0,0,1-2.65-1.1,4.5,4.5,0,0,1-.94-3,5.75,5.75,0,0,1,.27-1.84,3.84,3.84,0,0,1,.75-1.35,3.2,3.2,0,0,1,1.14-.82,3.68,3.68,0,0,1,1.43-.28,3.85,3.85,0,0,1,1.57.3,2.87,2.87,0,0,1,1,.82,3.24,3.24,0,0,1,.6,1.22,6.15,6.15,0,0,1,.18,1.52v.57h-6.09a4.7,4.7,0,0,0,.17,1.27,3,3,0,0,0,.51,1,2.4,2.4,0,0,0,.85.69,2.51,2.51,0,0,0,1.16.26,3.76,3.76,0,0,0,1-.12,2,2,0,0,0,.69-.33,1.61,1.61,0,0,0,.44-.5,2.44,2.44,0,0,0,.25-.64Zm-.78-2.43a4.83,4.83,0,0,0-.14-1.18,2.49,2.49,0,0,0-.43-.93,2,2,0,0,0-.77-.61,2.83,2.83,0,0,0-1.14-.21,2.44,2.44,0,0,0-1.84.72,3.59,3.59,0,0,0-.83,2.21Z"/><path class="cls-3" d="M589,134.93a2.23,2.23,0,0,0,.39.13,2.12,2.12,0,0,0,.44,0,1.51,1.51,0,0,0,.46-.06.9.9,0,0,0,.34-.22,1.71,1.71,0,0,0,.28-.42q.14-.26.3-.66l.37-.94-3.4-7.8h1l2.88,6.77,2.57-6.77h1l-3.6,9a7.72,7.72,0,0,1-.38.81,3,3,0,0,1-.43.62,1.55,1.55,0,0,1-.56.38,2,2,0,0,1-.77.13,3.34,3.34,0,0,1-.59,0,3,3,0,0,1-.55-.14Z"/><path class="cls-3" d="M559.9,413H561l2.58,9.81,2.72-9.76h1l2.64,9.74,2.62-9.79h1l-3.09,11h-1.09l-2.65-9.76L564,423.94h-1Z"/><path class="cls-3" d="M577.71,424.18a3.81,3.81,0,0,1-1.56-.29,3,3,0,0,1-1.16-.84,3.85,3.85,0,0,1-.72-1.31A5.45,5.45,0,0,1,574,420a5.31,5.31,0,0,1,.27-1.75,4,4,0,0,1,.75-1.34,3.19,3.19,0,0,1,1.18-.86,4.15,4.15,0,0,1,3.1,0,3.16,3.16,0,0,1,1.17.83,3.85,3.85,0,0,1,.73,1.32,6,6,0,0,1,0,3.46,3.87,3.87,0,0,1-.74,1.34,3.2,3.2,0,0,1-1.19.86A3.92,3.92,0,0,1,577.71,424.18Zm0-.76a2.71,2.71,0,0,0,1.27-.27,2.45,2.45,0,0,0,.86-.73,3.09,3.09,0,0,0,.5-1.1,5.84,5.84,0,0,0,.15-1.36,5.64,5.64,0,0,0-.15-1.33,3.12,3.12,0,0,0-.5-1.09,2.45,2.45,0,0,0-.86-.73,2.71,2.71,0,0,0-1.27-.27,2.77,2.77,0,0,0-1.27.27,2.45,2.45,0,0,0-.86.73,3.3,3.3,0,0,0-.49,1.09A5.67,5.67,0,0,0,575,420a5.82,5.82,0,0,0,.15,1.35,3.26,3.26,0,0,0,.49,1.1,2.45,2.45,0,0,0,.86.73A2.77,2.77,0,0,0,577.74,423.42Z"/><path class="cls-3" d="M583.38,416h.89v1.29a3.57,3.57,0,0,1,1.09-1,2.48,2.48,0,0,1,1.31-.37H587l.31,0-.11.85a3.13,3.13,0,0,0-.5-.05,2.42,2.42,0,0,0-.82.15,2.08,2.08,0,0,0-.78.5,2.54,2.54,0,0,0-.59.74,2.28,2.28,0,0,0-.23,1v4.77h-.89Z"/><path class="cls-3" d="M588.56,413h.89v6.75l4.08-3.69h1.1l-2.79,2.61,3.15,5.31h-1.08l-2.77-4.75-1.69,1.52v3.23h-.89Z"/><path class="cls-3" d="M599.57,413h.89v4.24a4.27,4.27,0,0,1,1.18-1.05,3.09,3.09,0,0,1,1.57-.38,3.39,3.39,0,0,1,1.51.32,2.94,2.94,0,0,1,1.07.87,3.8,3.8,0,0,1,.63,1.31,6,6,0,0,1,.21,1.63,5.88,5.88,0,0,1-.26,1.8,4.12,4.12,0,0,1-.71,1.35,3,3,0,0,1-1.12.84,3.45,3.45,0,0,1-1.47.29,3.37,3.37,0,0,1-1.39-.29,3.14,3.14,0,0,1-1.22-1v1.08h-.89Zm.86,7.33a8.09,8.09,0,0,0,.05.92,2.87,2.87,0,0,0,.19.7,2.23,2.23,0,0,0,.33.54,2.33,2.33,0,0,0,.49.44,2.36,2.36,0,0,0,.72.4,2.49,2.49,0,0,0,.85.13,2.68,2.68,0,0,0,1-.2,2,2,0,0,0,.83-.6,3,3,0,0,0,.54-1.09,5.43,5.43,0,0,0,.2-1.62,4.93,4.93,0,0,0-.22-1.61,3,3,0,0,0-.58-1,2,2,0,0,0-.8-.56,2.72,2.72,0,0,0-.87-.16,3.21,3.21,0,0,0-.86.11,2.28,2.28,0,0,0-.77.4,2.75,2.75,0,0,0-.84,1,3.46,3.46,0,0,0-.3,1.54Z"/><path class="cls-3" d="M615.14,421.86a2.69,2.69,0,0,1-1,1.68,3.54,3.54,0,0,1-2.28.64,3.32,3.32,0,0,1-2.65-1.09,4.5,4.5,0,0,1-.94-3,5.75,5.75,0,0,1,.27-1.84,3.84,3.84,0,0,1,.75-1.35,3.2,3.2,0,0,1,1.14-.82,4,4,0,0,1,3,0,3,3,0,0,1,1.06.82,3.23,3.23,0,0,1,.59,1.22,6.15,6.15,0,0,1,.18,1.52v.57h-6.09a4.7,4.7,0,0,0,.17,1.27,3.2,3.2,0,0,0,.51,1,2.5,2.5,0,0,0,2,.95,3.76,3.76,0,0,0,1-.12,2,2,0,0,0,.69-.33,1.61,1.61,0,0,0,.44-.5,2.44,2.44,0,0,0,.25-.64Zm-.78-2.43a4.83,4.83,0,0,0-.14-1.18,2.49,2.49,0,0,0-.43-.93,2,2,0,0,0-.77-.61,2.83,2.83,0,0,0-1.14-.21,2.44,2.44,0,0,0-1.84.72,3.59,3.59,0,0,0-.83,2.21Z"/><path class="cls-3" d="M617.14,416H618v1.29a4.11,4.11,0,0,1,1.38-1.17,3.51,3.51,0,0,1,1.56-.37,2.51,2.51,0,0,1,2,.76,3.18,3.18,0,0,1,.64,2.14v5.27h-.89v-5a2.88,2.88,0,0,0-.44-1.79,1.75,1.75,0,0,0-1.42-.55,3,3,0,0,0-1,.18,2.6,2.6,0,0,0-.93.56,3.22,3.22,0,0,0-.7.82,2.53,2.53,0,0,0-.23,1.17v4.64h-.89Z"/><path class="cls-3" d="M632.42,421.36a3.44,3.44,0,0,1-1.06,2.08,3.22,3.22,0,0,1-2.26.74,3.9,3.9,0,0,1-1.53-.28,3,3,0,0,1-1.14-.83,3.84,3.84,0,0,1-.71-1.31,5.9,5.9,0,0,1-.24-1.74,5.32,5.32,0,0,1,.26-1.75,3.92,3.92,0,0,1,.73-1.34,3.24,3.24,0,0,1,1.17-.86,3.78,3.78,0,0,1,1.54-.3,3.09,3.09,0,0,1,2.08.67,3.3,3.3,0,0,1,1,1.89l-.86.21a4.18,4.18,0,0,0-.27-.8,2.13,2.13,0,0,0-.43-.63,1.85,1.85,0,0,0-.65-.41,2.38,2.38,0,0,0-.93-.16,2.72,2.72,0,0,0-1.23.26,2.57,2.57,0,0,0-.85.72,3,3,0,0,0-.49,1.08,6.33,6.33,0,0,0,0,2.74,3.09,3.09,0,0,0,.48,1.09,2.1,2.1,0,0,0,.84.72,2.6,2.6,0,0,0,1.23.27,2.23,2.23,0,0,0,1.69-.57,2.93,2.93,0,0,0,.71-1.49Z"/><path class="cls-3" d="M634.24,413h.89v4.35a4.11,4.11,0,0,1,1.38-1.17,3.45,3.45,0,0,1,1.56-.37,2.51,2.51,0,0,1,2,.76,3.18,3.18,0,0,1,.64,2.14v5.27h-.89v-5a2.81,2.81,0,0,0-.45-1.79,1.71,1.71,0,0,0-1.41-.55,3,3,0,0,0-1,.18,2.79,2.79,0,0,0-.93.56,3.38,3.38,0,0,0-.69.82,2.53,2.53,0,0,0-.23,1.17v4.64h-.89Z"/></svg>