<svg id="text" xmlns="http://www.w3.org/2000/svg" width="800" height="550" viewBox="0 0 800 550"><defs><style>.cls-1{fill:none;stroke:#fbbb21;stroke-width:0.5px;}.cls-2{fill:#fbbb21;}.cls-3{fill:#3a3531;}</style></defs><title>ground_support_equipment_shadow</title><line class="cls-1" x1="466.11" y1="145.88" x2="466.11" y2="254.18"/><path class="cls-2" d="M465.17,254.18a.94.94,0,1,0,.94-.94A.94.94,0,0,0,465.17,254.18Z"/><path class="cls-3" d="M377.88,129.32a2.58,2.58,0,0,0,1,1.74,4.33,4.33,0,0,0,2.37.53,4.21,4.21,0,0,0,1.34-.18,2.23,2.23,0,0,0,.85-.48,1.69,1.69,0,0,0,.45-.7,2.77,2.77,0,0,0,.05-1.57,1.51,1.51,0,0,0-.31-.62,2.12,2.12,0,0,0-.67-.49,4.8,4.8,0,0,0-1.14-.32l-1.33-.23a8.79,8.79,0,0,1-1.39-.35,3.24,3.24,0,0,1-1-.54,2.25,2.25,0,0,1-.64-.85,3.3,3.3,0,0,1-.21-1.25,2.56,2.56,0,0,1,.3-1.27,2.62,2.62,0,0,1,.83-.89,3.67,3.67,0,0,1,1.22-.53,6.3,6.3,0,0,1,1.47-.17,5.39,5.39,0,0,1,1.68.22,3.41,3.41,0,0,1,1.11.57,2.89,2.89,0,0,1,.68.82,5.14,5.14,0,0,1,.37.93l-.84.23a4.81,4.81,0,0,0-.35-.83,2.14,2.14,0,0,0-.54-.62,2.47,2.47,0,0,0-.85-.39,4.87,4.87,0,0,0-1.24-.14,5.34,5.34,0,0,0-1.38.16,2.52,2.52,0,0,0-.9.44,1.53,1.53,0,0,0-.5.66,2.2,2.2,0,0,0-.15.81,2.53,2.53,0,0,0,.11.78,1.21,1.21,0,0,0,.36.57,2,2,0,0,0,.68.41,5.47,5.47,0,0,0,1.07.28l1.52.27a8.2,8.2,0,0,1,1.4.39,3.48,3.48,0,0,1,1,.61,2.37,2.37,0,0,1,.58.88,3.6,3.6,0,0,1,.19,1.2,2.83,2.83,0,0,1-.24,1.16,2.56,2.56,0,0,1-.71.95,3.61,3.61,0,0,1-1.18.65,5.12,5.12,0,0,1-1.65.24,7.53,7.53,0,0,1-1.62-.17,3.6,3.6,0,0,1-1.3-.53,2.88,2.88,0,0,1-.92-.95,3.35,3.35,0,0,1-.45-1.43Z"/><path class="cls-3" d="M387.55,125.13h-1.2v-.73h1.2v-2.13h.87v2.13h2.19v.73h-2.19v5.05a1.86,1.86,0,0,0,.24,1,.91.91,0,0,0,.84.39,3.1,3.1,0,0,0,.66-.06,4.09,4.09,0,0,0,.48-.13l.18.7a3.64,3.64,0,0,1-.55.17,3.81,3.81,0,0,1-.84.07,2,2,0,0,1-1-.22,1.44,1.44,0,0,1-.56-.59,2.27,2.27,0,0,1-.23-.85c0-.32-.05-.65-.05-1Z"/><path class="cls-3" d="M395.14,132.37a4,4,0,0,1-1.52-.28,3.11,3.11,0,0,1-1.13-.82,3.82,3.82,0,0,1-.7-1.29,5.2,5.2,0,0,1-.25-1.68,5.43,5.43,0,0,1,.26-1.71,3.94,3.94,0,0,1,.74-1.3,3.09,3.09,0,0,1,1.15-.83,3.67,3.67,0,0,1,1.51-.29,3.88,3.88,0,0,1,1.52.28,3,3,0,0,1,1.14.82,3.69,3.69,0,0,1,.71,1.28,5.45,5.45,0,0,1,.25,1.66,5.34,5.34,0,0,1-.26,1.71,3.76,3.76,0,0,1-.73,1.32,3.23,3.23,0,0,1-1.15.84A4,4,0,0,1,395.14,132.37Zm0-.75a2.78,2.78,0,0,0,1.25-.26,2.53,2.53,0,0,0,.84-.71,3.07,3.07,0,0,0,.48-1.07,5.58,5.58,0,0,0,.15-1.33,5.39,5.39,0,0,0-.15-1.3,2.94,2.94,0,0,0-.48-1.06,2.31,2.31,0,0,0-.84-.71,3.11,3.11,0,0,0-2.49,0,2.31,2.31,0,0,0-.84.71,3.11,3.11,0,0,0-.47,1.06,5.41,5.41,0,0,0-.15,1.31,5.56,5.56,0,0,0,.15,1.32,3.25,3.25,0,0,0,.47,1.07,2.53,2.53,0,0,0,.84.71A2.8,2.8,0,0,0,395.17,131.62Z"/><path class="cls-3" d="M400.68,124.4h.87v1.27a3.41,3.41,0,0,1,1.06-1,2.38,2.38,0,0,1,1.28-.37h.3l.31,0-.1.82a4.77,4.77,0,0,0-.5,0,2.48,2.48,0,0,0-.79.14,2.23,2.23,0,0,0-.77.49,2.44,2.44,0,0,0-.57.73,2.12,2.12,0,0,0-.22,1v4.65h-.87Z"/><path class="cls-3" d="M410.52,131a4.21,4.21,0,0,1-.47.48,3.42,3.42,0,0,1-.61.41,3.4,3.4,0,0,1-1.67.39,3.1,3.1,0,0,1-1.95-.58,2.11,2.11,0,0,1-.73-1.75,2.24,2.24,0,0,1,.33-1.27,2.34,2.34,0,0,1,.87-.78,4.27,4.27,0,0,1,1.25-.4,13.2,13.2,0,0,1,1.45-.14l1.5-.06v-.24a2.55,2.55,0,0,0-.45-1.67,2,2,0,0,0-1.58-.52,4.22,4.22,0,0,0-.94.09,2,2,0,0,0-.63.26,1.45,1.45,0,0,0-.41.41,1.68,1.68,0,0,0-.22.51l-.8-.12c.28-1.26,1.29-1.88,3-1.88a4.19,4.19,0,0,1,1.37.19,2.23,2.23,0,0,1,.89.56,2.31,2.31,0,0,1,.49.9,4.58,4.58,0,0,1,.15,1.22v5.09h-.87Zm0-3-1.42.06a7.91,7.91,0,0,0-1.46.16,2.64,2.64,0,0,0-.94.36,1.29,1.29,0,0,0-.52.57,1.78,1.78,0,0,0-.16.8,1.56,1.56,0,0,0,.4,1.13,1.82,1.82,0,0,0,1.39.43,4.67,4.67,0,0,0,1-.11,2,2,0,0,0,.8-.37,2.94,2.94,0,0,0,.44-.38,1.8,1.8,0,0,0,.29-.39,1.88,1.88,0,0,0,.16-.49,3.92,3.92,0,0,0,0-.63Z"/><path class="cls-3" d="M414.31,133a1.71,1.71,0,0,0,.72,1.13,3.09,3.09,0,0,0,1.7.37,2.51,2.51,0,0,0,1.87-.62,3,3,0,0,0,.6-2.1V130.6a3.47,3.47,0,0,1-1.13,1,3.07,3.07,0,0,1-1.55.37,3.31,3.31,0,0,1-1.49-.32,2.91,2.91,0,0,1-1-.87,3.53,3.53,0,0,1-.6-1.23,5.4,5.4,0,0,1-.2-1.45,5.33,5.33,0,0,1,.24-1.64,3.7,3.7,0,0,1,.69-1.25,3.15,3.15,0,0,1,1.1-.8,3.54,3.54,0,0,1,1.45-.28,3.45,3.45,0,0,1,1.31.27,3,3,0,0,1,1.21,1V124.4h.87v7.44a3.57,3.57,0,0,1-.8,2.46,3.24,3.24,0,0,1-2.53.91,5.8,5.8,0,0,1-1.22-.12,3.15,3.15,0,0,1-1-.39,2,2,0,0,1-.7-.69,2.46,2.46,0,0,1-.34-1Zm4.92-5a7.9,7.9,0,0,0-.05-.91,3,3,0,0,0-.18-.67,2.07,2.07,0,0,0-.32-.52,3.34,3.34,0,0,0-.47-.44,3.68,3.68,0,0,0-.72-.39,2.69,2.69,0,0,0-.79-.11,3,3,0,0,0-1,.17,2,2,0,0,0-.81.58,2.68,2.68,0,0,0-.54,1,4.84,4.84,0,0,0-.2,1.47,4.16,4.16,0,0,0,.22,1.46,2.8,2.8,0,0,0,.56,1,2.12,2.12,0,0,0,.78.53,2.51,2.51,0,0,0,.89.17,2.9,2.9,0,0,0,.84-.11,2.7,2.7,0,0,0,.73-.38,2.49,2.49,0,0,0,.8-1,3.59,3.59,0,0,0,.28-1.52Z"/><path class="cls-3" d="M428.62,130.11a2.64,2.64,0,0,1-1,1.63,3.45,3.45,0,0,1-2.22.63,3.26,3.26,0,0,1-2.59-1.07,4.41,4.41,0,0,1-.92-3,5.79,5.79,0,0,1,.26-1.8,3.7,3.7,0,0,1,.74-1.31,2.82,2.82,0,0,1,1.11-.8,3.36,3.36,0,0,1,1.4-.27,3.54,3.54,0,0,1,1.53.29,2.81,2.81,0,0,1,1,.79,3.31,3.31,0,0,1,.58,1.19,5.91,5.91,0,0,1,.18,1.49v.55h-5.94a4.48,4.48,0,0,0,.16,1.24,3,3,0,0,0,.5,1,2.33,2.33,0,0,0,.82.67,2.45,2.45,0,0,0,1.14.25,4,4,0,0,0,1-.11,1.88,1.88,0,0,0,.68-.33,1.47,1.47,0,0,0,.42-.48,2.44,2.44,0,0,0,.25-.62Zm-.76-2.38a4.59,4.59,0,0,0-.14-1.15,2.63,2.63,0,0,0-.42-.91,1.92,1.92,0,0,0-.75-.59,2.68,2.68,0,0,0-1.11-.21,2.41,2.41,0,0,0-1.8.7,3.54,3.54,0,0,0-.81,2.16Z"/><path class="cls-3" d="M434,121.42h.87v10.71H434Z"/><path class="cls-3" d="M440.34,132.37a4.09,4.09,0,0,1-1.53-.28,3.07,3.07,0,0,1-1.12-.82A3.83,3.83,0,0,1,437,130a5.5,5.5,0,0,1-.24-1.68,5.16,5.16,0,0,1,.26-1.71,3.92,3.92,0,0,1,.73-1.3,3.17,3.17,0,0,1,1.15-.83,3.71,3.71,0,0,1,1.52-.29,3.83,3.83,0,0,1,1.51.28,3,3,0,0,1,1.14.82,3.54,3.54,0,0,1,.71,1.28,5.16,5.16,0,0,1,.25,1.66,5.35,5.35,0,0,1-.25,1.71,3.92,3.92,0,0,1-.73,1.32,3.27,3.27,0,0,1-1.16.84A3.9,3.9,0,0,1,440.34,132.37Zm0-.75a2.74,2.74,0,0,0,1.24-.26,2.53,2.53,0,0,0,.84-.71,3.07,3.07,0,0,0,.48-1.07,5.58,5.58,0,0,0,.15-1.33,5.39,5.39,0,0,0-.15-1.3,2.94,2.94,0,0,0-.48-1.06,2.31,2.31,0,0,0-.84-.71,2.61,2.61,0,0,0-1.24-.26,2.64,2.64,0,0,0-1.24.26,2.16,2.16,0,0,0-.84.71,2.93,2.93,0,0,0-.47,1.06,5.41,5.41,0,0,0-.15,1.31,5.56,5.56,0,0,0,.15,1.32,3.06,3.06,0,0,0,.47,1.07,2.34,2.34,0,0,0,.84.71A2.77,2.77,0,0,0,440.37,131.62Z"/><path class="cls-3" d="M452.41,129.61a3.34,3.34,0,0,1-1,2,3.13,3.13,0,0,1-2.2.73,3.75,3.75,0,0,1-1.5-.28,2.8,2.8,0,0,1-1.11-.81,3.66,3.66,0,0,1-.69-1.28,5.54,5.54,0,0,1-.24-1.7,5.16,5.16,0,0,1,.26-1.71,3.73,3.73,0,0,1,.72-1.3,3,3,0,0,1,1.13-.83,3.63,3.63,0,0,1,1.51-.29,3,3,0,0,1,2,.65,3.18,3.18,0,0,1,1,1.83l-.83.21a4.35,4.35,0,0,0-.26-.77,2,2,0,0,0-.42-.62,2,2,0,0,0-.64-.41,2.45,2.45,0,0,0-.91-.14,2.58,2.58,0,0,0-1.19.25,2.34,2.34,0,0,0-.83.7,2.89,2.89,0,0,0-.48,1,5.73,5.73,0,0,0-.15,1.34,5.52,5.52,0,0,0,.15,1.33,3,3,0,0,0,.47,1.07,2.19,2.19,0,0,0,.81.7,2.54,2.54,0,0,0,1.21.26,2.14,2.14,0,0,0,1.64-.55,2.82,2.82,0,0,0,.7-1.46Z"/><path class="cls-3" d="M454.18,121.42h.87V128l4-3.6h1.09L457.37,127l3.08,5.17H459.4l-2.7-4.63L455.05,129v3.15h-.87Z"/><path class="cls-3" d="M467.65,130.11a2.64,2.64,0,0,1-1,1.63,3.45,3.45,0,0,1-2.22.63,3.26,3.26,0,0,1-2.59-1.07,4.41,4.41,0,0,1-.92-3,5.79,5.79,0,0,1,.26-1.8,3.7,3.7,0,0,1,.74-1.31,2.82,2.82,0,0,1,1.11-.8,3.36,3.36,0,0,1,1.4-.27,3.54,3.54,0,0,1,1.53.29,2.81,2.81,0,0,1,1,.79,3.31,3.31,0,0,1,.58,1.19,5.91,5.91,0,0,1,.17,1.49v.55h-5.93a4.48,4.48,0,0,0,.16,1.24,2.81,2.81,0,0,0,.5,1,2.33,2.33,0,0,0,.82.67,2.45,2.45,0,0,0,1.14.25,4,4,0,0,0,1-.11,2,2,0,0,0,.68-.33,1.47,1.47,0,0,0,.42-.48,2.44,2.44,0,0,0,.25-.62Zm-.76-2.38a4.59,4.59,0,0,0-.14-1.15,2.63,2.63,0,0,0-.42-.91,1.92,1.92,0,0,0-.75-.59,2.68,2.68,0,0,0-1.11-.21,2.41,2.41,0,0,0-1.8.7,3.54,3.54,0,0,0-.81,2.16Z"/><path class="cls-3" d="M469.6,124.4h.87v1.27a3.41,3.41,0,0,1,1.06-1,2.4,2.4,0,0,1,1.28-.37h.31l.31,0-.11.82a4.81,4.81,0,0,0-.49,0,2.5,2.5,0,0,0-.8.14,2.19,2.19,0,0,0-.76.49,2.46,2.46,0,0,0-.58.73,2.12,2.12,0,0,0-.22,1v4.65h-.87Z"/><path class="cls-3" d="M482.92,131a4.21,4.21,0,0,1-.47.48,3.42,3.42,0,0,1-.61.41,4,4,0,0,1-.76.29,4.13,4.13,0,0,1-.9.1,3.06,3.06,0,0,1-1.95-.58,2.11,2.11,0,0,1-.74-1.75,2.24,2.24,0,0,1,.33-1.27,2.29,2.29,0,0,1,.88-.78,4.2,4.2,0,0,1,1.24-.4,13.44,13.44,0,0,1,1.45-.14l1.5-.06v-.24a2.61,2.61,0,0,0-.44-1.67,2,2,0,0,0-1.59-.52,4.12,4.12,0,0,0-.93.09,2,2,0,0,0-.64.26,1.6,1.6,0,0,0-.41.41,1.68,1.68,0,0,0-.22.51l-.8-.12c.29-1.26,1.3-1.88,3-1.88a4.13,4.13,0,0,1,1.36.19,2.16,2.16,0,0,1,.89.56,2.19,2.19,0,0,1,.49.9,4.58,4.58,0,0,1,.15,1.22v5.09h-.87Zm0-3-1.43.06a8,8,0,0,0-1.46.16,2.64,2.64,0,0,0-.94.36,1.35,1.35,0,0,0-.52.57,1.94,1.94,0,0,0-.15.8,1.6,1.6,0,0,0,.39,1.13,1.84,1.84,0,0,0,1.39.43,4.6,4.6,0,0,0,1-.11,2,2,0,0,0,.81-.37,3.55,3.55,0,0,0,.44-.38,1.75,1.75,0,0,0,.28-.39,1.57,1.57,0,0,0,.16-.49,3.83,3.83,0,0,0,.05-.63Z"/><path class="cls-3" d="M485.87,124.4h.88v1.27a3.82,3.82,0,0,1,1.34-1.15,3.3,3.3,0,0,1,1.52-.35,2.43,2.43,0,0,1,1.95.73,3.11,3.11,0,0,1,.63,2.08v5.15h-.87v-4.9a2.71,2.71,0,0,0-.44-1.75,1.65,1.65,0,0,0-1.37-.54,2.85,2.85,0,0,0-1,.18,2.49,2.49,0,0,0-.9.55,2.77,2.77,0,0,0-.68.8,2.36,2.36,0,0,0-.22,1.13v4.53h-.88Z"/><path class="cls-3" d="M500,131a4.17,4.17,0,0,1-1.13,1,3.16,3.16,0,0,1-1.56.37,3.07,3.07,0,0,1-1.47-.33,3,3,0,0,1-1-.89,3.69,3.69,0,0,1-.6-1.28,5.81,5.81,0,0,1-.2-1.52,4.62,4.62,0,0,1,.93-3.08,3.11,3.11,0,0,1,2.54-1.1,3.21,3.21,0,0,1,1.29.27,3,3,0,0,1,1.23,1v-4h.87v10.71H500Zm0-3a5,5,0,0,0-.06-.91,2.52,2.52,0,0,0-.18-.67,1.62,1.62,0,0,0-.32-.52,2.91,2.91,0,0,0-1.18-.83,2.88,2.88,0,0,0-.81-.11,2.8,2.8,0,0,0-1,.18,2.09,2.09,0,0,0-.8.59,3,3,0,0,0-.53,1.06,5.43,5.43,0,0,0-.19,1.57,5.08,5.08,0,0,0,.21,1.58,2.89,2.89,0,0,0,.56,1,1.84,1.84,0,0,0,.78.54,2.34,2.34,0,0,0,.86.16,2.65,2.65,0,0,0,.83-.11,2.57,2.57,0,0,0,.76-.38,2.64,2.64,0,0,0,.81-1,3.49,3.49,0,0,0,.28-1.5Z"/><path class="cls-3" d="M506.77,130a1.78,1.78,0,0,0,.76,1.28,3.3,3.3,0,0,0,1.72.37,2.33,2.33,0,0,0,1.59-.42,1.35,1.35,0,0,0,.46-1,2,2,0,0,0-.06-.51,1.13,1.13,0,0,0-.23-.43,1.67,1.67,0,0,0-.5-.33,3.91,3.91,0,0,0-.83-.22l-.94-.15a7.57,7.57,0,0,1-1.11-.26,2.84,2.84,0,0,1-.82-.39,1.52,1.52,0,0,1-.51-.62,2,2,0,0,1-.18-.9,1.94,1.94,0,0,1,.23-.93,2.11,2.11,0,0,1,.61-.69,3.33,3.33,0,0,1,.93-.43,4.14,4.14,0,0,1,1.14-.14,5,5,0,0,1,1.33.15,2.53,2.53,0,0,1,.87.43,2,2,0,0,1,.53.63,3.94,3.94,0,0,1,.29.77l-.79.16a3.85,3.85,0,0,0-.28-.61,1.5,1.5,0,0,0-.4-.43,1.66,1.66,0,0,0-.6-.27,3.84,3.84,0,0,0-.9-.08,3.59,3.59,0,0,0-1,.11,1.76,1.76,0,0,0-.66.31,1.06,1.06,0,0,0-.35.44,1.44,1.44,0,0,0-.11.53,1.88,1.88,0,0,0,.06.49.77.77,0,0,0,.25.38,1.37,1.37,0,0,0,.5.28,4.86,4.86,0,0,0,.84.21l1.19.2a3.67,3.67,0,0,1,1.81.73,1.93,1.93,0,0,1,.6,1.58,2.06,2.06,0,0,1-.18.85,1.89,1.89,0,0,1-.56.7,2.74,2.74,0,0,1-.92.47,4.46,4.46,0,0,1-1.28.17,5.73,5.73,0,0,1-1.29-.14,2.9,2.9,0,0,1-1-.42,2.13,2.13,0,0,1-.7-.73,2.3,2.3,0,0,1-.33-1.1Z"/><path class="cls-3" d="M514,121.42h.86v4.25a3.85,3.85,0,0,1,1.35-1.15,3.3,3.3,0,0,1,1.52-.35,2.43,2.43,0,0,1,2,.73,3.11,3.11,0,0,1,.63,2.08v5.15h-.87v-4.9a2.77,2.77,0,0,0-.44-1.75,1.67,1.67,0,0,0-1.38-.54,2.88,2.88,0,0,0-.95.18,2.53,2.53,0,0,0-.91.55,2.72,2.72,0,0,0-.67.8,2.35,2.35,0,0,0-.23,1.13v4.53H514Z"/><path class="cls-3" d="M528.83,130.11a2.64,2.64,0,0,1-1,1.63,3.45,3.45,0,0,1-2.22.63,3.22,3.22,0,0,1-2.58-1.07,4.37,4.37,0,0,1-.93-3,5.5,5.5,0,0,1,.27-1.8,3.69,3.69,0,0,1,.73-1.31,3,3,0,0,1,1.11-.8,3.4,3.4,0,0,1,1.4-.27,3.54,3.54,0,0,1,1.53.29,2.73,2.73,0,0,1,1,.79,3.15,3.15,0,0,1,.58,1.19,5.91,5.91,0,0,1,.18,1.49v.55H523a4.48,4.48,0,0,0,.16,1.24,3,3,0,0,0,.5,1,2.33,2.33,0,0,0,.82.67,2.45,2.45,0,0,0,1.14.25,4,4,0,0,0,1-.11,1.88,1.88,0,0,0,.68-.33,1.63,1.63,0,0,0,.43-.48,2.86,2.86,0,0,0,.24-.62Zm-.76-2.38a4.59,4.59,0,0,0-.14-1.15,2.63,2.63,0,0,0-.42-.91,1.92,1.92,0,0,0-.75-.59,2.68,2.68,0,0,0-1.11-.21,2.41,2.41,0,0,0-1.8.7,3.54,3.54,0,0,0-.81,2.16Z"/><path class="cls-3" d="M530.83,121.42h.87v10.71h-.87Z"/><path class="cls-3" d="M532.88,124.4h1l2.62,6.79,2.69-6.79h.94L537,132.13h-1Z"/><path class="cls-3" d="M547.6,130.11a2.64,2.64,0,0,1-1,1.63,3.45,3.45,0,0,1-2.22.63,3.26,3.26,0,0,1-2.59-1.07,4.41,4.41,0,0,1-.92-3,5.79,5.79,0,0,1,.26-1.8,3.7,3.7,0,0,1,.74-1.31,2.82,2.82,0,0,1,1.11-.8,3.36,3.36,0,0,1,1.4-.27,3.54,3.54,0,0,1,1.53.29,2.81,2.81,0,0,1,1,.79,3.29,3.29,0,0,1,.57,1.19,5.91,5.91,0,0,1,.18,1.49v.55h-5.94a4.48,4.48,0,0,0,.17,1.24,3,3,0,0,0,.49,1,2.36,2.36,0,0,0,.83.67,2.45,2.45,0,0,0,1.14.25,4,4,0,0,0,1-.11,1.83,1.83,0,0,0,.67-.33,1.51,1.51,0,0,0,.43-.48,2.44,2.44,0,0,0,.25-.62Zm-.77-2.38a4.6,4.6,0,0,0-.13-1.15,2.63,2.63,0,0,0-.42-.91,1.92,1.92,0,0,0-.75-.59,2.68,2.68,0,0,0-1.11-.21,2.41,2.41,0,0,0-1.8.7,3.54,3.54,0,0,0-.81,2.16Z"/><path class="cls-3" d="M550,130a1.78,1.78,0,0,0,.77,1.28,3.24,3.24,0,0,0,1.71.37,2.31,2.31,0,0,0,1.59-.42,1.32,1.32,0,0,0,.46-1,2,2,0,0,0-.06-.51,1,1,0,0,0-.23-.43,1.61,1.61,0,0,0-.49-.33,4.2,4.2,0,0,0-.84-.22l-.94-.15a7.13,7.13,0,0,1-1.1-.26,2.91,2.91,0,0,1-.83-.39,1.7,1.7,0,0,1-.51-.62,2.19,2.19,0,0,1-.17-.9,1.93,1.93,0,0,1,.22-.93,2.15,2.15,0,0,1,.62-.69,3.4,3.4,0,0,1,.92-.43,4.27,4.27,0,0,1,1.15-.14,5,5,0,0,1,1.33.15,2.72,2.72,0,0,1,.87.43,2,2,0,0,1,.52.63,3.39,3.39,0,0,1,.29.77l-.79.16a3.13,3.13,0,0,0-.28-.61,1.37,1.37,0,0,0-.4-.43,1.66,1.66,0,0,0-.6-.27,3.84,3.84,0,0,0-.9-.08,3.59,3.59,0,0,0-1,.11,1.71,1.71,0,0,0-.65.31,1,1,0,0,0-.36.44,1.42,1.42,0,0,0-.1.53,1.88,1.88,0,0,0,.06.49.82.82,0,0,0,.24.38,1.56,1.56,0,0,0,.5.28,5,5,0,0,0,.85.21l1.18.2a3.66,3.66,0,0,1,1.82.73,2,2,0,0,1,.6,1.58,1.92,1.92,0,0,1-.19.85,1.86,1.86,0,0,1-.55.7,2.9,2.9,0,0,1-.93.47,4.44,4.44,0,0,1-1.27.17,5.89,5.89,0,0,1-1.3-.14,3,3,0,0,1-1-.42,2.13,2.13,0,0,1-.7-.73,2.55,2.55,0,0,1-.33-1.1Z"/><line class="cls-1" x1="213.61" y1="184.88" x2="213.61" y2="293.18"/><path class="cls-2" d="M212.67,293.18a.94.94,0,1,0,.94-.94A.94.94,0,0,0,212.67,293.18Z"/><path class="cls-3" d="M125.37,168.32a2.59,2.59,0,0,0,1,1.74,4.33,4.33,0,0,0,2.37.53,4.21,4.21,0,0,0,1.34-.18,2.23,2.23,0,0,0,.85-.48,1.69,1.69,0,0,0,.45-.7,2.71,2.71,0,0,0,.13-.86,3.22,3.22,0,0,0-.08-.71,1.51,1.51,0,0,0-.31-.62,2.12,2.12,0,0,0-.67-.49,4.8,4.8,0,0,0-1.14-.32L128,166a9.08,9.08,0,0,1-1.39-.35,3.29,3.29,0,0,1-1-.54,2.25,2.25,0,0,1-.64-.85,3.29,3.29,0,0,1-.22-1.25,2.57,2.57,0,0,1,.31-1.27,2.69,2.69,0,0,1,.82-.89,3.76,3.76,0,0,1,1.22-.53,6.45,6.45,0,0,1,1.48-.17,5.39,5.39,0,0,1,1.68.22,3.41,3.41,0,0,1,1.11.57,2.85,2.85,0,0,1,.67.82,5.2,5.2,0,0,1,.38.93l-.84.23a5.75,5.75,0,0,0-.35-.83,2.14,2.14,0,0,0-.54-.62,2.47,2.47,0,0,0-.85-.39,5,5,0,0,0-1.25-.14,5.34,5.34,0,0,0-1.38.16,2.52,2.52,0,0,0-.9.44,1.51,1.51,0,0,0-.49.66,2.2,2.2,0,0,0-.15.81,2.55,2.55,0,0,0,.1.78,1.21,1.21,0,0,0,.36.57,2.07,2.07,0,0,0,.69.41,5.29,5.29,0,0,0,1.07.28l1.51.27a7.94,7.94,0,0,1,1.4.39,3.4,3.4,0,0,1,1,.61,2.37,2.37,0,0,1,.58.88,3.61,3.61,0,0,1,.18,1.2,2.83,2.83,0,0,1-.24,1.16,2.45,2.45,0,0,1-.71.95,3.61,3.61,0,0,1-1.18.65,5.12,5.12,0,0,1-1.65.24,7.43,7.43,0,0,1-1.61-.17,3.6,3.6,0,0,1-1.3-.53,2.91,2.91,0,0,1-.93-.95,3.35,3.35,0,0,1-.45-1.43Z"/><path class="cls-3" d="M135.05,164.13h-1.2v-.73h1.2v-2.13h.87v2.13h2.19v.73h-2.19v5.05a1.86,1.86,0,0,0,.24,1,.91.91,0,0,0,.84.39,3.1,3.1,0,0,0,.66-.06,4.09,4.09,0,0,0,.48-.13l.18.7a3.64,3.64,0,0,1-.55.17,4,4,0,0,1-.85.07,2,2,0,0,1-1-.22,1.44,1.44,0,0,1-.56-.59,2.28,2.28,0,0,1-.24-.85c0-.32,0-.65,0-1Z"/><path class="cls-3" d="M142.64,171.37a4.09,4.09,0,0,1-1.53-.28,3.07,3.07,0,0,1-1.12-.82,4,4,0,0,1-.71-1.29,5.5,5.5,0,0,1-.24-1.68,5.16,5.16,0,0,1,.26-1.71,3.92,3.92,0,0,1,.73-1.3,3.17,3.17,0,0,1,1.15-.83,3.71,3.71,0,0,1,1.52-.29,3.83,3.83,0,0,1,1.51.28,3,3,0,0,1,1.14.82,3.71,3.71,0,0,1,.72,1.28,5.46,5.46,0,0,1,.24,1.66,5.35,5.35,0,0,1-.25,1.71,3.76,3.76,0,0,1-.73,1.32,3.23,3.23,0,0,1-1.15.84A4,4,0,0,1,142.64,171.37Zm0-.75a2.74,2.74,0,0,0,1.24-.26,2.53,2.53,0,0,0,.84-.71,3.07,3.07,0,0,0,.48-1.07,5.58,5.58,0,0,0,.15-1.33,5.39,5.39,0,0,0-.15-1.3,2.94,2.94,0,0,0-.48-1.06,2.31,2.31,0,0,0-.84-.71,2.61,2.61,0,0,0-1.24-.26,2.64,2.64,0,0,0-1.24.26,2.24,2.24,0,0,0-.84.71,2.93,2.93,0,0,0-.47,1.06,5.41,5.41,0,0,0-.15,1.31,5.56,5.56,0,0,0,.15,1.32,3.06,3.06,0,0,0,.47,1.07,2.43,2.43,0,0,0,.84.71A2.77,2.77,0,0,0,142.67,170.62Z"/><path class="cls-3" d="M148.17,163.4H149v1.27a3.44,3.44,0,0,1,1.07-1,2.34,2.34,0,0,1,1.27-.37h.31l.31,0-.11.82a4.6,4.6,0,0,0-.49,0,2.54,2.54,0,0,0-.8.14,2.19,2.19,0,0,0-.76.49,2.44,2.44,0,0,0-.57.73,2.12,2.12,0,0,0-.23,1v4.65h-.87Z"/><path class="cls-3" d="M158,170a4.08,4.08,0,0,1-.46.48,3.51,3.51,0,0,1-.62.41,4.17,4.17,0,0,1-.75.29,4.3,4.3,0,0,1-.91.1,3.1,3.1,0,0,1-2-.58,2.11,2.11,0,0,1-.74-1.75,2.24,2.24,0,0,1,.33-1.27,2.37,2.37,0,0,1,.88-.78,4.2,4.2,0,0,1,1.24-.4,13.44,13.44,0,0,1,1.45-.14l1.5-.06v-.24a2.61,2.61,0,0,0-.44-1.67,2,2,0,0,0-1.58-.52,4.16,4.16,0,0,0-.94.09,2.09,2.09,0,0,0-.64.26,1.42,1.42,0,0,0-.4.41,1.69,1.69,0,0,0-.23.51l-.79-.12c.28-1.26,1.29-1.88,3-1.88a4.13,4.13,0,0,1,1.36.19,2.16,2.16,0,0,1,.89.56,2.19,2.19,0,0,1,.49.9,4.58,4.58,0,0,1,.15,1.22v5.09H158Zm0-3-1.43.06a7.79,7.79,0,0,0-1.45.16,2.69,2.69,0,0,0-1,.36,1.35,1.35,0,0,0-.52.57,1.94,1.94,0,0,0-.15.8,1.6,1.6,0,0,0,.39,1.13,1.84,1.84,0,0,0,1.39.43,4.77,4.77,0,0,0,1-.11,2,2,0,0,0,.8-.37,3.55,3.55,0,0,0,.44-.38,1.75,1.75,0,0,0,.28-.39,1.57,1.57,0,0,0,.16-.49,3.83,3.83,0,0,0,.05-.63Z"/><path class="cls-3" d="M161.81,172a1.71,1.71,0,0,0,.72,1.13,3,3,0,0,0,1.69.37,2.53,2.53,0,0,0,1.88-.62,3,3,0,0,0,.6-2.1V169.6a3.41,3.41,0,0,1-1.14,1A3,3,0,0,1,164,171a3.26,3.26,0,0,1-1.48-.32,2.94,2.94,0,0,1-1-.87,3.71,3.71,0,0,1-.6-1.23,5.39,5.39,0,0,1-.19-1.45,5.33,5.33,0,0,1,.24-1.64,3.7,3.7,0,0,1,.69-1.25,3.12,3.12,0,0,1,1.09-.8,3.59,3.59,0,0,1,1.46-.28,3.4,3.4,0,0,1,1.3.27,3,3,0,0,1,1.22,1V163.4h.87v7.44a3.57,3.57,0,0,1-.8,2.46,3.24,3.24,0,0,1-2.53.91,5.8,5.8,0,0,1-1.22-.12,3.31,3.31,0,0,1-1-.39,2.07,2.07,0,0,1-.69-.69,2.46,2.46,0,0,1-.35-1Zm4.92-5a7.9,7.9,0,0,0,0-.91,2.51,2.51,0,0,0-.19-.67,1.82,1.82,0,0,0-.32-.52,3.24,3.24,0,0,0-.46-.44A3.68,3.68,0,0,0,165,164a2.76,2.76,0,0,0-.8-.11,3,3,0,0,0-1,.17,2,2,0,0,0-.81.58,2.68,2.68,0,0,0-.54,1,4.86,4.86,0,0,0-.19,1.47,4.16,4.16,0,0,0,.22,1.46,2.8,2.8,0,0,0,.56,1,2.12,2.12,0,0,0,.78.53,2.46,2.46,0,0,0,.88.17,2.9,2.9,0,0,0,.84-.11,2.74,2.74,0,0,0,.74-.38,2.49,2.49,0,0,0,.8-1,3.75,3.75,0,0,0,.28-1.52Z"/><path class="cls-3" d="M176.12,169.11a2.64,2.64,0,0,1-1,1.63,3.45,3.45,0,0,1-2.22.63,3.24,3.24,0,0,1-2.59-1.07,4.36,4.36,0,0,1-.92-3,5.79,5.79,0,0,1,.26-1.8,3.56,3.56,0,0,1,.74-1.31,2.86,2.86,0,0,1,1.1-.8,3.44,3.44,0,0,1,1.41-.27,3.54,3.54,0,0,1,1.53.29,2.81,2.81,0,0,1,1,.79,3.29,3.29,0,0,1,.57,1.19,5.91,5.91,0,0,1,.18,1.49v.55h-5.94a4.48,4.48,0,0,0,.17,1.24,3,3,0,0,0,.49,1,2.36,2.36,0,0,0,.83.67,2.45,2.45,0,0,0,1.14.25,4,4,0,0,0,1-.11,1.83,1.83,0,0,0,.67-.33,1.51,1.51,0,0,0,.43-.48,2.87,2.87,0,0,0,.25-.62Zm-.77-2.38a4.6,4.6,0,0,0-.13-1.15,2.63,2.63,0,0,0-.42-.91,1.92,1.92,0,0,0-.75-.59,2.68,2.68,0,0,0-1.11-.21,2.41,2.41,0,0,0-1.8.7,3.54,3.54,0,0,0-.81,2.16Z"/><path class="cls-3" d="M181.46,160.42h.87v10.71h-.87Z"/><path class="cls-3" d="M187.83,171.37a4,4,0,0,1-1.52-.28,3,3,0,0,1-1.12-.82,3.67,3.67,0,0,1-.71-1.29,5.2,5.2,0,0,1-.25-1.68,5.43,5.43,0,0,1,.26-1.71,3.94,3.94,0,0,1,.74-1.3,3.09,3.09,0,0,1,1.15-.83,3.67,3.67,0,0,1,1.51-.29,3.88,3.88,0,0,1,1.52.28,3,3,0,0,1,1.14.82,3.54,3.54,0,0,1,.71,1.28,5.16,5.16,0,0,1,.25,1.66,5.34,5.34,0,0,1-.26,1.71,3.76,3.76,0,0,1-.73,1.32,3.23,3.23,0,0,1-1.15.84A4,4,0,0,1,187.83,171.37Zm0-.75a2.78,2.78,0,0,0,1.25-.26,2.53,2.53,0,0,0,.84-.71,3.07,3.07,0,0,0,.48-1.07,5.58,5.58,0,0,0,.15-1.33,5.39,5.39,0,0,0-.15-1.3,2.94,2.94,0,0,0-.48-1.06,2.31,2.31,0,0,0-.84-.71,3.11,3.11,0,0,0-2.49,0,2.31,2.31,0,0,0-.84.71,3.11,3.11,0,0,0-.47,1.06,5.41,5.41,0,0,0-.15,1.31,5.56,5.56,0,0,0,.15,1.32,3.25,3.25,0,0,0,.47,1.07,2.53,2.53,0,0,0,.84.71A2.8,2.8,0,0,0,187.86,170.62Z"/><path class="cls-3" d="M199.91,168.61a3.39,3.39,0,0,1-1,2,3.14,3.14,0,0,1-2.2.73,3.75,3.75,0,0,1-1.5-.28,2.8,2.8,0,0,1-1.11-.81,3.66,3.66,0,0,1-.69-1.28,5.54,5.54,0,0,1-.24-1.7,5.43,5.43,0,0,1,.25-1.71,3.9,3.9,0,0,1,.72-1.3,3.1,3.1,0,0,1,1.13-.83,3.67,3.67,0,0,1,1.51-.29,3,3,0,0,1,2,.65,3.13,3.13,0,0,1,1,1.83l-.84.21a3.66,3.66,0,0,0-.25-.77,2,2,0,0,0-.42-.62,2.07,2.07,0,0,0-.64-.41,2.52,2.52,0,0,0-.91-.14,2.6,2.6,0,0,0-1.2.25,2.31,2.31,0,0,0-.82.7,2.89,2.89,0,0,0-.48,1,5.73,5.73,0,0,0-.15,1.34,5.52,5.52,0,0,0,.15,1.33,3.15,3.15,0,0,0,.46,1.07,2.15,2.15,0,0,0,.82.7,2.52,2.52,0,0,0,1.21.26,2.15,2.15,0,0,0,1.64-.55,2.9,2.9,0,0,0,.7-1.46Z"/><path class="cls-3" d="M201.68,160.42h.87V167l4-3.6h1.08L204.87,166l3.08,5.17h-1l-2.7-4.63L202.55,168v3.15h-.87Z"/><path class="cls-3" d="M215.15,169.11a2.64,2.64,0,0,1-1,1.63,3.45,3.45,0,0,1-2.22.63,3.24,3.24,0,0,1-2.59-1.07,4.36,4.36,0,0,1-.92-3,5.51,5.51,0,0,1,.26-1.8,3.69,3.69,0,0,1,.73-1.31,3,3,0,0,1,1.11-.8,3.44,3.44,0,0,1,1.41-.27,3.54,3.54,0,0,1,1.53.29,2.7,2.7,0,0,1,1,.79,3.15,3.15,0,0,1,.58,1.19,5.91,5.91,0,0,1,.18,1.49v.55h-5.94a4.48,4.48,0,0,0,.17,1.24,3,3,0,0,0,.49,1,2.36,2.36,0,0,0,.83.67,2.45,2.45,0,0,0,1.14.25,4,4,0,0,0,1-.11,1.83,1.83,0,0,0,.67-.33,1.63,1.63,0,0,0,.43-.48,2.87,2.87,0,0,0,.25-.62Zm-.77-2.38a4.6,4.6,0,0,0-.13-1.15,2.63,2.63,0,0,0-.42-.91,1.92,1.92,0,0,0-.75-.59,2.68,2.68,0,0,0-1.11-.21,2.41,2.41,0,0,0-1.8.7,3.54,3.54,0,0,0-.81,2.16Z"/><path class="cls-3" d="M217.1,163.4H218v1.27a3.31,3.31,0,0,1,1.06-1,2.38,2.38,0,0,1,1.28-.37h.3l.31,0-.1.82a4.77,4.77,0,0,0-.5,0,2.48,2.48,0,0,0-.79.14,2.23,2.23,0,0,0-.77.49,2.44,2.44,0,0,0-.57.73,2.12,2.12,0,0,0-.22,1v4.65h-.87Z"/><path class="cls-3" d="M230.42,170a4.21,4.21,0,0,1-.47.48,3.42,3.42,0,0,1-.61.41,3.4,3.4,0,0,1-1.67.39,3.1,3.1,0,0,1-1.95-.58A2.11,2.11,0,0,1,225,169a2.24,2.24,0,0,1,.33-1.27,2.34,2.34,0,0,1,.87-.78,4.27,4.27,0,0,1,1.25-.4,13.2,13.2,0,0,1,1.45-.14l1.5-.06v-.24a2.55,2.55,0,0,0-.45-1.67,2,2,0,0,0-1.58-.52,4.22,4.22,0,0,0-.94.09,2,2,0,0,0-.63.26,1.45,1.45,0,0,0-.41.41,1.68,1.68,0,0,0-.22.51l-.8-.12c.28-1.26,1.29-1.88,3-1.88a4.19,4.19,0,0,1,1.37.19,2.23,2.23,0,0,1,.89.56,2.31,2.31,0,0,1,.49.9,4.58,4.58,0,0,1,.15,1.22v5.09h-.87Zm0-3-1.42.06a7.91,7.91,0,0,0-1.46.16,2.64,2.64,0,0,0-.94.36,1.29,1.29,0,0,0-.52.57,1.78,1.78,0,0,0-.16.8,1.56,1.56,0,0,0,.4,1.13,1.82,1.82,0,0,0,1.39.43,4.67,4.67,0,0,0,1-.11,2,2,0,0,0,.8-.37,2.94,2.94,0,0,0,.44-.38,1.8,1.8,0,0,0,.29-.39,1.88,1.88,0,0,0,.16-.49,3.92,3.92,0,0,0,0-.63Z"/><path class="cls-3" d="M233.37,163.4h.87v1.27a3.91,3.91,0,0,1,1.34-1.15,3.37,3.37,0,0,1,1.53-.35,2.43,2.43,0,0,1,1.95.73,3.11,3.11,0,0,1,.63,2.08v5.15h-.87v-4.9a2.77,2.77,0,0,0-.44-1.75,1.67,1.67,0,0,0-1.38-.54,2.79,2.79,0,0,0-.95.18,2.44,2.44,0,0,0-.91.55,2.72,2.72,0,0,0-.67.8,2.35,2.35,0,0,0-.23,1.13v4.53h-.87Z"/><path class="cls-3" d="M247.49,170a4.07,4.07,0,0,1-1.14,1,3.09,3.09,0,0,1-1.55.37,3.14,3.14,0,0,1-1.48-.33,3,3,0,0,1-1-.89,3.71,3.71,0,0,1-.61-1.28,6.27,6.27,0,0,1-.19-1.52,4.68,4.68,0,0,1,.92-3.08,3.14,3.14,0,0,1,2.55-1.1,3.21,3.21,0,0,1,1.29.27,3,3,0,0,1,1.23,1v-4h.87v10.71h-.87Zm0-3a6,6,0,0,0-.06-.91,3,3,0,0,0-.18-.67,1.82,1.82,0,0,0-.32-.52,4,4,0,0,0-.47-.44,3.19,3.19,0,0,0-.72-.39,2.76,2.76,0,0,0-.8-.11,2.8,2.8,0,0,0-1,.18,2,2,0,0,0-.8.59,3,3,0,0,0-.54,1.06,5.81,5.81,0,0,0-.19,1.57,4.77,4.77,0,0,0,.22,1.58,2.74,2.74,0,0,0,.56,1,1.87,1.87,0,0,0,.77.54,2.43,2.43,0,0,0,.87.16,2.55,2.55,0,0,0,1.59-.49,2.74,2.74,0,0,0,.81-1,3.49,3.49,0,0,0,.28-1.5Z"/><path class="cls-3" d="M254.27,169a1.78,1.78,0,0,0,.76,1.28,3.24,3.24,0,0,0,1.71.37,2.31,2.31,0,0,0,1.59-.42,1.33,1.33,0,0,0,.47-1,2.64,2.64,0,0,0-.06-.51,1,1,0,0,0-.24-.43,1.61,1.61,0,0,0-.49-.33,4.09,4.09,0,0,0-.83-.22l-.95-.15a7.13,7.13,0,0,1-1.1-.26,2.91,2.91,0,0,1-.83-.39,1.7,1.7,0,0,1-.51-.62,2.19,2.19,0,0,1-.17-.9,1.94,1.94,0,0,1,.23-.93,2.11,2.11,0,0,1,.61-.69,3.4,3.4,0,0,1,.92-.43,4.27,4.27,0,0,1,1.15-.14,5,5,0,0,1,1.33.15,2.72,2.72,0,0,1,.87.43,2,2,0,0,1,.52.63,3.42,3.42,0,0,1,.3.77l-.8.16a3.13,3.13,0,0,0-.28-.61,1.34,1.34,0,0,0-.39-.43,1.66,1.66,0,0,0-.6-.27,3.84,3.84,0,0,0-.9-.08,3.66,3.66,0,0,0-1,.11,1.71,1.71,0,0,0-.65.31,1,1,0,0,0-.35.44,1.44,1.44,0,0,0-.11.53,1.88,1.88,0,0,0,.06.49.82.82,0,0,0,.24.38,1.56,1.56,0,0,0,.5.28,5,5,0,0,0,.85.21l1.19.2a3.67,3.67,0,0,1,1.81.73,2,2,0,0,1,.6,1.58,1.92,1.92,0,0,1-.19.85,1.86,1.86,0,0,1-.55.7,2.84,2.84,0,0,1-.92.47,4.51,4.51,0,0,1-1.28.17,5.89,5.89,0,0,1-1.3-.14,2.92,2.92,0,0,1-1-.42,2.16,2.16,0,0,1-.71-.73,2.55,2.55,0,0,1-.33-1.1Z"/><path class="cls-3" d="M261.51,160.42h.87v4.25a3.91,3.91,0,0,1,1.34-1.15,3.37,3.37,0,0,1,1.53-.35,2.43,2.43,0,0,1,1.95.73,3.11,3.11,0,0,1,.63,2.08v5.15H267v-4.9a2.77,2.77,0,0,0-.44-1.75,1.67,1.67,0,0,0-1.38-.54,2.79,2.79,0,0,0-.95.18,2.44,2.44,0,0,0-.91.55,2.72,2.72,0,0,0-.67.8,2.35,2.35,0,0,0-.23,1.13v4.53h-.87Z"/><path class="cls-3" d="M276.33,169.11a2.64,2.64,0,0,1-1,1.63,3.45,3.45,0,0,1-2.22.63,3.26,3.26,0,0,1-2.59-1.07,4.41,4.41,0,0,1-.92-3,5.79,5.79,0,0,1,.26-1.8,3.7,3.7,0,0,1,.74-1.31,2.82,2.82,0,0,1,1.11-.8,3.36,3.36,0,0,1,1.4-.27,3.54,3.54,0,0,1,1.53.29,2.81,2.81,0,0,1,1,.79,3.13,3.13,0,0,1,.57,1.19,5.48,5.48,0,0,1,.18,1.49v.55h-5.94a4.48,4.48,0,0,0,.17,1.24,2.81,2.81,0,0,0,.5,1,2.33,2.33,0,0,0,.82.67,2.45,2.45,0,0,0,1.14.25,4,4,0,0,0,1-.11,2,2,0,0,0,.68-.33,1.47,1.47,0,0,0,.42-.48,2.44,2.44,0,0,0,.25-.62Zm-.76-2.38a4.59,4.59,0,0,0-.14-1.15,2.63,2.63,0,0,0-.42-.91,1.92,1.92,0,0,0-.75-.59,2.68,2.68,0,0,0-1.11-.21,2.41,2.41,0,0,0-1.8.7,3.54,3.54,0,0,0-.81,2.16Z"/><path class="cls-3" d="M278.33,160.42h.86v10.71h-.86Z"/><path class="cls-3" d="M280.38,163.4h1l2.63,6.79,2.68-6.79h.95l-3.12,7.73h-1Z"/><path class="cls-3" d="M295.1,169.11a2.71,2.71,0,0,1-1,1.63,3.44,3.44,0,0,1-2.21.63,3.23,3.23,0,0,1-2.59-1.07,4.37,4.37,0,0,1-.93-3,5.5,5.5,0,0,1,.27-1.8,3.69,3.69,0,0,1,.73-1.31,3,3,0,0,1,1.11-.8,3.41,3.41,0,0,1,1.41-.27,3.5,3.5,0,0,1,1.52.29,2.73,2.73,0,0,1,1,.79,3.15,3.15,0,0,1,.58,1.19,5.91,5.91,0,0,1,.18,1.49v.55h-5.94a4.89,4.89,0,0,0,.16,1.24,3,3,0,0,0,.5,1,2.33,2.33,0,0,0,.82.67,2.5,2.5,0,0,0,1.15.25,4,4,0,0,0,1-.11,1.8,1.8,0,0,0,.68-.33,1.63,1.63,0,0,0,.43-.48,3.49,3.49,0,0,0,.25-.62Zm-.77-2.38a4.59,4.59,0,0,0-.14-1.15,2.46,2.46,0,0,0-.42-.91,1.78,1.78,0,0,0-.75-.59,2.63,2.63,0,0,0-1.1-.21,2.43,2.43,0,0,0-1.81.7,3.6,3.6,0,0,0-.81,2.16Z"/><path class="cls-3" d="M297.51,169a1.78,1.78,0,0,0,.76,1.28,3.3,3.3,0,0,0,1.72.37,2.31,2.31,0,0,0,1.59-.42,1.35,1.35,0,0,0,.46-1,2,2,0,0,0-.06-.51,1.13,1.13,0,0,0-.23-.43,1.67,1.67,0,0,0-.5-.33,3.91,3.91,0,0,0-.83-.22l-.94-.15a7.57,7.57,0,0,1-1.11-.26,2.84,2.84,0,0,1-.82-.39,1.52,1.52,0,0,1-.51-.62,2,2,0,0,1-.18-.9,1.94,1.94,0,0,1,.23-.93,2.11,2.11,0,0,1,.61-.69,3.33,3.33,0,0,1,.93-.43,4.14,4.14,0,0,1,1.14-.14,5,5,0,0,1,1.33.15,2.53,2.53,0,0,1,.87.43,2,2,0,0,1,.53.63,3.94,3.94,0,0,1,.29.77l-.79.16a3.85,3.85,0,0,0-.28-.61,1.5,1.5,0,0,0-.4-.43,1.66,1.66,0,0,0-.6-.27,3.84,3.84,0,0,0-.9-.08,3.59,3.59,0,0,0-1,.11,1.76,1.76,0,0,0-.66.31,1.06,1.06,0,0,0-.35.44,1.44,1.44,0,0,0-.11.53,1.53,1.53,0,0,0,.07.49.69.69,0,0,0,.24.38,1.37,1.37,0,0,0,.5.28,4.77,4.77,0,0,0,.85.21l1.18.2a3.75,3.75,0,0,1,1.82.73,2,2,0,0,1,.59,1.58,2.06,2.06,0,0,1-.18.85,1.89,1.89,0,0,1-.56.7,2.74,2.74,0,0,1-.92.47,4.44,4.44,0,0,1-1.27.17,5.76,5.76,0,0,1-1.3-.14,2.9,2.9,0,0,1-1-.42,2.13,2.13,0,0,1-.7-.73,2.3,2.3,0,0,1-.33-1.1Z"/><line class="cls-1" x1="621.65" y1="402.49" x2="621.64" y2="276.49"/><path class="cls-2" d="M622.58,276.49a.94.94,0,1,0-.94.94A.94.94,0,0,0,622.58,276.49Z"/><path class="cls-3" d="M533.87,425.81a2.56,2.56,0,0,0,1,1.73,5.38,5.38,0,0,0,3.71.35,2.23,2.23,0,0,0,.85-.48,1.69,1.69,0,0,0,.45-.7,2.72,2.72,0,0,0,.14-.86,3.29,3.29,0,0,0-.08-.71,1.5,1.5,0,0,0-.32-.61A2,2,0,0,0,539,424a4.34,4.34,0,0,0-1.14-.33l-1.33-.23a8.84,8.84,0,0,1-1.39-.34,3.36,3.36,0,0,1-1-.55,2.18,2.18,0,0,1-.64-.85,3.25,3.25,0,0,1-.21-1.24,2.5,2.5,0,0,1,.31-1.28,2.58,2.58,0,0,1,.82-.89,3.75,3.75,0,0,1,1.22-.52,5.8,5.8,0,0,1,1.47-.18,5.7,5.7,0,0,1,1.68.22,3.41,3.41,0,0,1,1.11.58,2.64,2.64,0,0,1,.68.82,4.78,4.78,0,0,1,.37.92l-.84.24a4.23,4.23,0,0,0-.35-.83,1.93,1.93,0,0,0-.54-.63,2.47,2.47,0,0,0-.85-.39,6,6,0,0,0-2.62,0,2.52,2.52,0,0,0-.9.43,1.66,1.66,0,0,0-.5.66,2.25,2.25,0,0,0-.15.82,2.57,2.57,0,0,0,.11.78,1.32,1.32,0,0,0,.36.57,2.11,2.11,0,0,0,.68.4,6.21,6.21,0,0,0,1.07.29l1.52.27a7.17,7.17,0,0,1,1.4.39,3,3,0,0,1,1,.61,2.15,2.15,0,0,1,.58.87,3.36,3.36,0,0,1,.19,1.2,2.92,2.92,0,0,1-.24,1.17,2.73,2.73,0,0,1-.71.95,3.6,3.6,0,0,1-1.18.64,5.12,5.12,0,0,1-1.65.24,7.38,7.38,0,0,1-1.61-.16,4,4,0,0,1-1.31-.53,3.13,3.13,0,0,1-.92-1,3.35,3.35,0,0,1-.45-1.42Z"/><path class="cls-3" d="M543.54,421.61h-1.2v-.72h1.2v-2.13h.87v2.13h2.19v.72h-2.19v5.05a1.84,1.84,0,0,0,.24,1,.89.89,0,0,0,.84.4,3.1,3.1,0,0,0,.66-.06,4,4,0,0,0,.48-.14l.18.71a3.77,3.77,0,0,1-1.39.24,2,2,0,0,1-1-.23,1.38,1.38,0,0,1-.56-.59,2.22,2.22,0,0,1-.23-.85c0-.32-.05-.65-.05-1Z"/><path class="cls-3" d="M551.13,428.85a3.82,3.82,0,0,1-1.52-.28,3,3,0,0,1-1.13-.82,3.67,3.67,0,0,1-.7-1.28,5.2,5.2,0,0,1-.25-1.68,5.38,5.38,0,0,1,.26-1.71,3.89,3.89,0,0,1,.74-1.31,3.21,3.21,0,0,1,1.15-.83,3.84,3.84,0,0,1,1.51-.29,3.88,3.88,0,0,1,1.52.28,3.15,3.15,0,0,1,1.14.82,3.62,3.62,0,0,1,.71,1.28,5.18,5.18,0,0,1,.25,1.67,5.38,5.38,0,0,1-.26,1.71,3.71,3.71,0,0,1-.73,1.31,3,3,0,0,1-1.15.84A3.81,3.81,0,0,1,551.13,428.85Zm0-.75a2.66,2.66,0,0,0,1.25-.26,2.31,2.31,0,0,0,.84-.71,3,3,0,0,0,.48-1.07,5.58,5.58,0,0,0,.15-1.33,5.45,5.45,0,0,0-.15-1.3,3,3,0,0,0-.48-1.06,2.42,2.42,0,0,0-.84-.71,3.11,3.11,0,0,0-2.49,0,2.42,2.42,0,0,0-.84.71,3.2,3.2,0,0,0-.47,1.06,5.47,5.47,0,0,0-.15,1.31,5.56,5.56,0,0,0,.15,1.32,3.16,3.16,0,0,0,.47,1.07,2.31,2.31,0,0,0,.84.71A2.67,2.67,0,0,0,551.16,428.1Z"/><path class="cls-3" d="M556.67,420.89h.87v1.26a3.53,3.53,0,0,1,1.06-1,2.46,2.46,0,0,1,1.28-.36h.3l.31,0-.1.83a3.13,3.13,0,0,0-.5-.05,2.25,2.25,0,0,0-.79.15,2.06,2.06,0,0,0-.77.48,2.57,2.57,0,0,0-.57.73,2.15,2.15,0,0,0-.22,1v4.65h-.87Z"/><path class="cls-3" d="M566.51,427.52a3.48,3.48,0,0,1-.47.47,3,3,0,0,1-.61.41,3.63,3.63,0,0,1-.76.29,3.73,3.73,0,0,1-.91.1,3,3,0,0,1-2-.58,2.09,2.09,0,0,1-.73-1.74,2.27,2.27,0,0,1,.33-1.28,2.34,2.34,0,0,1,.87-.78,4,4,0,0,1,1.25-.39,11.11,11.11,0,0,1,1.45-.15l1.5-.06v-.24a2.51,2.51,0,0,0-.45-1.66,2,2,0,0,0-1.58-.53,4.22,4.22,0,0,0-.94.09,1.82,1.82,0,0,0-.63.27,1.42,1.42,0,0,0-.41.4,1.85,1.85,0,0,0-.22.52l-.8-.12q.42-1.89,3-1.89a4.19,4.19,0,0,1,1.37.19,2.14,2.14,0,0,1,.89.57,2.18,2.18,0,0,1,.49.9,4.48,4.48,0,0,1,.15,1.22v5.08h-.87Zm0-3-1.42.06a8.89,8.89,0,0,0-1.46.16,3.08,3.08,0,0,0-.94.36,1.4,1.4,0,0,0-.52.57,1.81,1.81,0,0,0-.16.8,1.6,1.6,0,0,0,.4,1.14,1.86,1.86,0,0,0,1.39.42,4.09,4.09,0,0,0,1-.11,1.91,1.91,0,0,0,.8-.37,2.93,2.93,0,0,0,.44-.37,1.64,1.64,0,0,0,.29-.4,1.76,1.76,0,0,0,.16-.49,3.92,3.92,0,0,0,0-.63Z"/><path class="cls-3" d="M570.3,429.45a1.75,1.75,0,0,0,.72,1.14,3.19,3.19,0,0,0,1.7.36,2.47,2.47,0,0,0,1.87-.62,3,3,0,0,0,.6-2.09v-1.16a3.62,3.62,0,0,1-1.13,1.05,3.57,3.57,0,0,1-3,0,2.88,2.88,0,0,1-1-.86,3.67,3.67,0,0,1-.6-1.24,5.34,5.34,0,0,1-.2-1.45,5.22,5.22,0,0,1,.24-1.63,3.52,3.52,0,0,1,.69-1.25,3.06,3.06,0,0,1,1.1-.81,3.54,3.54,0,0,1,1.45-.28,3.29,3.29,0,0,1,1.31.28,3,3,0,0,1,1.21,1v-1.05h.87v7.44a3.59,3.59,0,0,1-.8,2.46,3.24,3.24,0,0,1-2.53.9,5.8,5.8,0,0,1-1.22-.12,3.14,3.14,0,0,1-1-.38,2.2,2.2,0,0,1-.7-.69,2.55,2.55,0,0,1-.34-1.05Zm4.92-5a7.58,7.58,0,0,0-.05-.9,3.06,3.06,0,0,0-.18-.68,2.27,2.27,0,0,0-.32-.52,3.29,3.29,0,0,0-.47-.43,2.86,2.86,0,0,0-.72-.39,2.39,2.39,0,0,0-.79-.12,2.8,2.8,0,0,0-1,.18,2.07,2.07,0,0,0-.81.57,2.72,2.72,0,0,0-.54,1,4.77,4.77,0,0,0-.2,1.46,4.12,4.12,0,0,0,.22,1.46,2.62,2.62,0,0,0,.56,1,2,2,0,0,0,.78.53,2.51,2.51,0,0,0,.89.17,2.9,2.9,0,0,0,.84-.11,2.64,2.64,0,0,0,.73-.37,2.46,2.46,0,0,0,.8-1,3.56,3.56,0,0,0,.28-1.52Z"/><path class="cls-3" d="M584.61,426.59a2.62,2.62,0,0,1-1,1.63,3.45,3.45,0,0,1-2.22.63,3.22,3.22,0,0,1-2.59-1.07,4.4,4.4,0,0,1-.92-2.95,5.79,5.79,0,0,1,.26-1.8,3.79,3.79,0,0,1,.74-1.31,3,3,0,0,1,1.11-.8,3.53,3.53,0,0,1,1.4-.27,3.7,3.7,0,0,1,1.53.29,2.84,2.84,0,0,1,1,.8,3.23,3.23,0,0,1,.58,1.19,5.83,5.83,0,0,1,.18,1.48V425h-5.94a4.53,4.53,0,0,0,.16,1.24,2.94,2.94,0,0,0,.5,1,2.36,2.36,0,0,0,.82.68,2.58,2.58,0,0,0,1.14.24,3.56,3.56,0,0,0,1-.11,1.87,1.87,0,0,0,.68-.32,1.51,1.51,0,0,0,.42-.49,2.3,2.3,0,0,0,.25-.62Zm-.76-2.37a4.67,4.67,0,0,0-.14-1.16,2.5,2.5,0,0,0-.42-.9,1.85,1.85,0,0,0-.75-.6,2.68,2.68,0,0,0-1.11-.21,2.38,2.38,0,0,0-1.8.71,3.52,3.52,0,0,0-.81,2.16Z"/><path class="cls-3" d="M590,417.9h.87v10.71H590Z"/><path class="cls-3" d="M596.33,428.85a3.9,3.9,0,0,1-1.53-.28,3,3,0,0,1-1.12-.82,3.69,3.69,0,0,1-.71-1.28,5.5,5.5,0,0,1-.24-1.68,5.12,5.12,0,0,1,.26-1.71,3.87,3.87,0,0,1,.73-1.31,3.3,3.3,0,0,1,1.15-.83,3.89,3.89,0,0,1,1.52-.29,3.83,3.83,0,0,1,1.51.28,3.15,3.15,0,0,1,1.14.82,3.62,3.62,0,0,1,.71,1.28,5.18,5.18,0,0,1,.25,1.67,5.39,5.39,0,0,1-.25,1.71,3.87,3.87,0,0,1-.73,1.31,3,3,0,0,1-1.16.84A3.73,3.73,0,0,1,596.33,428.85Zm0-.75a2.61,2.61,0,0,0,1.24-.26,2.31,2.31,0,0,0,.84-.71,3,3,0,0,0,.48-1.07,5.58,5.58,0,0,0,.15-1.33,5.45,5.45,0,0,0-.15-1.3,3,3,0,0,0-.48-1.06,2.42,2.42,0,0,0-.84-.71,2.74,2.74,0,0,0-1.24-.26,2.77,2.77,0,0,0-1.24.26,2.25,2.25,0,0,0-.84.71,3,3,0,0,0-.47,1.06,5.47,5.47,0,0,0-.15,1.31,5.56,5.56,0,0,0,.15,1.32,3,3,0,0,0,.47,1.07,2.16,2.16,0,0,0,.84.71A2.64,2.64,0,0,0,596.36,428.1Z"/><path class="cls-3" d="M608.4,426.09a3.44,3.44,0,0,1-1,2,3.21,3.21,0,0,1-2.21.72,3.93,3.93,0,0,1-1.5-.27,3,3,0,0,1-1.11-.81,3.8,3.8,0,0,1-.69-1.29,5.52,5.52,0,0,1-.24-1.69,5.38,5.38,0,0,1,.26-1.71,3.85,3.85,0,0,1,.72-1.31,3.13,3.13,0,0,1,1.13-.83,3.8,3.8,0,0,1,1.51-.29,3,3,0,0,1,2,.65,3.22,3.22,0,0,1,1,1.84l-.84.21a3.76,3.76,0,0,0-.26-.78,2.12,2.12,0,0,0-.42-.62,1.79,1.79,0,0,0-.64-.4,2.42,2.42,0,0,0-.9-.15,2.6,2.6,0,0,0-1.2.25,2.45,2.45,0,0,0-.83.7,2.94,2.94,0,0,0-.48,1.06,5.58,5.58,0,0,0-.15,1.33,5.67,5.67,0,0,0,.15,1.34,3.11,3.11,0,0,0,.47,1.06,2.22,2.22,0,0,0,.81.71,2.67,2.67,0,0,0,1.21.25,2.17,2.17,0,0,0,1.64-.54,2.89,2.89,0,0,0,.7-1.47Z"/><path class="cls-3" d="M610.17,417.9H611v6.59l4-3.6h1.08l-2.73,2.55,3.07,5.17h-1.05l-2.7-4.63L611,425.46v3.15h-.87Z"/><path class="cls-3" d="M623.64,426.59a2.62,2.62,0,0,1-1,1.63,3.45,3.45,0,0,1-2.22.63,3.22,3.22,0,0,1-2.59-1.07,4.4,4.4,0,0,1-.92-2.95,5.79,5.79,0,0,1,.26-1.8,3.79,3.79,0,0,1,.74-1.31,3,3,0,0,1,1.11-.8,3.53,3.53,0,0,1,1.4-.27,3.7,3.7,0,0,1,1.53.29,2.84,2.84,0,0,1,1,.8,3.23,3.23,0,0,1,.58,1.19,5.83,5.83,0,0,1,.18,1.48V425h-5.94a4.53,4.53,0,0,0,.16,1.24,2.94,2.94,0,0,0,.5,1,2.36,2.36,0,0,0,.82.68,2.58,2.58,0,0,0,1.14.24,3.56,3.56,0,0,0,1-.11,1.87,1.87,0,0,0,.68-.32,1.51,1.51,0,0,0,.42-.49,2.3,2.3,0,0,0,.25-.62Zm-.76-2.37a4.67,4.67,0,0,0-.14-1.16,2.5,2.5,0,0,0-.42-.9,1.85,1.85,0,0,0-.75-.6,2.68,2.68,0,0,0-1.11-.21,2.38,2.38,0,0,0-1.8.71,3.52,3.52,0,0,0-.81,2.16Z"/><path class="cls-3" d="M625.59,420.89h.87v1.26a3.56,3.56,0,0,1,1.07-1,2.42,2.42,0,0,1,1.27-.36h.31l.31,0-.11.83a3,3,0,0,0-.49-.05,2.31,2.31,0,0,0-.8.15,2,2,0,0,0-.76.48,2.4,2.4,0,0,0-.57.73,2.15,2.15,0,0,0-.23,1v4.65h-.87Z"/><path class="cls-3" d="M638.91,427.52a3.38,3.38,0,0,1-.46.47,3,3,0,0,1-.62.41,3.43,3.43,0,0,1-.76.29,3.59,3.59,0,0,1-.9.1,3,3,0,0,1-1.95-.58,2.09,2.09,0,0,1-.74-1.74,2.14,2.14,0,0,1,1.21-2.06,3.92,3.92,0,0,1,1.24-.39,11.29,11.29,0,0,1,1.45-.15l1.5-.06v-.24a2.58,2.58,0,0,0-.44-1.66,2,2,0,0,0-1.58-.53,4.16,4.16,0,0,0-.94.09,1.79,1.79,0,0,0-.64.27,1.38,1.38,0,0,0-.4.4,1.87,1.87,0,0,0-.23.52l-.79-.12q.42-1.89,3-1.89a4.13,4.13,0,0,1,1.36.19,2.09,2.09,0,0,1,1.38,1.47,4.48,4.48,0,0,1,.15,1.22v5.08h-.87Zm0-3-1.43.06a8.75,8.75,0,0,0-1.45.16,3.15,3.15,0,0,0-.95.36,1.48,1.48,0,0,0-.52.57,2,2,0,0,0-.15.8,1.64,1.64,0,0,0,.39,1.14,1.88,1.88,0,0,0,1.39.42,4,4,0,0,0,1-.11,1.9,1.9,0,0,0,.81-.37,3.55,3.55,0,0,0,.44-.37,1.6,1.6,0,0,0,.28-.4,1.49,1.49,0,0,0,.16-.49,3.83,3.83,0,0,0,0-.63Z"/><path class="cls-3" d="M641.87,420.89h.87v1.26a4,4,0,0,1,1.34-1.15,3.43,3.43,0,0,1,1.52-.35,2.43,2.43,0,0,1,1.95.73,3.12,3.12,0,0,1,.63,2.09v5.14h-.87v-4.9a2.79,2.79,0,0,0-.43-1.75,1.69,1.69,0,0,0-1.38-.53,3.14,3.14,0,0,0-1,.17,2.63,2.63,0,0,0-.9.55,3.05,3.05,0,0,0-.68.8,2.39,2.39,0,0,0-.22,1.13v4.53h-.87Z"/><path class="cls-3" d="M656,427.46a4,4,0,0,1-1.13,1,3,3,0,0,1-1.55.37,3.11,3.11,0,0,1-1.48-.33,2.93,2.93,0,0,1-1-.88,3.87,3.87,0,0,1-.6-1.28,5.94,5.94,0,0,1-.2-1.53,4.64,4.64,0,0,1,.93-3.08,3.14,3.14,0,0,1,2.54-1.1,3.39,3.39,0,0,1,1.29.27,3,3,0,0,1,1.23,1v-4h.87v10.71H656Zm0-3a5.92,5.92,0,0,0,0-.9,3,3,0,0,0-.19-.68,1.74,1.74,0,0,0-.32-.52,3.29,3.29,0,0,0-.47-.43,2.65,2.65,0,0,0-.71-.39,2.53,2.53,0,0,0-.8-.12,2.7,2.7,0,0,0-1,.19,2.06,2.06,0,0,0-.8.59,3,3,0,0,0-.53,1.05,5.48,5.48,0,0,0-.19,1.57,5.19,5.19,0,0,0,.21,1.59,3.27,3.27,0,0,0,.56,1,2.11,2.11,0,0,0,.78.54,2.55,2.55,0,0,0,.86.15,3,3,0,0,0,.83-.1,2.39,2.39,0,0,0,.76-.39,2.61,2.61,0,0,0,.81-1,3.49,3.49,0,0,0,.28-1.5Z"/><path class="cls-3" d="M662.76,426.47a1.78,1.78,0,0,0,.77,1.27,3.23,3.23,0,0,0,1.71.38,2.37,2.37,0,0,0,1.59-.42,1.35,1.35,0,0,0,.46-1.05,2,2,0,0,0-.06-.5,1.06,1.06,0,0,0-.23-.43,1.36,1.36,0,0,0-.5-.33,3.86,3.86,0,0,0-.83-.23l-.94-.15a9.2,9.2,0,0,1-1.11-.25,2.61,2.61,0,0,1-.82-.4,1.5,1.5,0,0,1-.51-.61,2.08,2.08,0,0,1-.17-.91,1.87,1.87,0,0,1,.22-.92,2,2,0,0,1,.62-.69,2.79,2.79,0,0,1,.92-.43,4.21,4.21,0,0,1,1.15-.15,4.49,4.49,0,0,1,1.32.16,2.35,2.35,0,0,1,.87.42,2,2,0,0,1,.53.63,3.94,3.94,0,0,1,.29.77l-.79.16a3.36,3.36,0,0,0-.28-.6,1.54,1.54,0,0,0-.4-.44,1.84,1.84,0,0,0-.6-.26,3.79,3.79,0,0,0-.9-.09,4,4,0,0,0-1,.11,2,2,0,0,0-.66.31,1.15,1.15,0,0,0-.35.45,1.34,1.34,0,0,0-.1.52,1.83,1.83,0,0,0,.06.49.77.77,0,0,0,.24.38,1.46,1.46,0,0,0,.5.29,4.77,4.77,0,0,0,.85.21l1.18.19a3.8,3.8,0,0,1,1.82.73,2,2,0,0,1,.6,1.58,2.11,2.11,0,0,1-.19.86,2,2,0,0,1-.56.7,2.73,2.73,0,0,1-.92.46,4.11,4.11,0,0,1-1.27.17,5.84,5.84,0,0,1-1.3-.13,3.09,3.09,0,0,1-1-.42,2.25,2.25,0,0,1-.7-.74,2.54,2.54,0,0,1-.33-1.09Z"/><path class="cls-3" d="M670,417.9h.87v4.25a4,4,0,0,1,1.34-1.15,3.43,3.43,0,0,1,1.52-.35,2.43,2.43,0,0,1,2,.73,3.12,3.12,0,0,1,.63,2.09v5.14h-.87v-4.9A2.79,2.79,0,0,0,675,422a1.69,1.69,0,0,0-1.38-.53,3.14,3.14,0,0,0-1,.17,2.63,2.63,0,0,0-.9.55,3.05,3.05,0,0,0-.68.8,2.39,2.39,0,0,0-.22,1.13v4.53H670Z"/><path class="cls-3" d="M684.82,426.59a2.62,2.62,0,0,1-1,1.63,3.42,3.42,0,0,1-2.21.63,3.2,3.2,0,0,1-2.59-1.07,4.35,4.35,0,0,1-.93-2.95,5.5,5.5,0,0,1,.27-1.8,3.78,3.78,0,0,1,.73-1.31,3.21,3.21,0,0,1,1.11-.8,3.58,3.58,0,0,1,1.41-.27,3.68,3.68,0,0,1,1.52.29,2.75,2.75,0,0,1,1,.8,3.08,3.08,0,0,1,.58,1.19,5.83,5.83,0,0,1,.18,1.48V425H679a4.18,4.18,0,0,0,.17,1.24,2.75,2.75,0,0,0,.49,1,2.36,2.36,0,0,0,.82.68,2.6,2.6,0,0,0,1.15.24,3.53,3.53,0,0,0,1-.11,1.87,1.87,0,0,0,.68-.32,1.67,1.67,0,0,0,.43-.49,2.67,2.67,0,0,0,.24-.62Zm-.76-2.37a4.24,4.24,0,0,0-.14-1.16,2.5,2.5,0,0,0-.42-.9,1.85,1.85,0,0,0-.75-.6,2.67,2.67,0,0,0-1.1-.21,2.4,2.4,0,0,0-1.81.71,3.58,3.58,0,0,0-.81,2.16Z"/><path class="cls-3" d="M686.82,417.9h.87v10.71h-.87Z"/><path class="cls-3" d="M688.87,420.89h1l2.62,6.78,2.69-6.78h.94L693,428.61h-1Z"/><path class="cls-3" d="M703.59,426.59a2.62,2.62,0,0,1-1,1.63,3.45,3.45,0,0,1-2.22.63,3.22,3.22,0,0,1-2.59-1.07,4.4,4.4,0,0,1-.92-2.95,5.79,5.79,0,0,1,.26-1.8,3.79,3.79,0,0,1,.74-1.31,3,3,0,0,1,1.11-.8,3.53,3.53,0,0,1,1.4-.27,3.7,3.7,0,0,1,1.53.29,2.84,2.84,0,0,1,1,.8,3.21,3.21,0,0,1,.57,1.19,5.83,5.83,0,0,1,.18,1.48V425h-5.94a4.53,4.53,0,0,0,.17,1.24,2.92,2.92,0,0,0,.49,1,2.39,2.39,0,0,0,.83.68,2.58,2.58,0,0,0,1.14.24,3.56,3.56,0,0,0,1-.11,1.82,1.82,0,0,0,.67-.32,1.54,1.54,0,0,0,.43-.49,2.3,2.3,0,0,0,.25-.62Zm-.77-2.37a4.68,4.68,0,0,0-.13-1.16,2.5,2.5,0,0,0-.42-.9,1.85,1.85,0,0,0-.75-.6,2.68,2.68,0,0,0-1.11-.21,2.38,2.38,0,0,0-1.8.71,3.52,3.52,0,0,0-.81,2.16Z"/><path class="cls-3" d="M706,426.47a1.78,1.78,0,0,0,.77,1.27,3.23,3.23,0,0,0,1.71.38,2.37,2.37,0,0,0,1.59-.42,1.35,1.35,0,0,0,.46-1.05,2.57,2.57,0,0,0,0-.5,1,1,0,0,0-.24-.43,1.32,1.32,0,0,0-.49-.33,4.15,4.15,0,0,0-.84-.23L708,425a8.61,8.61,0,0,1-1.1-.25,2.67,2.67,0,0,1-.83-.4,1.67,1.67,0,0,1-.51-.61,2.24,2.24,0,0,1-.17-.91,2,2,0,0,1,.22-.92,2,2,0,0,1,.62-.69,2.89,2.89,0,0,1,.92-.43,4.26,4.26,0,0,1,1.15-.15,4.61,4.61,0,0,1,1.33.16,2.52,2.52,0,0,1,.87.42,2,2,0,0,1,.52.63,3.39,3.39,0,0,1,.29.77l-.79.16a2.78,2.78,0,0,0-.28-.6,1.41,1.41,0,0,0-.4-.44,1.84,1.84,0,0,0-.6-.26,3.73,3.73,0,0,0-.9-.09,4,4,0,0,0-1,.11,1.87,1.87,0,0,0-.65.31,1,1,0,0,0-.35.45,1.19,1.19,0,0,0-.11.52,1.83,1.83,0,0,0,.06.49.77.77,0,0,0,.24.38,1.57,1.57,0,0,0,.5.29,5,5,0,0,0,.85.21l1.18.19a3.76,3.76,0,0,1,1.82.73,2.26,2.26,0,0,1,.41,2.44,2,2,0,0,1-.55.7,2.89,2.89,0,0,1-.93.46,4.11,4.11,0,0,1-1.27.17,5.91,5.91,0,0,1-1.3-.13,3.13,3.13,0,0,1-1-.42,2.28,2.28,0,0,1-.71-.74,2.54,2.54,0,0,1-.33-1.09Z"/></svg>