<svg id="text" xmlns="http://www.w3.org/2000/svg" width="800" height="550" viewBox="0 0 800 550"><defs><style>.cls-1{fill:#3a3531;}.cls-2{fill:none;stroke:#fbbb21;stroke-width:0.5px;}.cls-3{fill:#fbbb21;}</style></defs><title>pilot_locker_room_flipped_shadow</title><path class="cls-1" d="M139.27,150.93h3.45a6.08,6.08,0,0,1,1.92.25,3,3,0,0,1,1.18.67,2.25,2.25,0,0,1,.59,1,4.17,4.17,0,0,1,.17,1.19,4.36,4.36,0,0,1-.18,1.26,2.41,2.41,0,0,1-.6,1.05,3,3,0,0,1-1.19.71,5.75,5.75,0,0,1-1.92.27h-2.52v4.33h-.9Zm3.44,5.58a5.39,5.39,0,0,0,1.47-.17,2.27,2.27,0,0,0,.9-.49,1.59,1.59,0,0,0,.45-.76,4,4,0,0,0,.12-1,3.54,3.54,0,0,0-.14-1,1.62,1.62,0,0,0-.47-.73,2.2,2.2,0,0,0-.91-.43,5.84,5.84,0,0,0-1.44-.14h-2.52v4.78Z"/><path class="cls-1" d="M148.36,150.93h1v1.31h-1Zm.06,3h.87v7.72h-.87Z"/><path class="cls-1" d="M151.48,150.93h.87v10.71h-.87Z"/><path class="cls-1" d="M157.86,161.88a3.9,3.9,0,0,1-1.53-.28,3.07,3.07,0,0,1-1.12-.82,3.78,3.78,0,0,1-.71-1.28,5.5,5.5,0,0,1-.24-1.68,5.12,5.12,0,0,1,.26-1.71,3.87,3.87,0,0,1,.73-1.31,3.17,3.17,0,0,1,1.15-.83,3.71,3.71,0,0,1,1.52-.29,3.83,3.83,0,0,1,1.51.28,3,3,0,0,1,1.14.82,3.54,3.54,0,0,1,.71,1.28,5.18,5.18,0,0,1,.25,1.67,5.39,5.39,0,0,1-.25,1.71,4,4,0,0,1-.73,1.31,3.27,3.27,0,0,1-1.16.84A3.9,3.9,0,0,1,157.86,161.88Zm0-.75a2.74,2.74,0,0,0,1.24-.26,2.42,2.42,0,0,0,.84-.71,3,3,0,0,0,.48-1.07,5.58,5.58,0,0,0,.15-1.33,5.39,5.39,0,0,0-.15-1.3,2.94,2.94,0,0,0-.48-1.06,2.31,2.31,0,0,0-.84-.71,2.61,2.61,0,0,0-1.24-.26,2.64,2.64,0,0,0-1.24.26,2.16,2.16,0,0,0-.84.71,2.93,2.93,0,0,0-.47,1.06,5.41,5.41,0,0,0-.15,1.31,5.56,5.56,0,0,0,.15,1.32,3,3,0,0,0,.47,1.07,2.25,2.25,0,0,0,.84.71A2.77,2.77,0,0,0,157.89,161.13Z"/><path class="cls-1" d="M163.83,154.64h-1.2v-.72h1.2v-2.13h.87v2.13h2.19v.72H164.7v5.05a1.86,1.86,0,0,0,.24,1,.91.91,0,0,0,.84.4,3.1,3.1,0,0,0,.66-.06,4,4,0,0,0,.48-.14l.18.71a4.13,4.13,0,0,1-.55.16,3.89,3.89,0,0,1-.85.08,2,2,0,0,1-1-.23,1.53,1.53,0,0,1-.57-.59,2.47,2.47,0,0,1-.23-.85c0-.32,0-.65,0-1Z"/><path class="cls-1" d="M178.14,159.62a2.62,2.62,0,0,1-1,1.63,3.45,3.45,0,0,1-2.22.63,3.24,3.24,0,0,1-2.59-1.07,4.36,4.36,0,0,1-.92-2.95,5.51,5.51,0,0,1,.26-1.8,3.69,3.69,0,0,1,.73-1.31,3.09,3.09,0,0,1,1.11-.8,3.62,3.62,0,0,1,1.41-.27,3.54,3.54,0,0,1,1.53.29,2.7,2.7,0,0,1,1,.79,3.2,3.2,0,0,1,.58,1.2,5.83,5.83,0,0,1,.18,1.48V158h-5.94a4.4,4.4,0,0,0,.17,1.23,3,3,0,0,0,.49,1,2.36,2.36,0,0,0,.83.67,2.45,2.45,0,0,0,1.14.25,4,4,0,0,0,1-.11,2,2,0,0,0,.67-.32,1.81,1.81,0,0,0,.43-.49,2.87,2.87,0,0,0,.25-.62Zm-.77-2.37a4.68,4.68,0,0,0-.13-1.16,2.63,2.63,0,0,0-.42-.91,1.92,1.92,0,0,0-.75-.59,2.68,2.68,0,0,0-1.11-.21,2.38,2.38,0,0,0-1.8.71,3.52,3.52,0,0,0-.81,2.16Z"/><path class="cls-1" d="M185.83,160.49a4,4,0,0,1-1.13,1,3,3,0,0,1-1.55.37,3.11,3.11,0,0,1-1.48-.33,2.93,2.93,0,0,1-1-.88,3.83,3.83,0,0,1-.6-1.29,5.81,5.81,0,0,1-.19-1.52,4.62,4.62,0,0,1,.92-3.08,3.11,3.11,0,0,1,2.54-1.1,3.39,3.39,0,0,1,1.29.27,3,3,0,0,1,1.23,1v-1.05h.89v10.63h-.89Zm0-3a6,6,0,0,0-.06-.91,3.6,3.6,0,0,0-.18-.67,1.65,1.65,0,0,0-.33-.52,3.29,3.29,0,0,0-.47-.43,2.65,2.65,0,0,0-.71-.39,2.49,2.49,0,0,0-.8-.12,2.8,2.8,0,0,0-1,.18,2.14,2.14,0,0,0-.81.6,3,3,0,0,0-.53,1,5.48,5.48,0,0,0-.19,1.57,5.08,5.08,0,0,0,.21,1.58,2.9,2.9,0,0,0,.57,1,1.81,1.81,0,0,0,.77.54,2.34,2.34,0,0,0,.86.16,3,3,0,0,0,.83-.1,2.39,2.39,0,0,0,.76-.39,2.61,2.61,0,0,0,.81-1,3.49,3.49,0,0,0,.29-1.5Z"/><path class="cls-1" d="M188.79,153.92h.87v4.9a3,3,0,0,0,.38,1.75,1.51,1.51,0,0,0,1.31.53,2.56,2.56,0,0,0,.93-.18,3.08,3.08,0,0,0,.89-.54,3,3,0,0,0,.66-.8,2.39,2.39,0,0,0,.22-1.13v-4.53h.87v7.72h-.87v-1.26a3.54,3.54,0,0,1-2.8,1.5,2.27,2.27,0,0,1-1.89-.72,3.33,3.33,0,0,1-.57-2.1Z"/><path class="cls-1" d="M197,150.93h1v1.31h-1Zm.06,3h.87v7.72h-.87Z"/><path class="cls-1" d="M200.08,153.92H201v1.15a4.28,4.28,0,0,1,1.16-1,3,3,0,0,1,1.53-.36,3.35,3.35,0,0,1,1.47.3,3,3,0,0,1,1,.85,3.71,3.71,0,0,1,.61,1.28,5.77,5.77,0,0,1,.21,1.59,5.93,5.93,0,0,1-.25,1.76,4,4,0,0,1-.7,1.31,3,3,0,0,1-1.09.83,3.44,3.44,0,0,1-1.43.28,3.38,3.38,0,0,1-1.36-.28,3.09,3.09,0,0,1-1.19-1v4h-.87Zm.84,4.17a7.66,7.66,0,0,0,.05.89,3.21,3.21,0,0,0,.18.68,2.16,2.16,0,0,0,.33.53,2.43,2.43,0,0,0,.47.43,2.51,2.51,0,0,0,.71.39,2.88,2.88,0,0,0,1.85-.07,2.06,2.06,0,0,0,.8-.59,3,3,0,0,0,.53-1.06,5.55,5.55,0,0,0,.19-1.58,5,5,0,0,0-.21-1.57,3.08,3.08,0,0,0-.56-1,2.11,2.11,0,0,0-.78-.54,2.64,2.64,0,0,0-.86-.15,3.12,3.12,0,0,0-.84.1,2.25,2.25,0,0,0-.75.39,2.78,2.78,0,0,0-.82,1,3.5,3.5,0,0,0-.29,1.51Z"/><path class="cls-1" d="M208.83,153.92h.86v1.27a4.2,4.2,0,0,1,1.23-1.14,2.62,2.62,0,0,1,1.33-.37,2.1,2.1,0,0,1,2.2,1.51,4,4,0,0,1,1.23-1.12,3.09,3.09,0,0,1,1.51-.39,2.43,2.43,0,0,1,1.75.6,2.55,2.55,0,0,1,.63,1.92v5.44h-.88v-5.13a4.52,4.52,0,0,0-.09-1,1.68,1.68,0,0,0-.3-.63,1.15,1.15,0,0,0-.5-.34,2.5,2.5,0,0,0-.71-.09,3.1,3.1,0,0,0-.79.12,2.39,2.39,0,0,0-.84.48,2.49,2.49,0,0,0-.6.69,1.9,1.9,0,0,0-.23.94v4.95h-.87v-5.11a2.53,2.53,0,0,0-.39-1.6,1.42,1.42,0,0,0-1.18-.47,2,2,0,0,0-.85.18,3.47,3.47,0,0,0-.79.54,3.69,3.69,0,0,0-.29.28,1.62,1.62,0,0,0-.28.39,2.34,2.34,0,0,0-.2.53,2.4,2.4,0,0,0-.09.69v4.57h-.86Z"/><path class="cls-1" d="M228.07,159.62a2.62,2.62,0,0,1-1,1.63,3.45,3.45,0,0,1-2.22.63,3.26,3.26,0,0,1-2.59-1.07,4.41,4.41,0,0,1-.92-2.95,5.79,5.79,0,0,1,.26-1.8,3.7,3.7,0,0,1,.74-1.31,2.93,2.93,0,0,1,1.11-.8,4,4,0,0,1,2.93,0,2.81,2.81,0,0,1,1,.79A3.18,3.18,0,0,1,228,156a5.41,5.41,0,0,1,.18,1.48V158h-5.93a4.41,4.41,0,0,0,.16,1.23,2.81,2.81,0,0,0,.5,1,2.33,2.33,0,0,0,.82.67,2.45,2.45,0,0,0,1.14.25,4,4,0,0,0,1-.11,2,2,0,0,0,.68-.32,1.62,1.62,0,0,0,.42-.49,2.44,2.44,0,0,0,.25-.62Zm-.76-2.37a4.67,4.67,0,0,0-.14-1.16,2.63,2.63,0,0,0-.42-.91,1.92,1.92,0,0,0-.75-.59,2.68,2.68,0,0,0-1.11-.21,2.38,2.38,0,0,0-1.8.71,3.52,3.52,0,0,0-.81,2.16Z"/><path class="cls-1" d="M230,153.92h.87v1.26a4,4,0,0,1,1.34-1.15,3.37,3.37,0,0,1,1.53-.35,2.41,2.41,0,0,1,1.94.73,3.13,3.13,0,0,1,.64,2.09v5.14h-.87v-4.9A2.77,2.77,0,0,0,235,155a1.66,1.66,0,0,0-1.38-.53,2.77,2.77,0,0,0-1,.17,2.44,2.44,0,0,0-.91.55,3.09,3.09,0,0,0-.68.8,2.49,2.49,0,0,0-.22,1.13v4.53H230Z"/><path class="cls-1" d="M238.82,154.64h-1.2v-.72h1.2v-2.13h.87v2.13h2.19v.72h-2.19v5.05a1.77,1.77,0,0,0,.25,1,.89.89,0,0,0,.83.4,3.2,3.2,0,0,0,.67-.06l.48-.14.18.71a4.63,4.63,0,0,1-.55.16,3.89,3.89,0,0,1-.85.08,2,2,0,0,1-1-.23,1.47,1.47,0,0,1-.57-.59,2.47,2.47,0,0,1-.23-.85c0-.32-.05-.65-.05-1Z"/><path class="cls-1" d="M252.43,160.49a4,4,0,0,1-1.13,1,3,3,0,0,1-1.56.37,3.1,3.1,0,0,1-1.47-.33,2.93,2.93,0,0,1-1-.88,3.83,3.83,0,0,1-.6-1.29,5.81,5.81,0,0,1-.2-1.52,4.62,4.62,0,0,1,.93-3.08,3.11,3.11,0,0,1,2.54-1.1,3.39,3.39,0,0,1,1.29.27,3,3,0,0,1,1.23,1v-4h.87v10.71h-.87Zm0-3a6,6,0,0,0-.06-.91,3,3,0,0,0-.18-.67,1.62,1.62,0,0,0-.32-.52,3.29,3.29,0,0,0-.47-.43,2.65,2.65,0,0,0-.71-.39,2.53,2.53,0,0,0-.8-.12,2.82,2.82,0,0,0-1,.18,2.19,2.19,0,0,0-.8.6,3,3,0,0,0-.53,1,5.45,5.45,0,0,0-.2,1.57,5.05,5.05,0,0,0,.22,1.58,3.06,3.06,0,0,0,.56,1,1.84,1.84,0,0,0,.78.54,2.34,2.34,0,0,0,.86.16,3,3,0,0,0,.83-.1,2.39,2.39,0,0,0,.76-.39,2.61,2.61,0,0,0,.81-1,3.49,3.49,0,0,0,.28-1.5Z"/><path class="cls-1" d="M255.4,153.92h.87v1.26a3.65,3.65,0,0,1,1.06-1,2.46,2.46,0,0,1,1.28-.36h.31l.3,0-.1.83a3.13,3.13,0,0,0-.5,0,2.48,2.48,0,0,0-.79.14,2.23,2.23,0,0,0-.77.49,2.44,2.44,0,0,0-.57.73,2.25,2.25,0,0,0-.22,1v4.65h-.87Z"/><path class="cls-1" d="M260.29,163.61a2.4,2.4,0,0,0,.38.12,2,2,0,0,0,.43,0,1.44,1.44,0,0,0,.45-.06.77.77,0,0,0,.33-.22,1.87,1.87,0,0,0,.28-.4c.08-.17.18-.38.29-.64l.36-.92-3.32-7.61h1l2.8,6.6,2.51-6.6h1l-3.51,8.74c-.12.29-.24.55-.36.79a3.52,3.52,0,0,1-.42.6,1.57,1.57,0,0,1-.55.37,1.9,1.9,0,0,1-.75.13,3.22,3.22,0,0,1-.58,0,2.8,2.8,0,0,1-.53-.14Z"/><path class="cls-1" d="M271.73,159.5a1.78,1.78,0,0,0,.77,1.27,3.23,3.23,0,0,0,1.71.38,2.37,2.37,0,0,0,1.59-.42,1.35,1.35,0,0,0,.46-1,2.1,2.1,0,0,0-.06-.51,1,1,0,0,0-.23-.42,1.32,1.32,0,0,0-.49-.33,4.15,4.15,0,0,0-.84-.23l-.94-.15a8.61,8.61,0,0,1-1.1-.25,2.91,2.91,0,0,1-.83-.4,1.7,1.7,0,0,1-.51-.62,2.16,2.16,0,0,1-.17-.9,1.93,1.93,0,0,1,.22-.93,2.15,2.15,0,0,1,.62-.69,3.11,3.11,0,0,1,.92-.42,4.26,4.26,0,0,1,1.15-.15,5,5,0,0,1,1.33.15,2.72,2.72,0,0,1,.87.43,2,2,0,0,1,.52.63,3.39,3.39,0,0,1,.29.77l-.79.16a3.13,3.13,0,0,0-.28-.61,1.37,1.37,0,0,0-.4-.43,1.65,1.65,0,0,0-.6-.26,3.79,3.79,0,0,0-.9-.09,3.59,3.59,0,0,0-1,.11,1.71,1.71,0,0,0-.65.31,1.09,1.09,0,0,0-.36.45,1.34,1.34,0,0,0-.1.52,1.88,1.88,0,0,0,.06.49.82.82,0,0,0,.24.38,1.57,1.57,0,0,0,.5.29,5,5,0,0,0,.85.21l1.18.19a3.71,3.71,0,0,1,1.82.73,2.26,2.26,0,0,1,.41,2.44,1.83,1.83,0,0,1-.55.69,2.9,2.9,0,0,1-.93.47,4.44,4.44,0,0,1-1.27.17,5.91,5.91,0,0,1-1.3-.13,3.18,3.18,0,0,1-1-.42,2.25,2.25,0,0,1-.7-.74,2.54,2.54,0,0,1-.33-1.09Z"/><path class="cls-1" d="M279.41,154.64h-1.2v-.72h1.2v-2.13h.87v2.13h2.19v.72h-2.19v5.05a1.86,1.86,0,0,0,.24,1,.91.91,0,0,0,.84.4A3.1,3.1,0,0,0,282,161a4,4,0,0,0,.48-.14l.18.71a4,4,0,0,1-.54.16,3.89,3.89,0,0,1-.85.08,2,2,0,0,1-1-.23,1.51,1.51,0,0,1-.56-.59,2.47,2.47,0,0,1-.23-.85c0-.32,0-.65,0-1Z"/><path class="cls-1" d="M287.29,161.88a3.82,3.82,0,0,1-1.52-.28,3.11,3.11,0,0,1-1.13-.82,3.77,3.77,0,0,1-.7-1.28,5.2,5.2,0,0,1-.25-1.68,5.38,5.38,0,0,1,.26-1.71,3.89,3.89,0,0,1,.74-1.31,3.06,3.06,0,0,1,1.14-.83,3.71,3.71,0,0,1,1.52-.29,3.83,3.83,0,0,1,1.51.28,3,3,0,0,1,1.14.82,3.71,3.71,0,0,1,.72,1.28,5.48,5.48,0,0,1,.24,1.67,5.39,5.39,0,0,1-.25,1.71,3.8,3.8,0,0,1-.73,1.31,3.23,3.23,0,0,1-1.15.84A4,4,0,0,1,287.29,161.88Zm0-.75a2.74,2.74,0,0,0,1.24-.26,2.42,2.42,0,0,0,.84-.71,3,3,0,0,0,.48-1.07,5.58,5.58,0,0,0,.15-1.33,5.39,5.39,0,0,0-.15-1.3,2.94,2.94,0,0,0-.48-1.06,2.31,2.31,0,0,0-.84-.71,2.61,2.61,0,0,0-1.24-.26,2.67,2.67,0,0,0-1.24.26,2.31,2.31,0,0,0-.84.71,3.11,3.11,0,0,0-.47,1.06,5.41,5.41,0,0,0-.15,1.31,5.56,5.56,0,0,0,.15,1.32,3.16,3.16,0,0,0,.47,1.07,2.42,2.42,0,0,0,.84.71A2.8,2.8,0,0,0,287.32,161.13Z"/><path class="cls-1" d="M292.82,153.92h.87v1.26a3.56,3.56,0,0,1,1.07-1,2.42,2.42,0,0,1,1.27-.36h.31l.31,0-.11.83a3,3,0,0,0-.49,0,2.54,2.54,0,0,0-.8.14,2.19,2.19,0,0,0-.76.49,2.44,2.44,0,0,0-.57.73,2.12,2.12,0,0,0-.23,1v4.65h-.87Z"/><path class="cls-1" d="M302.8,160.55a4.17,4.17,0,0,1-.47.47,3.41,3.41,0,0,1-1.37.7,3.68,3.68,0,0,1-.91.1,3,3,0,0,1-1.95-.58,2.09,2.09,0,0,1-.73-1.74,2.14,2.14,0,0,1,1.21-2.06,4.2,4.2,0,0,1,1.24-.4,13.44,13.44,0,0,1,1.45-.14l1.5-.06v-.24a2.58,2.58,0,0,0-.44-1.66,2,2,0,0,0-1.59-.53,4.06,4.06,0,0,0-.93.09,2,2,0,0,0-.64.26,1.45,1.45,0,0,0-.41.41,1.73,1.73,0,0,0-.22.52l-.8-.12q.42-1.89,3-1.89a4.19,4.19,0,0,1,1.37.19,2.16,2.16,0,0,1,.89.56,2.19,2.19,0,0,1,.49.9,4.6,4.6,0,0,1,.15,1.23v5.08h-.87Zm0-3-1.42.06a7.91,7.91,0,0,0-1.46.16,2.64,2.64,0,0,0-.94.36,1.35,1.35,0,0,0-.52.57,1.93,1.93,0,0,0-.16.8,1.61,1.61,0,0,0,.4,1.13,1.84,1.84,0,0,0,1.39.43,4.6,4.6,0,0,0,1-.11,2,2,0,0,0,.8-.37,3.71,3.71,0,0,0,.45-.37,1.8,1.8,0,0,0,.28-.4,1.57,1.57,0,0,0,.16-.49,3.92,3.92,0,0,0,0-.63Z"/><path class="cls-1" d="M306.59,162.48a1.71,1.71,0,0,0,.72,1.13,3.09,3.09,0,0,0,1.7.37,2.51,2.51,0,0,0,1.87-.62,3,3,0,0,0,.6-2.09v-1.16a3.38,3.38,0,0,1-1.13,1,3,3,0,0,1-1.55.37,3.31,3.31,0,0,1-1.49-.32,3,3,0,0,1-1-.86,3.76,3.76,0,0,1-.6-1.24,5.4,5.4,0,0,1-.2-1.45,5.22,5.22,0,0,1,.24-1.63,3.65,3.65,0,0,1,.69-1.26,3.15,3.15,0,0,1,1.1-.8,3.54,3.54,0,0,1,1.45-.28,3.45,3.45,0,0,1,1.31.27,3.08,3.08,0,0,1,1.21,1v-1.05h.87v7.44a3.54,3.54,0,0,1-.8,2.46,3.22,3.22,0,0,1-2.53.9,5.87,5.87,0,0,1-1.22-.12,3.11,3.11,0,0,1-1-.39,2.1,2.1,0,0,1-.7-.69,2.46,2.46,0,0,1-.34-1Zm4.92-5a6.15,6.15,0,0,0-.05-.91,2.19,2.19,0,0,0-.18-.67,1.82,1.82,0,0,0-.32-.52,3.29,3.29,0,0,0-.47-.43,2.86,2.86,0,0,0-.72-.39,2.39,2.39,0,0,0-.79-.12,2.8,2.8,0,0,0-1,.18,2.07,2.07,0,0,0-.81.57,2.76,2.76,0,0,0-.54,1,4.88,4.88,0,0,0-.2,1.47,4.4,4.4,0,0,0,.22,1.46,3,3,0,0,0,.56,1,2.12,2.12,0,0,0,.78.53,2.51,2.51,0,0,0,.89.17,2.9,2.9,0,0,0,.84-.11,2.52,2.52,0,0,0,1.54-1.37,3.76,3.76,0,0,0,.27-1.52Z"/><path class="cls-1" d="M320.9,159.62a2.62,2.62,0,0,1-1,1.63,3.45,3.45,0,0,1-2.22.63,3.22,3.22,0,0,1-2.58-1.07,4.37,4.37,0,0,1-.93-2.95,5.5,5.5,0,0,1,.27-1.8,3.69,3.69,0,0,1,.73-1.31,3.09,3.09,0,0,1,1.11-.8,4,4,0,0,1,2.93,0,2.73,2.73,0,0,1,1,.79,3.2,3.2,0,0,1,.58,1.2,5.83,5.83,0,0,1,.18,1.48V158H315.1a4.41,4.41,0,0,0,.16,1.23,3,3,0,0,0,.5,1,2.33,2.33,0,0,0,.82.67,2.45,2.45,0,0,0,1.14.25,4,4,0,0,0,1-.11,2,2,0,0,0,.68-.32,1.81,1.81,0,0,0,.43-.49,2.86,2.86,0,0,0,.24-.62Zm-.76-2.37a4.67,4.67,0,0,0-.14-1.16,2.63,2.63,0,0,0-.42-.91,1.92,1.92,0,0,0-.75-.59,2.68,2.68,0,0,0-1.11-.21,2.38,2.38,0,0,0-1.8.71,3.52,3.52,0,0,0-.81,2.16Z"/><path class="cls-1" d="M326.24,150.93h.87v10.71h-.87Z"/><path class="cls-1" d="M332.62,161.88a3.82,3.82,0,0,1-1.52-.28,3,3,0,0,1-1.13-.82,3.77,3.77,0,0,1-.7-1.28,5.2,5.2,0,0,1-.25-1.68,5.38,5.38,0,0,1,.26-1.71,3.89,3.89,0,0,1,.74-1.31,3.06,3.06,0,0,1,1.14-.83,3.71,3.71,0,0,1,1.52-.29,3.83,3.83,0,0,1,1.51.28,3,3,0,0,1,1.14.82,3.71,3.71,0,0,1,.72,1.28,5.48,5.48,0,0,1,.24,1.67,5.39,5.39,0,0,1-.25,1.71,3.8,3.8,0,0,1-.73,1.31,3.23,3.23,0,0,1-1.15.84A4,4,0,0,1,332.62,161.88Zm0-.75a2.74,2.74,0,0,0,1.24-.26,2.42,2.42,0,0,0,.84-.71,3,3,0,0,0,.48-1.07,5.58,5.58,0,0,0,.15-1.33,5.39,5.39,0,0,0-.15-1.3,2.94,2.94,0,0,0-.48-1.06,2.31,2.31,0,0,0-.84-.71,2.61,2.61,0,0,0-1.24-.26,2.67,2.67,0,0,0-1.24.26,2.31,2.31,0,0,0-.84.71,3.11,3.11,0,0,0-.47,1.06,5.41,5.41,0,0,0-.15,1.31,5.56,5.56,0,0,0,.15,1.32,3.16,3.16,0,0,0,.47,1.07,2.42,2.42,0,0,0,.84.71A2.8,2.8,0,0,0,332.65,161.13Z"/><path class="cls-1" d="M344.69,159.12a3.38,3.38,0,0,1-1,2,3.17,3.17,0,0,1-2.21.73,3.75,3.75,0,0,1-1.5-.28,2.8,2.8,0,0,1-1.11-.81,3.66,3.66,0,0,1-.69-1.28,5.52,5.52,0,0,1-.24-1.69,5.38,5.38,0,0,1,.26-1.71,3.85,3.85,0,0,1,.72-1.31A3.1,3.1,0,0,1,340,154a3.67,3.67,0,0,1,1.51-.29,3,3,0,0,1,2,.65,3.13,3.13,0,0,1,1,1.84l-.84.21a3.76,3.76,0,0,0-.26-.78A2.12,2.12,0,0,0,343,155a1.84,1.84,0,0,0-.63-.4,2.52,2.52,0,0,0-.91-.15,2.6,2.6,0,0,0-1.2.25,2.45,2.45,0,0,0-.83.7,2.87,2.87,0,0,0-.48,1.06,5.58,5.58,0,0,0-.15,1.33,5.67,5.67,0,0,0,.15,1.34,3.11,3.11,0,0,0,.47,1.06,2.22,2.22,0,0,0,.81.71,2.67,2.67,0,0,0,1.21.25,2.18,2.18,0,0,0,1.65-.55,2.89,2.89,0,0,0,.69-1.46Z"/><path class="cls-1" d="M346.46,150.93h.87v6.59l4-3.6h1.08l-2.73,2.55,3.07,5.17h-1.05L349,157l-1.65,1.48v3.15h-.87Z"/><path class="cls-1" d="M360.31,159.62a2.62,2.62,0,0,1-1,1.63,3.45,3.45,0,0,1-2.22.63,3.26,3.26,0,0,1-2.59-1.07,4.41,4.41,0,0,1-.92-2.95,5.51,5.51,0,0,1,.26-1.8,3.85,3.85,0,0,1,.73-1.31,3,3,0,0,1,1.12-.8,4,4,0,0,1,2.93,0,2.81,2.81,0,0,1,1,.79,3.34,3.34,0,0,1,.57,1.2,5.83,5.83,0,0,1,.18,1.48V158H354.5a4.4,4.4,0,0,0,.17,1.23,3,3,0,0,0,.49,1,2.36,2.36,0,0,0,.83.67,2.45,2.45,0,0,0,1.14.25,4,4,0,0,0,1-.11,2,2,0,0,0,.67-.32,1.81,1.81,0,0,0,.43-.49,2.44,2.44,0,0,0,.25-.62Zm-.77-2.37a4.68,4.68,0,0,0-.13-1.16,2.63,2.63,0,0,0-.42-.91,1.92,1.92,0,0,0-.75-.59,2.68,2.68,0,0,0-1.11-.21,2.38,2.38,0,0,0-1.8.71,3.52,3.52,0,0,0-.81,2.16Z"/><path class="cls-1" d="M362.26,153.92h.87v1.26a3.53,3.53,0,0,1,1.06-1,2.46,2.46,0,0,1,1.28-.36h.3l.31,0-.1.83a3.13,3.13,0,0,0-.5,0,2.48,2.48,0,0,0-.79.14,2.23,2.23,0,0,0-.77.49,2.44,2.44,0,0,0-.57.73,2.12,2.12,0,0,0-.22,1v4.65h-.87Z"/><path class="cls-1" d="M457.39,103.36a2.57,2.57,0,0,0,1,1.73,5.38,5.38,0,0,0,3.71.35A2.31,2.31,0,0,0,463,105a1.69,1.69,0,0,0,.45-.7,2.71,2.71,0,0,0,.13-.86,3.29,3.29,0,0,0-.08-.71,1.5,1.5,0,0,0-.32-.61,1.84,1.84,0,0,0-.66-.49,4.34,4.34,0,0,0-1.14-.33L460,101a9.13,9.13,0,0,1-1.39-.34,3.31,3.31,0,0,1-1-.55,2.09,2.09,0,0,1-.64-.85,3.06,3.06,0,0,1-.22-1.24,2.5,2.5,0,0,1,.31-1.28,2.68,2.68,0,0,1,.82-.89,3.75,3.75,0,0,1,1.22-.52,5.88,5.88,0,0,1,1.48-.18,5.7,5.7,0,0,1,1.68.22,3.41,3.41,0,0,1,1.11.58,2.6,2.6,0,0,1,.67.82,4.83,4.83,0,0,1,.38.92l-.84.24a4.23,4.23,0,0,0-.36-.83,1.82,1.82,0,0,0-.54-.63,2.34,2.34,0,0,0-.84-.39A5,5,0,0,0,460.6,96a4.93,4.93,0,0,0-1.38.16,2.52,2.52,0,0,0-.9.43,1.63,1.63,0,0,0-.49.66,2.25,2.25,0,0,0-.15.82,2.59,2.59,0,0,0,.1.78,1.32,1.32,0,0,0,.36.57,2.11,2.11,0,0,0,.68.4,6.35,6.35,0,0,0,1.08.29l1.51.27a7.17,7.17,0,0,1,1.4.39,3,3,0,0,1,1,.61,2.13,2.13,0,0,1,.57.87,3.36,3.36,0,0,1,.19,1.2,2.92,2.92,0,0,1-.24,1.17,2.73,2.73,0,0,1-.71,1,3.6,3.6,0,0,1-1.18.64,5.12,5.12,0,0,1-1.65.24,7.38,7.38,0,0,1-1.61-.16,4,4,0,0,1-1.31-.53,3.13,3.13,0,0,1-.92-1,3.35,3.35,0,0,1-.45-1.42Z"/><path class="cls-1" d="M471.42,105.07a3.48,3.48,0,0,1-.47.47,3,3,0,0,1-.61.41,3.63,3.63,0,0,1-.76.29,3.73,3.73,0,0,1-.91.1,3,3,0,0,1-1.95-.58A2.09,2.09,0,0,1,466,104a2.27,2.27,0,0,1,.33-1.28,2.34,2.34,0,0,1,.87-.78,4,4,0,0,1,1.25-.39,11.11,11.11,0,0,1,1.45-.15l1.5-.06v-.24a2.51,2.51,0,0,0-.45-1.66,2,2,0,0,0-1.58-.53,4.22,4.22,0,0,0-.94.09,1.82,1.82,0,0,0-.63.27,1.42,1.42,0,0,0-.41.4,1.85,1.85,0,0,0-.22.52l-.8-.12q.42-1.89,3-1.89a4.19,4.19,0,0,1,1.37.19,2.14,2.14,0,0,1,.89.57,2.18,2.18,0,0,1,.49.9,4.48,4.48,0,0,1,.15,1.22v5.08h-.87Zm0-3-1.42.06a8.89,8.89,0,0,0-1.46.16,3.08,3.08,0,0,0-.94.36,1.4,1.4,0,0,0-.52.57,1.81,1.81,0,0,0-.16.8,1.6,1.6,0,0,0,.4,1.14,1.86,1.86,0,0,0,1.39.42,4.09,4.09,0,0,0,1-.11,1.91,1.91,0,0,0,.8-.37,2.93,2.93,0,0,0,.44-.37,1.64,1.64,0,0,0,.29-.4,1.76,1.76,0,0,0,.16-.49,3.92,3.92,0,0,0,0-.63Z"/><path class="cls-1" d="M474.81,99.16h-1.2v-.72h1.2v-.89a2.5,2.5,0,0,1,.18-1,1.92,1.92,0,0,1,.47-.69,1.86,1.86,0,0,1,.68-.4,2.54,2.54,0,0,1,.83-.14,4.78,4.78,0,0,1,.57,0,4.59,4.59,0,0,1,.57.13l-.18.73a2.84,2.84,0,0,0-.45-.1,2.77,2.77,0,0,0-.42,0,1.56,1.56,0,0,0-1,.31,1.33,1.33,0,0,0-.39,1.11v.92h2.05v.72h-2.05v7h-.87Z"/><path class="cls-1" d="M485.1,104.14a2.62,2.62,0,0,1-1,1.63,3.45,3.45,0,0,1-2.22.63,3.21,3.21,0,0,1-2.59-1.07,4.34,4.34,0,0,1-.92-3,5.51,5.51,0,0,1,.26-1.8,3.78,3.78,0,0,1,.73-1.31,3.21,3.21,0,0,1,1.11-.8,3.62,3.62,0,0,1,1.41-.27,3.7,3.7,0,0,1,1.53.29,2.72,2.72,0,0,1,1,.8,3.08,3.08,0,0,1,.58,1.19,5.83,5.83,0,0,1,.18,1.48v.56h-5.94a4.53,4.53,0,0,0,.17,1.24,2.92,2.92,0,0,0,.49,1,2.39,2.39,0,0,0,.83.68,2.58,2.58,0,0,0,1.14.24,3.56,3.56,0,0,0,1-.11,1.82,1.82,0,0,0,.67-.32,1.67,1.67,0,0,0,.43-.49,2.68,2.68,0,0,0,.25-.62Zm-.77-2.37a4.68,4.68,0,0,0-.13-1.16,2.5,2.5,0,0,0-.42-.9,1.85,1.85,0,0,0-.75-.6,2.68,2.68,0,0,0-1.11-.21,2.38,2.38,0,0,0-1.8.71,3.52,3.52,0,0,0-.81,2.16Z"/><path class="cls-1" d="M487.48,99.16h-1.2v-.72h1.2V96.31h.87v2.13h2.19v.72h-2.19v5a1.84,1.84,0,0,0,.24,1,.89.89,0,0,0,.84.4,3.1,3.1,0,0,0,.66-.06,4,4,0,0,0,.48-.14l.18.71a3.77,3.77,0,0,1-1.39.24,2,2,0,0,1-1-.23,1.38,1.38,0,0,1-.56-.59,2.42,2.42,0,0,1-.24-.85c0-.32,0-.65,0-1Z"/><path class="cls-1" d="M492.13,108.13a2.4,2.4,0,0,0,.38.12,2,2,0,0,0,.43,0,1.44,1.44,0,0,0,.45-.06.77.77,0,0,0,.33-.22,1.87,1.87,0,0,0,.28-.4c.08-.17.18-.38.29-.64l.36-.92-3.31-7.61h1l2.81,6.61,2.5-6.61h1l-3.51,8.74c-.12.29-.25.56-.37.79a2.87,2.87,0,0,1-.42.6,1.6,1.6,0,0,1-.55.38,2.11,2.11,0,0,1-.75.12,4.73,4.73,0,0,1-.58,0,4,4,0,0,1-.53-.15Z"/><path class="cls-1" d="M508.86,105a4.05,4.05,0,0,1-1.14,1,3,3,0,0,1-1.55.37,3.14,3.14,0,0,1-1.48-.33,3,3,0,0,1-1-.88,3.89,3.89,0,0,1-.61-1.28,6.41,6.41,0,0,1-.19-1.53,4.7,4.7,0,0,1,.92-3.08,3.17,3.17,0,0,1,2.55-1.1,3.31,3.31,0,0,1,1.28.27,3.05,3.05,0,0,1,1.24,1v-4h.87v10.71h-.87Zm0-3a5.8,5.8,0,0,0-.06-.9,3.06,3.06,0,0,0-.18-.68,2,2,0,0,0-.32-.52,4.06,4.06,0,0,0-.48-.43,2.51,2.51,0,0,0-.71-.39,2.45,2.45,0,0,0-.8-.12,2.61,2.61,0,0,0-1,.19,1.92,1.92,0,0,0-.8.59,2.73,2.73,0,0,0-.53,1,5.12,5.12,0,0,0-.2,1.57,4.88,4.88,0,0,0,.22,1.59,2.91,2.91,0,0,0,.56,1,2.08,2.08,0,0,0,.77.54,2.64,2.64,0,0,0,.86.15,3.12,3.12,0,0,0,.84-.1,2.62,2.62,0,0,0,.76-.39,2.58,2.58,0,0,0,.8-1,3.49,3.49,0,0,0,.29-1.5Z"/><path class="cls-1" d="M518.27,104.14a2.57,2.57,0,0,1-1,1.63,3.44,3.44,0,0,1-2.21.63,3.2,3.2,0,0,1-2.59-1.07,4.34,4.34,0,0,1-.92-3,5.51,5.51,0,0,1,.26-1.8,3.78,3.78,0,0,1,.73-1.31,3.21,3.21,0,0,1,1.11-.8,3.62,3.62,0,0,1,1.41-.27,3.68,3.68,0,0,1,1.52.29,2.75,2.75,0,0,1,1,.8,3.08,3.08,0,0,1,.58,1.19,5.83,5.83,0,0,1,.18,1.48v.56h-5.94a4.53,4.53,0,0,0,.16,1.24,2.94,2.94,0,0,0,.5,1,2.36,2.36,0,0,0,.82.68,2.63,2.63,0,0,0,1.15.24,3.65,3.65,0,0,0,1-.11,1.82,1.82,0,0,0,.67-.32,1.67,1.67,0,0,0,.43-.49,3.21,3.21,0,0,0,.25-.62Zm-.76-2.37a4.67,4.67,0,0,0-.14-1.16,2.5,2.5,0,0,0-.42-.9,1.73,1.73,0,0,0-.75-.6,2.63,2.63,0,0,0-1.1-.21,2.42,2.42,0,0,0-1.81.71,3.58,3.58,0,0,0-.81,2.16Z"/><path class="cls-1" d="M520.22,98.44h.88v1.15a3.92,3.92,0,0,1,1.15-1,2.94,2.94,0,0,1,1.53-.37,3.26,3.26,0,0,1,1.48.31,2.81,2.81,0,0,1,1,.84,3.72,3.72,0,0,1,.62,1.28,6.18,6.18,0,0,1,.2,1.59,5.58,5.58,0,0,1-.25,1.76,3.88,3.88,0,0,1-.69,1.31,3.14,3.14,0,0,1-1.09.83,3.48,3.48,0,0,1-1.43.28,3.35,3.35,0,0,1-1.36-.28,3,3,0,0,1-1.19-1v4h-.88Zm.84,4.17a5.75,5.75,0,0,0,.06.89,2.26,2.26,0,0,0,.18.68,2.08,2.08,0,0,0,.32.54,2.49,2.49,0,0,0,.48.42,2.33,2.33,0,0,0,.7.39,2.64,2.64,0,0,0,.83.12,2.8,2.8,0,0,0,1-.18,2,2,0,0,0,.8-.6,2.73,2.73,0,0,0,.53-1.05,5.65,5.65,0,0,0,.2-1.59,4.71,4.71,0,0,0-.22-1.57,2.78,2.78,0,0,0-.56-1,1.84,1.84,0,0,0-.78-.54,2.41,2.41,0,0,0-.85-.16,3.07,3.07,0,0,0-.84.1,2.25,2.25,0,0,0-.75.39,2.54,2.54,0,0,0-.82,1,3.28,3.28,0,0,0-.3,1.5Z"/><path class="cls-1" d="M532.33,106.4a3.82,3.82,0,0,1-1.52-.28,3,3,0,0,1-1.13-.82A3.67,3.67,0,0,1,529,104a5.2,5.2,0,0,1-.25-1.68,5.38,5.38,0,0,1,.26-1.71,3.89,3.89,0,0,1,.74-1.31,3.26,3.26,0,0,1,1.14-.83,3.89,3.89,0,0,1,1.52-.29,3.83,3.83,0,0,1,1.51.28,3.06,3.06,0,0,1,1.14.82,3.64,3.64,0,0,1,.72,1.28,5.47,5.47,0,0,1,.25,1.67,5.38,5.38,0,0,1-.26,1.71,3.71,3.71,0,0,1-.73,1.31,3,3,0,0,1-1.15.84A3.81,3.81,0,0,1,532.33,106.4Zm0-.75a2.66,2.66,0,0,0,1.25-.26,2.37,2.37,0,0,0,.83-.71,3.19,3.19,0,0,0,.49-1.07,6.17,6.17,0,0,0,.14-1.33,6,6,0,0,0-.14-1.3,3.23,3.23,0,0,0-.49-1.06,2.47,2.47,0,0,0-.83-.71,3.11,3.11,0,0,0-2.49,0,2.42,2.42,0,0,0-.84.71,3.2,3.2,0,0,0-.47,1.06,5.47,5.47,0,0,0-.15,1.31,5.56,5.56,0,0,0,.15,1.32,3.16,3.16,0,0,0,.47,1.07,2.31,2.31,0,0,0,.84.71A2.67,2.67,0,0,0,532.36,105.65Z"/><path class="cls-1" d="M538.33,104a1.77,1.77,0,0,0,.76,1.27,3.23,3.23,0,0,0,1.71.38,2.37,2.37,0,0,0,1.59-.42,1.36,1.36,0,0,0,.47-1,2,2,0,0,0-.06-.5,1.06,1.06,0,0,0-.23-.43,1.36,1.36,0,0,0-.5-.33,3.86,3.86,0,0,0-.83-.23l-1-.15a9,9,0,0,1-1.1-.25,2.61,2.61,0,0,1-.82-.4,1.5,1.5,0,0,1-.51-.61,2.08,2.08,0,0,1-.17-.91,1.87,1.87,0,0,1,.22-.92,1.93,1.93,0,0,1,.61-.69,2.85,2.85,0,0,1,.93-.43,4.14,4.14,0,0,1,1.14-.15,4.56,4.56,0,0,1,1.33.16,2.35,2.35,0,0,1,.87.42,2,2,0,0,1,.53.63,3.94,3.94,0,0,1,.29.77l-.8.16a3.37,3.37,0,0,0-.27-.6,1.54,1.54,0,0,0-.4-.44,1.84,1.84,0,0,0-.6-.26,3.79,3.79,0,0,0-.9-.09,4.1,4.1,0,0,0-1,.11,2,2,0,0,0-.65.31,1.15,1.15,0,0,0-.35.45,1.35,1.35,0,0,0-.11.52,1.83,1.83,0,0,0,.06.49.77.77,0,0,0,.24.38,1.52,1.52,0,0,0,.51.29,4.63,4.63,0,0,0,.84.21l1.19.19a3.76,3.76,0,0,1,1.81.73,2,2,0,0,1,.6,1.58,2.11,2.11,0,0,1-.18.86,2,2,0,0,1-.56.7,2.73,2.73,0,0,1-.92.46,4.18,4.18,0,0,1-1.28.17,5.75,5.75,0,0,1-1.29-.13,3.09,3.09,0,0,1-1-.42,2.28,2.28,0,0,1-.71-.74,2.54,2.54,0,0,1-.33-1.09Z"/><path class="cls-1" d="M545.56,95.45h1v1.31h-1Zm.06,3h.87v7.72h-.87Z"/><path class="cls-1" d="M549.07,99.16h-1.2v-.72h1.2V96.31h.87v2.13h2.19v.72h-2.19v5a1.84,1.84,0,0,0,.24,1,.89.89,0,0,0,.84.4,3.1,3.1,0,0,0,.66-.06,4,4,0,0,0,.48-.14l.18.71a3.73,3.73,0,0,1-.55.16,3.82,3.82,0,0,1-.85.08,2,2,0,0,1-1-.23,1.38,1.38,0,0,1-.56-.59,2.22,2.22,0,0,1-.24-.85c0-.32,0-.65,0-1Z"/><path class="cls-1" d="M467.65,396.91h3.45a6.08,6.08,0,0,1,1.92.25,2.9,2.9,0,0,1,1.18.66,2.19,2.19,0,0,1,.59,1A4.17,4.17,0,0,1,475,400a4.73,4.73,0,0,1-.17,1.26,2.53,2.53,0,0,1-.61,1.05A3,3,0,0,1,473,403a5.78,5.78,0,0,1-1.92.26h-2.52v4.34h-.9Zm3.44,5.58a5.39,5.39,0,0,0,1.47-.17,2.27,2.27,0,0,0,.9-.49,1.63,1.63,0,0,0,.45-.77,4,4,0,0,0,.12-1,3.47,3.47,0,0,0-.14-1,1.54,1.54,0,0,0-.47-.73,2.14,2.14,0,0,0-.91-.43,5.78,5.78,0,0,0-1.44-.15h-2.52v4.79Z"/><path class="cls-1" d="M476.61,396.91h1v1.3h-1Zm.06,3h.87v7.73h-.87Z"/><path class="cls-1" d="M479.73,396.91h.87v10.71h-.87Z"/><path class="cls-1" d="M486.1,407.86a3.85,3.85,0,0,1-1.52-.29,3,3,0,0,1-1.12-.81,3.83,3.83,0,0,1-.71-1.29,5.49,5.49,0,0,1-.25-1.68,5.11,5.11,0,0,1,.27-1.71,3.82,3.82,0,0,1,.73-1.3,3.17,3.17,0,0,1,1.15-.83,3.67,3.67,0,0,1,1.51-.3,3.89,3.89,0,0,1,1.52.29,3,3,0,0,1,1.14.82,3.54,3.54,0,0,1,.71,1.28,5.12,5.12,0,0,1,.25,1.66,5.38,5.38,0,0,1-.26,1.71,4,4,0,0,1-.72,1.32,3.27,3.27,0,0,1-1.16.84A4,4,0,0,1,486.1,407.86Zm0-.75a2.78,2.78,0,0,0,1.25-.26,2.44,2.44,0,0,0,.84-.72,2.94,2.94,0,0,0,.48-1.06,5.67,5.67,0,0,0,.15-1.34,5.31,5.31,0,0,0-.15-1.29,2.94,2.94,0,0,0-.48-1.06,2.31,2.31,0,0,0-.84-.71,2.65,2.65,0,0,0-1.25-.27,2.6,2.6,0,0,0-1.23.27,2.16,2.16,0,0,0-.84.71,2.94,2.94,0,0,0-.48,1.06,5.41,5.41,0,0,0-.15,1.31,5.56,5.56,0,0,0,.15,1.32,2.94,2.94,0,0,0,.48,1.06,2.27,2.27,0,0,0,.84.72A2.72,2.72,0,0,0,486.13,407.11Z"/><path class="cls-1" d="M491.94,400.61h-1.2v-.72h1.2v-2.13h.87v2.13H495v.72h-2.19v5.06a1.86,1.86,0,0,0,.24,1,.91.91,0,0,0,.84.39,3.1,3.1,0,0,0,.66-.06,4.09,4.09,0,0,0,.48-.13l.18.7a3.64,3.64,0,0,1-.55.17,4,4,0,0,1-.85.07,2,2,0,0,1-1-.22,1.44,1.44,0,0,1-.56-.59,2.28,2.28,0,0,1-.24-.85c0-.32,0-.66,0-1Z"/><path class="cls-1" d="M506.25,405.59a2.64,2.64,0,0,1-1,1.64,3.45,3.45,0,0,1-2.22.63,3.26,3.26,0,0,1-2.59-1.07,4.41,4.41,0,0,1-.92-3,5.79,5.79,0,0,1,.26-1.8,3.7,3.7,0,0,1,.74-1.31,3,3,0,0,1,1.11-.81,3.91,3.91,0,0,1,2.93,0,2.81,2.81,0,0,1,1,.79,3.29,3.29,0,0,1,.57,1.19,5.91,5.91,0,0,1,.18,1.49V404h-5.94a4.48,4.48,0,0,0,.17,1.24,3,3,0,0,0,.49,1,2.36,2.36,0,0,0,.83.67,2.45,2.45,0,0,0,1.14.25,4,4,0,0,0,1-.11,2,2,0,0,0,.67-.33,1.62,1.62,0,0,0,.43-.48,2.51,2.51,0,0,0,.25-.63Zm-.77-2.37a4.6,4.6,0,0,0-.13-1.15,2.63,2.63,0,0,0-.42-.91,1.92,1.92,0,0,0-.75-.59,2.68,2.68,0,0,0-1.11-.21,2.37,2.37,0,0,0-1.8.7,3.52,3.52,0,0,0-.81,2.16Z"/><path class="cls-1" d="M513.94,406.46a3.89,3.89,0,0,1-1.13,1,3,3,0,0,1-1.55.38,3.11,3.11,0,0,1-1.48-.33,3,3,0,0,1-1-.89,3.78,3.78,0,0,1-.6-1.28,5.81,5.81,0,0,1-.19-1.52,4.68,4.68,0,0,1,.92-3.08,3.13,3.13,0,0,1,2.54-1.11,3.39,3.39,0,0,1,1.29.27,3,3,0,0,1,1.23,1v-1.05h.89v10.64h-.89Zm0-3a6,6,0,0,0-.06-.91,3,3,0,0,0-.18-.67,1.82,1.82,0,0,0-.32-.52,4.11,4.11,0,0,0-.48-.44,2.51,2.51,0,0,0-.71-.39,2.45,2.45,0,0,0-.8-.12,2.8,2.8,0,0,0-1,.19,2.12,2.12,0,0,0-.81.59,3,3,0,0,0-.53,1.05,5.55,5.55,0,0,0-.19,1.58,4.77,4.77,0,0,0,.22,1.58,2.74,2.74,0,0,0,.56,1,1.87,1.87,0,0,0,.77.54,2.38,2.38,0,0,0,.86.16,3.11,3.11,0,0,0,.84-.11,2.46,2.46,0,0,0,.75-.39,2.61,2.61,0,0,0,.81-1,3.49,3.49,0,0,0,.29-1.5Z"/><path class="cls-1" d="M516.9,399.89h.87v4.91a3.13,3.13,0,0,0,.38,1.75,1.52,1.52,0,0,0,1.31.53,2.56,2.56,0,0,0,.93-.18,3.08,3.08,0,0,0,.89-.54,3.15,3.15,0,0,0,.66-.8,2.43,2.43,0,0,0,.22-1.14v-4.53H523v7.73h-.87v-1.26a3.54,3.54,0,0,1-2.8,1.5,2.27,2.27,0,0,1-1.89-.72,3.33,3.33,0,0,1-.57-2.1Z"/><path class="cls-1" d="M525.12,396.91h1v1.3h-1Zm.06,3h.87v7.73h-.87Z"/><path class="cls-1" d="M528.19,399.89h.87v1.16a4.28,4.28,0,0,1,1.16-1,3,3,0,0,1,1.53-.37,3.4,3.4,0,0,1,1.48.31,3,3,0,0,1,1,.85,3.66,3.66,0,0,1,.61,1.27,5.77,5.77,0,0,1,.21,1.59,5.69,5.69,0,0,1-.25,1.77,3.82,3.82,0,0,1-.7,1.31,2.94,2.94,0,0,1-1.09.82,3.45,3.45,0,0,1-1.43.29,3.31,3.31,0,0,1-1.35-.29,3,3,0,0,1-1.2-1v4h-.87Zm.84,4.17a6,6,0,0,0,.06.9,2.34,2.34,0,0,0,.18.68,1.87,1.87,0,0,0,.32.53,2.23,2.23,0,0,0,.48.43,2.33,2.33,0,0,0,.7.39,2.64,2.64,0,0,0,.83.12,2.61,2.61,0,0,0,1-.19,2,2,0,0,0,.8-.59,2.85,2.85,0,0,0,.53-1.06,5.52,5.52,0,0,0,.2-1.58,5.05,5.05,0,0,0-.22-1.58,3,3,0,0,0-.56-1,2,2,0,0,0-.78-.54,2.66,2.66,0,0,0-.86-.16,3.11,3.11,0,0,0-.84.11,2.25,2.25,0,0,0-.75.39,2.65,2.65,0,0,0-.81,1,3.36,3.36,0,0,0-.3,1.51Z"/><path class="cls-1" d="M536.94,399.89h.87v1.28A4.17,4.17,0,0,1,539,400a2.67,2.67,0,0,1,1.33-.38,2.13,2.13,0,0,1,2.2,1.52,4,4,0,0,1,1.23-1.12,3.11,3.11,0,0,1,1.52-.4,2.42,2.42,0,0,1,1.74.6,2.55,2.55,0,0,1,.63,1.92v5.45h-.87v-5.13a4.44,4.44,0,0,0-.1-1,1.43,1.43,0,0,0-.3-.63,1.15,1.15,0,0,0-.5-.34,2.48,2.48,0,0,0-.71-.1,3,3,0,0,0-.78.13,2.64,2.64,0,0,0-1.44,1.16,1.84,1.84,0,0,0-.24.95v4.95h-.87V402.5a2.5,2.5,0,0,0-.39-1.59,1.43,1.43,0,0,0-1.18-.48,2,2,0,0,0-.85.19,3.64,3.64,0,0,0-.79.53l-.29.29a2,2,0,0,0-.28.39,2.26,2.26,0,0,0-.2.52,2.84,2.84,0,0,0-.08.69v4.58h-.87Z"/><path class="cls-1" d="M556.18,405.59a2.64,2.64,0,0,1-1,1.64,3.45,3.45,0,0,1-2.22.63,3.22,3.22,0,0,1-2.58-1.07,4.37,4.37,0,0,1-.93-3,5.5,5.5,0,0,1,.27-1.8,3.69,3.69,0,0,1,.73-1.31,3.12,3.12,0,0,1,1.11-.81,3.91,3.91,0,0,1,2.93,0,2.81,2.81,0,0,1,1,.79,3.15,3.15,0,0,1,.58,1.19,5.91,5.91,0,0,1,.18,1.49V404h-5.94a4.48,4.48,0,0,0,.16,1.24,3,3,0,0,0,.5,1,2.33,2.33,0,0,0,.82.67,2.45,2.45,0,0,0,1.14.25,4,4,0,0,0,1-.11,2.05,2.05,0,0,0,.68-.33,1.77,1.77,0,0,0,.43-.48,2.94,2.94,0,0,0,.24-.63Zm-.76-2.37a4.59,4.59,0,0,0-.14-1.15,2.63,2.63,0,0,0-.42-.91,1.92,1.92,0,0,0-.75-.59,2.68,2.68,0,0,0-1.11-.21,2.37,2.37,0,0,0-1.8.7,3.52,3.52,0,0,0-.81,2.16Z"/><path class="cls-1" d="M558.13,399.89H559v1.26a3.92,3.92,0,0,1,1.35-1.14,3.3,3.3,0,0,1,1.52-.36,2.43,2.43,0,0,1,2,.74,3.1,3.1,0,0,1,.63,2.08v5.15h-.87v-4.91a2.74,2.74,0,0,0-.44-1.74,1.67,1.67,0,0,0-1.38-.54,2.84,2.84,0,0,0-1,.18,2.5,2.5,0,0,0-.91.54,2.89,2.89,0,0,0-.67.81,2.35,2.35,0,0,0-.23,1.13v4.53h-.87Z"/><path class="cls-1" d="M566.94,400.61h-1.2v-.72h1.2v-2.13h.87v2.13H570v.72h-2.19v5.06a1.86,1.86,0,0,0,.24,1,.91.91,0,0,0,.84.39,3.1,3.1,0,0,0,.66-.06,4.09,4.09,0,0,0,.48-.13l.18.7a4,4,0,0,1-.55.17,4,4,0,0,1-.85.07,2,2,0,0,1-1-.22,1.53,1.53,0,0,1-.57-.59,2.47,2.47,0,0,1-.23-.85c0-.32,0-.66,0-1Z"/><path class="cls-1" d="M580.54,406.46a4,4,0,0,1-1.13,1,3,3,0,0,1-1.55.38,3.11,3.11,0,0,1-1.48-.33,3,3,0,0,1-1-.89,3.78,3.78,0,0,1-.6-1.28,5.81,5.81,0,0,1-.19-1.52,4.62,4.62,0,0,1,.92-3.08,3.13,3.13,0,0,1,2.54-1.11,3.39,3.39,0,0,1,1.29.27,3,3,0,0,1,1.23,1v-4h.87v10.71h-.87Zm.05-3a6,6,0,0,0-.06-.91,3,3,0,0,0-.18-.67,1.65,1.65,0,0,0-.33-.52,3.34,3.34,0,0,0-.47-.44,2.65,2.65,0,0,0-.71-.39,2.45,2.45,0,0,0-.8-.12,2.8,2.8,0,0,0-1,.19,2.12,2.12,0,0,0-.81.59,3,3,0,0,0-.53,1.05,5.55,5.55,0,0,0-.19,1.58,5.08,5.08,0,0,0,.21,1.58,2.9,2.9,0,0,0,.57,1,1.81,1.81,0,0,0,.77.54,2.34,2.34,0,0,0,.86.16,3,3,0,0,0,.83-.11,2.39,2.39,0,0,0,.76-.39,2.61,2.61,0,0,0,.81-1,3.49,3.49,0,0,0,.29-1.5Z"/><path class="cls-1" d="M583.51,399.89h.87v1.26a3.56,3.56,0,0,1,1.07-1,2.42,2.42,0,0,1,1.27-.36H587l.31,0-.11.82a2.93,2.93,0,0,0-.49,0,2.54,2.54,0,0,0-.8.14,2.19,2.19,0,0,0-.76.49,2.44,2.44,0,0,0-.57.73,2.12,2.12,0,0,0-.23,1v4.65h-.87Z"/><path class="cls-1" d="M588.84,409.58a2.11,2.11,0,0,0,.38.12,2,2,0,0,0,.43.05,1.44,1.44,0,0,0,.45-.06.77.77,0,0,0,.33-.22,1.62,1.62,0,0,0,.27-.41,6.77,6.77,0,0,0,.3-.64l.36-.91L588,399.89h1l2.8,6.61,2.51-6.61h1l-3.51,8.75a8.38,8.38,0,0,1-.37.79,2.67,2.67,0,0,1-.42.6,1.45,1.45,0,0,1-.54.37,1.9,1.9,0,0,1-.75.13,3.15,3.15,0,0,1-.58,0,2.62,2.62,0,0,1-.53-.14Z"/><path class="cls-1" d="M600.28,405.47a1.81,1.81,0,0,0,.77,1.28,3.24,3.24,0,0,0,1.71.37,2.37,2.37,0,0,0,1.59-.42,1.35,1.35,0,0,0,.46-1.05,2,2,0,0,0-.06-.5,1.13,1.13,0,0,0-.23-.43,1.36,1.36,0,0,0-.5-.33,3.91,3.91,0,0,0-.83-.22l-.94-.15a9.12,9.12,0,0,1-1.11-.26,2.84,2.84,0,0,1-.82-.39,1.52,1.52,0,0,1-.51-.62,2.05,2.05,0,0,1-.17-.91,1.9,1.9,0,0,1,.22-.92,2.15,2.15,0,0,1,.62-.69,3,3,0,0,1,.92-.43,4.21,4.21,0,0,1,1.15-.15,4.85,4.85,0,0,1,1.32.16,2.53,2.53,0,0,1,.87.43,2,2,0,0,1,.53.63,3.85,3.85,0,0,1,.29.76l-.79.17a3.85,3.85,0,0,0-.28-.61,1.5,1.5,0,0,0-.4-.43,1.66,1.66,0,0,0-.6-.27,3.79,3.79,0,0,0-.9-.09,3.55,3.55,0,0,0-1,.12,1.83,1.83,0,0,0-.66.3,1.15,1.15,0,0,0-.35.45,1.39,1.39,0,0,0-.1.53,1.88,1.88,0,0,0,.06.49.82.82,0,0,0,.24.38,1.46,1.46,0,0,0,.5.28,4.77,4.77,0,0,0,.85.21l1.18.2a3.71,3.71,0,0,1,1.82.73,2,2,0,0,1,.6,1.58,2.07,2.07,0,0,1-.19.85,1.89,1.89,0,0,1-.56.7,2.74,2.74,0,0,1-.92.47,4.44,4.44,0,0,1-1.27.17,5.82,5.82,0,0,1-1.3-.14,3.09,3.09,0,0,1-1-.42,2.22,2.22,0,0,1-.7-.73,2.59,2.59,0,0,1-.33-1.1Z"/><path class="cls-1" d="M608,400.61h-1.2v-.72H608v-2.13h.87v2.13H611v.72h-2.19v5.06a1.86,1.86,0,0,0,.24,1,.91.91,0,0,0,.84.39,3.1,3.1,0,0,0,.66-.06,4.09,4.09,0,0,0,.48-.13l.18.7a3.64,3.64,0,0,1-.55.17,3.81,3.81,0,0,1-.84.07,2,2,0,0,1-1-.22,1.44,1.44,0,0,1-.56-.59,2.27,2.27,0,0,1-.23-.85c0-.32,0-.66,0-1Z"/><path class="cls-1" d="M615.54,407.86a3.9,3.9,0,0,1-1.53-.29,3,3,0,0,1-1.12-.81,3.83,3.83,0,0,1-.71-1.29,5.5,5.5,0,0,1-.24-1.68,5.12,5.12,0,0,1,.26-1.71,3.82,3.82,0,0,1,.73-1.3,3.17,3.17,0,0,1,1.15-.83,3.72,3.72,0,0,1,1.52-.3,3.84,3.84,0,0,1,1.51.29,3,3,0,0,1,1.14.82A3.54,3.54,0,0,1,619,402a5.12,5.12,0,0,1,.25,1.66,5.39,5.39,0,0,1-.25,1.71,4,4,0,0,1-.73,1.32,3.27,3.27,0,0,1-1.16.84A3.9,3.9,0,0,1,615.54,407.86Zm0-.75a2.74,2.74,0,0,0,1.24-.26,2.44,2.44,0,0,0,.84-.72,2.94,2.94,0,0,0,.48-1.06,5.67,5.67,0,0,0,.15-1.34,5.31,5.31,0,0,0-.15-1.29,2.94,2.94,0,0,0-.48-1.06,2.31,2.31,0,0,0-.84-.71,2.61,2.61,0,0,0-1.24-.27,2.64,2.64,0,0,0-1.24.27,2.16,2.16,0,0,0-.84.71,2.93,2.93,0,0,0-.47,1.06,5.41,5.41,0,0,0-.15,1.31,5.56,5.56,0,0,0,.15,1.32,2.93,2.93,0,0,0,.47,1.06,2.27,2.27,0,0,0,.84.72A2.77,2.77,0,0,0,615.57,407.11Z"/><path class="cls-1" d="M621.07,399.89h.87v1.26a3.56,3.56,0,0,1,1.07-1,2.42,2.42,0,0,1,1.27-.36h.31l.31,0-.11.82a2.93,2.93,0,0,0-.49,0,2.54,2.54,0,0,0-.8.14,2.19,2.19,0,0,0-.76.49,2.44,2.44,0,0,0-.57.73,2.12,2.12,0,0,0-.23,1v4.65h-.87Z"/><path class="cls-1" d="M630.91,406.52a4.08,4.08,0,0,1-.46.48,3.51,3.51,0,0,1-.62.41,3.42,3.42,0,0,1-.76.28,3.58,3.58,0,0,1-.9.11,3,3,0,0,1-1.95-.59,2.09,2.09,0,0,1-.74-1.74,2.24,2.24,0,0,1,.33-1.27,2.29,2.29,0,0,1,.88-.78,4.2,4.2,0,0,1,1.24-.4,13.44,13.44,0,0,1,1.45-.14l1.5-.06v-.24a2.61,2.61,0,0,0-.44-1.67,2,2,0,0,0-1.58-.52,4.16,4.16,0,0,0-.94.09,2,2,0,0,0-.64.26,1.42,1.42,0,0,0-.4.41,1.69,1.69,0,0,0-.23.51l-.79-.12q.42-1.89,3-1.89a4.11,4.11,0,0,1,1.36.2,2.16,2.16,0,0,1,.89.56,2.19,2.19,0,0,1,.49.9,4.53,4.53,0,0,1,.15,1.22v5.09h-.87Zm0-3-1.43.06a7.79,7.79,0,0,0-1.45.16,2.69,2.69,0,0,0-.95.36,1.35,1.35,0,0,0-.52.57,1.94,1.94,0,0,0-.15.8,1.6,1.6,0,0,0,.39,1.13,1.84,1.84,0,0,0,1.39.43,4.6,4.6,0,0,0,1-.11,2,2,0,0,0,.81-.37,3.55,3.55,0,0,0,.44-.38,1.75,1.75,0,0,0,.28-.39,1.57,1.57,0,0,0,.16-.49,3.83,3.83,0,0,0,0-.63Z"/><path class="cls-1" d="M634.71,408.46a1.71,1.71,0,0,0,.72,1.13,3,3,0,0,0,1.69.37,2.53,2.53,0,0,0,1.88-.62,3,3,0,0,0,.6-2.1v-1.15a3.41,3.41,0,0,1-1.14,1,3,3,0,0,1-1.55.37,3.26,3.26,0,0,1-1.48-.32,3,3,0,0,1-1-.87,3.71,3.71,0,0,1-.6-1.23,5.39,5.39,0,0,1-.19-1.45,5.28,5.28,0,0,1,.24-1.64,3.61,3.61,0,0,1,.69-1.25,3.12,3.12,0,0,1,1.09-.8,3.59,3.59,0,0,1,1.46-.29,3.42,3.42,0,0,1,1.3.28,3.07,3.07,0,0,1,1.22,1v-1.05h.87v7.44a3.54,3.54,0,0,1-.81,2.46,3.2,3.2,0,0,1-2.52.9,6,6,0,0,1-1.23-.12,3.09,3.09,0,0,1-1-.38,2.07,2.07,0,0,1-.69-.69,2.46,2.46,0,0,1-.35-1Zm4.92-5a6,6,0,0,0-.06-.91,2.19,2.19,0,0,0-.18-.67,1.82,1.82,0,0,0-.32-.52,3.24,3.24,0,0,0-.46-.44,2.86,2.86,0,0,0-.72-.39,2.45,2.45,0,0,0-.8-.12,2.8,2.8,0,0,0-1,.18,2.07,2.07,0,0,0-.81.57,2.81,2.81,0,0,0-.54,1,4.83,4.83,0,0,0-.19,1.46,4.48,4.48,0,0,0,.21,1.47,3,3,0,0,0,.57,1,2.12,2.12,0,0,0,.78.53,2.44,2.44,0,0,0,.88.16,2.93,2.93,0,0,0,.84-.1,2.74,2.74,0,0,0,.74-.38,2.58,2.58,0,0,0,.8-1,3.8,3.8,0,0,0,.28-1.53Z"/><path class="cls-1" d="M649,405.59a2.64,2.64,0,0,1-1,1.64,3.45,3.45,0,0,1-2.22.63,3.24,3.24,0,0,1-2.59-1.07,4.36,4.36,0,0,1-.92-3,5.51,5.51,0,0,1,.26-1.8,3.69,3.69,0,0,1,.73-1.31,3.12,3.12,0,0,1,1.11-.81,3.62,3.62,0,0,1,1.41-.27,3.54,3.54,0,0,1,1.53.3,2.7,2.7,0,0,1,1,.79,3.15,3.15,0,0,1,.58,1.19,5.91,5.91,0,0,1,.18,1.49V404h-5.94a4.48,4.48,0,0,0,.17,1.24,3,3,0,0,0,.49,1,2.36,2.36,0,0,0,.83.67,2.43,2.43,0,0,0,1.14.25,4,4,0,0,0,1-.11,2,2,0,0,0,.67-.33,1.77,1.77,0,0,0,.43-.48,3,3,0,0,0,.25-.63Zm-.77-2.37a4.6,4.6,0,0,0-.13-1.15,2.82,2.82,0,0,0-.42-.91,1.92,1.92,0,0,0-.75-.59,2.68,2.68,0,0,0-1.11-.21,2.37,2.37,0,0,0-1.8.7,3.52,3.52,0,0,0-.81,2.16Z"/><path class="cls-1" d="M654.36,396.91h.87v10.71h-.87Z"/><path class="cls-1" d="M660.73,407.86a3.82,3.82,0,0,1-1.52-.29,3.08,3.08,0,0,1-1.13-.81,3.82,3.82,0,0,1-.7-1.29,5.2,5.2,0,0,1-.25-1.68,5.38,5.38,0,0,1,.26-1.71,3.84,3.84,0,0,1,.74-1.3,3.14,3.14,0,0,1,1.14-.83,3.75,3.75,0,0,1,1.52-.3,3.89,3.89,0,0,1,1.52.29,2.92,2.92,0,0,1,1.13.82,3.55,3.55,0,0,1,.72,1.28,5.7,5.7,0,0,1,0,3.37,3.85,3.85,0,0,1-.73,1.32,3.23,3.23,0,0,1-1.15.84A4,4,0,0,1,660.73,407.86Zm0-.75a2.78,2.78,0,0,0,1.25-.26,2.54,2.54,0,0,0,.84-.72,3.12,3.12,0,0,0,.48-1.06,5.67,5.67,0,0,0,.15-1.34,5.31,5.31,0,0,0-.15-1.29,3.12,3.12,0,0,0-.48-1.06,2.4,2.4,0,0,0-.84-.71,3,3,0,0,0-2.49,0,2.31,2.31,0,0,0-.84.71,3.11,3.11,0,0,0-.47,1.06,5.41,5.41,0,0,0-.15,1.31,5.56,5.56,0,0,0,.15,1.32,3.11,3.11,0,0,0,.47,1.06,2.44,2.44,0,0,0,.84.72A2.8,2.8,0,0,0,660.76,407.11Z"/><path class="cls-1" d="M672.81,405.1a3.39,3.39,0,0,1-1,2,3.14,3.14,0,0,1-2.2.73,3.75,3.75,0,0,1-1.5-.28,2.74,2.74,0,0,1-1.11-.81,3.66,3.66,0,0,1-.69-1.28,5.58,5.58,0,0,1-.25-1.7,5.38,5.38,0,0,1,.26-1.71,3.81,3.81,0,0,1,.72-1.3,3.1,3.1,0,0,1,1.13-.83,3.67,3.67,0,0,1,1.51-.3,3,3,0,0,1,2,.66,3.1,3.1,0,0,1,1,1.83l-.84.21a3.75,3.75,0,0,0-.25-.78,2.07,2.07,0,0,0-.42-.61,1.9,1.9,0,0,0-.64-.41,2.52,2.52,0,0,0-.91-.15,2.59,2.59,0,0,0-1.2.26,2.31,2.31,0,0,0-.82.7,2.54,2.54,0,0,0-.48,1.05,5.67,5.67,0,0,0-.15,1.34,5.58,5.58,0,0,0,.15,1.33,3,3,0,0,0,.46,1.07,2.15,2.15,0,0,0,.82.7,2.61,2.61,0,0,0,1.21.26,2.15,2.15,0,0,0,1.64-.55,2.9,2.9,0,0,0,.7-1.46Z"/><path class="cls-1" d="M674.57,396.91h.87v6.58l4-3.6h1.08l-2.73,2.55,3.08,5.18h-1.06L677.1,403l-1.66,1.49v3.15h-.87Z"/><path class="cls-1" d="M688,405.59a2.58,2.58,0,0,1-.95,1.64,3.5,3.5,0,0,1-2.23.63,3.23,3.23,0,0,1-2.58-1.07,4.36,4.36,0,0,1-.92-3,5.51,5.51,0,0,1,.26-1.8,3.69,3.69,0,0,1,.73-1.31,3.12,3.12,0,0,1,1.11-.81,3.93,3.93,0,0,1,2.94,0,2.78,2.78,0,0,1,1,.79,3.15,3.15,0,0,1,.58,1.19,5.91,5.91,0,0,1,.18,1.49V404h-5.94a4.48,4.48,0,0,0,.16,1.24,3.18,3.18,0,0,0,.5,1,2.36,2.36,0,0,0,.83.67,2.41,2.41,0,0,0,1.13.25,4,4,0,0,0,1-.11,2.1,2.1,0,0,0,.67-.33,1.77,1.77,0,0,0,.43-.48,2.5,2.5,0,0,0,.24-.63Zm-.76-2.37a5.12,5.12,0,0,0-.13-1.15,3.05,3.05,0,0,0-.42-.91,2.07,2.07,0,0,0-.75-.59,2.73,2.73,0,0,0-1.12-.21,2.39,2.39,0,0,0-1.8.7,3.51,3.51,0,0,0-.8,2.16Z"/><path class="cls-1" d="M690,399.89h.87v1.26a3.67,3.67,0,0,1,1.07-1,2.45,2.45,0,0,1,1.27-.36h.31l.31,0-.11.82a2.93,2.93,0,0,0-.49,0,2.44,2.44,0,0,0-.79.14,2.14,2.14,0,0,0-.77.49,2.44,2.44,0,0,0-.57.73,2.12,2.12,0,0,0-.23,1v4.65H690Z"/><line class="cls-2" x1="504.61" y1="118.88" x2="504.61" y2="227.18"/><path class="cls-3" d="M503.67,227.18a.94.94,0,1,0,.94-.94A.94.94,0,0,0,503.67,227.18Z"/><line class="cls-2" x1="251.18" y1="174.44" x2="251.18" y2="282.74"/><path class="cls-3" d="M250.24,282.74a.94.94,0,1,0,.94-.94A.95.95,0,0,0,250.24,282.74Z"/><line class="cls-2" x1="580.21" y1="390.04" x2="580.21" y2="281.75"/><path class="cls-3" d="M581.15,281.75a.94.94,0,1,0-.94.94A.94.94,0,0,0,581.15,281.75Z"/></svg>