<svg id="text" xmlns="http://www.w3.org/2000/svg" width="800" height="550" viewBox="0 0 800 550"><defs><style>.cls-1{fill:#3a3531;}.cls-2{fill:none;stroke:#fbbb21;stroke-width:0.5px;}.cls-3{fill:#fbbb21;}</style></defs><title>weapon_maintenance_shadow</title><path class="cls-1" d="M182.4,146.35h3.93v4.14a4.31,4.31,0,0,1-.88.64,5.62,5.62,0,0,1-1,.44,6.2,6.2,0,0,1-1.05.26,7.65,7.65,0,0,1-1,.08,5.31,5.31,0,0,1-2.05-.37,4,4,0,0,1-1.55-1.08,4.79,4.79,0,0,1-1-1.75,7.62,7.62,0,0,1-.34-2.39,7.28,7.28,0,0,1,.37-2.44,5.06,5.06,0,0,1,1-1.77,4.12,4.12,0,0,1,1.51-1.08,4.71,4.71,0,0,1,1.88-.37,3.61,3.61,0,0,1,3.91,2.93l-.85.19a4.64,4.64,0,0,0-.39-.94,2.51,2.51,0,0,0-1.46-1.21,4.13,4.13,0,0,0-2.86.19,3.37,3.37,0,0,0-1.19,1,4.72,4.72,0,0,0-.73,1.53,8,8,0,0,0,0,3.88,4.38,4.38,0,0,0,.73,1.52,3.37,3.37,0,0,0,1.24,1,4.11,4.11,0,0,0,1.75.35,6.29,6.29,0,0,0,1.67-.23,4.46,4.46,0,0,0,1.45-.71v-3H182.4Z"/><path class="cls-1" d="M188.28,143.92h.87v4.9a3,3,0,0,0,.38,1.75,1.51,1.51,0,0,0,1.31.53,2.56,2.56,0,0,0,.93-.18,3.08,3.08,0,0,0,.89-.54,3,3,0,0,0,.66-.8,2.39,2.39,0,0,0,.22-1.13v-4.53h.87v7.72h-.87v-1.26a3.54,3.54,0,0,1-2.8,1.5,2.27,2.27,0,0,1-1.89-.72,3.33,3.33,0,0,1-.57-2.1Z"/><path class="cls-1" d="M196.51,143.92h.87v1.26a4,4,0,0,1,1.34-1.15,3.37,3.37,0,0,1,1.53-.35,2.43,2.43,0,0,1,1.95.73,3.12,3.12,0,0,1,.63,2.09v5.14H202v-4.9a2.77,2.77,0,0,0-.44-1.75,1.66,1.66,0,0,0-1.38-.53,2.77,2.77,0,0,0-.95.17,2.53,2.53,0,0,0-.91.55,2.85,2.85,0,0,0-.67.8,2.35,2.35,0,0,0-.23,1.13v4.53h-.87Z"/><path class="cls-1" d="M208.23,140.93h.87v4.14a4.25,4.25,0,0,1,1.15-1,3,3,0,0,1,1.53-.36,3.38,3.38,0,0,1,1.47.3,2.89,2.89,0,0,1,1,.85,3.72,3.72,0,0,1,.62,1.28,6.18,6.18,0,0,1,.2,1.59,5.63,5.63,0,0,1-.25,1.76,3.8,3.8,0,0,1-.69,1.31,3,3,0,0,1-1.09.83,3.48,3.48,0,0,1-1.43.28,3.35,3.35,0,0,1-1.36-.28,3.09,3.09,0,0,1-1.19-1v1h-.87Zm.84,7.16a6,6,0,0,0,.05.89,2.34,2.34,0,0,0,.18.68,1.87,1.87,0,0,0,.32.53,2.23,2.23,0,0,0,.48.43,2.38,2.38,0,0,0,.71.39,2.57,2.57,0,0,0,.82.12,2.61,2.61,0,0,0,1-.19,1.92,1.92,0,0,0,.8-.59,2.86,2.86,0,0,0,.54-1.06,5.55,5.55,0,0,0,.19-1.58,4.71,4.71,0,0,0-.22-1.57,2.91,2.91,0,0,0-.56-1,2,2,0,0,0-.78-.54,2.58,2.58,0,0,0-.85-.15,3.12,3.12,0,0,0-.84.1,2.25,2.25,0,0,0-.75.39,2.68,2.68,0,0,0-.82,1,3.36,3.36,0,0,0-.29,1.51Z"/><path class="cls-1" d="M221.89,150.55a4,4,0,0,1-.46.47,3.51,3.51,0,0,1-.62.41,3.43,3.43,0,0,1-.76.29,3.59,3.59,0,0,1-.9.1,3,3,0,0,1-2-.58,2.09,2.09,0,0,1-.74-1.74,2.14,2.14,0,0,1,1.21-2.06,4.2,4.2,0,0,1,1.24-.4,13.44,13.44,0,0,1,1.45-.14l1.5-.06v-.24a2.58,2.58,0,0,0-.44-1.66,2,2,0,0,0-1.58-.53,4.16,4.16,0,0,0-.94.09,2,2,0,0,0-.64.26,1.42,1.42,0,0,0-.4.41,1.75,1.75,0,0,0-.23.52l-.79-.12q.42-1.89,3-1.89a4.13,4.13,0,0,1,1.36.19,2.16,2.16,0,0,1,.89.56,2.19,2.19,0,0,1,.49.9,4.6,4.6,0,0,1,.15,1.23v5.08h-.87Zm0-3-1.43.06a7.79,7.79,0,0,0-1.45.16,2.69,2.69,0,0,0-.95.36,1.35,1.35,0,0,0-.52.57,1.94,1.94,0,0,0-.15.8,1.6,1.6,0,0,0,.39,1.13,1.84,1.84,0,0,0,1.39.43,4.6,4.6,0,0,0,1-.11,2,2,0,0,0,.81-.37,3.55,3.55,0,0,0,.44-.37,1.8,1.8,0,0,0,.28-.4,1.57,1.57,0,0,0,.16-.49,3.83,3.83,0,0,0,0-.63Z"/><path class="cls-1" d="M224.85,143.92h.87v1.26a3.53,3.53,0,0,1,1.06-1,2.46,2.46,0,0,1,1.28-.36h.3l.31,0-.1.83a3.13,3.13,0,0,0-.5,0,2.48,2.48,0,0,0-.79.14,2.23,2.23,0,0,0-.77.49,2.44,2.44,0,0,0-.57.73,2.12,2.12,0,0,0-.22,1v4.65h-.87Z"/><path class="cls-1" d="M229.9,143.92h.87v1.26a3.56,3.56,0,0,1,1.07-1,2.42,2.42,0,0,1,1.27-.36h.31l.31,0-.11.83a3,3,0,0,0-.49,0,2.54,2.54,0,0,0-.8.14,2.19,2.19,0,0,0-.76.49,2.44,2.44,0,0,0-.57.73,2.12,2.12,0,0,0-.23,1v4.65h-.87Z"/><path class="cls-1" d="M241.41,149.62a2.62,2.62,0,0,1-1,1.63,3.45,3.45,0,0,1-2.22.63,3.24,3.24,0,0,1-2.59-1.07,4.36,4.36,0,0,1-.92-2.95,5.51,5.51,0,0,1,.26-1.8,3.69,3.69,0,0,1,.73-1.31,3.09,3.09,0,0,1,1.11-.8,3.62,3.62,0,0,1,1.41-.27,3.54,3.54,0,0,1,1.53.29,2.7,2.7,0,0,1,1,.79,3.2,3.2,0,0,1,.58,1.2,5.83,5.83,0,0,1,.18,1.48V148H235.6a4.4,4.4,0,0,0,.17,1.23,3,3,0,0,0,.49,1,2.36,2.36,0,0,0,.83.67,2.45,2.45,0,0,0,1.14.25,4,4,0,0,0,1-.11,2,2,0,0,0,.67-.32,1.81,1.81,0,0,0,.43-.49,2.87,2.87,0,0,0,.25-.62Zm-.77-2.37a4.68,4.68,0,0,0-.13-1.16,2.63,2.63,0,0,0-.42-.91,1.92,1.92,0,0,0-.75-.59,2.68,2.68,0,0,0-1.11-.21,2.38,2.38,0,0,0-1.8.71,3.52,3.52,0,0,0-.81,2.16Z"/><path class="cls-1" d="M243.4,140.93h.87v10.71h-.87Z"/><path class="cls-1" d="M181.2,167.12a3.38,3.38,0,0,1-1,2,3.17,3.17,0,0,1-2.21.73,3.75,3.75,0,0,1-1.5-.28,2.7,2.7,0,0,1-1.1-.81,3.52,3.52,0,0,1-.7-1.28,5.85,5.85,0,0,1-.23-1.69,5.39,5.39,0,0,1,.25-1.71,3.85,3.85,0,0,1,.72-1.31,3.1,3.1,0,0,1,1.13-.83,3.67,3.67,0,0,1,1.51-.29,3,3,0,0,1,2,.65,3.13,3.13,0,0,1,1,1.84l-.84.21a3.76,3.76,0,0,0-.26-.78,2.12,2.12,0,0,0-.42-.62,1.84,1.84,0,0,0-.63-.4,2.52,2.52,0,0,0-.91-.15,2.6,2.6,0,0,0-1.2.25,2.45,2.45,0,0,0-.83.7,3,3,0,0,0-.47,1.06,5.11,5.11,0,0,0-.15,1.33,5.19,5.19,0,0,0,.15,1.34,3.1,3.1,0,0,0,.46,1.06,2.17,2.17,0,0,0,.82.71,2.6,2.6,0,0,0,1.2.25,2.18,2.18,0,0,0,1.65-.55,3,3,0,0,0,.7-1.46Z"/><path class="cls-1" d="M183,158.93h.87v10.71H183Z"/><path class="cls-1" d="M192.48,167.62a2.62,2.62,0,0,1-1,1.63,3.45,3.45,0,0,1-2.22.63,3.22,3.22,0,0,1-2.58-1.07,4.37,4.37,0,0,1-.93-2.95,5.5,5.5,0,0,1,.27-1.8,3.69,3.69,0,0,1,.73-1.31,3.09,3.09,0,0,1,1.11-.8,4,4,0,0,1,2.93,0,2.73,2.73,0,0,1,1,.79,3.2,3.2,0,0,1,.58,1.2,5.83,5.83,0,0,1,.18,1.48V166h-5.94a4.41,4.41,0,0,0,.16,1.23,3,3,0,0,0,.5,1,2.33,2.33,0,0,0,.82.67,2.45,2.45,0,0,0,1.14.25,4,4,0,0,0,1-.11,2,2,0,0,0,.68-.32,1.81,1.81,0,0,0,.43-.49,2.86,2.86,0,0,0,.24-.62Zm-.76-2.37a4.67,4.67,0,0,0-.14-1.16,2.63,2.63,0,0,0-.42-.91,1.92,1.92,0,0,0-.75-.59,2.65,2.65,0,0,0-1.11-.21,2.38,2.38,0,0,0-1.8.71,3.52,3.52,0,0,0-.81,2.16Z"/><path class="cls-1" d="M199.36,168.55a5.21,5.21,0,0,1-.47.47,3.6,3.6,0,0,1-1.37.7,3.73,3.73,0,0,1-.91.1,3,3,0,0,1-2-.58,2.09,2.09,0,0,1-.74-1.74,2.27,2.27,0,0,1,.33-1.28,2.37,2.37,0,0,1,.88-.78,4.27,4.27,0,0,1,1.25-.4,13,13,0,0,1,1.44-.14l1.5-.06v-.24a2.52,2.52,0,0,0-.44-1.66,2,2,0,0,0-1.58-.53,4.22,4.22,0,0,0-.94.09,2.09,2.09,0,0,0-.64.26,1.42,1.42,0,0,0-.4.41,1.75,1.75,0,0,0-.23.52l-.79-.12q.42-1.89,3-1.89a4.13,4.13,0,0,1,1.36.19,2.27,2.27,0,0,1,.9.56,2.3,2.3,0,0,1,.48.9,4.6,4.6,0,0,1,.15,1.23v5.08h-.86Zm0-3-1.43.06a7.79,7.79,0,0,0-1.45.16,2.69,2.69,0,0,0-1,.36,1.26,1.26,0,0,0-.51.57,1.78,1.78,0,0,0-.16.8,1.56,1.56,0,0,0,.4,1.13,1.8,1.8,0,0,0,1.38.43,4.77,4.77,0,0,0,1-.11,2,2,0,0,0,.8-.37,2.93,2.93,0,0,0,.44-.37,1.53,1.53,0,0,0,.44-.89,3.83,3.83,0,0,0,.05-.63Z"/><path class="cls-1" d="M202.31,161.92h.87v1.26a3.53,3.53,0,0,1,1.06-1,2.46,2.46,0,0,1,1.28-.36h.31l.3,0-.1.83a3.13,3.13,0,0,0-.5,0,2.48,2.48,0,0,0-.79.14,2.23,2.23,0,0,0-.77.49,2.44,2.44,0,0,0-.57.73,2.12,2.12,0,0,0-.22,1v4.65h-.87Z"/><path class="cls-1" d="M207.35,158.93h1v1.31h-1Zm.06,3h.87v7.72h-.87Z"/><path class="cls-1" d="M210.42,161.92h.87v1.26a4,4,0,0,1,1.35-1.15,3.3,3.3,0,0,1,1.52-.35,2.43,2.43,0,0,1,2,.73,3.12,3.12,0,0,1,.63,2.09v5.14h-.87v-4.9a2.77,2.77,0,0,0-.44-1.75,1.66,1.66,0,0,0-1.38-.53,2.81,2.81,0,0,0-1,.17,2.53,2.53,0,0,0-.91.55,2.85,2.85,0,0,0-.67.8,2.35,2.35,0,0,0-.23,1.13v4.53h-.87Z"/><path class="cls-1" d="M219.63,170.48a1.71,1.71,0,0,0,.72,1.13,3.09,3.09,0,0,0,1.7.37,2.51,2.51,0,0,0,1.87-.62,3,3,0,0,0,.6-2.09v-1.16a3.38,3.38,0,0,1-1.13,1,3,3,0,0,1-1.55.37,3.31,3.31,0,0,1-1.49-.32,3,3,0,0,1-1-.86,3.76,3.76,0,0,1-.6-1.24,5.4,5.4,0,0,1-.2-1.45,5.22,5.22,0,0,1,.24-1.63,3.65,3.65,0,0,1,.69-1.26,3.15,3.15,0,0,1,1.1-.8,3.54,3.54,0,0,1,1.45-.28,3.45,3.45,0,0,1,1.31.27,3.08,3.08,0,0,1,1.21,1v-1.05h.87v7.44a3.54,3.54,0,0,1-.8,2.46,3.22,3.22,0,0,1-2.53.9,5.87,5.87,0,0,1-1.22-.12,3.11,3.11,0,0,1-1-.39,2.1,2.1,0,0,1-.7-.69,2.46,2.46,0,0,1-.34-1Zm4.92-5a6.15,6.15,0,0,0-.05-.91,2.19,2.19,0,0,0-.18-.67,1.82,1.82,0,0,0-.32-.52,3.29,3.29,0,0,0-.47-.43,2.86,2.86,0,0,0-.72-.39,2.39,2.39,0,0,0-.79-.12,2.8,2.8,0,0,0-1,.18,2.07,2.07,0,0,0-.81.57,2.76,2.76,0,0,0-.54,1,4.88,4.88,0,0,0-.2,1.47,4.4,4.4,0,0,0,.22,1.46,3,3,0,0,0,.56,1,2.12,2.12,0,0,0,.78.53,2.51,2.51,0,0,0,.89.17,2.9,2.9,0,0,0,.84-.11,2.52,2.52,0,0,0,1.54-1.37,3.76,3.76,0,0,0,.27-1.52Z"/><path class="cls-1" d="M231.27,162.64h-1.2v-.72h1.2v-2.13h.87v2.13h2.19v.72h-2.19v5.05a1.86,1.86,0,0,0,.24,1,.91.91,0,0,0,.84.4,3.1,3.1,0,0,0,.66-.06,4,4,0,0,0,.48-.14l.18.71a4,4,0,0,1-.54.16,3.89,3.89,0,0,1-.85.08,2,2,0,0,1-1-.23,1.51,1.51,0,0,1-.56-.59,2.47,2.47,0,0,1-.23-.85c0-.32,0-.65,0-1Z"/><path class="cls-1" d="M235.76,161.92h.87v4.9a3.13,3.13,0,0,0,.38,1.75,1.52,1.52,0,0,0,1.31.53,2.56,2.56,0,0,0,.93-.18,3.08,3.08,0,0,0,.89-.54,3,3,0,0,0,.66-.8,2.39,2.39,0,0,0,.22-1.13v-4.53h.87v7.72H241v-1.26a3.54,3.54,0,0,1-2.8,1.5,2.27,2.27,0,0,1-1.89-.72,3.33,3.33,0,0,1-.57-2.1Z"/><path class="cls-1" d="M244,158.93h.87v4.14a4.28,4.28,0,0,1,1.16-1,3,3,0,0,1,1.53-.36,3.38,3.38,0,0,1,1.47.3,2.89,2.89,0,0,1,1,.85,3.72,3.72,0,0,1,.62,1.28,6.18,6.18,0,0,1,.2,1.59,5.63,5.63,0,0,1-.25,1.76,3.82,3.82,0,0,1-.7,1.31,3,3,0,0,1-1.08.83,3.52,3.52,0,0,1-1.44.28,3.3,3.3,0,0,1-1.35-.28,3,3,0,0,1-1.2-1v1H244Zm.84,7.16a5.84,5.84,0,0,0,.06.89,2.34,2.34,0,0,0,.18.68,1.87,1.87,0,0,0,.32.53,2.23,2.23,0,0,0,.48.43,2.33,2.33,0,0,0,.7.39,2.64,2.64,0,0,0,.83.12,2.61,2.61,0,0,0,1-.19,1.92,1.92,0,0,0,.8-.59,2.85,2.85,0,0,0,.53-1.06,5.52,5.52,0,0,0,.2-1.58,4.71,4.71,0,0,0-.22-1.57,2.91,2.91,0,0,0-.56-1,2,2,0,0,0-.78-.54,2.64,2.64,0,0,0-.86-.15,3.12,3.12,0,0,0-.84.1,2.25,2.25,0,0,0-.75.39,2.65,2.65,0,0,0-.81,1,3.36,3.36,0,0,0-.3,1.51Z"/><path class="cls-1" d="M418.72,94.45h.92v9.86h5.82l-.19.85h-6.55Z"/><path class="cls-1" d="M426.78,94.45h1v1.31h-1Zm.06,3h.87v7.72h-.87Z"/><path class="cls-1" d="M430.29,98.16h-1.2v-.72h1.2v-.89a2.5,2.5,0,0,1,.18-1,2.05,2.05,0,0,1,.47-.69,1.94,1.94,0,0,1,.68-.4,2.54,2.54,0,0,1,.83-.14,5.11,5.11,0,0,1,.58,0,4.9,4.9,0,0,1,.56.13l-.18.73a2.87,2.87,0,0,0-.87-.13,1.51,1.51,0,0,0-1,.31,1.3,1.3,0,0,0-.4,1.11v.92h2v.72h-2v7h-.87Z"/><path class="cls-1" d="M434.92,98.16h-1.2v-.72h1.2V95.31h.87v2.13H438v.72h-2.19v5a1.84,1.84,0,0,0,.24,1,.89.89,0,0,0,.84.4,3,3,0,0,0,.66-.06,4.84,4.84,0,0,0,.49-.14l.17.71a4,4,0,0,1-.54.16,3.89,3.89,0,0,1-.85.08,2,2,0,0,1-1-.23,1.41,1.41,0,0,1-.57-.59,2.41,2.41,0,0,1-.23-.85c0-.32-.05-.65-.05-1Z"/><path class="cls-1" d="M439.42,94.45h1v1.31h-1Zm.06,3h.87v7.72h-.87Z"/><path class="cls-1" d="M442.5,97.44h.87V98.7a4.15,4.15,0,0,1,1.34-1.15,3.46,3.46,0,0,1,1.52-.35,2.43,2.43,0,0,1,1.95.73,3.12,3.12,0,0,1,.63,2.09v5.14h-.87v-4.9a2.79,2.79,0,0,0-.43-1.75,1.69,1.69,0,0,0-1.38-.53,3,3,0,0,0-.95.17,2.58,2.58,0,0,0-.91.55,3.05,3.05,0,0,0-.68.8,2.39,2.39,0,0,0-.22,1.13v4.53h-.87Z"/><path class="cls-1" d="M451.71,106a1.75,1.75,0,0,0,.72,1.14,3.15,3.15,0,0,0,1.69.36,2.49,2.49,0,0,0,1.88-.62,3,3,0,0,0,.6-2.09v-1.16a3.62,3.62,0,0,1-1.13,1.05,3.21,3.21,0,0,1-1.56.36,3.14,3.14,0,0,1-1.48-.32,2.91,2.91,0,0,1-1-.86,3.67,3.67,0,0,1-.6-1.24,5.34,5.34,0,0,1-.19-1.45,5.22,5.22,0,0,1,.24-1.63,3.52,3.52,0,0,1,.69-1.25,3,3,0,0,1,1.09-.81,3.59,3.59,0,0,1,1.46-.28,3.24,3.24,0,0,1,1.3.28,3,3,0,0,1,1.22,1v-1h.87v7.44a3.59,3.59,0,0,1-.8,2.46,3.24,3.24,0,0,1-2.53.9,5.8,5.8,0,0,1-1.22-.12,3.14,3.14,0,0,1-1-.38,2.2,2.2,0,0,1-.7-.69,2.56,2.56,0,0,1-.35-1Zm4.92-5a7.58,7.58,0,0,0-.05-.9,3.06,3.06,0,0,0-.18-.68,2.3,2.3,0,0,0-.33-.52,3.19,3.19,0,0,0-.46-.43,2.86,2.86,0,0,0-.72-.39,2.45,2.45,0,0,0-.8-.12,2.8,2.8,0,0,0-1,.18,2.07,2.07,0,0,0-.81.57,2.72,2.72,0,0,0-.54,1,4.79,4.79,0,0,0-.19,1.46,4.12,4.12,0,0,0,.22,1.46,2.62,2.62,0,0,0,.56,1,2,2,0,0,0,.78.53,2.46,2.46,0,0,0,.88.17,2.9,2.9,0,0,0,.84-.11,2.69,2.69,0,0,0,.74-.37,2.46,2.46,0,0,0,.8-1,3.56,3.56,0,0,0,.28-1.52Z"/><path class="cls-1" d="M468.66,104a4,4,0,0,1-1.13,1,3.46,3.46,0,0,1-3,0,2.93,2.93,0,0,1-1-.88,3.87,3.87,0,0,1-.6-1.28,5.94,5.94,0,0,1-.2-1.53,4.64,4.64,0,0,1,.93-3.08,3.14,3.14,0,0,1,2.54-1.1,3.39,3.39,0,0,1,1.29.27,3,3,0,0,1,1.23,1v-4h.87v10.71h-.87Zm0-3a5.8,5.8,0,0,0-.06-.9,3.06,3.06,0,0,0-.18-.68,1.74,1.74,0,0,0-.32-.52,3.29,3.29,0,0,0-.47-.43,2.65,2.65,0,0,0-.71-.39,2.55,2.55,0,0,0-.81-.12,2.61,2.61,0,0,0-1,.19,2,2,0,0,0-.8.59,3,3,0,0,0-.53,1,5.45,5.45,0,0,0-.2,1.57,5.17,5.17,0,0,0,.22,1.59,3.08,3.08,0,0,0,.56,1,2,2,0,0,0,.78.54,2.55,2.55,0,0,0,.86.15,3,3,0,0,0,.83-.1,2.39,2.39,0,0,0,.76-.39,2.61,2.61,0,0,0,.81-1,3.49,3.49,0,0,0,.28-1.5Z"/><path class="cls-1" d="M478.08,103.14a2.62,2.62,0,0,1-1,1.63,3.45,3.45,0,0,1-2.22.63,3.22,3.22,0,0,1-2.59-1.07,4.4,4.4,0,0,1-.92-3,5.79,5.79,0,0,1,.26-1.8,3.79,3.79,0,0,1,.74-1.31,3,3,0,0,1,1.11-.8,3.53,3.53,0,0,1,1.4-.27,3.7,3.7,0,0,1,1.53.29,2.84,2.84,0,0,1,1,.8,3.21,3.21,0,0,1,.57,1.19,5.83,5.83,0,0,1,.18,1.48v.56h-5.94a4.53,4.53,0,0,0,.17,1.24,2.92,2.92,0,0,0,.49,1,2.39,2.39,0,0,0,.83.68,2.58,2.58,0,0,0,1.14.24,3.56,3.56,0,0,0,1-.11,1.82,1.82,0,0,0,.67-.32,1.54,1.54,0,0,0,.43-.49,2.3,2.3,0,0,0,.25-.62Zm-.77-2.37a4.68,4.68,0,0,0-.13-1.16,2.5,2.5,0,0,0-.42-.9,1.85,1.85,0,0,0-.75-.6,2.68,2.68,0,0,0-1.11-.21,2.38,2.38,0,0,0-1.8.71,3.52,3.52,0,0,0-.81,2.16Z"/><path class="cls-1" d="M479.07,97.44h1l2.63,6.78,2.68-6.78h.95l-3.12,7.72h-1Z"/><path class="cls-1" d="M487.45,94.45h1v1.31h-1Zm.06,3h.87v7.72h-.87Z"/><path class="cls-1" d="M497.07,102.64a3.45,3.45,0,0,1-1,2,3.19,3.19,0,0,1-2.2.72,3.93,3.93,0,0,1-1.5-.27,3,3,0,0,1-1.11-.81,3.8,3.8,0,0,1-.69-1.29,5.52,5.52,0,0,1-.24-1.69,5.39,5.39,0,0,1,.25-1.71,3.85,3.85,0,0,1,.72-1.31,3.17,3.17,0,0,1,1.14-.83,3.75,3.75,0,0,1,1.5-.29,3.06,3.06,0,0,1,2,.65,3.21,3.21,0,0,1,1,1.84l-.84.21a3.75,3.75,0,0,0-.25-.78,2.12,2.12,0,0,0-.42-.62,1.79,1.79,0,0,0-.64-.4,2.52,2.52,0,0,0-.91-.15,2.6,2.6,0,0,0-1.2.25,2.41,2.41,0,0,0-.82.7,2.94,2.94,0,0,0-.48,1.06,5.58,5.58,0,0,0-.15,1.33,5.67,5.67,0,0,0,.15,1.34,3.1,3.1,0,0,0,.46,1.06,2.25,2.25,0,0,0,.82.71,2.67,2.67,0,0,0,1.21.25,2.17,2.17,0,0,0,1.64-.54,2.89,2.89,0,0,0,.7-1.47Z"/><path class="cls-1" d="M505.29,103.14a2.62,2.62,0,0,1-1,1.63,3.45,3.45,0,0,1-2.22.63,3.22,3.22,0,0,1-2.59-1.07,4.4,4.4,0,0,1-.92-3,5.79,5.79,0,0,1,.26-1.8,3.79,3.79,0,0,1,.74-1.31,3,3,0,0,1,1.11-.8,3.53,3.53,0,0,1,1.4-.27,3.7,3.7,0,0,1,1.53.29,2.84,2.84,0,0,1,1,.8,3.21,3.21,0,0,1,.57,1.19,5.83,5.83,0,0,1,.18,1.48v.56h-5.94a4.53,4.53,0,0,0,.17,1.24,2.92,2.92,0,0,0,.49,1,2.39,2.39,0,0,0,.83.68,2.58,2.58,0,0,0,1.14.24,3.56,3.56,0,0,0,1-.11,1.82,1.82,0,0,0,.67-.32,1.54,1.54,0,0,0,.43-.49,2.3,2.3,0,0,0,.25-.62Zm-.77-2.37a4.68,4.68,0,0,0-.13-1.16,2.5,2.5,0,0,0-.42-.9,1.85,1.85,0,0,0-.75-.6,2.68,2.68,0,0,0-1.11-.21,2.38,2.38,0,0,0-1.8.71,3.52,3.52,0,0,0-.81,2.16Z"/><path class="cls-1" d="M388.19,399.75h-3.72v-.84h8.34v.84h-3.7v9.87h-.92Z"/><path class="cls-1" d="M397.34,409.86a3.82,3.82,0,0,1-1.52-.29,3.08,3.08,0,0,1-1.13-.81,3.82,3.82,0,0,1-.7-1.29,5.2,5.2,0,0,1-.25-1.68,5.38,5.38,0,0,1,.26-1.71,3.84,3.84,0,0,1,.74-1.3,3.09,3.09,0,0,1,1.15-.83,3.67,3.67,0,0,1,1.51-.3,3.89,3.89,0,0,1,1.52.29,3,3,0,0,1,1.14.82,3.69,3.69,0,0,1,.71,1.28,5.7,5.7,0,0,1,0,3.37,3.85,3.85,0,0,1-.73,1.32,3.23,3.23,0,0,1-1.15.84A4,4,0,0,1,397.34,409.86Zm0-.75a2.78,2.78,0,0,0,1.25-.26,2.44,2.44,0,0,0,.84-.72,2.94,2.94,0,0,0,.48-1.06,5.67,5.67,0,0,0,.15-1.34,5.31,5.31,0,0,0-.15-1.29,2.94,2.94,0,0,0-.48-1.06,2.31,2.31,0,0,0-.84-.71,3,3,0,0,0-2.49,0,2.31,2.31,0,0,0-.84.71,3.11,3.11,0,0,0-.47,1.06,5.41,5.41,0,0,0-.15,1.31,5.56,5.56,0,0,0,.15,1.32,3.11,3.11,0,0,0,.47,1.06,2.44,2.44,0,0,0,.84.72A2.8,2.8,0,0,0,397.37,409.11Z"/><path class="cls-1" d="M406.1,409.86a3.82,3.82,0,0,1-1.52-.29,3.08,3.08,0,0,1-1.13-.81,3.82,3.82,0,0,1-.7-1.29,5.2,5.2,0,0,1-.25-1.68,5.38,5.38,0,0,1,.26-1.71,3.84,3.84,0,0,1,.74-1.3,3.09,3.09,0,0,1,1.15-.83,3.67,3.67,0,0,1,1.51-.3,3.89,3.89,0,0,1,1.52.29,3,3,0,0,1,1.14.82,3.69,3.69,0,0,1,.71,1.28,5.7,5.7,0,0,1,0,3.37,3.85,3.85,0,0,1-.73,1.32,3.23,3.23,0,0,1-1.15.84A4,4,0,0,1,406.1,409.86Zm0-.75a2.78,2.78,0,0,0,1.25-.26,2.44,2.44,0,0,0,.84-.72,2.94,2.94,0,0,0,.48-1.06,5.67,5.67,0,0,0,.15-1.34,5.31,5.31,0,0,0-.15-1.29,2.94,2.94,0,0,0-.48-1.06,2.31,2.31,0,0,0-.84-.71,3,3,0,0,0-2.49,0,2.31,2.31,0,0,0-.84.71,3.11,3.11,0,0,0-.47,1.06,5.41,5.41,0,0,0-.15,1.31,5.56,5.56,0,0,0,.15,1.32,3.11,3.11,0,0,0,.47,1.06,2.44,2.44,0,0,0,.84.72A2.8,2.8,0,0,0,406.13,409.11Z"/><path class="cls-1" d="M411.55,398.91h.87v10.71h-.87Z"/><path class="cls-1" d="M418.1,407.47a1.81,1.81,0,0,0,.77,1.28,3.24,3.24,0,0,0,1.71.37,2.37,2.37,0,0,0,1.59-.42,1.35,1.35,0,0,0,.46-1.05,2,2,0,0,0-.06-.5,1.13,1.13,0,0,0-.23-.43,1.36,1.36,0,0,0-.5-.33,3.91,3.91,0,0,0-.83-.22l-.94-.15a9.12,9.12,0,0,1-1.11-.26,2.84,2.84,0,0,1-.82-.39,1.52,1.52,0,0,1-.51-.62,2.05,2.05,0,0,1-.17-.91,1.9,1.9,0,0,1,.22-.92,2.15,2.15,0,0,1,.62-.69,3,3,0,0,1,.92-.43,4.21,4.21,0,0,1,1.15-.15,4.85,4.85,0,0,1,1.32.16,2.53,2.53,0,0,1,.87.43,2,2,0,0,1,.53.63,3.85,3.85,0,0,1,.29.76l-.79.17a3.85,3.85,0,0,0-.28-.61,1.5,1.5,0,0,0-.4-.43,1.66,1.66,0,0,0-.6-.27,3.79,3.79,0,0,0-.9-.09,3.55,3.55,0,0,0-1,.12,1.83,1.83,0,0,0-.66.3,1.15,1.15,0,0,0-.35.45,1.39,1.39,0,0,0-.1.53,1.88,1.88,0,0,0,.06.49.82.82,0,0,0,.24.38,1.46,1.46,0,0,0,.5.28,4.77,4.77,0,0,0,.85.21l1.18.2a3.71,3.71,0,0,1,1.82.73,2,2,0,0,1,.6,1.58,2.07,2.07,0,0,1-.19.85,1.89,1.89,0,0,1-.56.7,2.74,2.74,0,0,1-.92.47,4.44,4.44,0,0,1-1.27.17,5.82,5.82,0,0,1-1.3-.14,3.09,3.09,0,0,1-1-.42,2.22,2.22,0,0,1-.7-.73,2.59,2.59,0,0,1-.33-1.1Z"/><path class="cls-1" d="M425.65,402.61h-1.2v-.72h1.2v-2.13h.87v2.13h2.19v.72h-2.19v5.06a1.86,1.86,0,0,0,.24,1,.91.91,0,0,0,.84.39,3.1,3.1,0,0,0,.66-.06,4.09,4.09,0,0,0,.48-.13l.18.7a4,4,0,0,1-.55.17,4,4,0,0,1-.85.07,2,2,0,0,1-1-.22,1.53,1.53,0,0,1-.57-.59,2.47,2.47,0,0,1-.23-.85c0-.32,0-.66,0-1Z"/><path class="cls-1" d="M433.39,409.86a3.9,3.9,0,0,1-1.53-.29,3,3,0,0,1-1.12-.81,3.83,3.83,0,0,1-.71-1.29,5.5,5.5,0,0,1-.24-1.68,5.12,5.12,0,0,1,.26-1.71,3.82,3.82,0,0,1,.73-1.3,3.17,3.17,0,0,1,1.15-.83,3.72,3.72,0,0,1,1.52-.3,3.84,3.84,0,0,1,1.51.29,3,3,0,0,1,1.14.82,3.54,3.54,0,0,1,.71,1.28,5.12,5.12,0,0,1,.25,1.66,5.39,5.39,0,0,1-.25,1.71,4,4,0,0,1-.73,1.32,3.27,3.27,0,0,1-1.16.84A3.9,3.9,0,0,1,433.39,409.86Zm0-.75a2.74,2.74,0,0,0,1.24-.26,2.44,2.44,0,0,0,.84-.72,2.94,2.94,0,0,0,.48-1.06,5.67,5.67,0,0,0,.15-1.34,5.31,5.31,0,0,0-.15-1.29,2.94,2.94,0,0,0-.48-1.06,2.31,2.31,0,0,0-.84-.71,2.61,2.61,0,0,0-1.24-.27,2.64,2.64,0,0,0-1.24.27,2.16,2.16,0,0,0-.84.71,2.93,2.93,0,0,0-.47,1.06,5.41,5.41,0,0,0-.15,1.31,5.56,5.56,0,0,0,.15,1.32,2.93,2.93,0,0,0,.47,1.06,2.27,2.27,0,0,0,.84.72A2.77,2.77,0,0,0,433.42,409.11Z"/><path class="cls-1" d="M438.79,401.89h.87v1.26a3.53,3.53,0,0,1,1.06-1,2.46,2.46,0,0,1,1.28-.36h.3l.31,0-.1.82a3,3,0,0,0-.5,0,2.48,2.48,0,0,0-.79.14,2.23,2.23,0,0,0-.77.49,2.44,2.44,0,0,0-.57.73,2.12,2.12,0,0,0-.22,1v4.65h-.87Z"/><path class="cls-1" d="M448.63,408.52a4.21,4.21,0,0,1-.47.48,3.24,3.24,0,0,1-1.37.69,3.72,3.72,0,0,1-.91.11,3,3,0,0,1-1.95-.59,2.09,2.09,0,0,1-.74-1.74,2.32,2.32,0,0,1,.33-1.27,2.45,2.45,0,0,1,.88-.78,4.27,4.27,0,0,1,1.25-.4,13.2,13.2,0,0,1,1.45-.14l1.5-.06v-.24a2.55,2.55,0,0,0-.45-1.67,2,2,0,0,0-1.58-.52,4.22,4.22,0,0,0-.94.09,2,2,0,0,0-.63.26,1.45,1.45,0,0,0-.41.41,2,2,0,0,0-.23.51l-.79-.12q.42-1.89,3-1.89a4.17,4.17,0,0,1,1.37.2,2.23,2.23,0,0,1,.89.56,2.31,2.31,0,0,1,.49.9,5,5,0,0,1,.15,1.22v5.09h-.87Zm0-3-1.42.06a7.91,7.91,0,0,0-1.46.16,2.69,2.69,0,0,0-1,.36,1.33,1.33,0,0,0-.51.57,1.78,1.78,0,0,0-.16.8,1.56,1.56,0,0,0,.4,1.13,1.82,1.82,0,0,0,1.39.43,4.67,4.67,0,0,0,1-.11,2,2,0,0,0,.8-.37,2.94,2.94,0,0,0,.44-.38,1.8,1.8,0,0,0,.29-.39,2.35,2.35,0,0,0,.16-.49,3.92,3.92,0,0,0,0-.63Z"/><path class="cls-1" d="M452.29,410.46a1.71,1.71,0,0,0,.72,1.13,3,3,0,0,0,1.69.37,2.53,2.53,0,0,0,1.88-.62,3,3,0,0,0,.6-2.1v-1.15a3.41,3.41,0,0,1-1.14,1,3,3,0,0,1-1.55.37,3.26,3.26,0,0,1-1.48-.32,3,3,0,0,1-1-.87,3.71,3.71,0,0,1-.6-1.23,5.39,5.39,0,0,1-.19-1.45,5.28,5.28,0,0,1,.24-1.64,3.61,3.61,0,0,1,.69-1.25,3.12,3.12,0,0,1,1.09-.8,3.59,3.59,0,0,1,1.46-.29,3.42,3.42,0,0,1,1.3.28,3.07,3.07,0,0,1,1.22,1v-1.05h.87v7.44a3.54,3.54,0,0,1-.81,2.46,3.21,3.21,0,0,1-2.52.9,5.9,5.9,0,0,1-1.23-.12,3.09,3.09,0,0,1-1-.38,2.07,2.07,0,0,1-.69-.69,2.46,2.46,0,0,1-.35-1Zm4.92-5a6,6,0,0,0-.06-.91,2.19,2.19,0,0,0-.18-.67,1.82,1.82,0,0,0-.32-.52,3.24,3.24,0,0,0-.46-.44,3,3,0,0,0-.72-.39,2.45,2.45,0,0,0-.8-.12,2.8,2.8,0,0,0-1,.18,2.07,2.07,0,0,0-.81.57,2.81,2.81,0,0,0-.54,1,4.83,4.83,0,0,0-.19,1.46,4.48,4.48,0,0,0,.21,1.47,3,3,0,0,0,.57,1,2,2,0,0,0,.78.53,2.44,2.44,0,0,0,.88.16,2.93,2.93,0,0,0,.84-.1,2.9,2.9,0,0,0,.74-.38,2.58,2.58,0,0,0,.8-1,3.8,3.8,0,0,0,.28-1.53Z"/><path class="cls-1" d="M466.46,407.59a2.64,2.64,0,0,1-1,1.64,3.45,3.45,0,0,1-2.22.63,3.26,3.26,0,0,1-2.59-1.07,4.41,4.41,0,0,1-.92-3A5.79,5.79,0,0,1,460,404a3.7,3.7,0,0,1,.74-1.31,3,3,0,0,1,1.11-.81,3.91,3.91,0,0,1,2.93,0,2.81,2.81,0,0,1,1,.79,3.48,3.48,0,0,1,.58,1.19,6.4,6.4,0,0,1,.18,1.49V406h-6a4.48,4.48,0,0,0,.17,1.24,3.17,3.17,0,0,0,.49,1,2.36,2.36,0,0,0,.83.67,2.45,2.45,0,0,0,1.14.25,4,4,0,0,0,1-.11,1.91,1.91,0,0,0,.67-.33,1.62,1.62,0,0,0,.43-.48,2.51,2.51,0,0,0,.25-.63Zm-.77-2.37a4.6,4.6,0,0,0-.13-1.15,2.63,2.63,0,0,0-.42-.91,1.92,1.92,0,0,0-.75-.59,2.68,2.68,0,0,0-1.11-.21,2.37,2.37,0,0,0-1.8.7,3.52,3.52,0,0,0-.81,2.16Z"/><path class="cls-1" d="M471.53,398.91h.87v10.71h-.87Z"/><path class="cls-1" d="M477.77,409.86a3.82,3.82,0,0,1-1.52-.29,3.08,3.08,0,0,1-1.13-.81,3.82,3.82,0,0,1-.7-1.29,5.2,5.2,0,0,1-.25-1.68,5.38,5.38,0,0,1,.26-1.71,3.84,3.84,0,0,1,.74-1.3,3.06,3.06,0,0,1,1.14-.83,3.75,3.75,0,0,1,1.52-.3,3.89,3.89,0,0,1,1.52.29,3,3,0,0,1,1.13.82,3.71,3.71,0,0,1,.72,1.28,5.92,5.92,0,0,1,0,3.37,3.85,3.85,0,0,1-.73,1.32,3.23,3.23,0,0,1-1.15.84A4,4,0,0,1,477.77,409.86Zm0-.75a2.74,2.74,0,0,0,1.24-.26,2.44,2.44,0,0,0,.84-.72,2.64,2.64,0,0,0,.48-1.06,5.66,5.66,0,0,0,.16-1.34,5.3,5.3,0,0,0-.16-1.29,2.64,2.64,0,0,0-.48-1.06,2.31,2.31,0,0,0-.84-.71,2.61,2.61,0,0,0-1.24-.27,2.67,2.67,0,0,0-1.24.27,2.31,2.31,0,0,0-.84.71,3.11,3.11,0,0,0-.47,1.06,5.41,5.41,0,0,0-.15,1.31,5.56,5.56,0,0,0,.15,1.32,3.11,3.11,0,0,0,.47,1.06,2.44,2.44,0,0,0,.84.72A2.8,2.8,0,0,0,477.8,409.11Z"/><path class="cls-1" d="M489.71,407.1a3.44,3.44,0,0,1-1,2,3.19,3.19,0,0,1-2.21.73,3.75,3.75,0,0,1-1.5-.28,2.8,2.8,0,0,1-1.11-.81,3.66,3.66,0,0,1-.69-1.28,5.58,5.58,0,0,1-.24-1.7,5.38,5.38,0,0,1,.26-1.71,4,4,0,0,1,.71-1.3A3.06,3.06,0,0,1,485,402a3.59,3.59,0,0,1,1.5-.3,3,3,0,0,1,2,.66,3.15,3.15,0,0,1,1,1.83l-.84.21a3.24,3.24,0,0,0-.25-.78,2.07,2.07,0,0,0-.42-.61,1.81,1.81,0,0,0-.64-.41,2.46,2.46,0,0,0-.9-.15,2.61,2.61,0,0,0-1.21.26,2.31,2.31,0,0,0-.82.7,2.82,2.82,0,0,0-.48,1.05,5.67,5.67,0,0,0-.15,1.34,5.58,5.58,0,0,0,.15,1.33,3.36,3.36,0,0,0,.46,1.07,2.31,2.31,0,0,0,.82.7,2.67,2.67,0,0,0,1.21.26,2.14,2.14,0,0,0,1.64-.55,2.82,2.82,0,0,0,.7-1.46Z"/><path class="cls-1" d="M491.34,398.91h.87v6.58l4-3.6h1.08l-2.73,2.55,3.07,5.18h-1.05l-2.7-4.64-1.65,1.49v3.15h-.87Z"/><path class="cls-1" d="M505.05,407.59a2.63,2.63,0,0,1-.95,1.64,3.5,3.5,0,0,1-2.23.63,3.23,3.23,0,0,1-2.58-1.07,4.37,4.37,0,0,1-.93-3,5.5,5.5,0,0,1,.27-1.8,3.69,3.69,0,0,1,.73-1.31,3.12,3.12,0,0,1,1.11-.81,3.91,3.91,0,0,1,2.93,0,2.73,2.73,0,0,1,1,.79,3.15,3.15,0,0,1,.58,1.19,5.91,5.91,0,0,1,.18,1.49V406h-5.94a4.48,4.48,0,0,0,.16,1.24,3,3,0,0,0,.5,1,2.33,2.33,0,0,0,.82.67,2.45,2.45,0,0,0,1.14.25,3.87,3.87,0,0,0,1-.11,2.05,2.05,0,0,0,.68-.33,1.77,1.77,0,0,0,.43-.48,2.94,2.94,0,0,0,.24-.63Zm-.76-2.37a4.59,4.59,0,0,0-.14-1.15,2.63,2.63,0,0,0-.42-.91,1.92,1.92,0,0,0-.75-.59,2.65,2.65,0,0,0-1.11-.21,2.37,2.37,0,0,0-1.8.7,3.51,3.51,0,0,0-.8,2.16Z"/><path class="cls-1" d="M506.87,401.89h.87v1.26a3.53,3.53,0,0,1,1.06-1,2.46,2.46,0,0,1,1.28-.36h.31l.3,0-.1.82a3,3,0,0,0-.5,0,2.48,2.48,0,0,0-.79.14,2.23,2.23,0,0,0-.77.49,2.44,2.44,0,0,0-.57.73,2.12,2.12,0,0,0-.22,1v4.65h-.87Z"/><line class="cls-2" x1="462.27" y1="117.88" x2="462.27" y2="208.16"/><path class="cls-3" d="M461.33,208.16a.94.94,0,1,0,.94-.94A.95.95,0,0,0,461.33,208.16Z"/><path class="cls-1" d="M262.6,136.45h1l2.53,9.57,2.65-9.52h1l2.58,9.51,2.55-9.56h1l-3,10.71h-1.07l-2.58-9.52-2.58,9.52h-1Z"/><path class="cls-1" d="M280.48,147.4a3.9,3.9,0,0,1-1.53-.28,3,3,0,0,1-1.12-.82,3.69,3.69,0,0,1-.71-1.28,5.5,5.5,0,0,1-.24-1.68,5.12,5.12,0,0,1,.26-1.71,3.87,3.87,0,0,1,.73-1.31,3.3,3.3,0,0,1,1.15-.83,3.89,3.89,0,0,1,1.52-.29,3.83,3.83,0,0,1,1.51.28,3.15,3.15,0,0,1,1.14.82,3.62,3.62,0,0,1,.71,1.28,5.18,5.18,0,0,1,.25,1.67,5.39,5.39,0,0,1-.25,1.71,3.87,3.87,0,0,1-.73,1.31,3,3,0,0,1-1.16.84A3.73,3.73,0,0,1,280.48,147.4Zm0-.75a2.61,2.61,0,0,0,1.24-.26,2.31,2.31,0,0,0,.84-.71,3,3,0,0,0,.48-1.07,5.58,5.58,0,0,0,.15-1.33,5.45,5.45,0,0,0-.15-1.3,3,3,0,0,0-.48-1.06,2.42,2.42,0,0,0-.84-.71,3.09,3.09,0,0,0-2.48,0,2.25,2.25,0,0,0-.84.71A3,3,0,0,0,278,142a5.47,5.47,0,0,0-.15,1.31,5.56,5.56,0,0,0,.15,1.32,3,3,0,0,0,.47,1.07,2.16,2.16,0,0,0,.84.71A2.61,2.61,0,0,0,280.51,146.65Z"/><path class="cls-1" d="M286,139.44h.87v1.26a3.53,3.53,0,0,1,1.06-1,2.48,2.48,0,0,1,1.28-.36h.31l.31,0-.11.83a3.13,3.13,0,0,0-.5-.05,2.25,2.25,0,0,0-.79.15,2,2,0,0,0-.76.48,2.4,2.4,0,0,0-.57.73,2,2,0,0,0-.23,1v4.65H286Z"/><path class="cls-1" d="M291.06,136.45h.88V143l4-3.6H297L294.26,142l3.08,5.17h-1.06l-2.69-4.63L291.94,144v3.15h-.88Z"/><path class="cls-1" d="M301.8,136.45h.88v4.14a3.92,3.92,0,0,1,1.15-1,2.94,2.94,0,0,1,1.53-.37,3.25,3.25,0,0,1,1.47.31,2.76,2.76,0,0,1,1,.84,3.72,3.72,0,0,1,.62,1.28,6.18,6.18,0,0,1,.2,1.59,5.58,5.58,0,0,1-.25,1.76,3.88,3.88,0,0,1-.69,1.31,3.14,3.14,0,0,1-1.09.83,3.48,3.48,0,0,1-1.43.28,3.35,3.35,0,0,1-1.36-.28,3,3,0,0,1-1.19-1v1h-.88Zm.85,7.16a5.86,5.86,0,0,0,.05.89,2.26,2.26,0,0,0,.18.68,2.08,2.08,0,0,0,.32.54,2.49,2.49,0,0,0,.48.42,2.46,2.46,0,0,0,.7.39,2.64,2.64,0,0,0,.83.12,2.8,2.8,0,0,0,1-.18,2,2,0,0,0,.8-.6,2.73,2.73,0,0,0,.53-1.05,5.65,5.65,0,0,0,.2-1.59,4.71,4.71,0,0,0-.22-1.57,2.78,2.78,0,0,0-.56-1,1.84,1.84,0,0,0-.78-.54,2.41,2.41,0,0,0-.85-.16,3.07,3.07,0,0,0-.84.1,2.25,2.25,0,0,0-.75.39,2.54,2.54,0,0,0-.82,1,3.29,3.29,0,0,0-.29,1.5Z"/><path class="cls-1" d="M317,145.14a2.62,2.62,0,0,1-1,1.63,3.45,3.45,0,0,1-2.22.63,3.22,3.22,0,0,1-2.59-1.07,4.4,4.4,0,0,1-.92-3,5.79,5.79,0,0,1,.26-1.8,3.79,3.79,0,0,1,.74-1.31,3,3,0,0,1,1.11-.8,3.53,3.53,0,0,1,1.4-.27,3.7,3.7,0,0,1,1.53.29,2.84,2.84,0,0,1,1,.8,3.21,3.21,0,0,1,.57,1.19,5.83,5.83,0,0,1,.18,1.48v.56h-5.94a4.53,4.53,0,0,0,.17,1.24,2.77,2.77,0,0,0,.5,1,2.27,2.27,0,0,0,.82.68,2.58,2.58,0,0,0,1.14.24,3.56,3.56,0,0,0,1-.11,1.82,1.82,0,0,0,.67-.32,1.54,1.54,0,0,0,.43-.49,2.3,2.3,0,0,0,.25-.62Zm-.77-2.37a4.68,4.68,0,0,0-.13-1.16,2.5,2.5,0,0,0-.42-.9,1.85,1.85,0,0,0-.75-.6,2.68,2.68,0,0,0-1.11-.21,2.38,2.38,0,0,0-1.8.71,3.52,3.52,0,0,0-.81,2.16Z"/><path class="cls-1" d="M319,139.44h.87v1.26a4.15,4.15,0,0,1,1.34-1.15,3.47,3.47,0,0,1,1.53-.35,2.42,2.42,0,0,1,1.94.73,3.13,3.13,0,0,1,.64,2.09v5.14h-.88v-4.9a2.79,2.79,0,0,0-.43-1.75,1.69,1.69,0,0,0-1.38-.53,3,3,0,0,0-.95.17,2.58,2.58,0,0,0-.91.55,3.05,3.05,0,0,0-.68.8,2.39,2.39,0,0,0-.22,1.13v4.53H319Z"/><path class="cls-1" d="M333.86,144.64a3.45,3.45,0,0,1-1,2,3.19,3.19,0,0,1-2.2.72,3.93,3.93,0,0,1-1.5-.27,3,3,0,0,1-1.11-.81,3.8,3.8,0,0,1-.69-1.29,5.52,5.52,0,0,1-.24-1.69,5.39,5.39,0,0,1,.25-1.71,3.85,3.85,0,0,1,.72-1.31,3.17,3.17,0,0,1,1.14-.83,3.75,3.75,0,0,1,1.5-.29,3.06,3.06,0,0,1,2,.65,3.21,3.21,0,0,1,1,1.84l-.84.21a3.75,3.75,0,0,0-.25-.78,2.12,2.12,0,0,0-.42-.62,1.79,1.79,0,0,0-.64-.4,2.44,2.44,0,0,0-.91-.15,2.6,2.6,0,0,0-1.2.25,2.41,2.41,0,0,0-.82.7,2.94,2.94,0,0,0-.48,1.06,5.58,5.58,0,0,0-.15,1.33,5.67,5.67,0,0,0,.15,1.34,3.1,3.1,0,0,0,.46,1.06,2.25,2.25,0,0,0,.82.71,2.67,2.67,0,0,0,1.21.25,2.17,2.17,0,0,0,1.64-.54,2.89,2.89,0,0,0,.7-1.47Z"/><path class="cls-1" d="M335.63,136.45h.87v4.25a4.15,4.15,0,0,1,1.34-1.15,3.46,3.46,0,0,1,1.52-.35,2.43,2.43,0,0,1,1.95.73,3.12,3.12,0,0,1,.63,2.09v5.14h-.87v-4.9a2.79,2.79,0,0,0-.43-1.75,1.69,1.69,0,0,0-1.38-.53,3,3,0,0,0-.95.17,2.58,2.58,0,0,0-.91.55,3.05,3.05,0,0,0-.68.8,2.39,2.39,0,0,0-.22,1.13v4.53h-.87Z"/><line class="cls-2" x1="303.11" y1="159.88" x2="303.11" y2="268.18"/><path class="cls-3" d="M302.17,268.18a.94.94,0,1,0,.94-.94A.94.94,0,0,0,302.17,268.18Z"/><path class="cls-1" d="M595.1,133.45h1l2.53,9.57,2.65-9.52h1l2.58,9.51,2.55-9.56h1l-3,10.71h-1.07l-2.58-9.52-2.58,9.52h-1Z"/><path class="cls-1" d="M613,144.4a3.9,3.9,0,0,1-1.53-.28,3,3,0,0,1-1.12-.82,3.69,3.69,0,0,1-.71-1.28,5.5,5.5,0,0,1-.24-1.68,5.12,5.12,0,0,1,.26-1.71,3.87,3.87,0,0,1,.73-1.31,3.3,3.3,0,0,1,1.15-.83,3.89,3.89,0,0,1,1.52-.29,3.83,3.83,0,0,1,1.51.28,3.15,3.15,0,0,1,1.14.82,3.62,3.62,0,0,1,.71,1.28,5.18,5.18,0,0,1,.25,1.67,5.39,5.39,0,0,1-.25,1.71,3.87,3.87,0,0,1-.73,1.31,3,3,0,0,1-1.16.84A3.73,3.73,0,0,1,613,144.4Zm0-.75a2.61,2.61,0,0,0,1.24-.26,2.31,2.31,0,0,0,.84-.71,3,3,0,0,0,.48-1.07,5.58,5.58,0,0,0,.15-1.33,5.45,5.45,0,0,0-.15-1.3,3,3,0,0,0-.48-1.06,2.42,2.42,0,0,0-.84-.71,3.09,3.09,0,0,0-2.48,0,2.25,2.25,0,0,0-.84.71,3,3,0,0,0-.47,1.06,5.47,5.47,0,0,0-.15,1.31,5.56,5.56,0,0,0,.15,1.32,3,3,0,0,0,.47,1.07,2.16,2.16,0,0,0,.84.71A2.61,2.61,0,0,0,613,143.65Z"/><path class="cls-1" d="M618.51,136.44h.87v1.26a3.53,3.53,0,0,1,1.06-1,2.48,2.48,0,0,1,1.28-.36H622l.31,0-.11.83a3.13,3.13,0,0,0-.5-.05,2.25,2.25,0,0,0-.79.15,2,2,0,0,0-.76.48,2.4,2.4,0,0,0-.57.73,2,2,0,0,0-.23,1v4.65h-.87Z"/><path class="cls-1" d="M623.56,133.45h.88V140l4-3.6h1.08L626.76,139l3.08,5.17h-1.06l-2.69-4.63L624.44,141v3.15h-.88Z"/><path class="cls-1" d="M634.3,133.45h.88v4.14a3.92,3.92,0,0,1,1.15-1,2.94,2.94,0,0,1,1.53-.37,3.25,3.25,0,0,1,1.47.31,2.76,2.76,0,0,1,1,.84,3.72,3.72,0,0,1,.62,1.28,6.18,6.18,0,0,1,.2,1.59,5.58,5.58,0,0,1-.25,1.76,3.88,3.88,0,0,1-.69,1.31,3.14,3.14,0,0,1-1.09.83,3.48,3.48,0,0,1-1.43.28,3.35,3.35,0,0,1-1.36-.28,3,3,0,0,1-1.19-1v1h-.88Zm.85,7.16a5.86,5.86,0,0,0,.05.89,2.26,2.26,0,0,0,.18.68,2.08,2.08,0,0,0,.32.54,2.49,2.49,0,0,0,.48.42,2.46,2.46,0,0,0,.7.39,2.64,2.64,0,0,0,.83.12,2.8,2.8,0,0,0,1-.18,2,2,0,0,0,.8-.6,2.73,2.73,0,0,0,.53-1.05,5.65,5.65,0,0,0,.2-1.59,4.71,4.71,0,0,0-.22-1.57,2.78,2.78,0,0,0-.56-1,1.84,1.84,0,0,0-.78-.54,2.41,2.41,0,0,0-.85-.16,3.07,3.07,0,0,0-.84.1,2.25,2.25,0,0,0-.75.39,2.54,2.54,0,0,0-.82,1,3.29,3.29,0,0,0-.29,1.5Z"/><path class="cls-1" d="M649.5,142.14a2.62,2.62,0,0,1-1,1.63,3.45,3.45,0,0,1-2.22.63,3.22,3.22,0,0,1-2.59-1.07,4.4,4.4,0,0,1-.92-3,5.79,5.79,0,0,1,.26-1.8,3.79,3.79,0,0,1,.74-1.31,3,3,0,0,1,1.11-.8,3.53,3.53,0,0,1,1.4-.27,3.7,3.7,0,0,1,1.53.29,2.84,2.84,0,0,1,1,.8,3.21,3.21,0,0,1,.57,1.19,5.83,5.83,0,0,1,.18,1.48v.56h-5.94a4.53,4.53,0,0,0,.17,1.24,2.77,2.77,0,0,0,.5,1,2.27,2.27,0,0,0,.82.68,2.58,2.58,0,0,0,1.14.24,3.56,3.56,0,0,0,1-.11,1.82,1.82,0,0,0,.67-.32,1.54,1.54,0,0,0,.43-.49,2.3,2.3,0,0,0,.25-.62Zm-.77-2.37a4.68,4.68,0,0,0-.13-1.16,2.5,2.5,0,0,0-.42-.9,1.85,1.85,0,0,0-.75-.6,2.68,2.68,0,0,0-1.11-.21,2.38,2.38,0,0,0-1.8.71,3.52,3.52,0,0,0-.81,2.16Z"/><path class="cls-1" d="M651.45,136.44h.87v1.26a4.15,4.15,0,0,1,1.34-1.15,3.47,3.47,0,0,1,1.53-.35,2.42,2.42,0,0,1,1.94.73,3.13,3.13,0,0,1,.64,2.09v5.14h-.88v-4.9a2.79,2.79,0,0,0-.43-1.75,1.69,1.69,0,0,0-1.38-.53,3,3,0,0,0-1,.17,2.58,2.58,0,0,0-.91.55,3.05,3.05,0,0,0-.68.8,2.39,2.39,0,0,0-.22,1.13v4.53h-.87Z"/><path class="cls-1" d="M666.36,141.64a3.45,3.45,0,0,1-1,2,3.19,3.19,0,0,1-2.2.72,3.93,3.93,0,0,1-1.5-.27,3,3,0,0,1-1.11-.81,3.8,3.8,0,0,1-.69-1.29,5.52,5.52,0,0,1-.24-1.69,5.39,5.39,0,0,1,.25-1.71,3.85,3.85,0,0,1,.72-1.31,3.17,3.17,0,0,1,1.14-.83,3.75,3.75,0,0,1,1.5-.29,3.06,3.06,0,0,1,2,.65,3.21,3.21,0,0,1,1,1.84l-.84.21a3.75,3.75,0,0,0-.25-.78,2.12,2.12,0,0,0-.42-.62,1.79,1.79,0,0,0-.64-.4,2.44,2.44,0,0,0-.91-.15,2.6,2.6,0,0,0-1.2.25,2.41,2.41,0,0,0-.82.7,2.94,2.94,0,0,0-.48,1.06,5.58,5.58,0,0,0-.15,1.33,5.67,5.67,0,0,0,.15,1.34,3.1,3.1,0,0,0,.46,1.06,2.25,2.25,0,0,0,.82.71,2.67,2.67,0,0,0,1.21.25,2.17,2.17,0,0,0,1.64-.54,2.89,2.89,0,0,0,.7-1.47Z"/><path class="cls-1" d="M668.13,133.45H669v4.25a4.15,4.15,0,0,1,1.34-1.15,3.46,3.46,0,0,1,1.52-.35,2.43,2.43,0,0,1,1.95.73,3.12,3.12,0,0,1,.63,2.09v5.14h-.87v-4.9a2.79,2.79,0,0,0-.43-1.75,1.69,1.69,0,0,0-1.38-.53,3,3,0,0,0-1,.17,2.58,2.58,0,0,0-.91.55,3.05,3.05,0,0,0-.68.8,2.39,2.39,0,0,0-.22,1.13v4.53h-.87Z"/><line class="cls-2" x1="635.61" y1="156.88" x2="635.61" y2="280.16"/><path class="cls-3" d="M634.67,280.16a.94.94,0,1,0,.94-.94A.94.94,0,0,0,634.67,280.16Z"/><line class="cls-2" x1="211.68" y1="182.44" x2="211.68" y2="304.66"/><path class="cls-3" d="M210.74,304.66a.94.94,0,1,0,.94-.94A.94.94,0,0,0,210.74,304.66Z"/><path class="cls-1" d="M132.85,446.35h3.93v4.14a4.31,4.31,0,0,1-.88.64,5.62,5.62,0,0,1-1,.44,6.2,6.2,0,0,1-1,.26,7.65,7.65,0,0,1-1.05.08,5.31,5.31,0,0,1-2-.37,4,4,0,0,1-1.55-1.08,4.79,4.79,0,0,1-1-1.75,7.62,7.62,0,0,1-.34-2.39,7.28,7.28,0,0,1,.37-2.44,5.06,5.06,0,0,1,1-1.77,4.12,4.12,0,0,1,1.51-1.08,4.71,4.71,0,0,1,1.88-.37,3.61,3.61,0,0,1,3.91,2.93l-.85.19a4.64,4.64,0,0,0-.39-.94,2.51,2.51,0,0,0-1.46-1.21,4.13,4.13,0,0,0-2.86.19,3.37,3.37,0,0,0-1.19,1,4.72,4.72,0,0,0-.73,1.53,8,8,0,0,0,0,3.88,4.38,4.38,0,0,0,.73,1.52,3.37,3.37,0,0,0,1.24,1,4.11,4.11,0,0,0,1.75.35,6.29,6.29,0,0,0,1.67-.23,4.46,4.46,0,0,0,1.45-.71v-3h-3.06Z"/><path class="cls-1" d="M138.73,443.92h.87v4.9a3,3,0,0,0,.38,1.75,1.51,1.51,0,0,0,1.31.53,2.56,2.56,0,0,0,.93-.18,3.08,3.08,0,0,0,.89-.54,3,3,0,0,0,.66-.8,2.39,2.39,0,0,0,.22-1.13v-4.53h.87v7.72H144v-1.26a3.54,3.54,0,0,1-2.8,1.5,2.27,2.27,0,0,1-1.89-.72,3.33,3.33,0,0,1-.57-2.1Z"/><path class="cls-1" d="M147,443.92h.87v1.26a4,4,0,0,1,1.34-1.15,3.37,3.37,0,0,1,1.53-.35,2.43,2.43,0,0,1,2,.73,3.12,3.12,0,0,1,.63,2.09v5.14h-.87v-4.9A2.77,2.77,0,0,0,152,445a1.66,1.66,0,0,0-1.38-.53,2.77,2.77,0,0,0-1,.17,2.44,2.44,0,0,0-.91.55,2.85,2.85,0,0,0-.67.8,2.35,2.35,0,0,0-.23,1.13v4.53H147Z"/><path class="cls-1" d="M158.68,440.93h.87v4.14a4.25,4.25,0,0,1,1.15-1,3,3,0,0,1,1.53-.36,3.38,3.38,0,0,1,1.47.3,2.89,2.89,0,0,1,1,.85,3.72,3.72,0,0,1,.62,1.28,6.18,6.18,0,0,1,.2,1.59,5.63,5.63,0,0,1-.25,1.76,3.8,3.8,0,0,1-.69,1.31,3,3,0,0,1-1.09.83,3.48,3.48,0,0,1-1.43.28,3.35,3.35,0,0,1-1.36-.28,3,3,0,0,1-1.19-1v1.05h-.87Zm.84,7.16a6,6,0,0,0,0,.89,2.34,2.34,0,0,0,.18.68,1.87,1.87,0,0,0,.32.53,2.23,2.23,0,0,0,.48.43,2.38,2.38,0,0,0,.71.39,2.57,2.57,0,0,0,.82.12,2.61,2.61,0,0,0,1-.19,1.92,1.92,0,0,0,.8-.59,2.86,2.86,0,0,0,.54-1.06,5.55,5.55,0,0,0,.19-1.58,4.71,4.71,0,0,0-.22-1.57,2.91,2.91,0,0,0-.56-1,2,2,0,0,0-.78-.54,2.58,2.58,0,0,0-.85-.15,3.12,3.12,0,0,0-.84.1,2.25,2.25,0,0,0-.75.39,2.68,2.68,0,0,0-.82,1,3.36,3.36,0,0,0-.29,1.51Z"/><path class="cls-1" d="M172.34,450.55a4,4,0,0,1-.46.47,3.51,3.51,0,0,1-.62.41,3.43,3.43,0,0,1-.76.29,3.59,3.59,0,0,1-.9.1,3,3,0,0,1-1.95-.58,2.09,2.09,0,0,1-.74-1.74,2.14,2.14,0,0,1,1.21-2.06,4.2,4.2,0,0,1,1.24-.4,13.44,13.44,0,0,1,1.45-.14l1.5-.06v-.24a2.58,2.58,0,0,0-.44-1.66,2,2,0,0,0-1.58-.53,4.16,4.16,0,0,0-.94.09,2,2,0,0,0-.64.26,1.42,1.42,0,0,0-.4.41,1.75,1.75,0,0,0-.23.52l-.79-.12q.42-1.89,3-1.89a4.13,4.13,0,0,1,1.36.19,2.16,2.16,0,0,1,.89.56,2.19,2.19,0,0,1,.49.9,4.6,4.6,0,0,1,.15,1.23v5.08h-.87Zm0-3-1.43.06a7.79,7.79,0,0,0-1.45.16,2.69,2.69,0,0,0-.95.36,1.35,1.35,0,0,0-.52.57,1.94,1.94,0,0,0-.15.8,1.6,1.6,0,0,0,.39,1.13,1.84,1.84,0,0,0,1.39.43,4.6,4.6,0,0,0,1-.11,2,2,0,0,0,.81-.37,3.55,3.55,0,0,0,.44-.37,1.8,1.8,0,0,0,.28-.4,1.57,1.57,0,0,0,.16-.49,3.83,3.83,0,0,0,.05-.63Z"/><path class="cls-1" d="M175.3,443.92h.87v1.26a3.53,3.53,0,0,1,1.06-1,2.46,2.46,0,0,1,1.28-.36h.3l.31,0-.1.83a3.13,3.13,0,0,0-.5-.05,2.48,2.48,0,0,0-.79.14,2.23,2.23,0,0,0-.77.49,2.44,2.44,0,0,0-.57.73,2.12,2.12,0,0,0-.22,1v4.65h-.87Z"/><path class="cls-1" d="M180.35,443.92h.87v1.26a3.56,3.56,0,0,1,1.07-1,2.42,2.42,0,0,1,1.27-.36h.31l.31,0-.11.83a3,3,0,0,0-.49-.05,2.54,2.54,0,0,0-.8.14,2.19,2.19,0,0,0-.76.49,2.44,2.44,0,0,0-.57.73,2.12,2.12,0,0,0-.23,1v4.65h-.87Z"/><path class="cls-1" d="M191.86,449.62a2.62,2.62,0,0,1-1,1.63,3.45,3.45,0,0,1-2.22.63,3.24,3.24,0,0,1-2.59-1.07,4.36,4.36,0,0,1-.92-2.95,5.51,5.51,0,0,1,.26-1.8,3.69,3.69,0,0,1,.73-1.31,3.09,3.09,0,0,1,1.11-.8,3.62,3.62,0,0,1,1.41-.27,3.54,3.54,0,0,1,1.53.29,2.7,2.7,0,0,1,1,.79,3.2,3.2,0,0,1,.58,1.2,5.83,5.83,0,0,1,.18,1.48V448h-5.94a4.4,4.4,0,0,0,.17,1.23,3,3,0,0,0,.49,1,2.36,2.36,0,0,0,.83.67,2.45,2.45,0,0,0,1.14.25,4,4,0,0,0,1-.11,2,2,0,0,0,.67-.32,1.81,1.81,0,0,0,.43-.49,2.87,2.87,0,0,0,.25-.62Zm-.77-2.37a4.68,4.68,0,0,0-.13-1.16,2.63,2.63,0,0,0-.42-.91,1.92,1.92,0,0,0-.75-.59,2.68,2.68,0,0,0-1.11-.21,2.38,2.38,0,0,0-1.8.71,3.52,3.52,0,0,0-.81,2.16Z"/><path class="cls-1" d="M193.85,440.93h.87v10.71h-.87Z"/><path class="cls-1" d="M200.65,444.64h-1.2v-.72h1.2V443a2.5,2.5,0,0,1,.18-1,1.92,1.92,0,0,1,.47-.69,1.86,1.86,0,0,1,.68-.4,2.54,2.54,0,0,1,.83-.14A3.75,3.75,0,0,1,204,441l-.18.73a2.84,2.84,0,0,0-.45-.1,2.77,2.77,0,0,0-.42,0,1.62,1.62,0,0,0-1,.3,1.37,1.37,0,0,0-.39,1.12v.92h2v.72h-2v7h-.87Zm4.18-3.71h1v1.31h-1Zm.06,3h.87v7.72h-.87Z"/><path class="cls-1" d="M209.92,447.52l-2.61-3.6h1l2.13,3,2.14-3h1L211,447.55l2.88,4.09h-1l-2.43-3.47L208,451.64h-1Z"/><path class="cls-1" d="M215.51,444.64h-1.2v-.72h1.2v-2.13h.87v2.13h2.19v.72h-2.19v5.05a1.86,1.86,0,0,0,.24,1,.91.91,0,0,0,.84.4,3.1,3.1,0,0,0,.66-.06,4,4,0,0,0,.48-.14l.18.71a3.77,3.77,0,0,1-1.39.24,2,2,0,0,1-1-.23,1.44,1.44,0,0,1-.56-.59,2.27,2.27,0,0,1-.23-.85,8.07,8.07,0,0,1-.05-1Z"/><path class="cls-1" d="M220,443.92h.86v4.9a3,3,0,0,0,.39,1.75,1.51,1.51,0,0,0,1.31.53,2.56,2.56,0,0,0,.93-.18,2.91,2.91,0,0,0,.88-.54,2.65,2.65,0,0,0,.66-.8,2.27,2.27,0,0,0,.23-1.13v-4.53h.87v7.72h-.87v-1.26a3.55,3.55,0,0,1-2.81,1.5,2.28,2.28,0,0,1-1.89-.72,3.39,3.39,0,0,1-.56-2.1Z"/><path class="cls-1" d="M228.23,443.92h.87v1.26a3.56,3.56,0,0,1,1.07-1,2.4,2.4,0,0,1,1.27-.36h.31l.31,0-.11.83a3,3,0,0,0-.5-.05,2.48,2.48,0,0,0-.79.14,2.19,2.19,0,0,0-.76.49,2.44,2.44,0,0,0-.57.73,2.12,2.12,0,0,0-.23,1v4.65h-.87Z"/><path class="cls-1" d="M239.73,449.62a2.62,2.62,0,0,1-1,1.63,3.42,3.42,0,0,1-2.22.63,3.22,3.22,0,0,1-2.58-1.07,4.37,4.37,0,0,1-.93-2.95,5.5,5.5,0,0,1,.27-1.8,3.69,3.69,0,0,1,.73-1.31,3.09,3.09,0,0,1,1.11-.8,4,4,0,0,1,2.94,0,2.7,2.7,0,0,1,1,.79,3.2,3.2,0,0,1,.58,1.2,5.83,5.83,0,0,1,.18,1.48V448h-5.94a4.07,4.07,0,0,0,.17,1.23,2.8,2.8,0,0,0,.49,1,2.43,2.43,0,0,0,2,.92,4,4,0,0,0,1-.11,2,2,0,0,0,.68-.32,1.81,1.81,0,0,0,.43-.49,2.87,2.87,0,0,0,.25-.62Zm-.76-2.37a4.68,4.68,0,0,0-.13-1.16,2.82,2.82,0,0,0-.42-.91,2.07,2.07,0,0,0-.75-.59,2.73,2.73,0,0,0-1.12-.21,2.34,2.34,0,0,0-1.79.71,3.46,3.46,0,0,0-.82,2.16Z"/><line class="cls-2" x1="183.84" y1="428.06" x2="183.84" y2="326.71"/><path class="cls-3" d="M184.78,326.71a.94.94,0,1,0-.94.94A.94.94,0,0,0,184.78,326.71Z"/><line class="cls-2" x1="447.55" y1="392.04" x2="447.54" y2="252.82"/><path class="cls-3" d="M448.48,252.82a.94.94,0,1,0-.94.94A.95.95,0,0,0,448.48,252.82Z"/></svg>