<svg id="text" xmlns="http://www.w3.org/2000/svg" width="800" height="550" viewBox="0 0 800 550"><defs><style>.cls-1{fill:#3a3531;}.cls-2{fill:none;stroke:#fbbb21;stroke-width:0.5px;}.cls-3{fill:#fbbb21;}</style></defs><title>wheel_and_brake_maintenance_shadow</title><path class="cls-1" d="M127.24,151.77h-3.72v-.84h8.34v.84h-3.71v9.87h-.91Z"/><path class="cls-1" d="M133,163.61a2.4,2.4,0,0,0,.38.12,2,2,0,0,0,.43,0,1.44,1.44,0,0,0,.45-.06.77.77,0,0,0,.33-.22,1.87,1.87,0,0,0,.28-.4c.08-.17.18-.38.29-.64l.36-.92-3.32-7.61h1l2.8,6.6,2.51-6.6h1L136,162.66c-.12.29-.24.55-.36.79a3.52,3.52,0,0,1-.42.6,1.57,1.57,0,0,1-.55.37,1.9,1.9,0,0,1-.75.13,3.22,3.22,0,0,1-.58,0,2.8,2.8,0,0,1-.53-.14Z"/><path class="cls-1" d="M140.63,153.92h.87v1.26a3.56,3.56,0,0,1,1.07-1,2.42,2.42,0,0,1,1.27-.36h.31l.31,0-.11.83a3,3,0,0,0-.49,0,2.54,2.54,0,0,0-.8.14,2.19,2.19,0,0,0-.76.49,2.44,2.44,0,0,0-.57.73,2.12,2.12,0,0,0-.23,1v4.65h-.87Z"/><path class="cls-1" d="M152.14,159.62a2.62,2.62,0,0,1-1,1.63,3.45,3.45,0,0,1-2.22.63,3.26,3.26,0,0,1-2.59-1.07,4.41,4.41,0,0,1-.92-2.95,5.79,5.79,0,0,1,.26-1.8,3.7,3.7,0,0,1,.74-1.31,2.93,2.93,0,0,1,1.11-.8,4,4,0,0,1,2.93,0,2.81,2.81,0,0,1,1,.79,3.34,3.34,0,0,1,.57,1.2,5.83,5.83,0,0,1,.18,1.48V158h-5.94a4.4,4.4,0,0,0,.17,1.23,3,3,0,0,0,.49,1,2.36,2.36,0,0,0,.83.67,2.45,2.45,0,0,0,1.14.25,4,4,0,0,0,1-.11,2,2,0,0,0,.67-.32,1.65,1.65,0,0,0,.43-.49,2.44,2.44,0,0,0,.25-.62Zm-.77-2.37a4.68,4.68,0,0,0-.13-1.16,2.63,2.63,0,0,0-.42-.91,1.92,1.92,0,0,0-.75-.59,2.68,2.68,0,0,0-1.11-.21,2.38,2.38,0,0,0-1.8.71,3.52,3.52,0,0,0-.81,2.16Z"/><path class="cls-1" d="M157.9,159.5a1.77,1.77,0,0,0,.76,1.27,3.23,3.23,0,0,0,1.71.38,2.37,2.37,0,0,0,1.59-.42,1.36,1.36,0,0,0,.47-1,2.1,2.1,0,0,0-.06-.51,1.09,1.09,0,0,0-.23-.42,1.36,1.36,0,0,0-.5-.33,3.86,3.86,0,0,0-.83-.23l-.95-.15a9,9,0,0,1-1.1-.25,2.85,2.85,0,0,1-.82-.4,1.52,1.52,0,0,1-.51-.62,2,2,0,0,1-.18-.9,1.94,1.94,0,0,1,.23-.93,2.11,2.11,0,0,1,.61-.69,3.06,3.06,0,0,1,.93-.42,4.14,4.14,0,0,1,1.14-.15,5,5,0,0,1,1.33.15,2.53,2.53,0,0,1,.87.43,2,2,0,0,1,.53.63,3.94,3.94,0,0,1,.29.77l-.8.16a3.85,3.85,0,0,0-.27-.61,1.5,1.5,0,0,0-.4-.43,1.65,1.65,0,0,0-.6-.26,3.79,3.79,0,0,0-.9-.09,3.66,3.66,0,0,0-1,.11,1.79,1.79,0,0,0-.65.31,1.15,1.15,0,0,0-.35.45,1.35,1.35,0,0,0-.11.52,1.88,1.88,0,0,0,.06.49.82.82,0,0,0,.24.38,1.52,1.52,0,0,0,.51.29,4.63,4.63,0,0,0,.84.21l1.19.19a3.67,3.67,0,0,1,1.81.73,2,2,0,0,1,.6,1.58,2.11,2.11,0,0,1-.18.86,1.86,1.86,0,0,1-.56.69,2.74,2.74,0,0,1-.92.47,4.51,4.51,0,0,1-1.28.17,5.75,5.75,0,0,1-1.29-.13,3.09,3.09,0,0,1-1-.42,2.28,2.28,0,0,1-.71-.74,2.54,2.54,0,0,1-.33-1.09Z"/><path class="cls-1" d="M170.06,160.55a4,4,0,0,1-.46.47,3.6,3.6,0,0,1-1.37.7,3.73,3.73,0,0,1-.91.1,3,3,0,0,1-1.95-.58,2.09,2.09,0,0,1-.74-1.74,2.27,2.27,0,0,1,.33-1.28,2.37,2.37,0,0,1,.88-.78,4.17,4.17,0,0,1,1.25-.4,13,13,0,0,1,1.44-.14l1.5-.06v-.24a2.52,2.52,0,0,0-.44-1.66,2,2,0,0,0-1.58-.53,4.22,4.22,0,0,0-.94.09,2.09,2.09,0,0,0-.64.26,1.42,1.42,0,0,0-.4.41,1.75,1.75,0,0,0-.23.52l-.79-.12q.42-1.89,3-1.89a4.13,4.13,0,0,1,1.36.19,2.27,2.27,0,0,1,.9.56,2.3,2.3,0,0,1,.48.9,4.6,4.6,0,0,1,.15,1.23v5.08h-.87Zm0-3-1.43.06a7.79,7.79,0,0,0-1.45.16,2.69,2.69,0,0,0-.95.36,1.35,1.35,0,0,0-.52.57,1.94,1.94,0,0,0-.15.8,1.6,1.6,0,0,0,.39,1.13,1.84,1.84,0,0,0,1.39.43,4.77,4.77,0,0,0,1-.11,2,2,0,0,0,.8-.37,3.55,3.55,0,0,0,.44-.37,1.53,1.53,0,0,0,.44-.89,3.83,3.83,0,0,0,.05-.63Z"/><path class="cls-1" d="M173.45,154.64h-1.2v-.72h1.2V153a2.5,2.5,0,0,1,.18-1,1.94,1.94,0,0,1,.48-.69,1.86,1.86,0,0,1,.68-.4,2.48,2.48,0,0,1,.82-.14,3.63,3.63,0,0,1,1.14.17l-.18.73a2.73,2.73,0,0,0-.44-.1,2.9,2.9,0,0,0-.43,0,1.59,1.59,0,0,0-1,.3,1.34,1.34,0,0,0-.4,1.12v.92h2.06v.72h-2.06v7h-.87Z"/><path class="cls-1" d="M184.1,159.62a2.62,2.62,0,0,1-1,1.63,3.45,3.45,0,0,1-2.22.63,3.22,3.22,0,0,1-2.58-1.07,4.37,4.37,0,0,1-.93-2.95,5.5,5.5,0,0,1,.27-1.8,3.69,3.69,0,0,1,.73-1.31,3.09,3.09,0,0,1,1.11-.8,4,4,0,0,1,2.93,0,2.81,2.81,0,0,1,1,.79,3.2,3.2,0,0,1,.58,1.2,5.83,5.83,0,0,1,.18,1.48V158H178.3a4.41,4.41,0,0,0,.16,1.23,3,3,0,0,0,.5,1,2.33,2.33,0,0,0,.82.67,2.45,2.45,0,0,0,1.14.25,4,4,0,0,0,1-.11,2,2,0,0,0,.68-.32,1.81,1.81,0,0,0,.43-.49,2.86,2.86,0,0,0,.24-.62Zm-.76-2.37a4.67,4.67,0,0,0-.14-1.16,2.63,2.63,0,0,0-.42-.91,1.92,1.92,0,0,0-.75-.59,2.68,2.68,0,0,0-1.11-.21,2.38,2.38,0,0,0-1.8.71,3.52,3.52,0,0,0-.81,2.16Z"/><path class="cls-1" d="M186.49,154.64h-1.2v-.72h1.2v-2.13h.87v2.13h2.19v.72h-2.19v5.05a1.86,1.86,0,0,0,.24,1,.91.91,0,0,0,.84.4,3.1,3.1,0,0,0,.66-.06,4,4,0,0,0,.48-.14l.18.71a3.73,3.73,0,0,1-.55.16,3.82,3.82,0,0,1-.85.08,2,2,0,0,1-1-.23,1.44,1.44,0,0,1-.56-.59,2.28,2.28,0,0,1-.24-.85c0-.32,0-.65,0-1Z"/><path class="cls-1" d="M190.84,163.61a2.4,2.4,0,0,0,.38.12,2,2,0,0,0,.43,0,1.44,1.44,0,0,0,.45-.06.77.77,0,0,0,.33-.22,1.55,1.55,0,0,0,.27-.4c.09-.17.19-.38.3-.64l.36-.92L190,153.92h1l2.8,6.6,2.51-6.6h1l-3.51,8.74a8.38,8.38,0,0,1-.37.79,2.67,2.67,0,0,1-.42.6,1.45,1.45,0,0,1-.54.37,1.9,1.9,0,0,1-.75.13,3.15,3.15,0,0,1-.58,0,2.8,2.8,0,0,1-.53-.14Z"/><path class="cls-1" d="M201.82,153.92h.87v1.26a3.53,3.53,0,0,1,1.06-1,2.46,2.46,0,0,1,1.28-.36h.3l.31,0-.1.83a3.13,3.13,0,0,0-.5,0,2.48,2.48,0,0,0-.79.14,2.23,2.23,0,0,0-.77.49,2.44,2.44,0,0,0-.57.73,2.12,2.12,0,0,0-.22,1v4.65h-.87Z"/><path class="cls-1" d="M213.32,159.62a2.62,2.62,0,0,1-1,1.63,3.45,3.45,0,0,1-2.22.63,3.26,3.26,0,0,1-2.59-1.07,4.41,4.41,0,0,1-.92-2.95,5.79,5.79,0,0,1,.26-1.8,3.7,3.7,0,0,1,.74-1.31,2.93,2.93,0,0,1,1.11-.8,4,4,0,0,1,2.93,0,2.73,2.73,0,0,1,1,.79,3.35,3.35,0,0,1,.58,1.2,5.83,5.83,0,0,1,.18,1.48V158h-5.94a4.41,4.41,0,0,0,.16,1.23,3,3,0,0,0,.5,1,2.33,2.33,0,0,0,.82.67,2.45,2.45,0,0,0,1.14.25,4,4,0,0,0,1-.11,2,2,0,0,0,.68-.32,1.62,1.62,0,0,0,.42-.49,2.44,2.44,0,0,0,.25-.62Zm-.76-2.37a4.67,4.67,0,0,0-.14-1.16,2.63,2.63,0,0,0-.42-.91,1.92,1.92,0,0,0-.75-.59,2.68,2.68,0,0,0-1.11-.21,2.38,2.38,0,0,0-1.8.71,3.52,3.52,0,0,0-.81,2.16Z"/><path class="cls-1" d="M215.71,154.64h-1.2v-.72h1.2V153a2.5,2.5,0,0,1,.18-1,1.92,1.92,0,0,1,.47-.69,1.86,1.86,0,0,1,.68-.4,2.54,2.54,0,0,1,.83-.14A3.75,3.75,0,0,1,219,151l-.18.73a2.84,2.84,0,0,0-.45-.1,2.77,2.77,0,0,0-.42,0,1.62,1.62,0,0,0-1,.3,1.37,1.37,0,0,0-.39,1.12v.92h2v.72h-2v7h-.87Zm4.18-3.71h1v1.31h-1Zm.06,3h.87v7.72H220Z"/><path class="cls-1" d="M223,150.93h.87v10.71H223Z"/><path class="cls-1" d="M226.07,150.93h.87v10.71h-.87Z"/><path class="cls-1" d="M238.18,160.49a3.92,3.92,0,0,1-1.14,1,3,3,0,0,1-1.55.37,3.14,3.14,0,0,1-1.48-.33,3,3,0,0,1-1-.88,3.83,3.83,0,0,1-.6-1.29,5.81,5.81,0,0,1-.2-1.52,4.68,4.68,0,0,1,.92-3.08,3.14,3.14,0,0,1,2.55-1.1A3.39,3.39,0,0,1,237,154a3,3,0,0,1,1.23,1v-4h.87v10.71h-.87Zm0-3a6,6,0,0,0-.06-.91,3,3,0,0,0-.18-.67,1.82,1.82,0,0,0-.32-.52,3.94,3.94,0,0,0-.47-.43,2.55,2.55,0,0,0-.72-.39,2.45,2.45,0,0,0-.8-.12,2.8,2.8,0,0,0-1,.18,2,2,0,0,0-.8.6,2.88,2.88,0,0,0-.53,1,5.45,5.45,0,0,0-.2,1.57,4.77,4.77,0,0,0,.22,1.58,2.74,2.74,0,0,0,.56,1,1.87,1.87,0,0,0,.77.54,2.43,2.43,0,0,0,.87.16,3,3,0,0,0,.83-.1,2.5,2.5,0,0,0,.76-.39,2.61,2.61,0,0,0,.81-1,3.49,3.49,0,0,0,.28-1.5Z"/><path class="cls-1" d="M247.6,159.62a2.62,2.62,0,0,1-1,1.63,3.45,3.45,0,0,1-2.22.63,3.24,3.24,0,0,1-2.59-1.07,4.36,4.36,0,0,1-.92-2.95,5.51,5.51,0,0,1,.26-1.8,3.69,3.69,0,0,1,.73-1.31A3.09,3.09,0,0,1,243,154a3.62,3.62,0,0,1,1.41-.27A3.54,3.54,0,0,1,246,154a2.7,2.7,0,0,1,1,.79,3.2,3.2,0,0,1,.58,1.2,5.83,5.83,0,0,1,.18,1.48V158h-5.94a4.4,4.4,0,0,0,.17,1.23,3,3,0,0,0,.49,1,2.36,2.36,0,0,0,.83.67,2.45,2.45,0,0,0,1.14.25,4,4,0,0,0,1-.11,2,2,0,0,0,.67-.32,1.81,1.81,0,0,0,.43-.49,2.87,2.87,0,0,0,.25-.62Zm-.77-2.37a4.68,4.68,0,0,0-.13-1.16,2.63,2.63,0,0,0-.42-.91,1.92,1.92,0,0,0-.75-.59,2.68,2.68,0,0,0-1.11-.21,2.38,2.38,0,0,0-1.8.71,3.52,3.52,0,0,0-.81,2.16Z"/><path class="cls-1" d="M248.59,153.92h1l2.63,6.78,2.68-6.78h.95l-3.12,7.72h-1Z"/><path class="cls-1" d="M257,150.93h1v1.31h-1Zm.06,3h.87v7.72H257Z"/><path class="cls-1" d="M266.59,159.12a3.39,3.39,0,0,1-1,2,3.14,3.14,0,0,1-2.2.73,3.75,3.75,0,0,1-1.5-.28,2.8,2.8,0,0,1-1.11-.81,3.66,3.66,0,0,1-.69-1.28,5.52,5.52,0,0,1-.24-1.69,5.39,5.39,0,0,1,.25-1.71,3.85,3.85,0,0,1,.72-1.31,3.1,3.1,0,0,1,1.13-.83,3.67,3.67,0,0,1,1.51-.29,3,3,0,0,1,2,.65,3.13,3.13,0,0,1,1,1.84l-.84.21a3.75,3.75,0,0,0-.25-.78,2.12,2.12,0,0,0-.42-.62,1.88,1.88,0,0,0-.64-.4,2.52,2.52,0,0,0-.91-.15,2.6,2.6,0,0,0-1.2.25,2.41,2.41,0,0,0-.82.7,2.87,2.87,0,0,0-.48,1.06,5.58,5.58,0,0,0-.15,1.33,5.67,5.67,0,0,0,.15,1.34,3.1,3.1,0,0,0,.46,1.06,2.17,2.17,0,0,0,.82.71,2.64,2.64,0,0,0,1.21.25,2.15,2.15,0,0,0,1.64-.55,2.9,2.9,0,0,0,.7-1.46Z"/><path class="cls-1" d="M274.81,159.62a2.62,2.62,0,0,1-1,1.63,3.45,3.45,0,0,1-2.22.63,3.24,3.24,0,0,1-2.59-1.07,4.36,4.36,0,0,1-.92-2.95,5.51,5.51,0,0,1,.26-1.8,3.69,3.69,0,0,1,.73-1.31,3.09,3.09,0,0,1,1.11-.8,3.62,3.62,0,0,1,1.41-.27,3.54,3.54,0,0,1,1.53.29,2.7,2.7,0,0,1,1,.79,3.2,3.2,0,0,1,.58,1.2,5.83,5.83,0,0,1,.18,1.48V158H269a4.4,4.4,0,0,0,.17,1.23,2.8,2.8,0,0,0,.49,1,2.36,2.36,0,0,0,.83.67,2.45,2.45,0,0,0,1.14.25,4,4,0,0,0,1-.11,2,2,0,0,0,.67-.32,1.81,1.81,0,0,0,.43-.49,2.87,2.87,0,0,0,.25-.62Zm-.77-2.37a4.68,4.68,0,0,0-.13-1.16,2.63,2.63,0,0,0-.42-.91,1.92,1.92,0,0,0-.75-.59,2.68,2.68,0,0,0-1.11-.21,2.38,2.38,0,0,0-1.8.71,3.52,3.52,0,0,0-.81,2.16Z"/><path class="cls-1" d="M363.27,102.45h1l2.52,9.57,2.66-9.52h1L373,112l2.55-9.56h1l-3,10.71h-1.06l-2.58-9.52-2.58,9.52h-1Z"/><path class="cls-1" d="M377.79,102.45h.87v4.25a4.07,4.07,0,0,1,1.35-1.15,3.43,3.43,0,0,1,1.52-.35,2.43,2.43,0,0,1,2,.73,3.12,3.12,0,0,1,.63,2.09v5.14h-.87v-4.9a2.79,2.79,0,0,0-.44-1.75,1.69,1.69,0,0,0-1.38-.53,3.08,3.08,0,0,0-.95.17,2.67,2.67,0,0,0-.91.55,3,3,0,0,0-.67.8,2.38,2.38,0,0,0-.23,1.13v4.53h-.87Z"/><path class="cls-1" d="M392.61,111.14a2.62,2.62,0,0,1-1,1.63,3.45,3.45,0,0,1-2.22.63,3.19,3.19,0,0,1-2.58-1.07,4.35,4.35,0,0,1-.93-3,5.5,5.5,0,0,1,.27-1.8,3.78,3.78,0,0,1,.73-1.31,3.21,3.21,0,0,1,1.11-.8,3.57,3.57,0,0,1,1.4-.27,3.7,3.7,0,0,1,1.53.29,2.75,2.75,0,0,1,1,.8,3.08,3.08,0,0,1,.58,1.19,5.83,5.83,0,0,1,.18,1.48v.56h-5.94a4.53,4.53,0,0,0,.16,1.24,2.94,2.94,0,0,0,.5,1,2.36,2.36,0,0,0,.82.68,2.58,2.58,0,0,0,1.14.24,3.56,3.56,0,0,0,1-.11,1.87,1.87,0,0,0,.68-.32,1.67,1.67,0,0,0,.43-.49,2.67,2.67,0,0,0,.24-.62Zm-.76-2.37a4.67,4.67,0,0,0-.14-1.16,2.5,2.5,0,0,0-.42-.9,1.85,1.85,0,0,0-.75-.6,2.68,2.68,0,0,0-1.11-.21,2.38,2.38,0,0,0-1.8.71,3.52,3.52,0,0,0-.81,2.16Z"/><path class="cls-1" d="M401,111.14a2.62,2.62,0,0,1-1,1.63,3.45,3.45,0,0,1-2.22.63,3.19,3.19,0,0,1-2.58-1.07,4.35,4.35,0,0,1-.93-3,5.5,5.5,0,0,1,.27-1.8,3.78,3.78,0,0,1,.73-1.31,3.21,3.21,0,0,1,1.11-.8,3.57,3.57,0,0,1,1.4-.27,3.7,3.7,0,0,1,1.53.29,2.75,2.75,0,0,1,1,.8,3.08,3.08,0,0,1,.58,1.19,5.83,5.83,0,0,1,.18,1.48v.56h-5.94a4.53,4.53,0,0,0,.16,1.24,2.94,2.94,0,0,0,.5,1,2.36,2.36,0,0,0,.82.68,2.58,2.58,0,0,0,1.14.24,3.56,3.56,0,0,0,1-.11,1.87,1.87,0,0,0,.68-.32,1.67,1.67,0,0,0,.43-.49,2.67,2.67,0,0,0,.24-.62Zm-.76-2.37a4.67,4.67,0,0,0-.14-1.16,2.5,2.5,0,0,0-.42-.9,1.85,1.85,0,0,0-.75-.6,2.68,2.68,0,0,0-1.11-.21,2.38,2.38,0,0,0-1.8.71,3.52,3.52,0,0,0-.81,2.16Z"/><path class="cls-1" d="M403,102.45h.87v10.71H403Z"/><path class="cls-1" d="M409.83,111a1.78,1.78,0,0,0,.77,1.27,3.23,3.23,0,0,0,1.71.38,2.37,2.37,0,0,0,1.59-.42,1.35,1.35,0,0,0,.46-1,2,2,0,0,0-.06-.5,1,1,0,0,0-.23-.43,1.32,1.32,0,0,0-.49-.33,4.15,4.15,0,0,0-.84-.23l-.94-.15a8.61,8.61,0,0,1-1.1-.25,2.67,2.67,0,0,1-.83-.4,1.67,1.67,0,0,1-.51-.61,2.24,2.24,0,0,1-.17-.91,1.87,1.87,0,0,1,.22-.92,2,2,0,0,1,.62-.69,2.89,2.89,0,0,1,.92-.43,4.26,4.26,0,0,1,1.15-.15,4.61,4.61,0,0,1,1.33.16,2.52,2.52,0,0,1,.87.42,2,2,0,0,1,.52.63,3.39,3.39,0,0,1,.29.77l-.79.16a2.78,2.78,0,0,0-.28-.6,1.41,1.41,0,0,0-.4-.44,1.84,1.84,0,0,0-.6-.26,3.79,3.79,0,0,0-.9-.09,4,4,0,0,0-1,.11,1.87,1.87,0,0,0-.65.31,1.09,1.09,0,0,0-.36.45,1.34,1.34,0,0,0-.1.52,1.83,1.83,0,0,0,.06.49.77.77,0,0,0,.24.38,1.57,1.57,0,0,0,.5.29,5,5,0,0,0,.85.21l1.18.19a3.8,3.8,0,0,1,1.82.73,2.26,2.26,0,0,1,.41,2.44,2,2,0,0,1-.55.7,2.89,2.89,0,0,1-.93.46,4.11,4.11,0,0,1-1.27.17,5.91,5.91,0,0,1-1.3-.13,3.18,3.18,0,0,1-1-.42,2.25,2.25,0,0,1-.7-.74A2.54,2.54,0,0,1,409,111Z"/><path class="cls-1" d="M417.51,106.16h-1.2v-.72h1.2v-2.13h.87v2.13h2.19v.72h-2.19v5a1.84,1.84,0,0,0,.24,1,.89.89,0,0,0,.84.4,3.1,3.1,0,0,0,.66-.06,4,4,0,0,0,.48-.14l.18.71a4,4,0,0,1-.54.16,3.89,3.89,0,0,1-.85.08,2,2,0,0,1-1-.23,1.44,1.44,0,0,1-.56-.59,2.41,2.41,0,0,1-.23-.85c0-.32-.05-.65-.05-1Z"/><path class="cls-1" d="M427,112.07a3.48,3.48,0,0,1-.47.47,3,3,0,0,1-.61.41,3.43,3.43,0,0,1-.76.29,3.68,3.68,0,0,1-.91.1,3,3,0,0,1-1.95-.58,2.09,2.09,0,0,1-.73-1.74,2.14,2.14,0,0,1,1.21-2.06,3.92,3.92,0,0,1,1.24-.39,11.29,11.29,0,0,1,1.45-.15l1.5-.06v-.24a2.58,2.58,0,0,0-.44-1.66,2,2,0,0,0-1.59-.53,4.06,4.06,0,0,0-.93.09,1.79,1.79,0,0,0-.64.27,1.42,1.42,0,0,0-.41.4,1.85,1.85,0,0,0-.22.52l-.8-.12q.42-1.89,3-1.89a4.19,4.19,0,0,1,1.37.19,2.09,2.09,0,0,1,1.38,1.47,4.48,4.48,0,0,1,.15,1.22v5.08H427Zm0-3-1.42.06a8.89,8.89,0,0,0-1.46.16,3.08,3.08,0,0,0-.94.36,1.4,1.4,0,0,0-.52.57,2,2,0,0,0-.16.8,1.65,1.65,0,0,0,.4,1.14,1.88,1.88,0,0,0,1.39.42,4,4,0,0,0,1-.11,1.91,1.91,0,0,0,.8-.37,2.93,2.93,0,0,0,.44-.37,1.41,1.41,0,0,0,.29-.4,1.49,1.49,0,0,0,.16-.49,3.92,3.92,0,0,0,0-.63Z"/><path class="cls-1" d="M429.9,105.44h.87v1.26a4.07,4.07,0,0,1,1.35-1.15,3.43,3.43,0,0,1,1.52-.35,2.43,2.43,0,0,1,1.95.73,3.12,3.12,0,0,1,.63,2.09v5.14h-.87v-4.9a2.79,2.79,0,0,0-.44-1.75,1.69,1.69,0,0,0-1.38-.53,3.08,3.08,0,0,0-.95.17,2.67,2.67,0,0,0-.91.55,3,3,0,0,0-.67.8,2.38,2.38,0,0,0-.23,1.13v4.53h-.87Z"/><path class="cls-1" d="M444,112a4,4,0,0,1-1.13,1,3.46,3.46,0,0,1-3,0,2.93,2.93,0,0,1-1-.88,3.87,3.87,0,0,1-.6-1.28,5.94,5.94,0,0,1-.2-1.53,4.7,4.7,0,0,1,.92-3.08,3.17,3.17,0,0,1,2.55-1.1,3.39,3.39,0,0,1,1.29.27,3,3,0,0,1,1.23,1v-4h.87v10.71H444Zm0-3a5.8,5.8,0,0,0-.06-.9,3.06,3.06,0,0,0-.18-.68,1.74,1.74,0,0,0-.32-.52,3.94,3.94,0,0,0-.47-.43,2.55,2.55,0,0,0-.72-.39,2.45,2.45,0,0,0-.8-.12,2.61,2.61,0,0,0-1,.19,2,2,0,0,0-.8.59,3,3,0,0,0-.53,1,5.45,5.45,0,0,0-.2,1.57,4.88,4.88,0,0,0,.22,1.59,3.08,3.08,0,0,0,.56,1,2,2,0,0,0,.78.54,2.55,2.55,0,0,0,.86.15,3,3,0,0,0,.83-.1,2.5,2.5,0,0,0,.76-.39,2.61,2.61,0,0,0,.81-1,3.49,3.49,0,0,0,.28-1.5Z"/><path class="cls-1" d="M560.35,400.75h-3.72v-.84H565v.84h-3.7v9.87h-.92Z"/><path class="cls-1" d="M566,412.58a2.52,2.52,0,0,0,.39.12,1.86,1.86,0,0,0,.42.05,1.44,1.44,0,0,0,.45-.06.71.71,0,0,0,.33-.22,1.64,1.64,0,0,0,.28-.41c.09-.16.18-.38.29-.64l.36-.91-3.31-7.62h1l2.8,6.61,2.5-6.61h1L569,411.64a8.38,8.38,0,0,1-.37.79,2.67,2.67,0,0,1-.42.6,1.41,1.41,0,0,1-.55.37,1.87,1.87,0,0,1-.75.13,3,3,0,0,1-.57,0,2.46,2.46,0,0,1-.53-.14Z"/><path class="cls-1" d="M573.47,402.89h.88v1.26a3.42,3.42,0,0,1,1.06-1,2.43,2.43,0,0,1,1.28-.36h.3l.31,0-.11.82a2.85,2.85,0,0,0-.49,0,2.59,2.59,0,0,0-.8.14,2.19,2.19,0,0,0-.76.49,2.44,2.44,0,0,0-.57.73,2.12,2.12,0,0,0-.22,1v4.65h-.88Z"/><path class="cls-1" d="M584.85,408.59a2.7,2.7,0,0,1-1,1.64,3.45,3.45,0,0,1-2.22.63,3.22,3.22,0,0,1-2.58-1.07,4.37,4.37,0,0,1-.93-3,5.5,5.5,0,0,1,.27-1.8,3.69,3.69,0,0,1,.73-1.31,3.12,3.12,0,0,1,1.11-.81,3.57,3.57,0,0,1,1.4-.27,3.51,3.51,0,0,1,1.53.3,2.73,2.73,0,0,1,1,.79,3.15,3.15,0,0,1,.58,1.19,5.91,5.91,0,0,1,.18,1.49V407H579a4.89,4.89,0,0,0,.16,1.24,3,3,0,0,0,.5,1,2.33,2.33,0,0,0,.82.67,2.48,2.48,0,0,0,1.14.25,4,4,0,0,0,1-.11,2,2,0,0,0,.68-.33,1.77,1.77,0,0,0,.43-.48,3.6,3.6,0,0,0,.25-.63Zm-.77-2.37a4.59,4.59,0,0,0-.14-1.15,2.46,2.46,0,0,0-.42-.91,1.92,1.92,0,0,0-.75-.59,2.65,2.65,0,0,0-1.11-.21,2.37,2.37,0,0,0-1.8.7,3.52,3.52,0,0,0-.81,2.16Z"/><path class="cls-1" d="M589.87,402.89h.87v1.26a3.53,3.53,0,0,1,1.06-1,2.46,2.46,0,0,1,1.28-.36h.31l.3,0-.1.82a3,3,0,0,0-.5,0,2.48,2.48,0,0,0-.79.14,2.23,2.23,0,0,0-.77.49,2.44,2.44,0,0,0-.57.73,2.12,2.12,0,0,0-.22,1v4.65h-.87Z"/><path class="cls-1" d="M601.24,408.59a2.64,2.64,0,0,1-1,1.64,3.45,3.45,0,0,1-2.22.63,3.26,3.26,0,0,1-2.59-1.07,4.41,4.41,0,0,1-.92-3,5.79,5.79,0,0,1,.26-1.8,3.7,3.7,0,0,1,.74-1.31,3,3,0,0,1,1.11-.81,3.91,3.91,0,0,1,2.93,0,2.81,2.81,0,0,1,1,.79,3.29,3.29,0,0,1,.57,1.19,5.91,5.91,0,0,1,.18,1.49V407h-5.94a4.48,4.48,0,0,0,.17,1.24,3,3,0,0,0,.49,1,2.36,2.36,0,0,0,.83.67,2.45,2.45,0,0,0,1.14.25,4,4,0,0,0,1-.11,2,2,0,0,0,.67-.33,1.62,1.62,0,0,0,.43-.48,2.51,2.51,0,0,0,.25-.63Zm-.77-2.37a4.6,4.6,0,0,0-.13-1.15,2.63,2.63,0,0,0-.42-.91,1.92,1.92,0,0,0-.75-.59,2.68,2.68,0,0,0-1.11-.21,2.37,2.37,0,0,0-1.8.7,3.52,3.52,0,0,0-.81,2.16Z"/><path class="cls-1" d="M603.05,402.89h.87v1.28a4.08,4.08,0,0,1,1.23-1.14,2.6,2.6,0,0,1,1.32-.38,2.35,2.35,0,0,1,1.42.4,2.32,2.32,0,0,1,.79,1.12,4,4,0,0,1,1.23-1.12,3.07,3.07,0,0,1,1.51-.4,2.42,2.42,0,0,1,1.74.6,2.55,2.55,0,0,1,.63,1.92v5.45h-.87v-5.13a4.52,4.52,0,0,0-.09-1,1.68,1.68,0,0,0-.3-.63,1.18,1.18,0,0,0-.51-.34,2.41,2.41,0,0,0-.7-.1,3.16,3.16,0,0,0-.79.13,2.28,2.28,0,0,0-.84.47,2.34,2.34,0,0,0-.6.69,1.94,1.94,0,0,0-.23.95v4.95H608V405.5a2.5,2.5,0,0,0-.39-1.59,1.45,1.45,0,0,0-1.19-.48,2,2,0,0,0-.84.19,3.42,3.42,0,0,0-.79.53l-.29.29a1.62,1.62,0,0,0-.28.39,2.26,2.26,0,0,0-.2.52,2.4,2.4,0,0,0-.09.69v4.58h-.87Z"/><path class="cls-1" d="M619.07,410.86a3.85,3.85,0,0,1-1.52-.29,3,3,0,0,1-1.12-.81,3.83,3.83,0,0,1-.71-1.29,5.49,5.49,0,0,1-.25-1.68,5.11,5.11,0,0,1,.27-1.71,3.82,3.82,0,0,1,.73-1.3,3.17,3.17,0,0,1,1.15-.83,3.67,3.67,0,0,1,1.51-.3,3.89,3.89,0,0,1,1.52.29,3,3,0,0,1,1.14.82,3.54,3.54,0,0,1,.71,1.28,5.12,5.12,0,0,1,.25,1.66,5.38,5.38,0,0,1-.26,1.71,4,4,0,0,1-.72,1.32,3.27,3.27,0,0,1-1.16.84A4,4,0,0,1,619.07,410.86Zm0-.75a2.78,2.78,0,0,0,1.25-.26,2.44,2.44,0,0,0,.84-.72,2.94,2.94,0,0,0,.48-1.06,5.67,5.67,0,0,0,.15-1.34,5.31,5.31,0,0,0-.15-1.29,2.94,2.94,0,0,0-.48-1.06,2.31,2.31,0,0,0-.84-.71,2.65,2.65,0,0,0-1.25-.27,2.6,2.6,0,0,0-1.23.27,2.16,2.16,0,0,0-.84.71,2.94,2.94,0,0,0-.48,1.06,5.41,5.41,0,0,0-.15,1.31,5.56,5.56,0,0,0,.15,1.32,2.94,2.94,0,0,0,.48,1.06,2.27,2.27,0,0,0,.84.72A2.72,2.72,0,0,0,619.1,410.11Z"/><path class="cls-1" d="M623.51,402.89h1l2.62,6.78,2.69-6.78h.94l-3.12,7.73h-1Z"/><path class="cls-1" d="M638.23,408.59a2.64,2.64,0,0,1-1,1.64,3.45,3.45,0,0,1-2.22.63,3.26,3.26,0,0,1-2.59-1.07,4.41,4.41,0,0,1-.92-3,5.79,5.79,0,0,1,.26-1.8,3.7,3.7,0,0,1,.74-1.31,3,3,0,0,1,1.11-.81,3.91,3.91,0,0,1,2.93,0,2.81,2.81,0,0,1,1,.79,3.29,3.29,0,0,1,.57,1.19,5.91,5.91,0,0,1,.18,1.49V407h-5.94a4.48,4.48,0,0,0,.17,1.24,3,3,0,0,0,.49,1,2.36,2.36,0,0,0,.83.67,2.45,2.45,0,0,0,1.14.25,4,4,0,0,0,1-.11,2,2,0,0,0,.67-.33,1.62,1.62,0,0,0,.43-.48,2.51,2.51,0,0,0,.25-.63Zm-.77-2.37a4.6,4.6,0,0,0-.13-1.15,2.63,2.63,0,0,0-.42-.91,1.92,1.92,0,0,0-.75-.59,2.68,2.68,0,0,0-1.11-.21,2.37,2.37,0,0,0-1.8.7,3.52,3.52,0,0,0-.81,2.16Z"/><path class="cls-1" d="M640,402.89h.87v1.26a3.56,3.56,0,0,1,1.07-1,2.42,2.42,0,0,1,1.27-.36h.31l.31,0-.11.82a2.93,2.93,0,0,0-.49,0,2.54,2.54,0,0,0-.8.14,2.19,2.19,0,0,0-.76.49,2.44,2.44,0,0,0-.57.73,2.12,2.12,0,0,0-.23,1v4.65H640Z"/><line class="cls-2" x1="404.94" y1="125.88" x2="404.94" y2="268.16"/><path class="cls-3" d="M404,268.16a.94.94,0,1,0,.94-.94A.94.94,0,0,0,404,268.16Z"/><line class="cls-2" x1="198.52" y1="178.63" x2="198.52" y2="332.16"/><path class="cls-3" d="M197.58,332.16a.94.94,0,1,0,.94-.94A.94.94,0,0,0,197.58,332.16Z"/><line class="cls-2" x1="600.21" y1="393.04" x2="600.21" y2="284.75"/><path class="cls-3" d="M601.15,284.75a.94.94,0,1,0-.94.94A.94.94,0,0,0,601.15,284.75Z"/><path class="cls-1" d="M212.19,437.75h-3.72v-.84h8.34v.84h-3.7v9.87h-.92Z"/><path class="cls-1" d="M221.34,447.86a3.82,3.82,0,0,1-1.52-.29,3.08,3.08,0,0,1-1.13-.81,3.82,3.82,0,0,1-.7-1.29,5.2,5.2,0,0,1-.25-1.68,5.38,5.38,0,0,1,.26-1.71,3.84,3.84,0,0,1,.74-1.3,3.09,3.09,0,0,1,1.15-.83,3.67,3.67,0,0,1,1.51-.3,3.89,3.89,0,0,1,1.52.29,3,3,0,0,1,1.14.82,3.69,3.69,0,0,1,.71,1.28,5.7,5.7,0,0,1,0,3.37,3.85,3.85,0,0,1-.73,1.32,3.23,3.23,0,0,1-1.15.84A4,4,0,0,1,221.34,447.86Zm0-.75a2.78,2.78,0,0,0,1.25-.26,2.44,2.44,0,0,0,.84-.72,2.94,2.94,0,0,0,.48-1.06,5.67,5.67,0,0,0,.15-1.34,5.31,5.31,0,0,0-.15-1.29,2.94,2.94,0,0,0-.48-1.06,2.31,2.31,0,0,0-.84-.71,3,3,0,0,0-2.49,0,2.31,2.31,0,0,0-.84.71,3.11,3.11,0,0,0-.47,1.06,5.41,5.41,0,0,0-.15,1.31,5.56,5.56,0,0,0,.15,1.32,3.11,3.11,0,0,0,.47,1.06,2.44,2.44,0,0,0,.84.72A2.8,2.8,0,0,0,221.37,447.11Z"/><path class="cls-1" d="M230.1,447.86a3.82,3.82,0,0,1-1.52-.29,3.08,3.08,0,0,1-1.13-.81,3.82,3.82,0,0,1-.7-1.29,5.2,5.2,0,0,1-.25-1.68,5.38,5.38,0,0,1,.26-1.71,3.84,3.84,0,0,1,.74-1.3,3.09,3.09,0,0,1,1.15-.83,3.67,3.67,0,0,1,1.51-.3,3.89,3.89,0,0,1,1.52.29,3,3,0,0,1,1.14.82,3.69,3.69,0,0,1,.71,1.28,5.7,5.7,0,0,1,0,3.37,3.85,3.85,0,0,1-.73,1.32,3.23,3.23,0,0,1-1.15.84A4,4,0,0,1,230.1,447.86Zm0-.75a2.78,2.78,0,0,0,1.25-.26,2.44,2.44,0,0,0,.84-.72,2.94,2.94,0,0,0,.48-1.06,5.67,5.67,0,0,0,.15-1.34,5.31,5.31,0,0,0-.15-1.29,2.94,2.94,0,0,0-.48-1.06,2.31,2.31,0,0,0-.84-.71,3,3,0,0,0-2.49,0,2.31,2.31,0,0,0-.84.71,3.11,3.11,0,0,0-.47,1.06,5.41,5.41,0,0,0-.15,1.31,5.56,5.56,0,0,0,.15,1.32,3.11,3.11,0,0,0,.47,1.06,2.44,2.44,0,0,0,.84.72A2.8,2.8,0,0,0,230.13,447.11Z"/><path class="cls-1" d="M235.55,436.91h.87v10.71h-.87Z"/><path class="cls-1" d="M242.1,445.47a1.81,1.81,0,0,0,.77,1.28,3.24,3.24,0,0,0,1.71.37,2.37,2.37,0,0,0,1.59-.42,1.35,1.35,0,0,0,.46-1.05,2,2,0,0,0-.06-.5,1.13,1.13,0,0,0-.23-.43,1.36,1.36,0,0,0-.5-.33,3.91,3.91,0,0,0-.83-.22l-.94-.15a9.12,9.12,0,0,1-1.11-.26,2.84,2.84,0,0,1-.82-.39,1.52,1.52,0,0,1-.51-.62,2.05,2.05,0,0,1-.17-.91,1.9,1.9,0,0,1,.22-.92,2.15,2.15,0,0,1,.62-.69,3,3,0,0,1,.92-.43,4.21,4.21,0,0,1,1.15-.15,4.85,4.85,0,0,1,1.32.16,2.53,2.53,0,0,1,.87.43,2,2,0,0,1,.53.63,3.85,3.85,0,0,1,.29.76l-.79.17a3.85,3.85,0,0,0-.28-.61,1.5,1.5,0,0,0-.4-.43,1.66,1.66,0,0,0-.6-.27,3.79,3.79,0,0,0-.9-.09,3.55,3.55,0,0,0-1,.12,1.83,1.83,0,0,0-.66.3,1.15,1.15,0,0,0-.35.45,1.39,1.39,0,0,0-.1.53,1.88,1.88,0,0,0,.06.49.82.82,0,0,0,.24.38,1.46,1.46,0,0,0,.5.28,4.77,4.77,0,0,0,.85.21l1.18.2a3.71,3.71,0,0,1,1.82.73,2,2,0,0,1,.6,1.58,2.07,2.07,0,0,1-.19.85,1.89,1.89,0,0,1-.56.7,2.74,2.74,0,0,1-.92.47,4.44,4.44,0,0,1-1.27.17,5.82,5.82,0,0,1-1.3-.14,3.09,3.09,0,0,1-1-.42,2.22,2.22,0,0,1-.7-.73,2.59,2.59,0,0,1-.33-1.1Z"/><path class="cls-1" d="M249.65,440.61h-1.2v-.72h1.2v-2.13h.87v2.13h2.19v.72h-2.19v5.06a1.86,1.86,0,0,0,.24,1,.91.91,0,0,0,.84.39,3.1,3.1,0,0,0,.66-.06,4.09,4.09,0,0,0,.48-.13l.18.7a4,4,0,0,1-.55.17,4,4,0,0,1-.85.07,2,2,0,0,1-1-.22,1.53,1.53,0,0,1-.57-.59,2.47,2.47,0,0,1-.23-.85c0-.32,0-.66,0-1Z"/><path class="cls-1" d="M257.39,447.86a3.9,3.9,0,0,1-1.53-.29,3,3,0,0,1-1.12-.81,3.83,3.83,0,0,1-.71-1.29,5.5,5.5,0,0,1-.24-1.68,5.12,5.12,0,0,1,.26-1.71,3.82,3.82,0,0,1,.73-1.3,3.17,3.17,0,0,1,1.15-.83,3.72,3.72,0,0,1,1.52-.3,3.84,3.84,0,0,1,1.51.29,3,3,0,0,1,1.14.82,3.54,3.54,0,0,1,.71,1.28,5.12,5.12,0,0,1,.25,1.66,5.39,5.39,0,0,1-.25,1.71,4,4,0,0,1-.73,1.32,3.27,3.27,0,0,1-1.16.84A3.9,3.9,0,0,1,257.39,447.86Zm0-.75a2.74,2.74,0,0,0,1.24-.26,2.44,2.44,0,0,0,.84-.72,2.94,2.94,0,0,0,.48-1.06,5.67,5.67,0,0,0,.15-1.34,5.31,5.31,0,0,0-.15-1.29,2.94,2.94,0,0,0-.48-1.06,2.31,2.31,0,0,0-.84-.71,2.61,2.61,0,0,0-1.24-.27,2.64,2.64,0,0,0-1.24.27,2.16,2.16,0,0,0-.84.71,2.93,2.93,0,0,0-.47,1.06,5.41,5.41,0,0,0-.15,1.31,5.56,5.56,0,0,0,.15,1.32,2.93,2.93,0,0,0,.47,1.06,2.27,2.27,0,0,0,.84.72A2.77,2.77,0,0,0,257.42,447.11Z"/><path class="cls-1" d="M262.79,439.89h.87v1.26a3.53,3.53,0,0,1,1.06-1,2.46,2.46,0,0,1,1.28-.36h.3l.31,0-.1.82a3,3,0,0,0-.5,0,2.48,2.48,0,0,0-.79.14,2.23,2.23,0,0,0-.77.49,2.44,2.44,0,0,0-.57.73,2.12,2.12,0,0,0-.22,1v4.65h-.87Z"/><path class="cls-1" d="M272.63,446.52a4.21,4.21,0,0,1-.47.48,3.24,3.24,0,0,1-1.37.69,3.72,3.72,0,0,1-.91.11,3,3,0,0,1-1.95-.59,2.09,2.09,0,0,1-.74-1.74,2.32,2.32,0,0,1,.33-1.27,2.45,2.45,0,0,1,.88-.78,4.27,4.27,0,0,1,1.25-.4,13.2,13.2,0,0,1,1.45-.14l1.5-.06v-.24a2.55,2.55,0,0,0-.45-1.67,2,2,0,0,0-1.58-.52,4.22,4.22,0,0,0-.94.09,2,2,0,0,0-.63.26,1.45,1.45,0,0,0-.41.41,2,2,0,0,0-.23.51l-.79-.12q.42-1.89,3-1.89a4.17,4.17,0,0,1,1.37.2,2.23,2.23,0,0,1,.89.56,2.31,2.31,0,0,1,.49.9,5,5,0,0,1,.15,1.22v5.09h-.87Zm0-3-1.42.06a7.91,7.91,0,0,0-1.46.16,2.69,2.69,0,0,0-1,.36,1.33,1.33,0,0,0-.51.57,1.78,1.78,0,0,0-.16.8,1.56,1.56,0,0,0,.4,1.13,1.82,1.82,0,0,0,1.39.43,4.67,4.67,0,0,0,1-.11,2,2,0,0,0,.8-.37,2.94,2.94,0,0,0,.44-.38,1.8,1.8,0,0,0,.29-.39,2.35,2.35,0,0,0,.16-.49,3.92,3.92,0,0,0,0-.63Z"/><path class="cls-1" d="M276.29,448.46a1.71,1.71,0,0,0,.72,1.13,3,3,0,0,0,1.69.37,2.53,2.53,0,0,0,1.88-.62,3,3,0,0,0,.6-2.1v-1.15a3.41,3.41,0,0,1-1.14,1,3,3,0,0,1-1.55.37,3.26,3.26,0,0,1-1.48-.32,3,3,0,0,1-1-.87,3.71,3.71,0,0,1-.6-1.23,5.39,5.39,0,0,1-.19-1.45,5.28,5.28,0,0,1,.24-1.64,3.61,3.61,0,0,1,.69-1.25,3.12,3.12,0,0,1,1.09-.8,3.59,3.59,0,0,1,1.46-.29,3.42,3.42,0,0,1,1.3.28,3.07,3.07,0,0,1,1.22,1v-1.05h.87v7.44a3.54,3.54,0,0,1-.81,2.46,3.21,3.21,0,0,1-2.52.9,5.9,5.9,0,0,1-1.23-.12,3.09,3.09,0,0,1-1-.38,2.07,2.07,0,0,1-.69-.69,2.46,2.46,0,0,1-.35-1Zm4.92-5a6,6,0,0,0-.06-.91,2.19,2.19,0,0,0-.18-.67,1.82,1.82,0,0,0-.32-.52,3.24,3.24,0,0,0-.46-.44,3,3,0,0,0-.72-.39,2.45,2.45,0,0,0-.8-.12,2.8,2.8,0,0,0-1,.18,2.07,2.07,0,0,0-.81.57,2.81,2.81,0,0,0-.54,1,4.83,4.83,0,0,0-.19,1.46,4.48,4.48,0,0,0,.21,1.47,3,3,0,0,0,.57,1,2,2,0,0,0,.78.53,2.44,2.44,0,0,0,.88.16,2.93,2.93,0,0,0,.84-.1,2.9,2.9,0,0,0,.74-.38,2.58,2.58,0,0,0,.8-1,3.8,3.8,0,0,0,.28-1.53Z"/><path class="cls-1" d="M290.46,445.59a2.64,2.64,0,0,1-1,1.64,3.45,3.45,0,0,1-2.22.63,3.26,3.26,0,0,1-2.59-1.07,4.41,4.41,0,0,1-.92-3A5.79,5.79,0,0,1,284,442a3.7,3.7,0,0,1,.74-1.31,3,3,0,0,1,1.11-.81,3.91,3.91,0,0,1,2.93,0,2.81,2.81,0,0,1,1,.79,3.48,3.48,0,0,1,.58,1.19,6.4,6.4,0,0,1,.18,1.49V444h-6a4.48,4.48,0,0,0,.17,1.24,3.17,3.17,0,0,0,.49,1,2.36,2.36,0,0,0,.83.67,2.45,2.45,0,0,0,1.14.25,4,4,0,0,0,1-.11,1.91,1.91,0,0,0,.67-.33,1.62,1.62,0,0,0,.43-.48,2.51,2.51,0,0,0,.25-.63Zm-.77-2.37a4.6,4.6,0,0,0-.13-1.15,2.63,2.63,0,0,0-.42-.91,1.92,1.92,0,0,0-.75-.59,2.68,2.68,0,0,0-1.11-.21,2.37,2.37,0,0,0-1.8.7,3.52,3.52,0,0,0-.81,2.16Z"/><path class="cls-1" d="M295.53,436.91h.87v10.71h-.87Z"/><path class="cls-1" d="M301.77,447.86a3.82,3.82,0,0,1-1.52-.29,3.08,3.08,0,0,1-1.13-.81,3.82,3.82,0,0,1-.7-1.29,5.2,5.2,0,0,1-.25-1.68,5.38,5.38,0,0,1,.26-1.71,3.84,3.84,0,0,1,.74-1.3,3.06,3.06,0,0,1,1.14-.83,3.75,3.75,0,0,1,1.52-.3,3.89,3.89,0,0,1,1.52.29,3,3,0,0,1,1.13.82,3.71,3.71,0,0,1,.72,1.28,5.92,5.92,0,0,1,0,3.37,3.85,3.85,0,0,1-.73,1.32,3.23,3.23,0,0,1-1.15.84A4,4,0,0,1,301.77,447.86Zm0-.75a2.74,2.74,0,0,0,1.24-.26,2.44,2.44,0,0,0,.84-.72,2.64,2.64,0,0,0,.48-1.06,5.66,5.66,0,0,0,.16-1.34,5.3,5.3,0,0,0-.16-1.29,2.64,2.64,0,0,0-.48-1.06,2.31,2.31,0,0,0-.84-.71,2.61,2.61,0,0,0-1.24-.27,2.67,2.67,0,0,0-1.24.27,2.31,2.31,0,0,0-.84.71,3.11,3.11,0,0,0-.47,1.06,5.41,5.41,0,0,0-.15,1.31,5.56,5.56,0,0,0,.15,1.32,3.11,3.11,0,0,0,.47,1.06,2.44,2.44,0,0,0,.84.72A2.8,2.8,0,0,0,301.8,447.11Z"/><path class="cls-1" d="M313.71,445.1a3.44,3.44,0,0,1-1,2,3.19,3.19,0,0,1-2.21.73,3.75,3.75,0,0,1-1.5-.28,2.8,2.8,0,0,1-1.11-.81,3.66,3.66,0,0,1-.69-1.28,5.58,5.58,0,0,1-.24-1.7,5.38,5.38,0,0,1,.26-1.71,4,4,0,0,1,.71-1.3A3.06,3.06,0,0,1,309,440a3.59,3.59,0,0,1,1.5-.3,3,3,0,0,1,2,.66,3.15,3.15,0,0,1,1,1.83l-.84.21a3.24,3.24,0,0,0-.25-.78,2.07,2.07,0,0,0-.42-.61,1.81,1.81,0,0,0-.64-.41,2.46,2.46,0,0,0-.9-.15,2.61,2.61,0,0,0-1.21.26,2.31,2.31,0,0,0-.82.7,2.82,2.82,0,0,0-.48,1.05,5.67,5.67,0,0,0-.15,1.34,5.58,5.58,0,0,0,.15,1.33,3.36,3.36,0,0,0,.46,1.07,2.31,2.31,0,0,0,.82.7,2.67,2.67,0,0,0,1.21.26,2.14,2.14,0,0,0,1.64-.55,2.82,2.82,0,0,0,.7-1.46Z"/><path class="cls-1" d="M315.34,436.91h.87v6.58l4-3.6h1.08l-2.73,2.55,3.07,5.18h-1.05l-2.7-4.64-1.65,1.49v3.15h-.87Z"/><path class="cls-1" d="M329.05,445.59a2.63,2.63,0,0,1-.95,1.64,3.5,3.5,0,0,1-2.23.63,3.23,3.23,0,0,1-2.58-1.07,4.37,4.37,0,0,1-.93-3,5.5,5.5,0,0,1,.27-1.8,3.69,3.69,0,0,1,.73-1.31,3.12,3.12,0,0,1,1.11-.81,3.91,3.91,0,0,1,2.93,0,2.73,2.73,0,0,1,1,.79,3.15,3.15,0,0,1,.58,1.19,5.91,5.91,0,0,1,.18,1.49V444h-5.94a4.48,4.48,0,0,0,.16,1.24,3,3,0,0,0,.5,1,2.33,2.33,0,0,0,.82.67,2.45,2.45,0,0,0,1.14.25,3.87,3.87,0,0,0,1-.11,2.05,2.05,0,0,0,.68-.33,1.77,1.77,0,0,0,.43-.48,2.94,2.94,0,0,0,.24-.63Zm-.76-2.37a4.59,4.59,0,0,0-.14-1.15,2.63,2.63,0,0,0-.42-.91,1.92,1.92,0,0,0-.75-.59,2.65,2.65,0,0,0-1.11-.21,2.37,2.37,0,0,0-1.8.7,3.51,3.51,0,0,0-.8,2.16Z"/><path class="cls-1" d="M330.87,439.89h.87v1.26a3.53,3.53,0,0,1,1.06-1,2.46,2.46,0,0,1,1.28-.36h.31l.3,0-.1.82a3,3,0,0,0-.5,0,2.48,2.48,0,0,0-.79.14,2.23,2.23,0,0,0-.77.49,2.44,2.44,0,0,0-.57.73,2.12,2.12,0,0,0-.22,1v4.65h-.87Z"/><line class="cls-2" x1="271.55" y1="430.04" x2="271.54" y2="288.82"/><path class="cls-3" d="M272.48,288.82a.94.94,0,1,0-.94.94A.95.95,0,0,0,272.48,288.82Z"/></svg>