<?xml version="1.0" encoding="utf-8"?>
<!-- Generator: Adobe Illustrator 22.0.1, SVG Export Plug-In . SVG Version: 6.00 Build 0)  -->
<svg version="1.1" id="Layer_2_1_" xmlns="http://www.w3.org/2000/svg" xmlns:xlink="http://www.w3.org/1999/xlink" x="0px" y="0px"
	 viewBox="0 0 2412 2304" style="enable-background:new 0 0 2412 2304;" xml:space="preserve">
<style type="text/css">
	.st0{fill:none;stroke:#FABA38;stroke-width:2;stroke-miterlimit:10;}
	.st1{fill:none;stroke:#FABA38;stroke-width:2;stroke-miterlimit:10;stroke-dasharray:14.1223,14.1223;}
	.st2{fill:none;stroke:#FABA38;stroke-width:2;stroke-miterlimit:10;stroke-dasharray:16.4533,16.4533;}
	.st3{fill:none;stroke:#FABA38;stroke-width:2;stroke-miterlimit:10;stroke-dasharray:15.4969,15.4969;}
	.st4{fill:none;stroke:#FABA38;stroke-width:2;stroke-miterlimit:10;stroke-dasharray:15.259,15.259;}
	.st5{fill:none;stroke:#FABA38;stroke-width:2;stroke-miterlimit:10;stroke-dasharray:15.8806,15.8806;}
	.st6{fill:none;stroke:#FABA38;stroke-width:2;stroke-miterlimit:10;stroke-dasharray:15.7179,15.7179;}
	.st7{fill:none;stroke:#FABA38;stroke-width:4;stroke-miterlimit:10;}
	.st8{fill:#FABA38;}
	.st9{fill:#383936;}
	.st10{enable-background:new    ;}
	.st11{fill:none;stroke:#FABA38;stroke-width:2;stroke-miterlimit:10;stroke-dasharray:16;}
</style>
<g>
	<g>
		<line class="st0" x1="664.3" y1="1037.1" x2="656.3" y2="1037.2"/>
		<line class="st1" x1="642.1" y1="1037.3" x2="564.5" y2="1038"/>
		<polyline class="st0" points="557.4,1038.1 549.4,1038.2 546.3,1045.5 		"/>
		<line class="st2" x1="539.9" y1="1060.7" x2="376.9" y2="1447.3"/>
		<polyline class="st0" points="373.7,1454.9 370.6,1462.2 378.6,1462.3 		"/>
		<line class="st3" x1="394.1" y1="1462.4" x2="448.3" y2="1462.9"/>
		<polyline class="st0" points="456.1,1463 464.1,1463.1 461.3,1470.6 		"/>
		<line class="st4" x1="455.9" y1="1484.9" x2="362.2" y2="1734.9"/>
		<polyline class="st0" points="359.6,1742.1 356.8,1749.6 364.8,1749.6 		"/>
		<line class="st5" x1="380.6" y1="1749.6" x2="2024.3" y2="1749.6"/>
		<polyline class="st0" points="2032.2,1749.6 2040.2,1749.6 2037.5,1742 		"/>
		<line class="st6" x1="2032.3" y1="1727.2" x2="1856.1" y2="1231"/>
		<line class="st0" x1="1853.5" y1="1223.6" x2="1850.8" y2="1216.1"/>
	</g>
</g>
<g>
	<g>
		<line class="st7" x1="541.7" y1="1056.4" x2="379.1" y2="1442.2"/>
		<g>
			<polygon class="st8" points="549.4,1038.2 528.1,1059.4 541.2,1057.7 549.1,1068.2 			"/>
		</g>
		<g>
			<polygon class="st8" points="371.4,1460.4 371.7,1430.3 379.6,1440.8 392.7,1439.2 			"/>
		</g>
	</g>
</g>
<g>
	<g>
		<line class="st7" x1="376.5" y1="1749.6" x2="2020.5" y2="1749.6"/>
		<g>
			<polygon class="st8" points="356.8,1749.6 384.6,1760.9 378,1749.6 384.6,1738.2 			"/>
		</g>
		<g>
			<polygon class="st8" points="2040.2,1749.6 2012.4,1760.9 2019,1749.6 2012.4,1738.2 			"/>
		</g>
	</g>
</g>
<g>
	<rect x="1142.2" y="1721.5" class="st9" width="133.4" height="56.1"/>
	<g class="st10">
		<path class="st8" d="M1158.3,1750.5v-4.3c1.5-1.7,3.4-2.5,5.9-2.5c0.8,0,1.7,0.1,2.7,0.4c0.9,0.2,2.2,0.7,4,1.5
			c1,0.4,1.7,0.7,2.2,0.8c0.5,0.1,1,0.2,1.5,0.2c0.9,0,1.9-0.3,2.8-0.8c1-0.5,1.8-1.2,2.6-2.1v4.5c-0.9,0.8-1.8,1.5-2.7,1.8
			c-0.9,0.4-2,0.6-3.1,0.6c-0.8,0-1.6-0.1-2.4-0.3s-2-0.7-3.6-1.4c-1.7-0.7-3-1.1-4.2-1.1c-0.9,0-1.7,0.2-2.5,0.6
			C1160.5,1748.6,1159.5,1749.4,1158.3,1750.5z"/>
		<path class="st8" d="M1183.5,1754.1l3.8-0.5c0.4,2.1,1.2,3.7,2.2,4.6c1,0.9,2.3,1.4,3.8,1.4c1.8,0,3.3-0.6,4.5-1.9
			c1.2-1.2,1.8-2.8,1.8-4.6c0-1.7-0.6-3.2-1.7-4.3c-1.1-1.1-2.6-1.7-4.3-1.7c-0.7,0-1.6,0.1-2.7,0.4l0.4-3.3c0.3,0,0.5,0,0.6,0
			c1.6,0,3.1-0.4,4.4-1.3c1.3-0.8,1.9-2.1,1.9-3.9c0-1.4-0.5-2.5-1.4-3.5c-0.9-0.9-2.2-1.4-3.6-1.4c-1.5,0-2.7,0.5-3.7,1.4
			c-1,0.9-1.6,2.3-1.9,4.2l-3.8-0.7c0.5-2.5,1.5-4.5,3.2-5.9c1.6-1.4,3.7-2.1,6.1-2.1c1.7,0,3.2,0.4,4.7,1.1s2.5,1.7,3.3,3
			c0.8,1.2,1.1,2.6,1.1,4c0,1.3-0.4,2.5-1.1,3.6s-1.8,2-3.2,2.6c1.8,0.4,3.2,1.3,4.3,2.6c1,1.3,1.5,3,1.5,5c0,2.7-1,5-2.9,6.9
			c-2,1.9-4.5,2.8-7.5,2.8c-2.7,0-5-0.8-6.7-2.4C1184.8,1758.7,1183.7,1756.6,1183.5,1754.1z"/>
		<path class="st8" d="M1207.7,1735.4v-3.6h20v2.9c-2,2.1-3.9,4.9-5.8,8.3c-1.9,3.5-3.4,7-4.5,10.7c-0.8,2.6-1.2,5.4-1.5,8.5h-3.9
			c0-2.4,0.5-5.4,1.4-8.8s2.2-6.8,3.9-9.9c1.7-3.2,3.5-5.9,5.4-8.1H1207.7z"/>
		<path class="st8" d="M1232.5,1762.2v-22.4h3.4v3.1c0.7-1.1,1.6-2,2.8-2.6c1.2-0.7,2.5-1,4-1c1.7,0,3,0.3,4.1,1s1.8,1.6,2.2,2.9
			c1.8-2.6,4.1-3.9,6.9-3.9c2.2,0,3.9,0.6,5.1,1.8s1.8,3.1,1.8,5.7v15.4h-3.8v-14.1c0-1.5-0.1-2.6-0.4-3.3s-0.7-1.2-1.3-1.6
			c-0.6-0.4-1.4-0.6-2.3-0.6c-1.6,0-2.9,0.5-3.9,1.6s-1.6,2.7-1.6,5v13h-3.8v-14.5c0-1.7-0.3-2.9-0.9-3.8c-0.6-0.8-1.6-1.3-3-1.3
			c-1.1,0-2.1,0.3-3,0.8s-1.6,1.4-2,2.5c-0.4,1.1-0.6,2.6-0.6,4.7v11.6H1232.5z"/>
	</g>
</g>
<g>
	<rect x="417.6" y="1191.9" class="st9" width="102.6" height="56.1"/>
	<g class="st10">
		<path class="st8" d="M452.2,1229v3.6h-20.4c0-0.9,0.1-1.8,0.4-2.6c0.5-1.4,1.4-2.8,2.5-4.1c1.1-1.3,2.8-2.9,5-4.7
			c3.4-2.8,5.6-4.9,6.8-6.5c1.2-1.6,1.8-3.1,1.8-4.6c0-1.5-0.5-2.8-1.6-3.8c-1.1-1-2.5-1.5-4.2-1.5c-1.8,0-3.3,0.5-4.4,1.6
			c-1.1,1.1-1.7,2.6-1.7,4.5l-3.9-0.4c0.3-2.9,1.3-5.1,3-6.6c1.7-1.5,4.1-2.3,7-2.3c3,0,5.3,0.8,7,2.5s2.6,3.7,2.6,6.1
			c0,1.2-0.3,2.5-0.8,3.6c-0.5,1.2-1.3,2.4-2.5,3.8c-1.2,1.3-3.1,3.1-5.8,5.4c-2.3,1.9-3.7,3.2-4.4,3.9c-0.6,0.7-1.2,1.4-1.6,2.1
			H452.2z"/>
		<path class="st8" d="M456.3,1217.4c0-3.7,0.4-6.6,1.1-8.8s1.9-3.9,3.3-5.1c1.5-1.2,3.3-1.8,5.6-1.8c1.7,0,3.1,0.3,4.4,1
			c1.2,0.7,2.3,1.6,3.1,2.9c0.8,1.3,1.5,2.8,1.9,4.6c0.5,1.8,0.7,4.2,0.7,7.3c0,3.6-0.4,6.5-1.1,8.8c-0.7,2.2-1.9,3.9-3.3,5.2
			c-1.5,1.2-3.4,1.8-5.6,1.8c-3,0-5.3-1.1-7-3.2C457.3,1227.4,456.3,1223.2,456.3,1217.4z M460.2,1217.4c0,5.1,0.6,8.4,1.8,10.1
			c1.2,1.7,2.6,2.5,4.4,2.5c1.7,0,3.2-0.8,4.4-2.5s1.8-5.1,1.8-10.1c0-5.1-0.6-8.5-1.8-10.1c-1.2-1.7-2.7-2.5-4.4-2.5
			c-1.7,0-3.1,0.7-4.2,2.2C460.9,1208.9,460.2,1212.4,460.2,1217.4z"/>
		<path class="st8" d="M481.3,1232.7v-22.4h3.4v3.1c0.7-1.1,1.6-2,2.8-2.6s2.5-1,4-1c1.7,0,3,0.3,4.1,1c1.1,0.7,1.8,1.6,2.2,2.9
			c1.8-2.6,4.1-3.9,6.9-3.9c2.2,0,3.9,0.6,5.1,1.8s1.8,3.1,1.8,5.7v15.4h-3.8v-14.1c0-1.5-0.1-2.6-0.4-3.3c-0.2-0.7-0.7-1.2-1.3-1.6
			c-0.6-0.4-1.4-0.6-2.3-0.6c-1.6,0-2.9,0.5-3.9,1.6s-1.6,2.7-1.6,5v13h-3.8v-14.5c0-1.7-0.3-2.9-0.9-3.8c-0.6-0.8-1.6-1.3-3-1.3
			c-1.1,0-2.1,0.3-3,0.8s-1.6,1.4-2,2.5c-0.4,1.1-0.6,2.6-0.6,4.7v11.6H481.3z"/>
	</g>
</g>
<polyline class="st11" points="832.8,975.9 582.6,975.8 630.1,1223.6 "/>
<g>
	<g>
		<line class="st7" x1="586.3" y1="995.2" x2="625.5" y2="1204.2"/>
		<g>
			<polygon class="st8" points="582.6,975.8 576.6,1005.3 586.6,996.7 599,1001.1 			"/>
		</g>
		<g>
			<polygon class="st8" points="629.2,1223.6 612.9,1198.3 625.3,1202.7 635.2,1194.1 			"/>
		</g>
	</g>
</g>
<g>
	<rect x="558.7" y="1082.4" class="st9" width="93.8" height="56.1"/>
	<g class="st10">
		<path class="st8" d="M584.2,1106.4c-1.6-0.6-2.7-1.4-3.5-2.5c-0.8-1.1-1.1-2.3-1.1-3.8c0-2.2,0.8-4.1,2.4-5.7s3.8-2.3,6.4-2.3
			c2.7,0,4.9,0.8,6.5,2.3c1.6,1.6,2.5,3.5,2.5,5.7c0,1.4-0.4,2.7-1.1,3.7c-0.8,1.1-1.9,1.9-3.4,2.5c1.9,0.6,3.3,1.6,4.3,3
			s1.5,3,1.5,4.9c0,2.6-0.9,4.9-2.8,6.7c-1.9,1.8-4.3,2.7-7.4,2.7c-3,0-5.5-0.9-7.4-2.7c-1.9-1.8-2.8-4.1-2.8-6.7c0-2,0.5-3.7,1.5-5
			C580.9,1107.8,582.3,1106.9,584.2,1106.4z M582.2,1114.2c0,1.1,0.3,2.1,0.8,3.1c0.5,1,1.3,1.8,2.3,2.3s2.1,0.8,3.3,0.8
			c1.8,0,3.3-0.6,4.5-1.7c1.2-1.2,1.8-2.6,1.8-4.4c0-1.8-0.6-3.3-1.8-4.5s-2.7-1.8-4.6-1.8c-1.8,0-3.3,0.6-4.4,1.8
			C582.8,1111,582.2,1112.5,582.2,1114.2z M583.4,1100c0,1.5,0.5,2.7,1.4,3.6c0.9,0.9,2.2,1.4,3.7,1.4c1.5,0,2.7-0.5,3.6-1.4
			c0.9-0.9,1.4-2,1.4-3.4c0-1.4-0.5-2.6-1.4-3.5c-1-0.9-2.2-1.4-3.6-1.4c-1.4,0-2.6,0.5-3.6,1.4
			C583.9,1097.6,583.4,1098.7,583.4,1100z"/>
		<path class="st8" d="M603.4,1123.1v-22.4h3.4v3.1c0.7-1.1,1.6-2,2.8-2.6s2.5-1,4-1c1.7,0,3,0.3,4.1,1s1.8,1.6,2.2,2.9
			c1.8-2.6,4.1-3.9,6.9-3.9c2.2,0,3.9,0.6,5.1,1.8s1.8,3.1,1.8,5.7v15.4h-3.8v-14.1c0-1.5-0.1-2.6-0.4-3.3s-0.7-1.2-1.3-1.6
			c-0.6-0.4-1.4-0.6-2.3-0.6c-1.6,0-2.9,0.5-3.9,1.6c-1,1-1.6,2.7-1.6,5v13h-3.8v-14.5c0-1.7-0.3-2.9-0.9-3.8
			c-0.6-0.8-1.6-1.3-3-1.3c-1.1,0-2.1,0.3-3,0.8s-1.6,1.4-2,2.5c-0.4,1.1-0.6,2.6-0.6,4.7v11.6H603.4z"/>
	</g>
</g>
<line class="st11" x1="678.9" y1="1036.8" x2="811.9" y2="1036.8"/>
<line class="st11" x1="843.9" y1="1036.3" x2="868.5" y2="1036.3"/>
</svg>
