<?xml version="1.0" encoding="utf-8"?>
<!-- Generator: Adobe Illustrator 22.0.1, SVG Export Plug-In . SVG Version: 6.00 Build 0)  -->
<svg version="1.1" id="Layer_1" xmlns="http://www.w3.org/2000/svg" xmlns:xlink="http://www.w3.org/1999/xlink" x="0px" y="0px"
	 viewBox="0 0 240 240" style="enable-background:new 0 0 240 240;" xml:space="preserve">
<style type="text/css">
	.st0{enable-background:new    ;}
	.st1{fill:#FFB838;}
</style>
<g>
	<g class="st0">
		<path class="st1" d="M100.4,81.9h8.4v34.1h7.1l-1.1,7.2h-6V136h-8.5v-12.8H75.2v-6.3L100.4,81.9z M100.3,93.6l-15.9,22.5h15.9
			V93.6z"/>
		<path class="st1" d="M130.9,108.2c-2.3-1-4.1-2.6-5.5-4.7c-1.4-2.1-2-4.7-2-7.9c0-2.1,0.4-4.1,1.1-5.9c0.7-1.9,1.9-3.5,3.4-4.8
			c1.5-1.4,3.5-2.4,5.8-3.2c2.3-0.8,5.1-1.2,8.4-1.2c3.3,0,6.2,0.4,8.6,1.2c2.4,0.8,4.3,1.9,5.8,3.3c1.5,1.4,2.6,3,3.3,4.9
			c0.7,1.9,1,3.8,1,5.9c0,3.1-0.7,5.7-2,7.8c-1.4,2-3.2,3.6-5.5,4.6c1.1,0.5,2.3,1.2,3.4,2c1.1,0.8,2.1,1.7,2.9,2.8
			c0.9,1.1,1.5,2.3,2,3.6c0.5,1.4,0.7,2.9,0.7,4.6c0,5-1.7,8.9-5,11.9s-8.4,4.5-15.2,4.5c-6.8,0-11.9-1.5-15.2-4.5
			c-3.3-3-4.9-6.9-4.9-11.9c0-1.7,0.3-3.2,0.8-4.5c0.5-1.4,1.2-2.6,2-3.6c0.8-1.1,1.8-2,2.9-2.8
			C128.7,109.3,129.8,108.7,130.9,108.2z M130.8,121.1c0,2.9,0.9,5.1,2.7,6.8c1.8,1.6,4.7,2.5,8.7,2.5c3.9,0,6.8-0.8,8.6-2.5
			c1.9-1.7,2.8-4,2.8-6.8c0-1.3-0.2-2.5-0.6-3.6c-0.4-1.1-1-2-1.9-2.8c-0.9-0.8-2.1-1.4-3.5-1.8c-1.5-0.4-3.3-0.7-5.4-0.7
			c-2.2,0-4.1,0.2-5.6,0.7c-1.5,0.5-2.6,1.1-3.5,2c-0.9,0.8-1.5,1.8-1.8,2.9C131,118.7,130.8,119.9,130.8,121.1z M131.8,96.2
			c0,3,0.8,5.2,2.5,6.5c1.6,1.4,4.3,2.1,7.9,2.1c3.6,0,6.2-0.7,7.8-2.2c1.6-1.5,2.3-3.7,2.3-6.6c0-1.1-0.2-2.2-0.5-3.3
			c-0.3-1-0.9-2-1.7-2.7c-0.8-0.8-1.9-1.4-3.1-1.9c-1.3-0.5-2.9-0.7-4.7-0.7s-3.5,0.2-4.8,0.7c-1.3,0.5-2.4,1.1-3.2,2
			c-0.8,0.8-1.4,1.7-1.8,2.8C132,93.9,131.8,95,131.8,96.2z"/>
	</g>
	<g class="st0">
		<path class="st1" d="M97.4,141.9h2v9.7c1-1.2,2-2.1,3.1-2.6s2.3-0.8,3.5-0.8c2,0,3.5,0.6,4.5,1.7c1,1.1,1.4,2.7,1.4,4.8v11.8h-2
			v-11.2c0-1.9-0.3-3.2-1-4c-0.7-0.8-1.7-1.2-3.2-1.2c-0.7,0-1.4,0.1-2.2,0.4c-0.8,0.3-1.5,0.7-2.1,1.3c-0.7,0.6-1.2,1.2-1.5,1.8
			s-0.5,1.5-0.5,2.6v10.4h-2V141.9z"/>
		<path class="st1" d="M116.5,148.8h2v2.9c0.7-1,1.5-1.8,2.4-2.3c0.9-0.5,1.9-0.8,2.9-0.8c0.3,0,0.5,0,0.7,0s0.5,0,0.7,0.1l-0.2,1.9
			c-0.4-0.1-0.8-0.1-1.1-0.1c-0.6,0-1.2,0.1-1.8,0.3s-1.2,0.6-1.8,1.1c-0.5,0.5-1,1-1.3,1.7c-0.3,0.7-0.5,1.4-0.5,2.3v10.7h-2V148.8
			z"/>
		<path class="st1" d="M128.8,161.5c0.3,1.4,0.8,2.3,1.8,2.9c0.9,0.6,2.2,0.9,3.9,0.9c1.7,0,2.9-0.3,3.6-1c0.7-0.6,1.1-1.4,1.1-2.4
			c0-0.4,0-0.8-0.1-1.2c-0.1-0.4-0.3-0.7-0.5-1c-0.3-0.3-0.6-0.5-1.1-0.8s-1.1-0.4-1.9-0.5l-2.2-0.3c-0.9-0.2-1.8-0.4-2.5-0.6
			c-0.7-0.2-1.4-0.5-1.9-0.9c-0.5-0.4-0.9-0.8-1.2-1.4c-0.3-0.6-0.4-1.3-0.4-2.1c0-0.8,0.2-1.5,0.5-2.1c0.3-0.6,0.8-1.2,1.4-1.6
			c0.6-0.4,1.3-0.8,2.1-1c0.8-0.2,1.7-0.3,2.6-0.3c1.2,0,2.2,0.1,3,0.4c0.8,0.2,1.5,0.6,2,1s0.9,0.9,1.2,1.4
			c0.3,0.5,0.5,1.1,0.7,1.8l-1.8,0.4c-0.2-0.5-0.4-1-0.6-1.4c-0.2-0.4-0.5-0.7-0.9-1c-0.4-0.3-0.8-0.5-1.4-0.6s-1.2-0.2-2.1-0.2
			c-0.9,0-1.7,0.1-2.3,0.3c-0.6,0.2-1.1,0.4-1.5,0.7c-0.4,0.3-0.6,0.6-0.8,1s-0.2,0.8-0.2,1.2s0,0.8,0.1,1.1
			c0.1,0.3,0.3,0.6,0.5,0.9c0.3,0.3,0.7,0.5,1.2,0.7c0.5,0.2,1.1,0.3,1.9,0.5l2.7,0.4c1.9,0.3,3.2,0.9,4.2,1.7s1.4,2,1.4,3.6
			c0,0.7-0.1,1.3-0.4,2c-0.3,0.6-0.7,1.2-1.3,1.6c-0.6,0.4-1.3,0.8-2.1,1.1c-0.8,0.3-1.8,0.4-2.9,0.4c-1.1,0-2.1-0.1-3-0.3
			c-0.9-0.2-1.7-0.5-2.4-1c-0.7-0.4-1.2-1-1.6-1.7s-0.7-1.5-0.8-2.5H128.8z"/>
	</g>
</g>
<path class="st1" d="M209.8,82c-7.4-17.5-19.8-32.4-35.3-42.9C159,28.6,140.2,22.5,120,22.5v15c11.4,0,22.2,2.3,32.1,6.5
	c14.8,6.3,27.4,16.7,36.3,29.9c8.9,13.2,14.1,29,14.1,46.1c0,11.4-2.3,22.2-6.5,32.1c-6.3,14.8-16.7,27.4-29.9,36.3
	c-13.2,8.9-29,14.1-46.1,14.1c-11.4,0-22.2-2.3-32.1-6.5c-14.8-6.3-27.4-16.7-36.3-29.9c-8.9-13.2-14.1-29-14.1-46.1
	c0-12.3,2.7-24,7.5-34.5c4.8-10.5,11.8-19.8,20.3-27.3l0,0l0,0c0,0,0,0,0,0l2.7-11.8l-12.7,0.6l0,0c-10.1,8.9-18.3,19.9-24,32.3
	c-5.7,12.4-8.9,26.2-8.9,40.7c0,13.4,2.7,26.3,7.7,38c7.4,17.5,19.8,32.4,35.3,42.9c15.6,10.5,34.4,16.7,54.5,16.7
	c13.4,0,26.3-2.7,38-7.7c17.5-7.4,32.4-19.8,42.9-35.3c10.5-15.6,16.7-34.4,16.7-54.5C217.5,106.6,214.8,93.7,209.8,82z"/>
</svg>
