<svg id="text" xmlns="http://www.w3.org/2000/svg" width="800" height="550" viewBox="0 0 800 550"><defs><style>.cls-1{fill:none;stroke:#fbbb21;stroke-width:0.5px;}.cls-2{fill:#fbbb21;}.cls-3{fill:#3a3531;}</style></defs><title>aircrew_equipment_maintenance_shadow</title><line class="cls-1" x1="447.52" y1="153.1" x2="447.52" y2="261.4"/><path class="cls-2" d="M446.58,261.4a.94.94,0,1,0,.94-.94A.94.94,0,0,0,446.58,261.4Z"/><line class="cls-1" x1="258.18" y1="147.1" x2="258.18" y2="255.4"/><path class="cls-2" d="M257.24,255.4a.94.94,0,1,0,.94-.94A.94.94,0,0,0,257.24,255.4Z"/><line class="cls-1" x1="181.85" y1="191.96" x2="181.85" y2="322.82"/><circle class="cls-2" cx="181.85" cy="322.82" r="0.94"/><line class="cls-1" x1="499.67" y1="393.04" x2="499.66" y2="254.9"/><path class="cls-2" d="M500.6,254.9a.94.94,0,1,0-.94.94A.94.94,0,0,0,500.6,254.9Z"/><line class="cls-1" x1="402.69" y1="373.74" x2="402.69" y2="240.35"/><path class="cls-2" d="M403.63,240.35a.94.94,0,1,0-.94.94A.94.94,0,0,0,403.63,240.35Z"/><path class="cls-3" d="M224.38,125.33h-3.72v-.84H229v.84h-3.71v9.87h-.91Z"/><path class="cls-3" d="M234.67,133.18a2.62,2.62,0,0,1-1,1.63,3.45,3.45,0,0,1-2.22.63,3.22,3.22,0,0,1-2.59-1.07,4.4,4.4,0,0,1-.92-3,5.79,5.79,0,0,1,.26-1.8,3.79,3.79,0,0,1,.74-1.31,3,3,0,0,1,1.11-.8,3.53,3.53,0,0,1,1.4-.27,3.7,3.7,0,0,1,1.53.29,2.84,2.84,0,0,1,1,.8,3.21,3.21,0,0,1,.57,1.19,5.83,5.83,0,0,1,.18,1.48v.56h-5.94a4.53,4.53,0,0,0,.17,1.24,2.92,2.92,0,0,0,.49,1,2.39,2.39,0,0,0,.83.68,2.58,2.58,0,0,0,1.14.24,3.56,3.56,0,0,0,1-.11,1.82,1.82,0,0,0,.67-.32,1.54,1.54,0,0,0,.43-.49,2.3,2.3,0,0,0,.25-.62Zm-.77-2.37a4.68,4.68,0,0,0-.13-1.16,2.5,2.5,0,0,0-.42-.9,1.85,1.85,0,0,0-.75-.6,2.68,2.68,0,0,0-1.11-.21,2.38,2.38,0,0,0-1.8.71,3.52,3.52,0,0,0-.81,2.16Z"/><path class="cls-3" d="M237.08,133.06a1.78,1.78,0,0,0,.77,1.27,3.23,3.23,0,0,0,1.71.38,2.37,2.37,0,0,0,1.59-.42,1.35,1.35,0,0,0,.46-1,2,2,0,0,0-.06-.5,1,1,0,0,0-.23-.43,1.32,1.32,0,0,0-.49-.33,4.15,4.15,0,0,0-.84-.23l-.94-.15a8.61,8.61,0,0,1-1.1-.25,2.67,2.67,0,0,1-.83-.4,1.67,1.67,0,0,1-.51-.61,2.24,2.24,0,0,1-.17-.91,1.87,1.87,0,0,1,.22-.92,2,2,0,0,1,.62-.69,2.89,2.89,0,0,1,.92-.43,4.26,4.26,0,0,1,1.15-.15,4.61,4.61,0,0,1,1.33.16,2.52,2.52,0,0,1,.87.42,2,2,0,0,1,.52.63,3.39,3.39,0,0,1,.29.77l-.79.16a2.78,2.78,0,0,0-.28-.6,1.41,1.41,0,0,0-.4-.44,1.84,1.84,0,0,0-.6-.26,3.79,3.79,0,0,0-.9-.09,4,4,0,0,0-1,.11,1.87,1.87,0,0,0-.65.31,1.09,1.09,0,0,0-.36.45,1.34,1.34,0,0,0-.1.52,1.83,1.83,0,0,0,.06.49.77.77,0,0,0,.24.38,1.57,1.57,0,0,0,.5.29,5,5,0,0,0,.85.21l1.18.19a3.8,3.8,0,0,1,1.82.73,2.26,2.26,0,0,1,.41,2.44,2,2,0,0,1-.55.7,2.89,2.89,0,0,1-.93.46,4.11,4.11,0,0,1-1.27.17,5.91,5.91,0,0,1-1.3-.13,3.18,3.18,0,0,1-1-.42,2.25,2.25,0,0,1-.7-.74,2.54,2.54,0,0,1-.33-1.09Z"/><path class="cls-3" d="M244.76,128.2h-1.2v-.72h1.2v-2.13h.87v2.13h2.19v.72h-2.19v5.05a1.84,1.84,0,0,0,.24,1,.89.89,0,0,0,.84.4,3.1,3.1,0,0,0,.66-.06,4,4,0,0,0,.48-.14l.18.71a4,4,0,0,1-.54.16,3.89,3.89,0,0,1-.85.08,2,2,0,0,1-1-.23,1.44,1.44,0,0,1-.56-.59,2.41,2.41,0,0,1-.23-.85c0-.32-.05-.65-.05-1Z"/><path class="cls-3" d="M253.09,133.06a1.77,1.77,0,0,0,.76,1.27,3.23,3.23,0,0,0,1.71.38,2.37,2.37,0,0,0,1.59-.42,1.36,1.36,0,0,0,.47-1,2,2,0,0,0-.06-.5,1,1,0,0,0-.24-.43,1.32,1.32,0,0,0-.49-.33,4,4,0,0,0-.83-.23l-.95-.15a8.61,8.61,0,0,1-1.1-.25,2.51,2.51,0,0,1-.82-.4,1.6,1.6,0,0,1-.52-.61,2.24,2.24,0,0,1-.17-.91,1.87,1.87,0,0,1,.23-.92,1.93,1.93,0,0,1,.61-.69,2.89,2.89,0,0,1,.92-.43,4.26,4.26,0,0,1,1.15-.15,4.61,4.61,0,0,1,1.33.16,2.52,2.52,0,0,1,.87.42,2,2,0,0,1,.52.63,3.42,3.42,0,0,1,.3.77l-.8.16a2.78,2.78,0,0,0-.28-.6,1.38,1.38,0,0,0-.39-.44,1.84,1.84,0,0,0-.6-.26,3.79,3.79,0,0,0-.9-.09,4.1,4.1,0,0,0-1,.11,1.87,1.87,0,0,0-.65.31,1.06,1.06,0,0,0-.35.45,1.35,1.35,0,0,0-.11.52,1.83,1.83,0,0,0,.06.49.77.77,0,0,0,.24.38,1.57,1.57,0,0,0,.5.29,5,5,0,0,0,.85.21l1.19.19a3.76,3.76,0,0,1,1.81.73,2.26,2.26,0,0,1,.41,2.44,2,2,0,0,1-.55.7,2.83,2.83,0,0,1-.92.46,4.18,4.18,0,0,1-1.28.17,5.91,5.91,0,0,1-1.3-.13,3.13,3.13,0,0,1-1-.42,2.28,2.28,0,0,1-.71-.74,2.54,2.54,0,0,1-.33-1.09Z"/><path class="cls-3" d="M260.77,128.2h-1.2v-.72h1.2v-2.13h.87v2.13h2.19v.72h-2.19v5.05a1.84,1.84,0,0,0,.24,1,.89.89,0,0,0,.84.4,3.1,3.1,0,0,0,.66-.06,4,4,0,0,0,.48-.14l.18.71a4.13,4.13,0,0,1-.55.16,3.89,3.89,0,0,1-.85.08,2,2,0,0,1-1-.23,1.47,1.47,0,0,1-.57-.59,2.41,2.41,0,0,1-.23-.85c0-.32,0-.65,0-1Z"/><path class="cls-3" d="M270.2,134.11a3.38,3.38,0,0,1-.46.47,3,3,0,0,1-.62.41,3.43,3.43,0,0,1-.76.29,3.59,3.59,0,0,1-.9.1,3,3,0,0,1-1.95-.58,2.09,2.09,0,0,1-.74-1.74A2.14,2.14,0,0,1,266,131a3.92,3.92,0,0,1,1.24-.39,11.29,11.29,0,0,1,1.45-.15l1.5-.06v-.24a2.58,2.58,0,0,0-.44-1.66,2,2,0,0,0-1.58-.53,4.16,4.16,0,0,0-.94.09,1.79,1.79,0,0,0-.64.27,1.38,1.38,0,0,0-.4.4,1.87,1.87,0,0,0-.23.52l-.79-.12q.42-1.89,3-1.89a4.13,4.13,0,0,1,1.36.19,2.09,2.09,0,0,1,1.38,1.47,4.48,4.48,0,0,1,.15,1.22v5.08h-.87Zm0-3-1.43.06a8.75,8.75,0,0,0-1.45.16,3.15,3.15,0,0,0-.95.36,1.48,1.48,0,0,0-.52.57,2,2,0,0,0-.15.8,1.64,1.64,0,0,0,.39,1.14,1.88,1.88,0,0,0,1.39.42,4,4,0,0,0,1-.11,1.9,1.9,0,0,0,.81-.37,3.55,3.55,0,0,0,.44-.37,1.6,1.6,0,0,0,.28-.4,1.49,1.49,0,0,0,.16-.49,3.83,3.83,0,0,0,.05-.63Z"/><path class="cls-3" d="M273.59,128.2h-1.2v-.72h1.2v-2.13h.87v2.13h2.19v.72h-2.19v5.05a1.84,1.84,0,0,0,.24,1,.89.89,0,0,0,.84.4,3.1,3.1,0,0,0,.66-.06,4,4,0,0,0,.48-.14l.18.71a3.77,3.77,0,0,1-1.39.24,2,2,0,0,1-1-.23,1.38,1.38,0,0,1-.56-.59,2.22,2.22,0,0,1-.23-.85c0-.32-.05-.65-.05-1Z"/><path class="cls-3" d="M278.09,124.49h1v1.31h-1Zm.06,3H279v7.72h-.87Z"/><path class="cls-3" d="M284.53,135.44a3.9,3.9,0,0,1-1.53-.28,3,3,0,0,1-1.12-.82,3.69,3.69,0,0,1-.71-1.28,5.5,5.5,0,0,1-.24-1.68,5.12,5.12,0,0,1,.26-1.71,3.87,3.87,0,0,1,.73-1.31,3.3,3.3,0,0,1,1.15-.83,3.89,3.89,0,0,1,1.52-.29,3.83,3.83,0,0,1,1.51.28,3.15,3.15,0,0,1,1.14.82,3.62,3.62,0,0,1,.71,1.28,5.18,5.18,0,0,1,.25,1.67A5.39,5.39,0,0,1,288,133a3.87,3.87,0,0,1-.73,1.31,3,3,0,0,1-1.16.84A3.73,3.73,0,0,1,284.53,135.44Zm0-.75a2.61,2.61,0,0,0,1.24-.26,2.31,2.31,0,0,0,.84-.71,3,3,0,0,0,.48-1.07,5.58,5.58,0,0,0,.15-1.33,5.45,5.45,0,0,0-.15-1.3,3,3,0,0,0-.48-1.06,2.42,2.42,0,0,0-.84-.71,2.74,2.74,0,0,0-1.24-.26,2.77,2.77,0,0,0-1.24.26,2.25,2.25,0,0,0-.84.71A3,3,0,0,0,282,130a5.47,5.47,0,0,0-.15,1.31,5.56,5.56,0,0,0,.15,1.32,3,3,0,0,0,.47,1.07,2.16,2.16,0,0,0,.84.71A2.64,2.64,0,0,0,284.56,134.69Z"/><path class="cls-3" d="M290.06,127.48h.87v1.26a4.15,4.15,0,0,1,1.34-1.15,3.5,3.5,0,0,1,1.53-.35,2.43,2.43,0,0,1,1.95.73,3.12,3.12,0,0,1,.63,2.09v5.14h-.87v-4.9a2.79,2.79,0,0,0-.44-1.75,1.69,1.69,0,0,0-1.38-.53,3,3,0,0,0-.95.17,2.58,2.58,0,0,0-.91.55,3,3,0,0,0-.67.8,2.38,2.38,0,0,0-.23,1.13v4.53h-.87Z"/><path class="cls-3" d="M458.65,400.1h1l2.52,9.57,2.66-9.52h1l2.58,9.51L471,400.1h1l-3,10.71h-1.06l-2.58-9.52-2.58,9.52h-1Z"/><path class="cls-3" d="M476,411.05a3.85,3.85,0,0,1-1.52-.28,3.07,3.07,0,0,1-1.12-.82,3.78,3.78,0,0,1-.71-1.28,5.49,5.49,0,0,1-.25-1.68,5.11,5.11,0,0,1,.27-1.71,3.87,3.87,0,0,1,.73-1.31,3.17,3.17,0,0,1,1.15-.83,3.67,3.67,0,0,1,1.51-.29,3.88,3.88,0,0,1,1.52.28,3,3,0,0,1,1.14.82,3.54,3.54,0,0,1,.71,1.28,5.18,5.18,0,0,1,.25,1.67,5.38,5.38,0,0,1-.26,1.71,4,4,0,0,1-.72,1.31,3.27,3.27,0,0,1-1.16.84A4,4,0,0,1,476,411.05Zm0-.75a2.78,2.78,0,0,0,1.25-.26,2.42,2.42,0,0,0,.84-.71,3,3,0,0,0,.48-1.07,5.58,5.58,0,0,0,.15-1.33,5.39,5.39,0,0,0-.15-1.3,2.94,2.94,0,0,0-.48-1.06,2.31,2.31,0,0,0-.84-.71,2.66,2.66,0,0,0-1.25-.26,2.6,2.6,0,0,0-1.23.26,2.16,2.16,0,0,0-.84.71,2.94,2.94,0,0,0-.48,1.06,5.41,5.41,0,0,0-.15,1.31,5.56,5.56,0,0,0,.15,1.32,3,3,0,0,0,.48,1.07,2.25,2.25,0,0,0,.84.71A2.72,2.72,0,0,0,476.05,410.3Z"/><path class="cls-3" d="M481.56,403.09h.87v1.26a3.53,3.53,0,0,1,1.06-1,2.46,2.46,0,0,1,1.28-.36h.31l.3,0-.1.83a3.13,3.13,0,0,0-.5,0,2.48,2.48,0,0,0-.79.14,2.23,2.23,0,0,0-.77.49,2.44,2.44,0,0,0-.57.73,2.12,2.12,0,0,0-.22,1v4.65h-.87Z"/><path class="cls-3" d="M486.61,400.1h.87v6.59l4-3.6h1.08l-2.73,2.55,3.07,5.17h-1.05l-2.7-4.63-1.65,1.48v3.15h-.87Z"/><path class="cls-3" d="M497.35,400.1h.87v4.14a4.28,4.28,0,0,1,1.16-1,3,3,0,0,1,1.53-.36,3.38,3.38,0,0,1,1.47.3,2.89,2.89,0,0,1,1,.85,3.72,3.72,0,0,1,.62,1.28,6.18,6.18,0,0,1,.2,1.59,5.63,5.63,0,0,1-.25,1.76,3.82,3.82,0,0,1-.7,1.31,3,3,0,0,1-1.08.83,3.52,3.52,0,0,1-1.44.28,3.3,3.3,0,0,1-1.35-.28,3,3,0,0,1-1.2-1v1.05h-.87Zm.84,7.16a5.84,5.84,0,0,0,.06.89,2.34,2.34,0,0,0,.18.68,1.87,1.87,0,0,0,.32.53,2.23,2.23,0,0,0,.48.43,2.33,2.33,0,0,0,.7.39,2.64,2.64,0,0,0,.83.12,2.61,2.61,0,0,0,1-.19,1.92,1.92,0,0,0,.8-.59,2.85,2.85,0,0,0,.53-1.06,5.52,5.52,0,0,0,.2-1.58,5,5,0,0,0-.22-1.57,2.91,2.91,0,0,0-.56-1,2,2,0,0,0-.78-.54,2.64,2.64,0,0,0-.86-.15,3.12,3.12,0,0,0-.84.1,2.25,2.25,0,0,0-.75.39,2.65,2.65,0,0,0-.81,1,3.36,3.36,0,0,0-.3,1.51Z"/><path class="cls-3" d="M512.55,408.79a2.62,2.62,0,0,1-1,1.63,3.45,3.45,0,0,1-2.22.63,3.26,3.26,0,0,1-2.59-1.07,4.41,4.41,0,0,1-.92-3,5.79,5.79,0,0,1,.26-1.8,3.7,3.7,0,0,1,.74-1.31,2.93,2.93,0,0,1,1.11-.8,4,4,0,0,1,2.93,0,2.81,2.81,0,0,1,1,.79,3.34,3.34,0,0,1,.57,1.2,5.83,5.83,0,0,1,.18,1.48v.56h-5.94a4.4,4.4,0,0,0,.17,1.23,3,3,0,0,0,.49,1,2.36,2.36,0,0,0,.83.67,2.45,2.45,0,0,0,1.14.25,4,4,0,0,0,1-.11,2,2,0,0,0,.67-.32,1.65,1.65,0,0,0,.43-.49,2.44,2.44,0,0,0,.25-.62Zm-.77-2.37a4.68,4.68,0,0,0-.13-1.16,2.63,2.63,0,0,0-.42-.91,1.92,1.92,0,0,0-.75-.59,2.68,2.68,0,0,0-1.11-.21,2.38,2.38,0,0,0-1.8.71,3.52,3.52,0,0,0-.81,2.16Z"/><path class="cls-3" d="M514.5,403.09h.87v1.26a4,4,0,0,1,1.34-1.15,3.33,3.33,0,0,1,1.52-.35,2.43,2.43,0,0,1,1.95.73,3.12,3.12,0,0,1,.63,2.09v5.14h-.87v-4.9a2.77,2.77,0,0,0-.43-1.75,1.66,1.66,0,0,0-1.38-.53,2.77,2.77,0,0,0-1,.17,2.44,2.44,0,0,0-.91.55,2.9,2.9,0,0,0-.68.8,2.36,2.36,0,0,0-.22,1.13v4.53h-.87Z"/><path class="cls-3" d="M529.41,408.29a3.39,3.39,0,0,1-1,2,3.14,3.14,0,0,1-2.2.73,3.75,3.75,0,0,1-1.5-.28,2.8,2.8,0,0,1-1.11-.81,3.66,3.66,0,0,1-.69-1.28,5.52,5.52,0,0,1-.24-1.69,5.39,5.39,0,0,1,.25-1.71,3.85,3.85,0,0,1,.72-1.31,3.06,3.06,0,0,1,1.14-.83,3.59,3.59,0,0,1,1.5-.29,3,3,0,0,1,2,.65,3.18,3.18,0,0,1,1,1.84l-.84.21a3.75,3.75,0,0,0-.25-.78,2.12,2.12,0,0,0-.42-.62,1.79,1.79,0,0,0-.64-.4,2.48,2.48,0,0,0-.91-.15,2.6,2.6,0,0,0-1.2.25,2.31,2.31,0,0,0-.82.7,2.87,2.87,0,0,0-.48,1.06,5.58,5.58,0,0,0-.15,1.33,5.67,5.67,0,0,0,.15,1.34,3.1,3.1,0,0,0,.46,1.06,2.25,2.25,0,0,0,.82.71,2.67,2.67,0,0,0,1.21.25,2.14,2.14,0,0,0,1.64-.55,2.82,2.82,0,0,0,.7-1.46Z"/><path class="cls-3" d="M531.18,400.1h.87v4.25a4,4,0,0,1,1.34-1.15,3.3,3.3,0,0,1,1.52-.35,2.43,2.43,0,0,1,2,.73,3.12,3.12,0,0,1,.63,2.09v5.14h-.87v-4.9a2.77,2.77,0,0,0-.43-1.75,1.66,1.66,0,0,0-1.38-.53,2.77,2.77,0,0,0-.95.17,2.44,2.44,0,0,0-.91.55,2.9,2.9,0,0,0-.68.8,2.36,2.36,0,0,0-.22,1.13v4.53h-.87Z"/><path class="cls-3" d="M389.45,388.05a2.56,2.56,0,0,0,1,1.73,5.38,5.38,0,0,0,3.71.35,2.23,2.23,0,0,0,.85-.48,1.69,1.69,0,0,0,.45-.7,2.72,2.72,0,0,0,.14-.86,2.76,2.76,0,0,0-.09-.71,1.47,1.47,0,0,0-.31-.61,2,2,0,0,0-.67-.49,4.34,4.34,0,0,0-1.14-.33l-1.33-.23a8.84,8.84,0,0,1-1.39-.34,3.25,3.25,0,0,1-1-.55A2.18,2.18,0,0,1,389,384a3.25,3.25,0,0,1-.21-1.24,2.6,2.6,0,0,1,.3-1.28,2.71,2.71,0,0,1,.83-.89,3.69,3.69,0,0,1,1.21-.52,5.94,5.94,0,0,1,1.48-.18,5.7,5.7,0,0,1,1.68.22,3.41,3.41,0,0,1,1.11.58,2.64,2.64,0,0,1,.68.82,4.78,4.78,0,0,1,.37.92l-.84.24a4.93,4.93,0,0,0-.35-.83,2.06,2.06,0,0,0-.54-.63,2.47,2.47,0,0,0-.85-.39,6,6,0,0,0-2.62,0,2.52,2.52,0,0,0-.9.43,1.66,1.66,0,0,0-.5.66,2.25,2.25,0,0,0-.15.82,2.57,2.57,0,0,0,.11.78,1.32,1.32,0,0,0,.36.57,2,2,0,0,0,.68.4,6,6,0,0,0,1.07.29l1.52.27a7.37,7.37,0,0,1,1.4.39,3.08,3.08,0,0,1,1,.61,2.26,2.26,0,0,1,.58.87,3.6,3.6,0,0,1,.19,1.2,2.92,2.92,0,0,1-.24,1.17,2.64,2.64,0,0,1-.72.95,3.45,3.45,0,0,1-1.17.64,5.12,5.12,0,0,1-1.65.24,7.54,7.54,0,0,1-1.62-.16,4,4,0,0,1-1.3-.53,3,3,0,0,1-.92-1,3.35,3.35,0,0,1-.45-1.42Z"/><path class="cls-3" d="M398.54,380.14h1v1.31h-1Zm.06,3h.87v7.72h-.87Z"/><path class="cls-3" d="M401.61,383.13h.87v1.26a4.15,4.15,0,0,1,1.34-1.15,3.5,3.5,0,0,1,1.53-.35,2.43,2.43,0,0,1,1.95.73,3.12,3.12,0,0,1,.63,2.09v5.14h-.87V386a2.79,2.79,0,0,0-.44-1.75,1.69,1.69,0,0,0-1.38-.53,3,3,0,0,0-.95.17,2.58,2.58,0,0,0-.91.55,3,3,0,0,0-.67.8,2.38,2.38,0,0,0-.23,1.13v4.53h-.87Z"/><path class="cls-3" d="M410,380.14h.87v6.59l4-3.6h1.08l-2.73,2.55,3.07,5.17H415.2l-2.7-4.63-1.65,1.48v3.15H410Z"/><path class="cls-3" d="M148,170.4h-3.72v-.84h8.34v.84h-3.71v9.87H148Z"/><path class="cls-3" d="M158.3,178.25a2.62,2.62,0,0,1-1,1.63,3.45,3.45,0,0,1-2.22.63,3.19,3.19,0,0,1-2.58-1.07,4.35,4.35,0,0,1-.93-2.95,5.5,5.5,0,0,1,.27-1.8,3.78,3.78,0,0,1,.73-1.31,3.12,3.12,0,0,1,1.11-.8,3.57,3.57,0,0,1,1.4-.27,3.7,3.7,0,0,1,1.53.29,2.75,2.75,0,0,1,1,.8,3.08,3.08,0,0,1,.58,1.19,5.83,5.83,0,0,1,.18,1.48v.56H152.5a4.53,4.53,0,0,0,.16,1.24,2.94,2.94,0,0,0,.5,1,2.36,2.36,0,0,0,.82.68,2.58,2.58,0,0,0,1.14.24,3.56,3.56,0,0,0,1-.11,1.87,1.87,0,0,0,.68-.32,1.67,1.67,0,0,0,.43-.49,2.67,2.67,0,0,0,.24-.62Zm-.76-2.37a4.67,4.67,0,0,0-.14-1.16,2.5,2.5,0,0,0-.42-.9,1.85,1.85,0,0,0-.75-.6,2.68,2.68,0,0,0-1.11-.21,2.38,2.38,0,0,0-1.8.71,3.52,3.52,0,0,0-.81,2.16Z"/><path class="cls-3" d="M160.72,178.13a1.77,1.77,0,0,0,.76,1.27,3.23,3.23,0,0,0,1.71.38,2.37,2.37,0,0,0,1.59-.42,1.36,1.36,0,0,0,.47-1.05,2,2,0,0,0-.06-.5,1.06,1.06,0,0,0-.23-.43,1.36,1.36,0,0,0-.5-.33,3.86,3.86,0,0,0-.83-.23l-.95-.15a8.61,8.61,0,0,1-1.1-.25,2.51,2.51,0,0,1-.82-.4,1.5,1.5,0,0,1-.51-.61,2.08,2.08,0,0,1-.18-.91,1.87,1.87,0,0,1,.23-.92,1.93,1.93,0,0,1,.61-.69,2.89,2.89,0,0,1,.92-.43,4.26,4.26,0,0,1,1.15-.15,4.56,4.56,0,0,1,1.33.16,2.35,2.35,0,0,1,.87.42,2,2,0,0,1,.53.63,3.94,3.94,0,0,1,.29.77l-.8.16a3.37,3.37,0,0,0-.27-.6,1.54,1.54,0,0,0-.4-.44,1.84,1.84,0,0,0-.6-.26,3.79,3.79,0,0,0-.9-.09,4.1,4.1,0,0,0-1,.11,2,2,0,0,0-.65.31,1.15,1.15,0,0,0-.35.45,1.35,1.35,0,0,0-.11.52,1.83,1.83,0,0,0,.06.49.77.77,0,0,0,.24.38,1.52,1.52,0,0,0,.51.29,4.63,4.63,0,0,0,.84.21l1.19.19a3.76,3.76,0,0,1,1.81.73,2,2,0,0,1,.6,1.58,2.11,2.11,0,0,1-.18.86,2,2,0,0,1-.56.7,2.83,2.83,0,0,1-.92.46,4.18,4.18,0,0,1-1.28.17,5.75,5.75,0,0,1-1.29-.13,3.09,3.09,0,0,1-1-.42,2.28,2.28,0,0,1-.71-.74,2.54,2.54,0,0,1-.33-1.09Z"/><path class="cls-3" d="M168.4,173.27h-1.2v-.72h1.2v-2.13h.87v2.13h2.19v.72h-2.19v5a1.84,1.84,0,0,0,.24,1,.89.89,0,0,0,.84.4,3.1,3.1,0,0,0,.66-.06,4,4,0,0,0,.48-.14l.18.71a4.13,4.13,0,0,1-.55.16,3.89,3.89,0,0,1-.85.08,2,2,0,0,1-1-.23,1.38,1.38,0,0,1-.56-.59,2.22,2.22,0,0,1-.24-.85c0-.32,0-.65,0-1Z"/><path class="cls-3" d="M176.72,178.13a1.78,1.78,0,0,0,.77,1.27,3.23,3.23,0,0,0,1.71.38,2.37,2.37,0,0,0,1.59-.42,1.35,1.35,0,0,0,.46-1.05,2,2,0,0,0-.06-.5,1.06,1.06,0,0,0-.23-.43,1.36,1.36,0,0,0-.5-.33,3.86,3.86,0,0,0-.83-.23l-.94-.15a9.2,9.2,0,0,1-1.11-.25,2.61,2.61,0,0,1-.82-.4,1.5,1.5,0,0,1-.51-.61,2.08,2.08,0,0,1-.17-.91,1.87,1.87,0,0,1,.22-.92,2,2,0,0,1,.62-.69,2.79,2.79,0,0,1,.92-.43,4.21,4.21,0,0,1,1.15-.15,4.49,4.49,0,0,1,1.32.16,2.35,2.35,0,0,1,.87.42,2,2,0,0,1,.53.63,3.94,3.94,0,0,1,.29.77l-.79.16a3.36,3.36,0,0,0-.28-.6,1.54,1.54,0,0,0-.4-.44,1.84,1.84,0,0,0-.6-.26,3.79,3.79,0,0,0-.9-.09,4,4,0,0,0-1,.11,2,2,0,0,0-.66.31,1.15,1.15,0,0,0-.35.45,1.34,1.34,0,0,0-.1.52,1.83,1.83,0,0,0,.06.49.77.77,0,0,0,.24.38,1.46,1.46,0,0,0,.5.29,4.77,4.77,0,0,0,.85.21l1.18.19a3.8,3.8,0,0,1,1.82.73,2,2,0,0,1,.6,1.58,2.11,2.11,0,0,1-.19.86,2,2,0,0,1-.56.7,2.73,2.73,0,0,1-.92.46,4.11,4.11,0,0,1-1.27.17,5.84,5.84,0,0,1-1.3-.13,3.09,3.09,0,0,1-1-.42,2.25,2.25,0,0,1-.7-.74,2.54,2.54,0,0,1-.33-1.09Z"/><path class="cls-3" d="M184.4,173.27h-1.2v-.72h1.2v-2.13h.87v2.13h2.19v.72h-2.19v5a1.84,1.84,0,0,0,.24,1,.89.89,0,0,0,.84.4,3.1,3.1,0,0,0,.66-.06,4,4,0,0,0,.48-.14l.18.71a3.77,3.77,0,0,1-1.39.24,2,2,0,0,1-1-.23,1.38,1.38,0,0,1-.56-.59,2.22,2.22,0,0,1-.23-.85c0-.32,0-.65,0-1Z"/><path class="cls-3" d="M193.84,179.18a3.48,3.48,0,0,1-.47.47,3,3,0,0,1-.61.41,3.63,3.63,0,0,1-.76.29,3.73,3.73,0,0,1-.91.1,3,3,0,0,1-2-.58,2.09,2.09,0,0,1-.73-1.74,2.27,2.27,0,0,1,.33-1.28,2.34,2.34,0,0,1,.87-.78,4,4,0,0,1,1.25-.39,11.11,11.11,0,0,1,1.45-.15l1.5-.06v-.24a2.51,2.51,0,0,0-.45-1.66,2,2,0,0,0-1.58-.53,4.22,4.22,0,0,0-.94.09,1.82,1.82,0,0,0-.63.27,1.42,1.42,0,0,0-.41.4,1.85,1.85,0,0,0-.22.52l-.8-.12q.42-1.89,3-1.89a4.19,4.19,0,0,1,1.37.19,2.14,2.14,0,0,1,.89.57,2.18,2.18,0,0,1,.49.9,4.48,4.48,0,0,1,.15,1.22v5.08h-.87Zm0-3-1.42.06a8.89,8.89,0,0,0-1.46.16,3.08,3.08,0,0,0-.94.36,1.4,1.4,0,0,0-.52.57,1.81,1.81,0,0,0-.16.8,1.6,1.6,0,0,0,.4,1.14,1.86,1.86,0,0,0,1.39.42,4.09,4.09,0,0,0,1-.11,1.91,1.91,0,0,0,.8-.37,2.93,2.93,0,0,0,.44-.37,1.64,1.64,0,0,0,.29-.4,1.76,1.76,0,0,0,.16-.49,3.92,3.92,0,0,0,0-.63Z"/><path class="cls-3" d="M197.23,173.27H196v-.72h1.2v-2.13h.87v2.13h2.19v.72H198.1v5a1.84,1.84,0,0,0,.24,1,.89.89,0,0,0,.84.4,3.1,3.1,0,0,0,.66-.06,4,4,0,0,0,.48-.14l.18.71a4.13,4.13,0,0,1-.55.16,3.89,3.89,0,0,1-.85.08,2,2,0,0,1-1-.23,1.47,1.47,0,0,1-.57-.59,2.41,2.41,0,0,1-.23-.85c0-.32,0-.65,0-1Z"/><path class="cls-3" d="M201.73,169.56h1v1.31h-1Zm.06,3h.87v7.72h-.87Z"/><path class="cls-3" d="M208.16,180.51a3.82,3.82,0,0,1-1.52-.28,3,3,0,0,1-1.13-.82,3.67,3.67,0,0,1-.7-1.28,5.2,5.2,0,0,1-.25-1.68,5.38,5.38,0,0,1,.26-1.71,3.89,3.89,0,0,1,.74-1.31,3.21,3.21,0,0,1,1.15-.83,3.84,3.84,0,0,1,1.51-.29,3.88,3.88,0,0,1,1.52.28,3.15,3.15,0,0,1,1.14.82,3.78,3.78,0,0,1,.71,1.28,5.47,5.47,0,0,1,.25,1.67,5.38,5.38,0,0,1-.26,1.71,3.71,3.71,0,0,1-.73,1.31,3,3,0,0,1-1.15.84A3.81,3.81,0,0,1,208.16,180.51Zm0-.75a2.66,2.66,0,0,0,1.25-.26,2.31,2.31,0,0,0,.84-.71,3,3,0,0,0,.48-1.07,5.58,5.58,0,0,0,.15-1.33,5.45,5.45,0,0,0-.15-1.3,3,3,0,0,0-.48-1.06,2.42,2.42,0,0,0-.84-.71,3.11,3.11,0,0,0-2.49,0,2.42,2.42,0,0,0-.84.71,3.2,3.2,0,0,0-.47,1.06,5.47,5.47,0,0,0-.15,1.31,5.56,5.56,0,0,0,.15,1.32,3.16,3.16,0,0,0,.47,1.07,2.31,2.31,0,0,0,.84.71A2.67,2.67,0,0,0,208.19,179.76Z"/><path class="cls-3" d="M213.7,172.55h.87v1.26a4,4,0,0,1,1.34-1.15,3.43,3.43,0,0,1,1.52-.35,2.43,2.43,0,0,1,1.95.73,3.12,3.12,0,0,1,.63,2.09v5.14h-.87v-4.9a2.79,2.79,0,0,0-.43-1.75,1.69,1.69,0,0,0-1.38-.53,3.14,3.14,0,0,0-1,.17,2.63,2.63,0,0,0-.9.55,3.05,3.05,0,0,0-.68.8,2.39,2.39,0,0,0-.22,1.13v4.53h-.87Z"/><path class="cls-3" d="M395.56,132.5H402v.83h-5.52v4.06h5.17v.86h-5.17v5h-.92Z"/><path class="cls-3" d="M403.5,135.49h.87v4.9a3,3,0,0,0,.38,1.75,1.51,1.51,0,0,0,1.31.53,2.56,2.56,0,0,0,.93-.18,3.08,3.08,0,0,0,.89-.54,3.15,3.15,0,0,0,.66-.8,2.39,2.39,0,0,0,.22-1.13v-4.53h.87v7.72h-.87V142a3.54,3.54,0,0,1-2.8,1.5,2.29,2.29,0,0,1-1.9-.72,3.39,3.39,0,0,1-.56-2.1Z"/><path class="cls-3" d="M411.73,135.49h.87v1.27a4.17,4.17,0,0,1,1.22-1.14,2.65,2.65,0,0,1,1.33-.37,2.11,2.11,0,0,1,2.21,1.51,4,4,0,0,1,1.22-1.12,3.13,3.13,0,0,1,1.52-.39,2.42,2.42,0,0,1,1.74.6,2.55,2.55,0,0,1,.63,1.92v5.44h-.87v-5.13a3.92,3.92,0,0,0-.1-1,1.43,1.43,0,0,0-.3-.63,1.09,1.09,0,0,0-.5-.34,2.43,2.43,0,0,0-.7-.09,3,3,0,0,0-.79.12,2.35,2.35,0,0,0-.85.48,2.3,2.3,0,0,0-.59.69,1.8,1.8,0,0,0-.23.94v5h-.87V138.1a2.53,2.53,0,0,0-.39-1.6,1.44,1.44,0,0,0-1.19-.47,2.06,2.06,0,0,0-.85.18,3.66,3.66,0,0,0-.78.54l-.3.28a1.92,1.92,0,0,0-.27.39,2.93,2.93,0,0,0-.21.53,2.84,2.84,0,0,0-.08.69v4.57h-.87Z"/><path class="cls-3" d="M431,141.19a2.62,2.62,0,0,1-1,1.63,3.48,3.48,0,0,1-2.23.63,3.23,3.23,0,0,1-2.58-1.07,4.36,4.36,0,0,1-.92-2.95,5.51,5.51,0,0,1,.26-1.8,3.69,3.69,0,0,1,.73-1.31,3.09,3.09,0,0,1,1.11-.8,3.6,3.6,0,0,1,1.4-.27,3.56,3.56,0,0,1,1.54.29,2.7,2.7,0,0,1,1,.79,3.2,3.2,0,0,1,.58,1.2,5.83,5.83,0,0,1,.18,1.48v.56h-5.94a4.81,4.81,0,0,0,.16,1.23,3,3,0,0,0,.5,1,2.36,2.36,0,0,0,.83.67,2.41,2.41,0,0,0,1.13.25,4,4,0,0,0,1-.11,2,2,0,0,0,.67-.32,1.81,1.81,0,0,0,.43-.49,2.87,2.87,0,0,0,.25-.62Zm-.77-2.37a4.68,4.68,0,0,0-.13-1.16,3.05,3.05,0,0,0-.42-.91,2.07,2.07,0,0,0-.75-.59,2.7,2.7,0,0,0-1.12-.21,2.36,2.36,0,0,0-1.79.71,3.4,3.4,0,0,0-.81,2.16Z"/><path class="cls-3" d="M442.81,140.69a3.39,3.39,0,0,1-1,2,3.14,3.14,0,0,1-2.2.73,3.75,3.75,0,0,1-1.5-.28,2.8,2.8,0,0,1-1.11-.81,3.66,3.66,0,0,1-.69-1.28,5.52,5.52,0,0,1-.24-1.69,5.39,5.39,0,0,1,.25-1.71,3.85,3.85,0,0,1,.72-1.31,3.06,3.06,0,0,1,1.14-.83,3.59,3.59,0,0,1,1.5-.29,3,3,0,0,1,2,.65,3.18,3.18,0,0,1,1,1.84l-.84.21a3.75,3.75,0,0,0-.25-.78,2.12,2.12,0,0,0-.42-.62,1.79,1.79,0,0,0-.64-.4,2.48,2.48,0,0,0-.91-.15,2.6,2.6,0,0,0-1.2.25,2.31,2.31,0,0,0-.82.7,2.87,2.87,0,0,0-.48,1.06,5.58,5.58,0,0,0-.15,1.33,5.67,5.67,0,0,0,.15,1.34,3.1,3.1,0,0,0,.46,1.06,2.25,2.25,0,0,0,.82.71,2.67,2.67,0,0,0,1.21.25,2.14,2.14,0,0,0,1.64-.55,2.82,2.82,0,0,0,.7-1.46Z"/><path class="cls-3" d="M444.55,135.49h.87v4.9a3.13,3.13,0,0,0,.38,1.75,1.52,1.52,0,0,0,1.31.53,2.56,2.56,0,0,0,.93-.18,3.08,3.08,0,0,0,.89-.54,3.15,3.15,0,0,0,.66-.8,2.39,2.39,0,0,0,.22-1.13v-4.53h.87v7.72h-.87V142a3.54,3.54,0,0,1-2.8,1.5,2.27,2.27,0,0,1-1.89-.72,3.33,3.33,0,0,1-.57-2.1Z"/><path class="cls-3" d="M452.78,135.49h.87v1.15a4.28,4.28,0,0,1,1.16-1,3,3,0,0,1,1.53-.36,3.4,3.4,0,0,1,1.48.3,2.94,2.94,0,0,1,1,.85,3.72,3.72,0,0,1,.62,1.28,6.18,6.18,0,0,1,.2,1.59,5.63,5.63,0,0,1-.25,1.76,3.82,3.82,0,0,1-.7,1.31,3,3,0,0,1-1.08.83,3.52,3.52,0,0,1-1.44.28,3.3,3.3,0,0,1-1.35-.28,3,3,0,0,1-1.2-1v4h-.87Zm.84,4.17a5.84,5.84,0,0,0,.06.89,2.34,2.34,0,0,0,.18.68,1.87,1.87,0,0,0,.32.53,2.23,2.23,0,0,0,.48.43,2.33,2.33,0,0,0,.7.39,2.64,2.64,0,0,0,.83.12,2.61,2.61,0,0,0,1-.19,1.92,1.92,0,0,0,.8-.59,2.85,2.85,0,0,0,.53-1.06,5.52,5.52,0,0,0,.2-1.58,4.71,4.71,0,0,0-.22-1.57,2.91,2.91,0,0,0-.56-1,2,2,0,0,0-.78-.54,2.64,2.64,0,0,0-.86-.15,3.12,3.12,0,0,0-.84.1,2.25,2.25,0,0,0-.75.39,2.65,2.65,0,0,0-.81,1,3.36,3.36,0,0,0-.3,1.51Z"/><path class="cls-3" d="M461.53,132.5h.87v4.14a4.25,4.25,0,0,1,1.15-1,3,3,0,0,1,1.53-.36,3.38,3.38,0,0,1,1.47.3,3,3,0,0,1,1.05.85,3.71,3.71,0,0,1,.61,1.28,5.77,5.77,0,0,1,.2,1.59,6,6,0,0,1-.24,1.76,4,4,0,0,1-.7,1.31,3,3,0,0,1-1.09.83,3.44,3.44,0,0,1-1.43.28,3.38,3.38,0,0,1-1.36-.28,3.09,3.09,0,0,1-1.19-1v1.05h-.87Zm.84,7.16a7.66,7.66,0,0,0,.05.89,3.21,3.21,0,0,0,.18.68,2.14,2.14,0,0,0,.32.53,2.23,2.23,0,0,0,.48.43,2.38,2.38,0,0,0,.71.39,2.57,2.57,0,0,0,.82.12,2.61,2.61,0,0,0,1-.19,2,2,0,0,0,.81-.59,3,3,0,0,0,.53-1.06,5.55,5.55,0,0,0,.19-1.58,5,5,0,0,0-.21-1.57,3.09,3.09,0,0,0-.57-1,2,2,0,0,0-.78-.54,2.58,2.58,0,0,0-.85-.15,3.12,3.12,0,0,0-.84.1,2.25,2.25,0,0,0-.75.39,2.78,2.78,0,0,0-.82,1,3.5,3.5,0,0,0-.29,1.51Z"/><path class="cls-3" d="M473.63,143.45a3.85,3.85,0,0,1-1.52-.28,3.07,3.07,0,0,1-1.12-.82,3.78,3.78,0,0,1-.71-1.28,5.49,5.49,0,0,1-.25-1.68,5.11,5.11,0,0,1,.27-1.71,3.87,3.87,0,0,1,.73-1.31,3.17,3.17,0,0,1,1.15-.83,3.67,3.67,0,0,1,1.51-.29,3.88,3.88,0,0,1,1.52.28,3,3,0,0,1,1.14.82,3.54,3.54,0,0,1,.71,1.28,5.18,5.18,0,0,1,.25,1.67,5.38,5.38,0,0,1-.26,1.71,4,4,0,0,1-.72,1.31,3.27,3.27,0,0,1-1.16.84A4,4,0,0,1,473.63,143.45Zm0-.75a2.78,2.78,0,0,0,1.25-.26,2.42,2.42,0,0,0,.84-.71,3,3,0,0,0,.48-1.07,5.58,5.58,0,0,0,.15-1.33,5.39,5.39,0,0,0-.15-1.3,2.94,2.94,0,0,0-.48-1.06,2.31,2.31,0,0,0-.84-.71,2.66,2.66,0,0,0-1.25-.26,2.6,2.6,0,0,0-1.23.26,2.16,2.16,0,0,0-.84.71,2.94,2.94,0,0,0-.48,1.06,5.41,5.41,0,0,0-.15,1.31,5.56,5.56,0,0,0,.15,1.32,3,3,0,0,0,.48,1.07,2.25,2.25,0,0,0,.84.71A2.72,2.72,0,0,0,473.66,142.7Z"/><path class="cls-3" d="M484.09,142.12a4.17,4.17,0,0,1-.47.47,3.41,3.41,0,0,1-1.37.7,3.68,3.68,0,0,1-.91.1,3,3,0,0,1-1.95-.58,2.09,2.09,0,0,1-.73-1.74,2.14,2.14,0,0,1,1.21-2.06,4.2,4.2,0,0,1,1.24-.4,13.44,13.44,0,0,1,1.45-.14l1.5-.06v-.24a2.58,2.58,0,0,0-.44-1.66A2,2,0,0,0,482,136a4.06,4.06,0,0,0-.93.09,2,2,0,0,0-.64.26,1.45,1.45,0,0,0-.41.41,1.73,1.73,0,0,0-.22.52l-.8-.12q.42-1.89,3-1.89a4.19,4.19,0,0,1,1.37.19,2.16,2.16,0,0,1,.89.56,2.19,2.19,0,0,1,.49.9,4.6,4.6,0,0,1,.15,1.23v5.08h-.87Zm0-3-1.42.06a7.91,7.91,0,0,0-1.46.16,2.64,2.64,0,0,0-.94.36,1.35,1.35,0,0,0-.52.57,1.93,1.93,0,0,0-.16.8,1.61,1.61,0,0,0,.4,1.13,1.84,1.84,0,0,0,1.39.43,4.6,4.6,0,0,0,1-.11,2,2,0,0,0,.8-.37,3.71,3.71,0,0,0,.45-.37,1.8,1.8,0,0,0,.28-.4,1.57,1.57,0,0,0,.16-.49,3.92,3.92,0,0,0,0-.63Z"/><path class="cls-3" d="M487,135.49h.87v1.26a3.56,3.56,0,0,1,1.07-1,2.42,2.42,0,0,1,1.27-.36h.31l.31,0-.11.83a3,3,0,0,0-.49-.05,2.54,2.54,0,0,0-.8.14,2.19,2.19,0,0,0-.76.49,2.44,2.44,0,0,0-.57.73,2.12,2.12,0,0,0-.23,1v4.65H487Z"/><path class="cls-3" d="M497.39,142.06a3.89,3.89,0,0,1-1.13,1,3,3,0,0,1-1.55.37,3.14,3.14,0,0,1-1.48-.33,3,3,0,0,1-1-.88,3.83,3.83,0,0,1-.6-1.29,5.81,5.81,0,0,1-.19-1.52,4.68,4.68,0,0,1,.92-3.08,3.12,3.12,0,0,1,2.54-1.1,3.39,3.39,0,0,1,1.29.27,3,3,0,0,1,1.23,1v-4h.87v10.71h-.87Zm.05-3a6,6,0,0,0-.06-.91,3,3,0,0,0-.18-.67,1.82,1.82,0,0,0-.32-.52,4.06,4.06,0,0,0-.48-.43,2.51,2.51,0,0,0-.71-.39,2.45,2.45,0,0,0-.8-.12,2.8,2.8,0,0,0-1,.18,2,2,0,0,0-.8.6,2.89,2.89,0,0,0-.54,1.05,5.48,5.48,0,0,0-.19,1.57,4.77,4.77,0,0,0,.22,1.58,2.74,2.74,0,0,0,.56,1,1.87,1.87,0,0,0,.77.54,2.38,2.38,0,0,0,.86.16,3.12,3.12,0,0,0,.84-.1,2.46,2.46,0,0,0,.75-.39,2.61,2.61,0,0,0,.81-1,3.49,3.49,0,0,0,.29-1.5Z"/></svg>