<svg id="Layer_1" data-name="Layer 1" xmlns="http://www.w3.org/2000/svg" width="200" height="200" viewBox="0 0 200 200"><defs><style>.cls-1{fill:#3a3531;}.cls-2{fill:#66605d;}.cls-3{fill:#938e8c;}.cls-4{fill:#d9d9d9;}.cls-5{fill:#e6e6e6;}</style></defs><title>calendar_blank_page</title><rect class="cls-1" x="10.15" y="52.69" width="179.71" height="142.31"/><rect class="cls-2" x="10.15" y="13.67" width="179.71" height="39.02"/><rect class="cls-3" x="29.83" y="34.33" width="140.34" height="7.31"/><path class="cls-4" d="M23.15,23.78H21.93a1.6,1.6,0,0,1-1.6-1.59V9.54A1.6,1.6,0,0,1,21.93,8h1.22a1.6,1.6,0,0,1,1.6,1.59V22.19a1.6,1.6,0,0,1-1.6,1.59"/><path class="cls-4" d="M31.4,23.78H30.17a1.6,1.6,0,0,1-1.6-1.59V9.54A1.6,1.6,0,0,1,30.17,8H31.4A1.6,1.6,0,0,1,33,9.54V22.19a1.6,1.6,0,0,1-1.6,1.59"/><path class="cls-4" d="M47.6,23.78H46.37a1.6,1.6,0,0,1-1.6-1.59V9.54A1.6,1.6,0,0,1,46.37,8H47.6a1.6,1.6,0,0,1,1.6,1.59V22.19a1.6,1.6,0,0,1-1.6,1.59"/><path class="cls-4" d="M55.85,23.78H54.62A1.6,1.6,0,0,1,53,22.19V9.54A1.6,1.6,0,0,1,54.62,8h1.23a1.6,1.6,0,0,1,1.59,1.59V22.19a1.6,1.6,0,0,1-1.59,1.59"/><path class="cls-4" d="M72.05,23.78H70.82a1.6,1.6,0,0,1-1.6-1.59V9.54A1.6,1.6,0,0,1,70.82,8h1.23a1.6,1.6,0,0,1,1.59,1.59V22.19a1.6,1.6,0,0,1-1.59,1.59"/><path class="cls-4" d="M80.29,23.78H79.06a1.6,1.6,0,0,1-1.59-1.59V9.54A1.6,1.6,0,0,1,79.06,8h1.23a1.6,1.6,0,0,1,1.6,1.59V22.19a1.6,1.6,0,0,1-1.6,1.59"/><path class="cls-4" d="M96.49,23.78H95.26a1.6,1.6,0,0,1-1.59-1.59V9.54A1.6,1.6,0,0,1,95.26,8h1.23a1.6,1.6,0,0,1,1.6,1.59V22.19a1.6,1.6,0,0,1-1.6,1.59"/><path class="cls-4" d="M104.74,23.78h-1.23a1.6,1.6,0,0,1-1.6-1.59V9.54A1.6,1.6,0,0,1,103.51,8h1.23a1.6,1.6,0,0,1,1.6,1.59V22.19a1.6,1.6,0,0,1-1.6,1.59"/><path class="cls-4" d="M120.94,23.78h-1.23a1.6,1.6,0,0,1-1.6-1.59V9.54A1.6,1.6,0,0,1,119.71,8h1.23a1.6,1.6,0,0,1,1.6,1.59V22.19a1.6,1.6,0,0,1-1.6,1.59"/><path class="cls-4" d="M129.18,23.78H128a1.6,1.6,0,0,1-1.6-1.59V9.54A1.6,1.6,0,0,1,128,8h1.22a1.6,1.6,0,0,1,1.6,1.59V22.19a1.6,1.6,0,0,1-1.6,1.59"/><path class="cls-4" d="M145.39,23.78h-1.23a1.6,1.6,0,0,1-1.6-1.59V9.54A1.6,1.6,0,0,1,144.16,8h1.23A1.6,1.6,0,0,1,147,9.54V22.19a1.6,1.6,0,0,1-1.59,1.59"/><path class="cls-4" d="M153.63,23.78H152.4a1.59,1.59,0,0,1-1.59-1.59V9.54A1.59,1.59,0,0,1,152.4,8h1.23a1.6,1.6,0,0,1,1.6,1.59V22.19a1.6,1.6,0,0,1-1.6,1.59"/><path class="cls-4" d="M169.83,23.78H168.6A1.6,1.6,0,0,1,167,22.19V9.54A1.6,1.6,0,0,1,168.6,8h1.23a1.6,1.6,0,0,1,1.6,1.59V22.19a1.6,1.6,0,0,1-1.6,1.59"/><path class="cls-4" d="M178.08,23.78h-1.23a1.6,1.6,0,0,1-1.6-1.59V9.54A1.6,1.6,0,0,1,176.85,8h1.23a1.59,1.59,0,0,1,1.59,1.59V22.19a1.59,1.59,0,0,1-1.59,1.59"/><path class="cls-5" d="M23.15,20.83H21.93a1.6,1.6,0,0,1-1.6-1.59V6.59A1.6,1.6,0,0,1,21.93,5h1.22a1.6,1.6,0,0,1,1.6,1.59V19.24a1.6,1.6,0,0,1-1.6,1.59"/><path class="cls-5" d="M31.4,20.83H30.17a1.6,1.6,0,0,1-1.6-1.59V6.59A1.6,1.6,0,0,1,30.17,5H31.4A1.6,1.6,0,0,1,33,6.59V19.24a1.6,1.6,0,0,1-1.6,1.59"/><path class="cls-5" d="M47.6,20.83H46.37a1.6,1.6,0,0,1-1.6-1.59V6.59A1.6,1.6,0,0,1,46.37,5H47.6a1.6,1.6,0,0,1,1.6,1.59V19.24a1.6,1.6,0,0,1-1.6,1.59"/><path class="cls-5" d="M55.85,20.83H54.62A1.6,1.6,0,0,1,53,19.24V6.59A1.6,1.6,0,0,1,54.62,5h1.23a1.6,1.6,0,0,1,1.59,1.59V19.24a1.59,1.59,0,0,1-1.59,1.59"/><path class="cls-5" d="M72.05,20.83H70.82a1.6,1.6,0,0,1-1.6-1.59V6.59A1.6,1.6,0,0,1,70.82,5h1.23a1.6,1.6,0,0,1,1.59,1.59V19.24a1.59,1.59,0,0,1-1.59,1.59"/><path class="cls-5" d="M80.29,20.83H79.06a1.59,1.59,0,0,1-1.59-1.59V6.59A1.6,1.6,0,0,1,79.06,5h1.23a1.6,1.6,0,0,1,1.6,1.59V19.24a1.6,1.6,0,0,1-1.6,1.59"/><path class="cls-5" d="M96.49,20.83H95.26a1.59,1.59,0,0,1-1.59-1.59V6.59A1.6,1.6,0,0,1,95.26,5h1.23a1.6,1.6,0,0,1,1.6,1.59V19.24a1.6,1.6,0,0,1-1.6,1.59"/><path class="cls-5" d="M104.74,20.83h-1.23a1.6,1.6,0,0,1-1.6-1.59V6.59A1.6,1.6,0,0,1,103.51,5h1.23a1.6,1.6,0,0,1,1.6,1.59V19.24a1.6,1.6,0,0,1-1.6,1.59"/><path class="cls-5" d="M120.94,20.83h-1.23a1.6,1.6,0,0,1-1.6-1.59V6.59A1.6,1.6,0,0,1,119.71,5h1.23a1.6,1.6,0,0,1,1.6,1.59V19.24a1.6,1.6,0,0,1-1.6,1.59"/><path class="cls-5" d="M129.18,20.83H128a1.6,1.6,0,0,1-1.6-1.59V6.59A1.6,1.6,0,0,1,128,5h1.22a1.6,1.6,0,0,1,1.6,1.59V19.24a1.6,1.6,0,0,1-1.6,1.59"/><path class="cls-5" d="M145.39,20.83h-1.23a1.6,1.6,0,0,1-1.6-1.59V6.59A1.6,1.6,0,0,1,144.16,5h1.23A1.6,1.6,0,0,1,147,6.59V19.24a1.59,1.59,0,0,1-1.59,1.59"/><path class="cls-5" d="M153.63,20.83H152.4a1.59,1.59,0,0,1-1.59-1.59V6.59A1.59,1.59,0,0,1,152.4,5h1.23a1.6,1.6,0,0,1,1.6,1.59V19.24a1.6,1.6,0,0,1-1.6,1.59"/><path class="cls-5" d="M169.83,20.83H168.6A1.59,1.59,0,0,1,167,19.24V6.59A1.6,1.6,0,0,1,168.6,5h1.23a1.6,1.6,0,0,1,1.6,1.59V19.24a1.6,1.6,0,0,1-1.6,1.59"/><path class="cls-5" d="M178.08,20.83h-1.23a1.6,1.6,0,0,1-1.6-1.59V6.59A1.6,1.6,0,0,1,176.85,5h1.23a1.59,1.59,0,0,1,1.59,1.59V19.24a1.59,1.59,0,0,1-1.59,1.59"/></svg>