<svg id="text" xmlns="http://www.w3.org/2000/svg" width="800" height="550" viewBox="0 0 800 550"><defs><style>.cls-1{fill:#3a3531;}.cls-2{fill:none;stroke:#fbbb21;stroke-width:0.5px;}.cls-3{fill:#fbbb21;}</style></defs><title>mission_support_shadow</title><path class="cls-1" d="M340.21,117.73a5,5,0,0,1-.41,1.47,3.61,3.61,0,0,1-.83,1.17,3.82,3.82,0,0,1-1.28.78,5.38,5.38,0,0,1-3.65-.08,3.91,3.91,0,0,1-1.48-1.07,4.94,4.94,0,0,1-1-1.75,7.69,7.69,0,0,1-.35-2.41,7.31,7.31,0,0,1,.38-2.44,5.43,5.43,0,0,1,1-1.77,4.39,4.39,0,0,1,1.49-1.08,4.53,4.53,0,0,1,1.8-.37,4.94,4.94,0,0,1,1.68.26,3.57,3.57,0,0,1,1.2.71,3.74,3.74,0,0,1,.78,1.09,7,7,0,0,1,.48,1.36l-.87.2a6.14,6.14,0,0,0-.41-1.19,2.71,2.71,0,0,0-.63-.88,2.58,2.58,0,0,0-.92-.56,3.9,3.9,0,0,0-1.31-.19,3.33,3.33,0,0,0-1.57.36,3.4,3.4,0,0,0-1.17,1,4.74,4.74,0,0,0-.74,1.53,7,7,0,0,0-.25,1.94,6.91,6.91,0,0,0,.25,1.94,4.46,4.46,0,0,0,.72,1.52,3.13,3.13,0,0,0,1.17,1,3.51,3.51,0,0,0,1.62.35,4.48,4.48,0,0,0,1.47-.21,2.64,2.64,0,0,0,1-.61,2.71,2.71,0,0,0,.6-.92,5.27,5.27,0,0,0,.32-1.15Z"/><path class="cls-1" d="M345.45,121.4a3.82,3.82,0,0,1-1.52-.28,3,3,0,0,1-1.13-.82,3.67,3.67,0,0,1-.7-1.28,5.2,5.2,0,0,1-.25-1.68,5.38,5.38,0,0,1,.26-1.71,3.89,3.89,0,0,1,.74-1.31,3.17,3.17,0,0,1,1.14-.83,3.89,3.89,0,0,1,1.52-.29,3.83,3.83,0,0,1,1.51.28,3.15,3.15,0,0,1,1.14.82,3.8,3.8,0,0,1,.72,1.28,5.48,5.48,0,0,1,.24,1.67,5.39,5.39,0,0,1-.25,1.71,3.71,3.71,0,0,1-.73,1.31,3,3,0,0,1-1.15.84A3.81,3.81,0,0,1,345.45,121.4Zm0-.75a2.61,2.61,0,0,0,1.24-.26,2.31,2.31,0,0,0,.84-.71,3,3,0,0,0,.48-1.07,5.58,5.58,0,0,0,.15-1.33A5.45,5.45,0,0,0,348,116a3,3,0,0,0-.48-1.06,2.42,2.42,0,0,0-.84-.71,2.74,2.74,0,0,0-1.24-.26,2.8,2.8,0,0,0-1.24.26,2.42,2.42,0,0,0-.84.71,3.2,3.2,0,0,0-.47,1.06,5.47,5.47,0,0,0-.15,1.31,5.56,5.56,0,0,0,.15,1.32,3.16,3.16,0,0,0,.47,1.07,2.31,2.31,0,0,0,.84.71A2.67,2.67,0,0,0,345.48,120.65Z"/><path class="cls-1" d="M351,113.44h.87v1.27a4.08,4.08,0,0,1,1.23-1.14,2.59,2.59,0,0,1,1.32-.37,2.28,2.28,0,0,1,1.42.4,2.24,2.24,0,0,1,.79,1.11,3.8,3.8,0,0,1,1.23-1.11,3,3,0,0,1,1.51-.4,2.42,2.42,0,0,1,1.74.6,2.55,2.55,0,0,1,.63,1.92v5.44h-.87V116a4.52,4.52,0,0,0-.09-1,1.68,1.68,0,0,0-.3-.63,1.08,1.08,0,0,0-.51-.33,2.11,2.11,0,0,0-.7-.1,2.76,2.76,0,0,0-.79.13,2.25,2.25,0,0,0-.85.47,2.46,2.46,0,0,0-.59.69,1.8,1.8,0,0,0-.23.94v5h-.87v-5.11a2.55,2.55,0,0,0-.39-1.6,1.47,1.47,0,0,0-1.19-.47,1.85,1.85,0,0,0-.84.19,3.13,3.13,0,0,0-.79.53,3.69,3.69,0,0,0-.29.28,1.62,1.62,0,0,0-.28.39,2.34,2.34,0,0,0-.2.53,2.4,2.4,0,0,0-.09.69v4.57H351Z"/><path class="cls-1" d="M363.78,113.44h.87v1.15a4,4,0,0,1,1.15-1,2.94,2.94,0,0,1,1.53-.37,3.23,3.23,0,0,1,1.48.31,2.84,2.84,0,0,1,1,.84,3.71,3.71,0,0,1,.61,1.28,5.77,5.77,0,0,1,.2,1.59,5.9,5.9,0,0,1-.24,1.76,3.9,3.9,0,0,1-.7,1.31,3,3,0,0,1-1.09.83,3.44,3.44,0,0,1-1.43.28,3.35,3.35,0,0,1-1.36-.28,3.09,3.09,0,0,1-1.19-1v4h-.87Zm.84,4.17a7.53,7.53,0,0,0,.05.89,3.06,3.06,0,0,0,.18.68,2.41,2.41,0,0,0,.32.54,2.49,2.49,0,0,0,.48.42,2.38,2.38,0,0,0,.71.39,2.57,2.57,0,0,0,.82.12,2.8,2.8,0,0,0,1-.18,2.14,2.14,0,0,0,.81-.6,3,3,0,0,0,.53-1.05,5.68,5.68,0,0,0,.19-1.59,5,5,0,0,0-.21-1.57,2.94,2.94,0,0,0-.57-1,1.84,1.84,0,0,0-.78-.54,2.37,2.37,0,0,0-.85-.16,3.12,3.12,0,0,0-.84.1,2.25,2.25,0,0,0-.75.39,2.73,2.73,0,0,0-.82,1,3.42,3.42,0,0,0-.29,1.5Z"/><path class="cls-1" d="M372.49,113.44h.87v4.9a3,3,0,0,0,.39,1.75,1.48,1.48,0,0,0,1.31.53,2.56,2.56,0,0,0,.93-.18,3,3,0,0,0,.88-.54,3,3,0,0,0,.66-.8,2.35,2.35,0,0,0,.23-1.13v-4.53h.87v7.72h-.87V119.9a3.56,3.56,0,0,1-2.81,1.5,2.27,2.27,0,0,1-1.89-.72,3.33,3.33,0,0,1-.57-2.1Z"/><path class="cls-1" d="M381.16,114.16H380v-.72h1.2v-2.13H382v2.13h2.19v.72H382v5a1.84,1.84,0,0,0,.24,1,.89.89,0,0,0,.84.4,3.1,3.1,0,0,0,.66-.06,4,4,0,0,0,.48-.14l.18.71a4,4,0,0,1-.54.16,3.89,3.89,0,0,1-.85.08,2,2,0,0,1-1-.23,1.38,1.38,0,0,1-.56-.59,2.22,2.22,0,0,1-.23-.85c0-.32,0-.65,0-1Z"/><path class="cls-1" d="M392.13,119.14a2.62,2.62,0,0,1-1,1.63,3.45,3.45,0,0,1-2.22.63,3.22,3.22,0,0,1-2.59-1.07,4.4,4.4,0,0,1-.92-3,5.51,5.51,0,0,1,.26-1.8,3.79,3.79,0,0,1,.74-1.31,3,3,0,0,1,1.11-.8,3.53,3.53,0,0,1,1.4-.27,3.7,3.7,0,0,1,1.53.29,2.84,2.84,0,0,1,1,.8,3.21,3.21,0,0,1,.57,1.19,5.83,5.83,0,0,1,.18,1.48v.56h-5.94a4.53,4.53,0,0,0,.17,1.24,2.92,2.92,0,0,0,.49,1,2.39,2.39,0,0,0,.83.68,2.58,2.58,0,0,0,1.14.24,3.56,3.56,0,0,0,1-.11,1.82,1.82,0,0,0,.67-.32,1.54,1.54,0,0,0,.43-.49,2.3,2.3,0,0,0,.25-.62Zm-.77-2.37a4.68,4.68,0,0,0-.13-1.16,2.5,2.5,0,0,0-.42-.9,1.85,1.85,0,0,0-.75-.6,2.68,2.68,0,0,0-1.11-.21,2.38,2.38,0,0,0-1.8.71,3.52,3.52,0,0,0-.81,2.16Z"/><path class="cls-1" d="M394.08,113.44H395v1.26a3.53,3.53,0,0,1,1.06-1,2.46,2.46,0,0,1,1.28-.36h.31l.3,0-.1.83a3.13,3.13,0,0,0-.5,0,2.25,2.25,0,0,0-.79.15,2.06,2.06,0,0,0-.77.48,2.57,2.57,0,0,0-.57.73,2.15,2.15,0,0,0-.22,1v4.65h-.87Z"/><path class="cls-1" d="M402.94,119a1.78,1.78,0,0,0,.77,1.27,3.23,3.23,0,0,0,1.71.38,2.37,2.37,0,0,0,1.59-.42,1.35,1.35,0,0,0,.46-1,2,2,0,0,0-.06-.5,1.06,1.06,0,0,0-.23-.43,1.4,1.4,0,0,0-.49-.33,4.15,4.15,0,0,0-.84-.23l-.94-.15a9.2,9.2,0,0,1-1.11-.25,2.61,2.61,0,0,1-.82-.4,1.58,1.58,0,0,1-.51-.61,2.24,2.24,0,0,1-.17-.91,1.87,1.87,0,0,1,.22-.92,2,2,0,0,1,.62-.69,2.79,2.79,0,0,1,.92-.43,4.21,4.21,0,0,1,1.15-.15,4.49,4.49,0,0,1,1.32.16,2.35,2.35,0,0,1,.87.42,2,2,0,0,1,.53.63,3.94,3.94,0,0,1,.29.77l-.79.16a2.78,2.78,0,0,0-.28-.6,1.54,1.54,0,0,0-.4-.44,1.84,1.84,0,0,0-.6-.26,3.79,3.79,0,0,0-.9-.09,4,4,0,0,0-1,.11,1.87,1.87,0,0,0-.65.31,1.09,1.09,0,0,0-.36.45,1.34,1.34,0,0,0-.1.52,1.83,1.83,0,0,0,.06.49.77.77,0,0,0,.24.38,1.46,1.46,0,0,0,.5.29,4.77,4.77,0,0,0,.85.21l1.18.19a3.8,3.8,0,0,1,1.82.73,2,2,0,0,1,.6,1.58,2.11,2.11,0,0,1-.19.86,2,2,0,0,1-.56.7,2.73,2.73,0,0,1-.92.46,4.11,4.11,0,0,1-1.27.17,5.84,5.84,0,0,1-1.3-.13,3.09,3.09,0,0,1-1-.42,2.25,2.25,0,0,1-.7-.74,2.54,2.54,0,0,1-.33-1.09Z"/><path class="cls-1" d="M416.64,119.14a2.62,2.62,0,0,1-1,1.63,3.45,3.45,0,0,1-2.22.63,3.21,3.21,0,0,1-2.59-1.07,4.4,4.4,0,0,1-.92-3,5.51,5.51,0,0,1,.26-1.8,3.78,3.78,0,0,1,.73-1.31,3.21,3.21,0,0,1,1.11-.8,3.62,3.62,0,0,1,1.41-.27,3.7,3.7,0,0,1,1.53.29,2.84,2.84,0,0,1,1,.8,3.21,3.21,0,0,1,.57,1.19,5.83,5.83,0,0,1,.18,1.48v.56h-5.94a4.53,4.53,0,0,0,.17,1.24,2.92,2.92,0,0,0,.49,1,2.39,2.39,0,0,0,.83.68,2.58,2.58,0,0,0,1.14.24,3.56,3.56,0,0,0,1-.11,1.82,1.82,0,0,0,.67-.32,1.67,1.67,0,0,0,.43-.49,2.68,2.68,0,0,0,.25-.62Zm-.77-2.37a4.68,4.68,0,0,0-.13-1.16,2.5,2.5,0,0,0-.42-.9,1.85,1.85,0,0,0-.75-.6,2.68,2.68,0,0,0-1.11-.21,2.38,2.38,0,0,0-1.8.71,3.52,3.52,0,0,0-.81,2.16Z"/><path class="cls-1" d="M418.59,113.44h.87v1.26a3.53,3.53,0,0,1,1.06-1,2.46,2.46,0,0,1,1.28-.36h.31l.3,0-.1.83a3.13,3.13,0,0,0-.5,0,2.25,2.25,0,0,0-.79.15,2.06,2.06,0,0,0-.77.48,2.57,2.57,0,0,0-.57.73,2.15,2.15,0,0,0-.22,1v4.65h-.87Z"/><path class="cls-1" d="M422.68,113.44h1l2.62,6.78,2.69-6.78h.94l-3.12,7.72h-1Z"/><path class="cls-1" d="M437.53,119.14a2.62,2.62,0,0,1-1,1.63,3.45,3.45,0,0,1-2.22.63,3.22,3.22,0,0,1-2.59-1.07,4.4,4.4,0,0,1-.92-3,5.79,5.79,0,0,1,.26-1.8,3.79,3.79,0,0,1,.74-1.31,3,3,0,0,1,1.11-.8,3.53,3.53,0,0,1,1.4-.27,3.7,3.7,0,0,1,1.53.29,2.84,2.84,0,0,1,1,.8,3.23,3.23,0,0,1,.58,1.19,5.83,5.83,0,0,1,.18,1.48v.56h-5.94a4.53,4.53,0,0,0,.16,1.24,2.94,2.94,0,0,0,.5,1,2.36,2.36,0,0,0,.82.68,2.58,2.58,0,0,0,1.14.24,3.56,3.56,0,0,0,1-.11,1.87,1.87,0,0,0,.68-.32,1.51,1.51,0,0,0,.42-.49,2.3,2.3,0,0,0,.25-.62Zm-.76-2.37a4.67,4.67,0,0,0-.14-1.16,2.5,2.5,0,0,0-.42-.9,1.85,1.85,0,0,0-.75-.6,2.68,2.68,0,0,0-1.11-.21,2.38,2.38,0,0,0-1.8.71,3.52,3.52,0,0,0-.81,2.16Z"/><path class="cls-1" d="M439.48,113.44h.87v1.26a3.56,3.56,0,0,1,1.07-1,2.42,2.42,0,0,1,1.27-.36H443l.31,0-.11.83a3,3,0,0,0-.49,0,2.31,2.31,0,0,0-.8.15,2,2,0,0,0-.76.48,2.57,2.57,0,0,0-.57.73,2.15,2.15,0,0,0-.23,1v4.65h-.87Z"/><path class="cls-1" d="M447.93,110.45h.87v10.71h-.87Z"/><path class="cls-1" d="M454.3,121.4a3.82,3.82,0,0,1-1.52-.28,3,3,0,0,1-1.13-.82A3.67,3.67,0,0,1,451,119a5.2,5.2,0,0,1-.25-1.68,5.38,5.38,0,0,1,.26-1.71,3.89,3.89,0,0,1,.74-1.31,3.21,3.21,0,0,1,1.15-.83,3.84,3.84,0,0,1,1.51-.29,3.88,3.88,0,0,1,1.52.28,3.15,3.15,0,0,1,1.14.82,3.78,3.78,0,0,1,.71,1.28,5.47,5.47,0,0,1,.25,1.67,5.38,5.38,0,0,1-.26,1.71,3.71,3.71,0,0,1-.73,1.31,3,3,0,0,1-1.15.84A3.81,3.81,0,0,1,454.3,121.4Zm0-.75a2.66,2.66,0,0,0,1.25-.26,2.31,2.31,0,0,0,.84-.71,3,3,0,0,0,.48-1.07,5.58,5.58,0,0,0,.15-1.33,5.45,5.45,0,0,0-.15-1.3,3,3,0,0,0-.48-1.06,2.42,2.42,0,0,0-.84-.71,3.11,3.11,0,0,0-2.49,0,2.42,2.42,0,0,0-.84.71,3.2,3.2,0,0,0-.47,1.06,5.47,5.47,0,0,0-.15,1.31,5.56,5.56,0,0,0,.15,1.32,3.16,3.16,0,0,0,.47,1.07,2.31,2.31,0,0,0,.84.71A2.67,2.67,0,0,0,454.33,120.65Z"/><path class="cls-1" d="M466.38,118.64a3.45,3.45,0,0,1-1,2,3.19,3.19,0,0,1-2.2.72,3.93,3.93,0,0,1-1.5-.27,3,3,0,0,1-1.11-.81,3.8,3.8,0,0,1-.69-1.29,5.52,5.52,0,0,1-.24-1.69,5.39,5.39,0,0,1,.25-1.71,3.85,3.85,0,0,1,.72-1.31,3.22,3.22,0,0,1,1.13-.83,3.84,3.84,0,0,1,1.51-.29,3,3,0,0,1,2,.65,3.16,3.16,0,0,1,1,1.84l-.84.21a3.75,3.75,0,0,0-.25-.78,2.12,2.12,0,0,0-.42-.62,1.88,1.88,0,0,0-.64-.4,2.52,2.52,0,0,0-.91-.15,2.6,2.6,0,0,0-1.2.25,2.41,2.41,0,0,0-.82.7,2.94,2.94,0,0,0-.48,1.06,5.58,5.58,0,0,0-.15,1.33,5.67,5.67,0,0,0,.15,1.34,3.1,3.1,0,0,0,.46,1.06,2.17,2.17,0,0,0,.82.71,2.64,2.64,0,0,0,1.21.25,2.19,2.19,0,0,0,1.64-.54,3,3,0,0,0,.7-1.47Z"/><path class="cls-1" d="M468.15,110.45H469V117l4-3.6h1.08L471.34,116l3.08,5.17h-1.05l-2.7-4.63L469,118v3.15h-.87Z"/><path class="cls-1" d="M482,119.14a2.62,2.62,0,0,1-1,1.63,3.45,3.45,0,0,1-2.22.63,3.22,3.22,0,0,1-2.59-1.07,4.4,4.4,0,0,1-.92-3,5.79,5.79,0,0,1,.26-1.8,3.79,3.79,0,0,1,.74-1.31,3,3,0,0,1,1.11-.8,3.53,3.53,0,0,1,1.4-.27,3.7,3.7,0,0,1,1.53.29,2.84,2.84,0,0,1,1,.8,3.23,3.23,0,0,1,.58,1.19,5.83,5.83,0,0,1,.18,1.48v.56h-5.94a4.53,4.53,0,0,0,.16,1.24,2.94,2.94,0,0,0,.5,1,2.36,2.36,0,0,0,.82.68,2.58,2.58,0,0,0,1.14.24,3.56,3.56,0,0,0,1-.11,1.87,1.87,0,0,0,.68-.32,1.51,1.51,0,0,0,.42-.49,2.3,2.3,0,0,0,.25-.62Zm-.76-2.37a4.67,4.67,0,0,0-.14-1.16,2.5,2.5,0,0,0-.42-.9,1.85,1.85,0,0,0-.75-.6,2.68,2.68,0,0,0-1.11-.21,2.38,2.38,0,0,0-1.8.71,3.52,3.52,0,0,0-.81,2.16Z"/><path class="cls-1" d="M483.94,113.44h.87v1.26a3.56,3.56,0,0,1,1.07-1,2.42,2.42,0,0,1,1.27-.36h.31l.31,0-.11.83a3,3,0,0,0-.49,0,2.31,2.31,0,0,0-.8.15,2,2,0,0,0-.76.48,2.57,2.57,0,0,0-.57.73,2.15,2.15,0,0,0-.23,1v4.65h-.87Z"/><path class="cls-1" d="M541.46,421.89a5.24,5.24,0,0,1-1.92-.35,4.13,4.13,0,0,1-1.54-1.06,5,5,0,0,1-1-1.76,8.16,8.16,0,0,1,0-4.86,4.79,4.79,0,0,1,1-1.77,4.11,4.11,0,0,1,1.53-1.08,4.87,4.87,0,0,1,1.92-.37,5.24,5.24,0,0,1,1.92.35,4.17,4.17,0,0,1,1.53,1.06,5.05,5.05,0,0,1,1,1.75,7.12,7.12,0,0,1,.37,2.42,7.57,7.57,0,0,1-.36,2.45,4.9,4.9,0,0,1-1,1.77,4,4,0,0,1-1.52,1.08A4.93,4.93,0,0,1,541.46,421.89Zm0-.81a3.8,3.8,0,0,0,1.67-.35,3.52,3.52,0,0,0,1.21-1,4.53,4.53,0,0,0,.73-1.53,7.58,7.58,0,0,0,0-3.9,4.49,4.49,0,0,0-.74-1.52,3.35,3.35,0,0,0-1.21-1,3.77,3.77,0,0,0-1.65-.35,3.94,3.94,0,0,0-1.7.35,3.43,3.43,0,0,0-1.21,1,4.46,4.46,0,0,0-.72,1.52,7,7,0,0,0-.25,1.95,7.44,7.44,0,0,0,.24,1.95,4.35,4.35,0,0,0,.73,1.53,3.43,3.43,0,0,0,1.21,1A3.94,3.94,0,0,0,541.46,421.08Z"/><path class="cls-1" d="M548.47,414.61h-1.2v-.72h1.2V413a2.5,2.5,0,0,1,.18-1,2.05,2.05,0,0,1,.47-.69,2,2,0,0,1,.68-.41,2.53,2.53,0,0,1,.83-.13,3.52,3.52,0,0,1,.58,0,3.33,3.33,0,0,1,.56.12l-.18.74a3.13,3.13,0,0,0-.44-.11,3,3,0,0,0-.43,0,1.57,1.57,0,0,0-1,.31,1.34,1.34,0,0,0-.4,1.12v.91h2.06v.72h-2.06v7h-.87Zm4.64,0H551.9v-.72h1.21V413a2.7,2.7,0,0,1,.17-1,1.94,1.94,0,0,1,.48-.69,1.88,1.88,0,0,1,.68-.41,2.49,2.49,0,0,1,.83-.13,3.32,3.32,0,0,1,.57,0,3.13,3.13,0,0,1,.56.12l-.17.74a3.24,3.24,0,0,0-.45-.11,2.77,2.77,0,0,0-.42,0,1.6,1.6,0,0,0-1,.31A1.37,1.37,0,0,0,554,413v.91h2v.72h-2v7h-.87Zm4.18-3.7h1v1.3h-1Zm.06,3h.87v7.73h-.87Z"/><path class="cls-1" d="M566.77,419.1a3.39,3.39,0,0,1-1,2,3.14,3.14,0,0,1-2.2.73,3.75,3.75,0,0,1-1.5-.28,2.8,2.8,0,0,1-1.11-.81,3.66,3.66,0,0,1-.69-1.28,5.58,5.58,0,0,1-.24-1.7,5.39,5.39,0,0,1,.25-1.71,3.81,3.81,0,0,1,.72-1.3,3.06,3.06,0,0,1,1.14-.83,3.6,3.6,0,0,1,1.51-.3,3,3,0,0,1,2,.66,3.15,3.15,0,0,1,1,1.83l-.84.21a3.75,3.75,0,0,0-.25-.78,2.07,2.07,0,0,0-.42-.61,1.81,1.81,0,0,0-.64-.41,2.44,2.44,0,0,0-.91-.15,2.62,2.62,0,0,0-1.2.26,2.31,2.31,0,0,0-.82.7,2.82,2.82,0,0,0-.48,1.05,5.67,5.67,0,0,0-.15,1.34,5.58,5.58,0,0,0,.15,1.33,3.15,3.15,0,0,0,.46,1.07,2.22,2.22,0,0,0,.82.7,2.67,2.67,0,0,0,1.21.26,2.14,2.14,0,0,0,1.64-.55,2.82,2.82,0,0,0,.7-1.46Z"/><path class="cls-1" d="M574.86,419.59a2.7,2.7,0,0,1-1,1.64,3.45,3.45,0,0,1-2.22.63,3.22,3.22,0,0,1-2.58-1.07,4.37,4.37,0,0,1-.93-3,5.5,5.5,0,0,1,.27-1.8,3.69,3.69,0,0,1,.73-1.31,3.12,3.12,0,0,1,1.11-.81,3.91,3.91,0,0,1,2.93,0,2.73,2.73,0,0,1,1,.79,3.15,3.15,0,0,1,.58,1.19,5.91,5.91,0,0,1,.18,1.49V418h-5.94a4.89,4.89,0,0,0,.16,1.24,3,3,0,0,0,.5,1,2.33,2.33,0,0,0,.82.67,2.45,2.45,0,0,0,1.14.25,4,4,0,0,0,1-.11,2,2,0,0,0,.68-.33,1.77,1.77,0,0,0,.43-.48,3.6,3.6,0,0,0,.25-.63Zm-.77-2.37a4.59,4.59,0,0,0-.14-1.15,2.63,2.63,0,0,0-.42-.91,1.92,1.92,0,0,0-.75-.59,2.65,2.65,0,0,0-1.11-.21,2.37,2.37,0,0,0-1.8.7,3.52,3.52,0,0,0-.81,2.16Z"/><path class="cls-1" d="M585.62,420.46a3.89,3.89,0,0,1-1.13,1,3,3,0,0,1-1.55.38,3.14,3.14,0,0,1-1.48-.33,3.05,3.05,0,0,1-1-.89,3.78,3.78,0,0,1-.6-1.28,5.81,5.81,0,0,1-.19-1.52,4.68,4.68,0,0,1,.92-3.08,3.13,3.13,0,0,1,2.54-1.11,3.39,3.39,0,0,1,1.29.27,3,3,0,0,1,1.23,1v-4h.87v10.71h-.87Zm0-3a6,6,0,0,0-.06-.91,3,3,0,0,0-.18-.67,1.82,1.82,0,0,0-.32-.52,4.11,4.11,0,0,0-.48-.44,2.51,2.51,0,0,0-.71-.39,2.45,2.45,0,0,0-.8-.12,2.8,2.8,0,0,0-1,.19,2,2,0,0,0-.8.59,2.89,2.89,0,0,0-.54,1.05,5.55,5.55,0,0,0-.19,1.58,4.77,4.77,0,0,0,.22,1.58,2.74,2.74,0,0,0,.56,1,1.87,1.87,0,0,0,.77.54,2.38,2.38,0,0,0,.86.16,3.11,3.11,0,0,0,.84-.11,2.46,2.46,0,0,0,.75-.39,2.61,2.61,0,0,0,.81-1,3.49,3.49,0,0,0,.29-1.5Z"/><path class="cls-1" d="M594.91,419.59a2.64,2.64,0,0,1-1,1.64,3.45,3.45,0,0,1-2.22.63,3.26,3.26,0,0,1-2.59-1.07,4.41,4.41,0,0,1-.92-3,5.79,5.79,0,0,1,.26-1.8,3.7,3.7,0,0,1,.74-1.31,3,3,0,0,1,1.11-.81,3.91,3.91,0,0,1,2.93,0,2.81,2.81,0,0,1,1,.79,3.29,3.29,0,0,1,.57,1.19,5.91,5.91,0,0,1,.18,1.49V418H589.1a4.48,4.48,0,0,0,.17,1.24,3,3,0,0,0,.49,1,2.36,2.36,0,0,0,.83.67,2.45,2.45,0,0,0,1.14.25,4,4,0,0,0,1-.11,2,2,0,0,0,.67-.33,1.62,1.62,0,0,0,.43-.48,2.51,2.51,0,0,0,.25-.63Zm-.77-2.37a4.6,4.6,0,0,0-.13-1.15,2.63,2.63,0,0,0-.42-.91,1.92,1.92,0,0,0-.75-.59,2.68,2.68,0,0,0-1.11-.21,2.37,2.37,0,0,0-1.8.7,3.52,3.52,0,0,0-.81,2.16Z"/><path class="cls-1" d="M597.19,419.47a1.8,1.8,0,0,0,.76,1.28,3.24,3.24,0,0,0,1.71.37,2.37,2.37,0,0,0,1.59-.42,1.36,1.36,0,0,0,.47-1.05,2,2,0,0,0-.06-.5,1.13,1.13,0,0,0-.23-.43,1.36,1.36,0,0,0-.5-.33,3.91,3.91,0,0,0-.83-.22l-1-.15a8.94,8.94,0,0,1-1.1-.26,2.84,2.84,0,0,1-.82-.39,1.52,1.52,0,0,1-.51-.62,2,2,0,0,1-.18-.91,1.9,1.9,0,0,1,.23-.92,2.11,2.11,0,0,1,.61-.69,3.07,3.07,0,0,1,.93-.43,4.14,4.14,0,0,1,1.14-.15,4.93,4.93,0,0,1,1.33.16,2.53,2.53,0,0,1,.87.43,2,2,0,0,1,.53.63,3.85,3.85,0,0,1,.29.76l-.8.17a3.85,3.85,0,0,0-.27-.61,1.5,1.5,0,0,0-.4-.43,1.66,1.66,0,0,0-.6-.27,3.79,3.79,0,0,0-.9-.09,3.63,3.63,0,0,0-1,.12,1.78,1.78,0,0,0-.65.3,1.15,1.15,0,0,0-.35.45,1.4,1.4,0,0,0-.11.53,1.88,1.88,0,0,0,.06.49.82.82,0,0,0,.24.38,1.52,1.52,0,0,0,.51.28,4.63,4.63,0,0,0,.84.21l1.19.2a3.67,3.67,0,0,1,1.81.73,2,2,0,0,1,.6,1.58,2.06,2.06,0,0,1-.18.85,1.89,1.89,0,0,1-.56.7,2.74,2.74,0,0,1-.92.47,4.51,4.51,0,0,1-1.28.17,5.73,5.73,0,0,1-1.29-.14,3.09,3.09,0,0,1-1-.42,2.25,2.25,0,0,1-.71-.73,2.59,2.59,0,0,1-.33-1.1Z"/><path class="cls-1" d="M604.3,410.91h.87v6.58l4-3.6h1.08l-2.73,2.55,3.08,5.18h-1.05l-2.7-4.64-1.65,1.49v3.15h-.87Z"/><line class="cls-2" x1="409.61" y1="133.88" x2="409.61" y2="261.66"/><path class="cls-3" d="M408.67,261.66a.94.94,0,1,0,.94-.94A.94.94,0,0,0,408.67,261.66Z"/><path class="cls-1" d="M179.39,123.36a2.57,2.57,0,0,0,1,1.73,5.38,5.38,0,0,0,3.71.35A2.4,2.4,0,0,0,185,125a1.79,1.79,0,0,0,.45-.7,3,3,0,0,0,.13-.86,3.29,3.29,0,0,0-.08-.71,1.5,1.5,0,0,0-.32-.61,1.84,1.84,0,0,0-.66-.49,4.31,4.31,0,0,0-1.15-.33L182,121a9.13,9.13,0,0,1-1.39-.34,3.48,3.48,0,0,1-1-.55,2.15,2.15,0,0,1-.63-.85,3.06,3.06,0,0,1-.22-1.24,2.5,2.5,0,0,1,.31-1.28,2.68,2.68,0,0,1,.82-.89,3.75,3.75,0,0,1,1.22-.52,5.88,5.88,0,0,1,1.48-.18,5.7,5.7,0,0,1,1.68.22,3.41,3.41,0,0,1,1.11.58,2.6,2.6,0,0,1,.67.82,4.83,4.83,0,0,1,.38.92l-.84.24a4.23,4.23,0,0,0-.36-.83,1.82,1.82,0,0,0-.54-.63,2.34,2.34,0,0,0-.84-.39,5,5,0,0,0-1.25-.13,4.93,4.93,0,0,0-1.38.16,2.52,2.52,0,0,0-.9.43,1.63,1.63,0,0,0-.49.66,2.25,2.25,0,0,0-.15.82,2.59,2.59,0,0,0,.1.78,1.32,1.32,0,0,0,.36.57,2.11,2.11,0,0,0,.68.4,6.35,6.35,0,0,0,1.08.29l1.51.27a7.17,7.17,0,0,1,1.4.39,3.13,3.13,0,0,1,1,.61,2.13,2.13,0,0,1,.57.87,3.36,3.36,0,0,1,.19,1.2,2.92,2.92,0,0,1-.24,1.17,2.73,2.73,0,0,1-.71,1,3.6,3.6,0,0,1-1.18.64,5.12,5.12,0,0,1-1.65.24,7.38,7.38,0,0,1-1.61-.16,4,4,0,0,1-1.31-.53,3.13,3.13,0,0,1-.92-1,3.35,3.35,0,0,1-.45-1.42Z"/><path class="cls-1" d="M193.42,125.07a4.17,4.17,0,0,1-.47.47,3,3,0,0,1-.61.41,3.63,3.63,0,0,1-.76.29,3.73,3.73,0,0,1-.91.1,3,3,0,0,1-1.95-.58A2.09,2.09,0,0,1,188,124a2.15,2.15,0,0,1,1.2-2.06,4,4,0,0,1,1.25-.39,11.11,11.11,0,0,1,1.45-.15l1.5-.06v-.24a2.51,2.51,0,0,0-.45-1.66,2,2,0,0,0-1.58-.53,4.22,4.22,0,0,0-.94.09,1.87,1.87,0,0,0-.64.27,1.38,1.38,0,0,0-.4.4,1.6,1.6,0,0,0-.22.52l-.8-.12q.42-1.89,3-1.89a4.19,4.19,0,0,1,1.37.19,2.21,2.21,0,0,1,.89.57,2.3,2.3,0,0,1,.49.9,4.5,4.5,0,0,1,.14,1.22v5.08h-.86Zm0-3-1.42.06a8.89,8.89,0,0,0-1.46.16,3.08,3.08,0,0,0-.94.36,1.4,1.4,0,0,0-.52.57,1.81,1.81,0,0,0-.16.8,1.6,1.6,0,0,0,.4,1.14,1.85,1.85,0,0,0,1.39.42,4.09,4.09,0,0,0,1-.11,1.91,1.91,0,0,0,.8-.37,2.93,2.93,0,0,0,.44-.37,1.64,1.64,0,0,0,.29-.4,1.76,1.76,0,0,0,.16-.49,3.92,3.92,0,0,0,0-.63Z"/><path class="cls-1" d="M196.81,119.16h-1.2v-.72h1.2v-.89a2.34,2.34,0,0,1,.18-1,1.92,1.92,0,0,1,.47-.69,1.86,1.86,0,0,1,.68-.4,2.54,2.54,0,0,1,.83-.14,4.78,4.78,0,0,1,.57,0,4.59,4.59,0,0,1,.57.13l-.18.73a3,3,0,0,0-.87-.13,1.56,1.56,0,0,0-1,.31,1.33,1.33,0,0,0-.39,1.11v.92h2v.72h-2v7h-.87Z"/><path class="cls-1" d="M207.1,124.14a2.62,2.62,0,0,1-1,1.63,3.49,3.49,0,0,1-2.22.63,3.21,3.21,0,0,1-2.59-1.07,4.34,4.34,0,0,1-.92-3,5.51,5.51,0,0,1,.26-1.8,3.78,3.78,0,0,1,.73-1.31,3.21,3.21,0,0,1,1.11-.8,4,4,0,0,1,2.93,0,2.75,2.75,0,0,1,1,.8,3.08,3.08,0,0,1,.58,1.19,5.83,5.83,0,0,1,.18,1.48v.56h-5.94a5,5,0,0,0,.16,1.24,2.94,2.94,0,0,0,.5,1,2.36,2.36,0,0,0,.82.68,2.66,2.66,0,0,0,1.15.24,3.56,3.56,0,0,0,1-.11,1.82,1.82,0,0,0,.67-.32,1.67,1.67,0,0,0,.43-.49,3.21,3.21,0,0,0,.25-.62Zm-.77-2.37a4.67,4.67,0,0,0-.14-1.16,2.34,2.34,0,0,0-.42-.9,1.73,1.73,0,0,0-.75-.6,2.6,2.6,0,0,0-1.1-.21,2.42,2.42,0,0,0-1.81.71,3.58,3.58,0,0,0-.8,2.16Z"/><path class="cls-1" d="M209.48,119.16h-1.2v-.72h1.2v-2.13h.87v2.13h2.19v.72h-2.19v5a1.84,1.84,0,0,0,.24,1,.89.89,0,0,0,.84.4,3.1,3.1,0,0,0,.66-.06,4,4,0,0,0,.48-.14l.18.71a3.73,3.73,0,0,1-.55.16,3.79,3.79,0,0,1-.84.08,2,2,0,0,1-1-.23,1.38,1.38,0,0,1-.56-.59,2.42,2.42,0,0,1-.24-.85c0-.32,0-.65,0-1Z"/><path class="cls-1" d="M214.13,128.13a2.4,2.4,0,0,0,.38.12,2,2,0,0,0,.43,0,1.44,1.44,0,0,0,.45-.06.77.77,0,0,0,.33-.22,1.87,1.87,0,0,0,.28-.4c.08-.17.18-.38.29-.64l.36-.92-3.31-7.61h1l2.81,6.61,2.5-6.61h1l-3.51,8.74a7.39,7.39,0,0,1-.36.79,2.87,2.87,0,0,1-.42.6,1.6,1.6,0,0,1-.55.38,2.11,2.11,0,0,1-.75.12,4.73,4.73,0,0,1-.58,0,4,4,0,0,1-.53-.15Z"/><path class="cls-1" d="M230.86,125a4.05,4.05,0,0,1-1.14,1,3,3,0,0,1-1.55.37,3,3,0,0,1-2.51-1.21,3.87,3.87,0,0,1-.6-1.28,6.41,6.41,0,0,1-.19-1.53,4.7,4.7,0,0,1,.92-3.08,3.15,3.15,0,0,1,2.54-1.1,3.36,3.36,0,0,1,1.29.27,3.12,3.12,0,0,1,1.24,1v-4h.86v10.71h-.86Zm0-3a5.8,5.8,0,0,0-.06-.9,3.06,3.06,0,0,0-.18-.68,2,2,0,0,0-.32-.52,4.06,4.06,0,0,0-.48-.43,2.51,2.51,0,0,0-.71-.39,2.45,2.45,0,0,0-.8-.12,2.61,2.61,0,0,0-1,.19,1.92,1.92,0,0,0-.8.59,2.89,2.89,0,0,0-.54,1,5.48,5.48,0,0,0-.19,1.57,4.88,4.88,0,0,0,.22,1.59,2.91,2.91,0,0,0,.56,1,2.08,2.08,0,0,0,.77.54,2.6,2.6,0,0,0,.86.15,3.12,3.12,0,0,0,.84-.1,2.46,2.46,0,0,0,.75-.39,2.61,2.61,0,0,0,.81-1,3.49,3.49,0,0,0,.29-1.5Z"/><path class="cls-1" d="M240.27,124.14a2.62,2.62,0,0,1-1,1.63,3.45,3.45,0,0,1-2.22.63,3.19,3.19,0,0,1-2.58-1.07,4.35,4.35,0,0,1-.93-3,5.5,5.5,0,0,1,.27-1.8,3.78,3.78,0,0,1,.73-1.31,3.21,3.21,0,0,1,1.11-.8,3.57,3.57,0,0,1,1.4-.27,3.7,3.7,0,0,1,1.53.29,2.75,2.75,0,0,1,1,.8,3.08,3.08,0,0,1,.58,1.19,5.83,5.83,0,0,1,.18,1.48v.56h-5.94a4.53,4.53,0,0,0,.16,1.24,2.94,2.94,0,0,0,.5,1,2.36,2.36,0,0,0,.82.68,2.58,2.58,0,0,0,1.14.24,3.56,3.56,0,0,0,1-.11,1.79,1.79,0,0,0,.68-.32,1.67,1.67,0,0,0,.43-.49,3.21,3.21,0,0,0,.25-.62Zm-.76-2.37a4.67,4.67,0,0,0-.14-1.16,2.5,2.5,0,0,0-.42-.9,1.85,1.85,0,0,0-.75-.6,2.68,2.68,0,0,0-1.11-.21,2.38,2.38,0,0,0-1.8.71,3.52,3.52,0,0,0-.81,2.16Z"/><path class="cls-1" d="M242.22,118.44h.87v1.15a4.08,4.08,0,0,1,1.16-1,2.94,2.94,0,0,1,1.53-.37,3.26,3.26,0,0,1,1.48.31,2.81,2.81,0,0,1,1,.84,3.72,3.72,0,0,1,.62,1.28,6.18,6.18,0,0,1,.2,1.59,5.58,5.58,0,0,1-.25,1.76,3.73,3.73,0,0,1-.7,1.31,3,3,0,0,1-1.08.83,3.52,3.52,0,0,1-1.44.28,3.3,3.3,0,0,1-1.35-.28,3,3,0,0,1-1.2-1v4h-.87Zm.84,4.17a5.75,5.75,0,0,0,.06.89,2.26,2.26,0,0,0,.18.68,2.08,2.08,0,0,0,.32.54,2.49,2.49,0,0,0,.48.42,2.33,2.33,0,0,0,.7.39,2.64,2.64,0,0,0,.83.12,2.8,2.8,0,0,0,1-.18,2,2,0,0,0,.8-.6,2.88,2.88,0,0,0,.53-1.05,5.65,5.65,0,0,0,.2-1.59,4.71,4.71,0,0,0-.22-1.57,2.78,2.78,0,0,0-.56-1,1.84,1.84,0,0,0-.78-.54,2.42,2.42,0,0,0-.86-.16,3.12,3.12,0,0,0-.84.1,2.25,2.25,0,0,0-.75.39,2.61,2.61,0,0,0-.81,1,3.28,3.28,0,0,0-.3,1.5Z"/><path class="cls-1" d="M254.33,126.4a3.82,3.82,0,0,1-1.52-.28,3,3,0,0,1-1.13-.82A3.67,3.67,0,0,1,251,124a5.2,5.2,0,0,1-.25-1.68,5.38,5.38,0,0,1,.26-1.71,3.89,3.89,0,0,1,.74-1.31,3.17,3.17,0,0,1,1.14-.83,3.89,3.89,0,0,1,1.52-.29,3.83,3.83,0,0,1,1.51.28,3.06,3.06,0,0,1,1.14.82,3.64,3.64,0,0,1,.72,1.28,5.48,5.48,0,0,1,.24,1.67,5.39,5.39,0,0,1-.25,1.71,3.71,3.71,0,0,1-.73,1.31,3,3,0,0,1-1.15.84A3.81,3.81,0,0,1,254.33,126.4Zm0-.75a2.68,2.68,0,0,0,1.25-.26,2.37,2.37,0,0,0,.83-.71,3,3,0,0,0,.48-1.07,5.58,5.58,0,0,0,.15-1.33,5.45,5.45,0,0,0-.15-1.3,3,3,0,0,0-.48-1.06,2.47,2.47,0,0,0-.83-.71,3.11,3.11,0,0,0-2.49,0,2.42,2.42,0,0,0-.84.71,3.2,3.2,0,0,0-.47,1.06,5.47,5.47,0,0,0-.15,1.31,5.56,5.56,0,0,0,.15,1.32,3.16,3.16,0,0,0,.47,1.07,2.31,2.31,0,0,0,.84.71A2.67,2.67,0,0,0,254.36,125.65Z"/><path class="cls-1" d="M260.33,124a1.77,1.77,0,0,0,.76,1.27,3.23,3.23,0,0,0,1.71.38,2.37,2.37,0,0,0,1.59-.42,1.36,1.36,0,0,0,.47-1,2,2,0,0,0-.06-.5,1.06,1.06,0,0,0-.23-.43,1.36,1.36,0,0,0-.5-.33,3.86,3.86,0,0,0-.83-.23l-.95-.15a9,9,0,0,1-1.1-.25,2.61,2.61,0,0,1-.82-.4,1.5,1.5,0,0,1-.51-.61,2.08,2.08,0,0,1-.18-.91,1.87,1.87,0,0,1,.23-.92,1.93,1.93,0,0,1,.61-.69,2.85,2.85,0,0,1,.93-.43,4.14,4.14,0,0,1,1.14-.15,4.56,4.56,0,0,1,1.33.16,2.35,2.35,0,0,1,.87.42,2,2,0,0,1,.53.63,3.94,3.94,0,0,1,.29.77l-.8.16a3.37,3.37,0,0,0-.27-.6,1.54,1.54,0,0,0-.4-.44,1.84,1.84,0,0,0-.6-.26,3.79,3.79,0,0,0-.9-.09,4.1,4.1,0,0,0-1,.11,2,2,0,0,0-.65.31,1.15,1.15,0,0,0-.35.45,1.35,1.35,0,0,0-.11.52,1.83,1.83,0,0,0,.06.49.77.77,0,0,0,.24.38,1.52,1.52,0,0,0,.51.29,4.63,4.63,0,0,0,.84.21l1.19.19a3.76,3.76,0,0,1,1.81.73,2,2,0,0,1,.6,1.58,2.11,2.11,0,0,1-.18.86,2,2,0,0,1-.56.7,2.73,2.73,0,0,1-.92.46,4.18,4.18,0,0,1-1.28.17,5.75,5.75,0,0,1-1.29-.13,3.09,3.09,0,0,1-1-.42,2.28,2.28,0,0,1-.71-.74,2.54,2.54,0,0,1-.33-1.09Z"/><path class="cls-1" d="M267.56,115.45h1v1.31h-1Zm.06,3h.87v7.72h-.87Z"/><path class="cls-1" d="M271.07,119.16h-1.2v-.72h1.2v-2.13h.87v2.13h2.19v.72h-2.19v5a1.84,1.84,0,0,0,.24,1,.89.89,0,0,0,.84.4,3.1,3.1,0,0,0,.66-.06,4,4,0,0,0,.48-.14l.18.71a3.73,3.73,0,0,1-.55.16,3.82,3.82,0,0,1-.85.08,2,2,0,0,1-1-.23,1.38,1.38,0,0,1-.56-.59,2.22,2.22,0,0,1-.24-.85c0-.32,0-.65,0-1Z"/><line class="cls-2" x1="226.61" y1="138.88" x2="226.61" y2="307.66"/><path class="cls-3" d="M225.67,307.66a.94.94,0,1,0,.94-.94A.94.94,0,0,0,225.67,307.66Z"/><line class="cls-2" x1="573.21" y1="404.04" x2="573.21" y2="295.75"/><path class="cls-3" d="M574.15,295.75a.94.94,0,1,0-.94.94A.94.94,0,0,0,574.15,295.75Z"/></svg>