<svg id="Layer_1" data-name="Layer 1" xmlns="http://www.w3.org/2000/svg" viewBox="0 0 200 200"><defs><style>.cls-1{fill:#faba20;}.cls-2{fill:#3a3531;}</style></defs><title>near_infrared</title><path class="cls-1" d="M147.72,79h8.39c3.75,0,6.42.71,8,2.11s2.37,3.52,2.37,6.33-.79,4.92-2.37,6.32-4.25,2.11-8,2.11h-8.39Zm40.9-2.77a19.78,19.78,0,0,0-5.4-8.27,27,27,0,0,0-9.94-5.55,49,49,0,0,0-15.29-2H124v79.24h23.75V114.21h8.88l12.65,25.41H195l-16.43-30.41a24.84,24.84,0,0,0,8.61-9.21,28.43,28.43,0,0,0,3-13.65,31.48,31.48,0,0,0-1.61-10.1M87.13,139.62h25.19V60.38H87.13Z"/><polygon class="cls-2" points="51.95 60.38 51.95 100.44 26.64 60.38 5 60.38 5 139.62 28.53 139.62 28.53 99.33 54.05 139.62 75.47 139.62 75.47 60.38 51.95 60.38"/></svg>