<svg id="text" xmlns="http://www.w3.org/2000/svg" width="800" height="550" viewBox="0 0 800 550"><defs><style>.cls-1{fill:#3a3531;}.cls-2{fill:none;stroke:#fbbb21;stroke-width:0.5px;}.cls-3{fill:#fbbb21;}</style></defs><title>spares_and_storage_shadow</title><path class="cls-1" d="M143.38,158.84a2.54,2.54,0,0,0,1,1.73,4.33,4.33,0,0,0,2.37.53,4.21,4.21,0,0,0,1.34-.18,2.23,2.23,0,0,0,.85-.48,1.69,1.69,0,0,0,.45-.7,2.77,2.77,0,0,0,.05-1.57,1.51,1.51,0,0,0-.31-.62,2.1,2.1,0,0,0-.67-.48,4.34,4.34,0,0,0-1.14-.33l-1.33-.23a8.84,8.84,0,0,1-1.39-.34,3.46,3.46,0,0,1-1-.55,2.25,2.25,0,0,1-.64-.85,3.25,3.25,0,0,1-.21-1.24,2.46,2.46,0,0,1,1.13-2.17,3.71,3.71,0,0,1,1.21-.53,6.45,6.45,0,0,1,1.48-.17,5.39,5.39,0,0,1,1.68.22,3.23,3.23,0,0,1,1.11.58,2.69,2.69,0,0,1,.67.81,5.2,5.2,0,0,1,.38.93l-.84.24a5.44,5.44,0,0,0-.35-.84,2.14,2.14,0,0,0-.54-.62,2.47,2.47,0,0,0-.85-.39,4.91,4.91,0,0,0-1.24-.13,5.47,5.47,0,0,0-1.39.15,2.47,2.47,0,0,0-.89.44,1.53,1.53,0,0,0-.5.66,2.21,2.21,0,0,0-.15.82,2.3,2.3,0,0,0,.11.78,1.23,1.23,0,0,0,.36.57,2,2,0,0,0,.68.4,6,6,0,0,0,1.07.29l1.52.27a7.37,7.37,0,0,1,1.4.39,3.25,3.25,0,0,1,1,.6,2.37,2.37,0,0,1,.58.88,3.6,3.6,0,0,1,.19,1.2,2.83,2.83,0,0,1-.24,1.16,2.59,2.59,0,0,1-.72,1,3.45,3.45,0,0,1-1.17.64,5.17,5.17,0,0,1-1.65.24,7.54,7.54,0,0,1-1.62-.16,3.8,3.8,0,0,1-1.3-.54,2.88,2.88,0,0,1-.92-1,3.22,3.22,0,0,1-.45-1.42Z"/><path class="cls-1" d="M152.92,154.64h-1.2v-.72h1.2v-2.13h.86v2.13H156v.72h-2.2v5.05a1.86,1.86,0,0,0,.24,1,.93.93,0,0,0,.84.4,3,3,0,0,0,.66-.06,4.84,4.84,0,0,0,.49-.14l.18.71a4.63,4.63,0,0,1-.55.16,3.89,3.89,0,0,1-.85.08,2,2,0,0,1-1-.23,1.53,1.53,0,0,1-.57-.59,2.47,2.47,0,0,1-.23-.85c0-.32,0-.65,0-1Z"/><path class="cls-1" d="M160.79,161.88a3.82,3.82,0,0,1-1.52-.28,3.11,3.11,0,0,1-1.13-.82,3.77,3.77,0,0,1-.7-1.28,5.2,5.2,0,0,1-.25-1.68,5.38,5.38,0,0,1,.26-1.71,3.89,3.89,0,0,1,.74-1.31,3,3,0,0,1,1.15-.83,3.63,3.63,0,0,1,1.51-.29,3.8,3.8,0,0,1,1.51.28,3.15,3.15,0,0,1,1.15.82,3.86,3.86,0,0,1,.71,1.28,5.48,5.48,0,0,1,.24,1.67,5.39,5.39,0,0,1-.25,1.71,3.8,3.8,0,0,1-.73,1.31,3.23,3.23,0,0,1-1.15.84A4,4,0,0,1,160.79,161.88Zm0-.75a2.74,2.74,0,0,0,1.24-.26,2.33,2.33,0,0,0,.84-.71,3,3,0,0,0,.48-1.07,5.58,5.58,0,0,0,.15-1.33,5.39,5.39,0,0,0-.15-1.3,2.94,2.94,0,0,0-.48-1.06,2.24,2.24,0,0,0-.84-.71,2.61,2.61,0,0,0-1.24-.26,2.67,2.67,0,0,0-1.24.26,2.31,2.31,0,0,0-.84.71,3.11,3.11,0,0,0-.47,1.06,5.41,5.41,0,0,0-.15,1.31,5.56,5.56,0,0,0,.15,1.32,3.16,3.16,0,0,0,.47,1.07,2.42,2.42,0,0,0,.84.71A2.8,2.8,0,0,0,160.82,161.13Z"/><path class="cls-1" d="M166.32,153.92h.87v1.26a3.67,3.67,0,0,1,1.07-1,2.45,2.45,0,0,1,1.27-.36h.31l.31,0-.11.83a3,3,0,0,0-.49,0,2.44,2.44,0,0,0-.79.14,2.14,2.14,0,0,0-.77.49,2.44,2.44,0,0,0-.57.73,2.12,2.12,0,0,0-.23,1v4.65h-.87Z"/><path class="cls-1" d="M176.3,160.55a3.47,3.47,0,0,1-.47.47,3.41,3.41,0,0,1-1.37.7,3.68,3.68,0,0,1-.91.1,3,3,0,0,1-1.94-.58,2.07,2.07,0,0,1-.74-1.74,2.14,2.14,0,0,1,1.21-2.06,4.2,4.2,0,0,1,1.24-.4,13.44,13.44,0,0,1,1.45-.14l1.5-.06v-.24a2.58,2.58,0,0,0-.44-1.66,2,2,0,0,0-1.59-.53,4.06,4.06,0,0,0-.93.09,2,2,0,0,0-.64.26,1.3,1.3,0,0,0-.4.41,1.53,1.53,0,0,0-.23.52l-.8-.12q.42-1.89,3-1.89a4.19,4.19,0,0,1,1.37.19,2.16,2.16,0,0,1,.89.56,2.19,2.19,0,0,1,.49.9,4.6,4.6,0,0,1,.15,1.23v5.08h-.87Zm0-3-1.42.06a7.91,7.91,0,0,0-1.46.16,2.71,2.71,0,0,0-.94.36,1.35,1.35,0,0,0-.52.57,1.93,1.93,0,0,0-.16.8,1.61,1.61,0,0,0,.4,1.13,1.84,1.84,0,0,0,1.39.43,4.6,4.6,0,0,0,1-.11,2.09,2.09,0,0,0,.81-.37,4.48,4.48,0,0,0,.44-.37,1.8,1.8,0,0,0,.28-.4,1.57,1.57,0,0,0,.16-.49,3.92,3.92,0,0,0,0-.63Z"/><path class="cls-1" d="M180.1,162.48a1.66,1.66,0,0,0,.71,1.13,3.11,3.11,0,0,0,1.7.37,2.51,2.51,0,0,0,1.87-.62,3,3,0,0,0,.6-2.09v-1.16a3.38,3.38,0,0,1-1.13,1,3,3,0,0,1-1.55.37,3.31,3.31,0,0,1-1.49-.32,3,3,0,0,1-1-.86,3.76,3.76,0,0,1-.6-1.24,5.4,5.4,0,0,1-.2-1.45,5.22,5.22,0,0,1,.24-1.63,3.65,3.65,0,0,1,.69-1.26,3.15,3.15,0,0,1,1.1-.8,3.57,3.57,0,0,1,1.45-.28,3.45,3.45,0,0,1,1.31.27,3.08,3.08,0,0,1,1.21,1v-1.05h.88v7.44a3.54,3.54,0,0,1-.81,2.46,3.22,3.22,0,0,1-2.53.9,5.87,5.87,0,0,1-1.22-.12,3.11,3.11,0,0,1-1-.39,2.1,2.1,0,0,1-.7-.69,2.6,2.6,0,0,1-.34-1Zm4.92-5a6,6,0,0,0-.06-.91,2.19,2.19,0,0,0-.18-.67,1.82,1.82,0,0,0-.32-.52,3,3,0,0,0-1.19-.82,2.39,2.39,0,0,0-.79-.12,2.8,2.8,0,0,0-1,.18,2.07,2.07,0,0,0-.81.57,2.76,2.76,0,0,0-.54,1,4.88,4.88,0,0,0-.2,1.47,4.4,4.4,0,0,0,.22,1.46,3,3,0,0,0,.56,1,2.21,2.21,0,0,0,.78.53,2.55,2.55,0,0,0,.89.17,2.9,2.9,0,0,0,.84-.11,2.83,2.83,0,0,0,.74-.37,2.71,2.71,0,0,0,.8-1,3.75,3.75,0,0,0,.28-1.52Z"/><path class="cls-1" d="M194.4,159.62a2.62,2.62,0,0,1-1,1.63,3.45,3.45,0,0,1-2.22.63,3.22,3.22,0,0,1-2.58-1.07,4.37,4.37,0,0,1-.93-2.95,5.5,5.5,0,0,1,.27-1.8,3.69,3.69,0,0,1,.73-1.31,3.09,3.09,0,0,1,1.11-.8,4,4,0,0,1,2.93,0,2.73,2.73,0,0,1,1,.79,3.2,3.2,0,0,1,.58,1.2,5.83,5.83,0,0,1,.18,1.48V158H188.6a4.41,4.41,0,0,0,.16,1.23,3,3,0,0,0,.5,1,2.33,2.33,0,0,0,.82.67,2.45,2.45,0,0,0,1.14.25,4,4,0,0,0,1-.11,2,2,0,0,0,.68-.32,1.81,1.81,0,0,0,.43-.49,2.86,2.86,0,0,0,.24-.62Zm-.76-2.37a4.67,4.67,0,0,0-.14-1.16,2.63,2.63,0,0,0-.42-.91,1.92,1.92,0,0,0-.75-.59,2.68,2.68,0,0,0-1.11-.21,2.38,2.38,0,0,0-1.8.71,3.52,3.52,0,0,0-.81,2.16Z"/><path class="cls-1" d="M199.74,150.93h.87v10.71h-.87Z"/><path class="cls-1" d="M206.12,161.88a3.82,3.82,0,0,1-1.52-.28,3.11,3.11,0,0,1-1.13-.82,3.77,3.77,0,0,1-.7-1.28,5.2,5.2,0,0,1-.25-1.68,5.38,5.38,0,0,1,.26-1.71,3.89,3.89,0,0,1,.74-1.31,3.06,3.06,0,0,1,1.14-.83,3.71,3.71,0,0,1,1.52-.29,3.83,3.83,0,0,1,1.51.28,3,3,0,0,1,1.14.82,3.71,3.71,0,0,1,.72,1.28,5.48,5.48,0,0,1,.24,1.67,5.39,5.39,0,0,1-.25,1.71,3.8,3.8,0,0,1-.73,1.31,3.23,3.23,0,0,1-1.15.84A4,4,0,0,1,206.12,161.88Zm0-.75a2.74,2.74,0,0,0,1.24-.26,2.42,2.42,0,0,0,.84-.71,3,3,0,0,0,.48-1.07,5.58,5.58,0,0,0,.15-1.33,5.39,5.39,0,0,0-.15-1.3,2.94,2.94,0,0,0-.48-1.06,2.31,2.31,0,0,0-.84-.71,2.61,2.61,0,0,0-1.24-.26,2.67,2.67,0,0,0-1.24.26,2.31,2.31,0,0,0-.84.71,3.11,3.11,0,0,0-.47,1.06,5.41,5.41,0,0,0-.15,1.31,5.56,5.56,0,0,0,.15,1.32,3.16,3.16,0,0,0,.47,1.07,2.42,2.42,0,0,0,.84.71A2.8,2.8,0,0,0,206.15,161.13Z"/><path class="cls-1" d="M218.19,159.12a3.38,3.38,0,0,1-1,2,3.17,3.17,0,0,1-2.21.73,3.75,3.75,0,0,1-1.5-.28,2.8,2.8,0,0,1-1.11-.81,3.66,3.66,0,0,1-.69-1.28,5.52,5.52,0,0,1-.24-1.69,5.38,5.38,0,0,1,.26-1.71,3.85,3.85,0,0,1,.72-1.31,3.1,3.1,0,0,1,1.13-.83,3.67,3.67,0,0,1,1.51-.29,3,3,0,0,1,2,.65,3.13,3.13,0,0,1,1,1.84l-.84.21a3.76,3.76,0,0,0-.26-.78,2.12,2.12,0,0,0-.42-.62,1.84,1.84,0,0,0-.63-.4,2.52,2.52,0,0,0-.91-.15,2.6,2.6,0,0,0-1.2.25,2.45,2.45,0,0,0-.83.7,2.87,2.87,0,0,0-.48,1.06,5.58,5.58,0,0,0-.15,1.33,5.67,5.67,0,0,0,.15,1.34,3.11,3.11,0,0,0,.47,1.06,2.17,2.17,0,0,0,.82.71,2.6,2.6,0,0,0,1.2.25,2.18,2.18,0,0,0,1.65-.55,2.89,2.89,0,0,0,.69-1.46Z"/><path class="cls-1" d="M220,150.93h.87v6.59l4-3.6h1.08l-2.73,2.55,3.07,5.17h-1l-2.7-4.63-1.65,1.48v3.15H220Z"/><path class="cls-1" d="M233.81,159.62a2.62,2.62,0,0,1-1,1.63,3.45,3.45,0,0,1-2.22.63,3.26,3.26,0,0,1-2.59-1.07,4.41,4.41,0,0,1-.92-2.95,5.79,5.79,0,0,1,.26-1.8,3.7,3.7,0,0,1,.74-1.31,2.93,2.93,0,0,1,1.11-.8,4,4,0,0,1,2.93,0,2.81,2.81,0,0,1,1,.79,3.34,3.34,0,0,1,.57,1.2,5.83,5.83,0,0,1,.18,1.48V158H228a4.4,4.4,0,0,0,.17,1.23,3,3,0,0,0,.49,1,2.36,2.36,0,0,0,.83.67,2.45,2.45,0,0,0,1.14.25,4,4,0,0,0,1-.11,2,2,0,0,0,.67-.32,1.65,1.65,0,0,0,.43-.49,2.44,2.44,0,0,0,.25-.62Zm-.77-2.37a4.68,4.68,0,0,0-.13-1.16,2.63,2.63,0,0,0-.42-.91,1.92,1.92,0,0,0-.75-.59,2.68,2.68,0,0,0-1.11-.21,2.38,2.38,0,0,0-1.8.71,3.52,3.52,0,0,0-.81,2.16Z"/><path class="cls-1" d="M235.76,153.92h.87v1.26a3.53,3.53,0,0,1,1.06-1,2.46,2.46,0,0,1,1.28-.36h.31l.3,0-.1.83a3.13,3.13,0,0,0-.5,0,2.48,2.48,0,0,0-.79.14,2.23,2.23,0,0,0-.77.49,2.44,2.44,0,0,0-.57.73,2.12,2.12,0,0,0-.22,1v4.65h-.87Z"/><path class="cls-1" d="M249.08,160.55a4.17,4.17,0,0,1-.47.47,3.41,3.41,0,0,1-1.37.7,3.68,3.68,0,0,1-.91.1,3,3,0,0,1-2-.58,2.09,2.09,0,0,1-.73-1.74,2.14,2.14,0,0,1,1.21-2.06,4.2,4.2,0,0,1,1.24-.4,13.44,13.44,0,0,1,1.45-.14l1.5-.06v-.24a2.58,2.58,0,0,0-.44-1.66,2,2,0,0,0-1.59-.53,4.06,4.06,0,0,0-.93.09,2,2,0,0,0-.64.26,1.45,1.45,0,0,0-.41.41,1.73,1.73,0,0,0-.22.52l-.8-.12q.42-1.89,3-1.89a4.19,4.19,0,0,1,1.37.19,2.16,2.16,0,0,1,.89.56,2.19,2.19,0,0,1,.49.9,4.6,4.6,0,0,1,.15,1.23v5.08h-.87Zm0-3-1.42.06a7.91,7.91,0,0,0-1.46.16,2.64,2.64,0,0,0-.94.36,1.35,1.35,0,0,0-.52.57,1.93,1.93,0,0,0-.16.8,1.61,1.61,0,0,0,.4,1.13,1.84,1.84,0,0,0,1.39.43,4.6,4.6,0,0,0,1-.11,2,2,0,0,0,.8-.37,3.71,3.71,0,0,0,.45-.37,1.8,1.8,0,0,0,.28-.4,1.57,1.57,0,0,0,.16-.49,3.92,3.92,0,0,0,0-.63Z"/><path class="cls-1" d="M252,153.92h.87v1.26a4,4,0,0,1,1.35-1.15,3.3,3.3,0,0,1,1.52-.35,2.43,2.43,0,0,1,2,.73,3.12,3.12,0,0,1,.63,2.09v5.14h-.87v-4.9A2.77,2.77,0,0,0,257,155a1.66,1.66,0,0,0-1.38-.53,2.81,2.81,0,0,0-.95.17,2.53,2.53,0,0,0-.91.55,2.85,2.85,0,0,0-.67.8,2.35,2.35,0,0,0-.23,1.13v4.53H252Z"/><path class="cls-1" d="M266.15,160.49a4,4,0,0,1-1.13,1,3.46,3.46,0,0,1-3,0,2.93,2.93,0,0,1-1-.88,3.83,3.83,0,0,1-.6-1.29,5.81,5.81,0,0,1-.2-1.52,4.62,4.62,0,0,1,.93-3.08,3.11,3.11,0,0,1,2.54-1.1,3.39,3.39,0,0,1,1.29.27,3,3,0,0,1,1.23,1v-4H267v10.71h-.87Zm0-3a6,6,0,0,0-.06-.91,3,3,0,0,0-.18-.67,1.62,1.62,0,0,0-.32-.52,3.29,3.29,0,0,0-.47-.43,2.65,2.65,0,0,0-.71-.39,2.55,2.55,0,0,0-.81-.12,2.8,2.8,0,0,0-1,.18,2.11,2.11,0,0,0-.8.6,3,3,0,0,0-.53,1,5.45,5.45,0,0,0-.2,1.57,5.05,5.05,0,0,0,.22,1.58,2.89,2.89,0,0,0,.56,1,1.84,1.84,0,0,0,.78.54,2.34,2.34,0,0,0,.86.16,3,3,0,0,0,.83-.1,2.39,2.39,0,0,0,.76-.39,2.61,2.61,0,0,0,.81-1,3.49,3.49,0,0,0,.28-1.5Z"/><path class="cls-1" d="M272.93,159.5a1.77,1.77,0,0,0,.76,1.27,3.23,3.23,0,0,0,1.71.38,2.37,2.37,0,0,0,1.59-.42,1.36,1.36,0,0,0,.47-1,2.1,2.1,0,0,0-.06-.51,1.09,1.09,0,0,0-.23-.42,1.36,1.36,0,0,0-.5-.33,3.86,3.86,0,0,0-.83-.23l-.95-.15a8.61,8.61,0,0,1-1.1-.25,2.85,2.85,0,0,1-.82-.4,1.52,1.52,0,0,1-.51-.62,2,2,0,0,1-.18-.9,1.94,1.94,0,0,1,.23-.93,2.11,2.11,0,0,1,.61-.69,3.06,3.06,0,0,1,.93-.42,4.14,4.14,0,0,1,1.14-.15,5,5,0,0,1,1.33.15,2.53,2.53,0,0,1,.87.43,2,2,0,0,1,.53.63,3.94,3.94,0,0,1,.29.77l-.8.16a3.85,3.85,0,0,0-.27-.61,1.5,1.5,0,0,0-.4-.43,1.65,1.65,0,0,0-.6-.26,3.79,3.79,0,0,0-.9-.09,3.66,3.66,0,0,0-1,.11,1.79,1.79,0,0,0-.65.31,1.15,1.15,0,0,0-.35.45,1.35,1.35,0,0,0-.11.52,1.88,1.88,0,0,0,.06.49.82.82,0,0,0,.24.38,1.52,1.52,0,0,0,.51.29,4.63,4.63,0,0,0,.84.21l1.19.19a3.67,3.67,0,0,1,1.81.73,2,2,0,0,1,.6,1.58,2.11,2.11,0,0,1-.18.86,1.86,1.86,0,0,1-.56.69,2.74,2.74,0,0,1-.92.47,4.51,4.51,0,0,1-1.28.17,5.75,5.75,0,0,1-1.29-.13,3.09,3.09,0,0,1-1-.42,2.28,2.28,0,0,1-.71-.74,2.54,2.54,0,0,1-.33-1.09Z"/><path class="cls-1" d="M280.17,150.93H281v4.25a4,4,0,0,1,1.35-1.15,3.3,3.3,0,0,1,1.52-.35,2.43,2.43,0,0,1,1.95.73,3.12,3.12,0,0,1,.63,2.09v5.14h-.87v-4.9a2.77,2.77,0,0,0-.44-1.75,1.66,1.66,0,0,0-1.38-.53,2.81,2.81,0,0,0-.95.17,2.53,2.53,0,0,0-.91.55,2.85,2.85,0,0,0-.67.8,2.35,2.35,0,0,0-.23,1.13v4.53h-.87Z"/><path class="cls-1" d="M295,159.62a2.62,2.62,0,0,1-1,1.63,3.45,3.45,0,0,1-2.22.63,3.22,3.22,0,0,1-2.58-1.07,4.37,4.37,0,0,1-.93-2.95,5.5,5.5,0,0,1,.27-1.8,3.69,3.69,0,0,1,.73-1.31,3.09,3.09,0,0,1,1.11-.8,4,4,0,0,1,2.93,0,2.73,2.73,0,0,1,1,.79A3.2,3.2,0,0,1,295,156a5.83,5.83,0,0,1,.18,1.48V158h-5.94a4.41,4.41,0,0,0,.16,1.23,3,3,0,0,0,.5,1,2.33,2.33,0,0,0,.82.67,2.45,2.45,0,0,0,1.14.25,4,4,0,0,0,1-.11,2,2,0,0,0,.68-.32,1.81,1.81,0,0,0,.43-.49,2.86,2.86,0,0,0,.24-.62Zm-.76-2.37a4.67,4.67,0,0,0-.14-1.16,2.63,2.63,0,0,0-.42-.91,1.92,1.92,0,0,0-.75-.59,2.68,2.68,0,0,0-1.11-.21,2.38,2.38,0,0,0-1.8.71,3.52,3.52,0,0,0-.81,2.16Z"/><path class="cls-1" d="M297,150.93h.87v10.71H297Z"/><path class="cls-1" d="M299,153.92h1l2.62,6.78,2.69-6.78h.94l-3.12,7.72h-1Z"/><path class="cls-1" d="M313.89,159.62a2.62,2.62,0,0,1-1,1.63,3.45,3.45,0,0,1-2.22.63,3.26,3.26,0,0,1-2.59-1.07,4.41,4.41,0,0,1-.92-2.95,5.79,5.79,0,0,1,.26-1.8,3.86,3.86,0,0,1,.74-1.31,3,3,0,0,1,1.11-.8,4,4,0,0,1,2.93,0,2.73,2.73,0,0,1,1,.79,3.35,3.35,0,0,1,.58,1.2,5.83,5.83,0,0,1,.18,1.48V158h-5.94a4.41,4.41,0,0,0,.16,1.23,3,3,0,0,0,.5,1,2.33,2.33,0,0,0,.82.67,2.45,2.45,0,0,0,1.14.25,4,4,0,0,0,1-.11,2,2,0,0,0,.68-.32,1.81,1.81,0,0,0,.43-.49,2.86,2.86,0,0,0,.24-.62Zm-.76-2.37a4.67,4.67,0,0,0-.14-1.16,2.63,2.63,0,0,0-.42-.91,1.92,1.92,0,0,0-.75-.59,2.68,2.68,0,0,0-1.11-.21,2.38,2.38,0,0,0-1.8.71,3.52,3.52,0,0,0-.81,2.16Z"/><path class="cls-1" d="M316.31,159.5a1.77,1.77,0,0,0,.76,1.27,3.23,3.23,0,0,0,1.71.38,2.37,2.37,0,0,0,1.59-.42,1.36,1.36,0,0,0,.47-1,2.1,2.1,0,0,0-.06-.51,1,1,0,0,0-.24-.42,1.24,1.24,0,0,0-.49-.33,3.86,3.86,0,0,0-.83-.23l-1-.15a8.61,8.61,0,0,1-1.1-.25,2.85,2.85,0,0,1-.82-.4,1.52,1.52,0,0,1-.51-.62,2,2,0,0,1-.18-.9,1.94,1.94,0,0,1,.23-.93,2.11,2.11,0,0,1,.61-.69,3.06,3.06,0,0,1,.93-.42,4.14,4.14,0,0,1,1.14-.15,5,5,0,0,1,1.33.15,2.62,2.62,0,0,1,.87.43,1.83,1.83,0,0,1,.52.63,3.42,3.42,0,0,1,.3.77l-.8.16a3.85,3.85,0,0,0-.27-.61,1.5,1.5,0,0,0-.4-.43,1.65,1.65,0,0,0-.6-.26,3.79,3.79,0,0,0-.9-.09,3.66,3.66,0,0,0-1,.11,1.71,1.71,0,0,0-.65.31,1.06,1.06,0,0,0-.35.45,1.35,1.35,0,0,0-.11.52,1.88,1.88,0,0,0,.06.49.82.82,0,0,0,.24.38,1.52,1.52,0,0,0,.51.29,4.63,4.63,0,0,0,.84.21l1.19.19a3.67,3.67,0,0,1,1.81.73,2.26,2.26,0,0,1,.41,2.44,1.74,1.74,0,0,1-.55.69,2.74,2.74,0,0,1-.92.47,4.51,4.51,0,0,1-1.28.17,5.75,5.75,0,0,1-1.29-.13,3.09,3.09,0,0,1-1-.42,2.28,2.28,0,0,1-.71-.74,2.54,2.54,0,0,1-.33-1.09Z"/><path class="cls-1" d="M430.4,130.36a2.56,2.56,0,0,0,1,1.73,4.25,4.25,0,0,0,2.37.53,4.32,4.32,0,0,0,1.35-.18A2.26,2.26,0,0,0,436,132a1.69,1.69,0,0,0,.45-.7,2.72,2.72,0,0,0,.14-.86,3.29,3.29,0,0,0-.08-.71,1.5,1.5,0,0,0-.32-.61,1.88,1.88,0,0,0-.67-.49,4.34,4.34,0,0,0-1.14-.33L433,128a9.13,9.13,0,0,1-1.39-.34,3.36,3.36,0,0,1-1-.55,2.06,2.06,0,0,1-.63-.85,3.06,3.06,0,0,1-.22-1.24,2.5,2.5,0,0,1,.31-1.28,2.68,2.68,0,0,1,.82-.89,3.75,3.75,0,0,1,1.22-.52,5.8,5.8,0,0,1,1.47-.18,5.7,5.7,0,0,1,1.68.22,3.41,3.41,0,0,1,1.11.58,2.64,2.64,0,0,1,.68.82,4.78,4.78,0,0,1,.37.92l-.84.24a4.23,4.23,0,0,0-.35-.83,1.82,1.82,0,0,0-.54-.63,2.39,2.39,0,0,0-.85-.39,6,6,0,0,0-2.62,0,2.52,2.52,0,0,0-.9.43,1.66,1.66,0,0,0-.5.66,2.25,2.25,0,0,0-.15.82,2.57,2.57,0,0,0,.11.78,1.32,1.32,0,0,0,.36.57,2.11,2.11,0,0,0,.68.4,6.21,6.21,0,0,0,1.07.29l1.52.27a7.17,7.17,0,0,1,1.4.39,3,3,0,0,1,1,.61,2.15,2.15,0,0,1,.58.87,3.36,3.36,0,0,1,.19,1.2,2.92,2.92,0,0,1-.24,1.17,2.73,2.73,0,0,1-.71,1,3.6,3.6,0,0,1-1.18.64,5.12,5.12,0,0,1-1.65.24,7.38,7.38,0,0,1-1.61-.16,4,4,0,0,1-1.31-.53,3.13,3.13,0,0,1-.92-1,3.35,3.35,0,0,1-.45-1.42Z"/><path class="cls-1" d="M439.94,126.16h-1.2v-.72h1.2v-2.13h.87v2.13H443v.72h-2.19v5.05a1.84,1.84,0,0,0,.24,1,.89.89,0,0,0,.84.4,3.1,3.1,0,0,0,.66-.06,4,4,0,0,0,.48-.14l.18.71a3.73,3.73,0,0,1-.55.16,3.82,3.82,0,0,1-.85.08,2,2,0,0,1-1-.23,1.38,1.38,0,0,1-.56-.59,2.22,2.22,0,0,1-.24-.85c0-.32,0-.65,0-1Z"/><path class="cls-1" d="M447.81,133.4a3.85,3.85,0,0,1-1.52-.28,3,3,0,0,1-1.12-.82,3.69,3.69,0,0,1-.71-1.28,5.49,5.49,0,0,1-.25-1.68,5.11,5.11,0,0,1,.27-1.71,3.87,3.87,0,0,1,.73-1.31,3.3,3.3,0,0,1,1.15-.83,3.84,3.84,0,0,1,1.51-.29,3.88,3.88,0,0,1,1.52.28,3.15,3.15,0,0,1,1.14.82,3.62,3.62,0,0,1,.71,1.28,5.18,5.18,0,0,1,.25,1.67,5.38,5.38,0,0,1-.26,1.71,3.85,3.85,0,0,1-.72,1.31,3,3,0,0,1-1.16.84A3.78,3.78,0,0,1,447.81,133.4Zm0-.75a2.66,2.66,0,0,0,1.25-.26,2.31,2.31,0,0,0,.84-.71,3,3,0,0,0,.48-1.07,5.58,5.58,0,0,0,.15-1.33,5.45,5.45,0,0,0-.15-1.3,3,3,0,0,0-.48-1.06,2.42,2.42,0,0,0-.84-.71,2.78,2.78,0,0,0-1.25-.26,2.72,2.72,0,0,0-1.23.26,2.25,2.25,0,0,0-.84.71,3,3,0,0,0-.48,1.06,5.47,5.47,0,0,0-.15,1.31,5.56,5.56,0,0,0,.15,1.32,3,3,0,0,0,.48,1.07,2.16,2.16,0,0,0,.84.71A2.6,2.6,0,0,0,447.84,132.65Z"/><path class="cls-1" d="M453.35,125.44h.87v1.26a3.53,3.53,0,0,1,1.06-1,2.46,2.46,0,0,1,1.28-.36h.31l.3,0-.1.83a3.13,3.13,0,0,0-.5,0,2.25,2.25,0,0,0-.79.15,2.06,2.06,0,0,0-.77.48,2.57,2.57,0,0,0-.57.73,2.15,2.15,0,0,0-.22,1v4.65h-.87Z"/><path class="cls-1" d="M463.32,132.07a3.38,3.38,0,0,1-.46.47,3,3,0,0,1-.62.41,3.54,3.54,0,0,1-.75.29,3.73,3.73,0,0,1-.91.1,3,3,0,0,1-1.95-.58,2.09,2.09,0,0,1-.74-1.74,2.27,2.27,0,0,1,.33-1.28,2.37,2.37,0,0,1,.88-.78,4,4,0,0,1,1.25-.39,11,11,0,0,1,1.44-.15l1.5-.06v-.24a2.52,2.52,0,0,0-.44-1.66,2,2,0,0,0-1.58-.53,4.22,4.22,0,0,0-.94.09,1.87,1.87,0,0,0-.64.27,1.38,1.38,0,0,0-.4.4,1.87,1.87,0,0,0-.23.52l-.79-.12q.42-1.89,3-1.89a4.13,4.13,0,0,1,1.36.19,2,2,0,0,1,1.38,1.47,4.48,4.48,0,0,1,.15,1.22v5.08h-.87Zm0-3-1.43.06a8.75,8.75,0,0,0-1.45.16,3.15,3.15,0,0,0-.95.36,1.38,1.38,0,0,0-.51.57,1.81,1.81,0,0,0-.16.8,1.6,1.6,0,0,0,.4,1.14,1.84,1.84,0,0,0,1.38.42,4.17,4.17,0,0,0,1-.11,1.91,1.91,0,0,0,.8-.37,2.93,2.93,0,0,0,.44-.37,1.64,1.64,0,0,0,.29-.4,1.76,1.76,0,0,0,.15-.49,3.83,3.83,0,0,0,.05-.63Z"/><path class="cls-1" d="M467.12,134a1.75,1.75,0,0,0,.72,1.14,3.15,3.15,0,0,0,1.69.36,2.49,2.49,0,0,0,1.88-.62,3,3,0,0,0,.6-2.09v-1.16a3.62,3.62,0,0,1-1.13,1.05,3.21,3.21,0,0,1-1.56.36,3.14,3.14,0,0,1-1.48-.32,2.91,2.91,0,0,1-1-.86,3.67,3.67,0,0,1-.6-1.24,5.34,5.34,0,0,1-.19-1.45,5.22,5.22,0,0,1,.24-1.63,3.52,3.52,0,0,1,.69-1.25,3,3,0,0,1,1.09-.81,3.59,3.59,0,0,1,1.46-.28,3.24,3.24,0,0,1,1.3.28,3,3,0,0,1,1.22,1v-1h.87v7.44a3.59,3.59,0,0,1-.8,2.46,3.24,3.24,0,0,1-2.53.9,5.8,5.8,0,0,1-1.22-.12,3.14,3.14,0,0,1-1-.38,2.2,2.2,0,0,1-.7-.69,2.56,2.56,0,0,1-.35-1.05Zm4.92-5a7.58,7.58,0,0,0-.05-.9,3.06,3.06,0,0,0-.18-.68,2.3,2.3,0,0,0-.33-.52,3.19,3.19,0,0,0-.46-.43,2.86,2.86,0,0,0-.72-.39,2.45,2.45,0,0,0-.8-.12,2.8,2.8,0,0,0-1,.18,2.07,2.07,0,0,0-.81.57,2.72,2.72,0,0,0-.54,1,4.79,4.79,0,0,0-.19,1.46,4.12,4.12,0,0,0,.22,1.46,2.62,2.62,0,0,0,.56,1,2,2,0,0,0,.78.53,2.46,2.46,0,0,0,.88.17,2.9,2.9,0,0,0,.84-.11,2.69,2.69,0,0,0,.74-.37,2.46,2.46,0,0,0,.8-1,3.72,3.72,0,0,0,.28-1.52Z"/><path class="cls-1" d="M481.43,131.14a2.62,2.62,0,0,1-1,1.63,3.45,3.45,0,0,1-2.22.63,3.21,3.21,0,0,1-2.59-1.07,4.4,4.4,0,0,1-.92-3,5.79,5.79,0,0,1,.26-1.8,3.79,3.79,0,0,1,.74-1.31,3,3,0,0,1,1.11-.8,3.53,3.53,0,0,1,1.4-.27,3.7,3.7,0,0,1,1.53.29,2.84,2.84,0,0,1,1,.8,3.21,3.21,0,0,1,.57,1.19,5.83,5.83,0,0,1,.18,1.48v.56h-5.94a4.53,4.53,0,0,0,.17,1.24,2.92,2.92,0,0,0,.49,1,2.39,2.39,0,0,0,.83.68,2.58,2.58,0,0,0,1.14.24,3.56,3.56,0,0,0,1-.11,1.82,1.82,0,0,0,.67-.32,1.54,1.54,0,0,0,.43-.49,2.68,2.68,0,0,0,.25-.62Zm-.77-2.37a4.68,4.68,0,0,0-.13-1.16,2.5,2.5,0,0,0-.42-.9,1.85,1.85,0,0,0-.75-.6,2.68,2.68,0,0,0-1.11-.21,2.38,2.38,0,0,0-1.8.71,3.52,3.52,0,0,0-.81,2.16Z"/><path class="cls-1" d="M486.77,122.45h.87v10.71h-.87Z"/><path class="cls-1" d="M493.14,133.4a3.82,3.82,0,0,1-1.52-.28,3,3,0,0,1-1.12-.82,3.54,3.54,0,0,1-.71-1.28,5.2,5.2,0,0,1-.25-1.68,5.38,5.38,0,0,1,.26-1.71,4.07,4.07,0,0,1,.74-1.31,3.3,3.3,0,0,1,1.15-.83,3.84,3.84,0,0,1,1.51-.29,3.88,3.88,0,0,1,1.52.28,3.15,3.15,0,0,1,1.14.82,3.78,3.78,0,0,1,.71,1.28,5.47,5.47,0,0,1,.25,1.67,5.38,5.38,0,0,1-.26,1.71,3.85,3.85,0,0,1-.72,1.31,3.12,3.12,0,0,1-1.16.84A3.81,3.81,0,0,1,493.14,133.4Zm0-.75a2.66,2.66,0,0,0,1.25-.26,2.31,2.31,0,0,0,.84-.71,3,3,0,0,0,.48-1.07,5.58,5.58,0,0,0,.15-1.33,5.45,5.45,0,0,0-.15-1.3,3,3,0,0,0-.48-1.06,2.42,2.42,0,0,0-.84-.71,2.78,2.78,0,0,0-1.25-.26,2.72,2.72,0,0,0-1.23.26,2.25,2.25,0,0,0-.84.71,3,3,0,0,0-.48,1.06,5.47,5.47,0,0,0-.15,1.31,5.56,5.56,0,0,0,.15,1.32,3,3,0,0,0,.48,1.07,2.16,2.16,0,0,0,.84.71A2.6,2.6,0,0,0,493.17,132.65Z"/><path class="cls-1" d="M505.22,130.64a3.45,3.45,0,0,1-1,2,3.19,3.19,0,0,1-2.2.72,3.93,3.93,0,0,1-1.5-.27,3,3,0,0,1-1.11-.81,3.8,3.8,0,0,1-.69-1.29,5.52,5.52,0,0,1-.24-1.69,5.39,5.39,0,0,1,.25-1.71,3.85,3.85,0,0,1,.72-1.31,3.22,3.22,0,0,1,1.13-.83,3.84,3.84,0,0,1,1.51-.29,3.06,3.06,0,0,1,2,.65,3.21,3.21,0,0,1,1,1.84l-.84.21a3.75,3.75,0,0,0-.25-.78,2.12,2.12,0,0,0-.42-.62,1.79,1.79,0,0,0-.64-.4A2.48,2.48,0,0,0,502,126a2.6,2.6,0,0,0-1.2.25,2.41,2.41,0,0,0-.82.7,2.94,2.94,0,0,0-.48,1.06,5.58,5.58,0,0,0-.15,1.33,5.67,5.67,0,0,0,.15,1.34,3.1,3.1,0,0,0,.46,1.06,2.17,2.17,0,0,0,.82.71,2.64,2.64,0,0,0,1.21.25,2.17,2.17,0,0,0,1.64-.54,2.89,2.89,0,0,0,.7-1.47Z"/><path class="cls-1" d="M507,122.45h.87V129l4-3.6h1.08L510.18,128l3.08,5.17h-1l-2.7-4.63L507.86,130v3.15H507Z"/><path class="cls-1" d="M520.83,131.14a2.62,2.62,0,0,1-1,1.63,3.45,3.45,0,0,1-2.22.63,3.22,3.22,0,0,1-2.59-1.07,4.4,4.4,0,0,1-.92-3,5.79,5.79,0,0,1,.26-1.8,3.79,3.79,0,0,1,.74-1.31,3,3,0,0,1,1.11-.8,3.53,3.53,0,0,1,1.4-.27,3.7,3.7,0,0,1,1.53.29,2.84,2.84,0,0,1,1,.8,3.23,3.23,0,0,1,.58,1.19A5.83,5.83,0,0,1,521,129v.56H515a4.53,4.53,0,0,0,.16,1.24,2.94,2.94,0,0,0,.5,1,2.36,2.36,0,0,0,.82.68,2.58,2.58,0,0,0,1.14.24,3.56,3.56,0,0,0,1-.11,1.87,1.87,0,0,0,.68-.32,1.51,1.51,0,0,0,.42-.49,2.3,2.3,0,0,0,.25-.62Zm-.76-2.37a4.67,4.67,0,0,0-.14-1.16,2.5,2.5,0,0,0-.42-.9,1.85,1.85,0,0,0-.75-.6,2.68,2.68,0,0,0-1.11-.21,2.38,2.38,0,0,0-1.8.71,3.52,3.52,0,0,0-.81,2.16Z"/><path class="cls-1" d="M522.78,125.44h.87v1.26a3.56,3.56,0,0,1,1.07-1,2.42,2.42,0,0,1,1.27-.36h.31l.31,0-.11.83a3,3,0,0,0-.49,0,2.31,2.31,0,0,0-.8.15,2,2,0,0,0-.76.48,2.57,2.57,0,0,0-.57.73,2.15,2.15,0,0,0-.23,1v4.65h-.87Z"/><path class="cls-1" d="M536.1,132.07a3.38,3.38,0,0,1-.46.47,3,3,0,0,1-.62.41,3.43,3.43,0,0,1-.76.29,3.59,3.59,0,0,1-.9.1,3,3,0,0,1-2-.58,2.09,2.09,0,0,1-.74-1.74,2.14,2.14,0,0,1,1.21-2.06,3.92,3.92,0,0,1,1.24-.39,11.29,11.29,0,0,1,1.45-.15l1.5-.06v-.24a2.58,2.58,0,0,0-.44-1.66,2,2,0,0,0-1.58-.53,4.16,4.16,0,0,0-.94.09,1.87,1.87,0,0,0-.64.27,1.38,1.38,0,0,0-.4.4,1.87,1.87,0,0,0-.23.52l-.79-.12q.42-1.89,3-1.89a4.13,4.13,0,0,1,1.36.19,2.09,2.09,0,0,1,1.38,1.47,4.48,4.48,0,0,1,.15,1.22v5.08h-.87Zm0-3-1.43.06a8.75,8.75,0,0,0-1.45.16,3.15,3.15,0,0,0-1,.36,1.48,1.48,0,0,0-.52.57,2,2,0,0,0-.15.8,1.64,1.64,0,0,0,.39,1.14,1.88,1.88,0,0,0,1.39.42,4.17,4.17,0,0,0,1-.11,1.91,1.91,0,0,0,.8-.37,3.55,3.55,0,0,0,.44-.37,1.6,1.6,0,0,0,.28-.4,1.49,1.49,0,0,0,.16-.49,3.83,3.83,0,0,0,.05-.63Z"/><path class="cls-1" d="M539.06,125.44h.87v1.26a4,4,0,0,1,1.34-1.15,3.43,3.43,0,0,1,1.52-.35,2.43,2.43,0,0,1,2,.73,3.12,3.12,0,0,1,.63,2.09v5.14h-.87v-4.9a2.79,2.79,0,0,0-.43-1.75,1.69,1.69,0,0,0-1.38-.53,3.14,3.14,0,0,0-1,.17,2.63,2.63,0,0,0-.9.55,3.05,3.05,0,0,0-.68.8,2.39,2.39,0,0,0-.22,1.13v4.53h-.87Z"/><path class="cls-1" d="M553.17,132a4,4,0,0,1-1.13,1,3,3,0,0,1-1.55.37,3.11,3.11,0,0,1-1.48-.33,2.93,2.93,0,0,1-1-.88,3.87,3.87,0,0,1-.6-1.28,5.94,5.94,0,0,1-.19-1.53,4.64,4.64,0,0,1,.92-3.08,3.14,3.14,0,0,1,2.54-1.1,3.39,3.39,0,0,1,1.29.27,3,3,0,0,1,1.23,1v-4H554v10.71h-.87Zm.05-3a5.8,5.8,0,0,0-.06-.9,3.06,3.06,0,0,0-.18-.68,1.77,1.77,0,0,0-.33-.52,3.29,3.29,0,0,0-.47-.43,2.65,2.65,0,0,0-.71-.39,2.49,2.49,0,0,0-.8-.12,2.61,2.61,0,0,0-1,.19,2,2,0,0,0-.81.59,3,3,0,0,0-.53,1,5.48,5.48,0,0,0-.19,1.57,5.19,5.19,0,0,0,.21,1.59,3.09,3.09,0,0,0,.57,1,2,2,0,0,0,.77.54,2.55,2.55,0,0,0,.86.15,3,3,0,0,0,.83-.1,2.39,2.39,0,0,0,.76-.39,2.61,2.61,0,0,0,.81-1,3.49,3.49,0,0,0,.29-1.5Z"/><path class="cls-1" d="M560,131a1.78,1.78,0,0,0,.77,1.27,3.23,3.23,0,0,0,1.71.38,2.37,2.37,0,0,0,1.59-.42,1.35,1.35,0,0,0,.46-1.05,2,2,0,0,0-.06-.5,1.06,1.06,0,0,0-.23-.43,1.36,1.36,0,0,0-.5-.33,3.86,3.86,0,0,0-.83-.23l-.94-.15a9.2,9.2,0,0,1-1.11-.25,2.61,2.61,0,0,1-.82-.4,1.5,1.5,0,0,1-.51-.61,2.08,2.08,0,0,1-.17-.91,1.87,1.87,0,0,1,.22-.92,2,2,0,0,1,.62-.69,2.79,2.79,0,0,1,.92-.43,4.21,4.21,0,0,1,1.15-.15,4.49,4.49,0,0,1,1.32.16,2.35,2.35,0,0,1,.87.42,2,2,0,0,1,.53.63,3.94,3.94,0,0,1,.29.77l-.79.16a3.36,3.36,0,0,0-.28-.6,1.54,1.54,0,0,0-.4-.44,1.84,1.84,0,0,0-.6-.26,3.79,3.79,0,0,0-.9-.09,4,4,0,0,0-1,.11,2,2,0,0,0-.66.31,1.15,1.15,0,0,0-.35.45,1.34,1.34,0,0,0-.1.52,1.83,1.83,0,0,0,.06.49.77.77,0,0,0,.24.38,1.46,1.46,0,0,0,.5.29,4.77,4.77,0,0,0,.85.21l1.18.19a3.8,3.8,0,0,1,1.82.73,2,2,0,0,1,.6,1.58,2.11,2.11,0,0,1-.19.86,2,2,0,0,1-.56.7,2.73,2.73,0,0,1-.92.46,4.11,4.11,0,0,1-1.27.17,5.84,5.84,0,0,1-1.3-.13,3.09,3.09,0,0,1-1-.42,2.25,2.25,0,0,1-.7-.74,2.54,2.54,0,0,1-.33-1.09Z"/><path class="cls-1" d="M567.2,122.45h.87v4.25a4,4,0,0,1,1.34-1.15,3.43,3.43,0,0,1,1.52-.35,2.43,2.43,0,0,1,2,.73,3.12,3.12,0,0,1,.63,2.09v5.14h-.87v-4.9a2.79,2.79,0,0,0-.43-1.75,1.69,1.69,0,0,0-1.38-.53,3.14,3.14,0,0,0-1,.17,2.63,2.63,0,0,0-.9.55,3.05,3.05,0,0,0-.68.8,2.39,2.39,0,0,0-.22,1.13v4.53h-.87Z"/><path class="cls-1" d="M582,131.14a2.62,2.62,0,0,1-1,1.63,3.45,3.45,0,0,1-2.22.63,3.21,3.21,0,0,1-2.59-1.07,4.34,4.34,0,0,1-.92-3,5.51,5.51,0,0,1,.26-1.8,3.78,3.78,0,0,1,.73-1.31,3.21,3.21,0,0,1,1.11-.8,3.62,3.62,0,0,1,1.41-.27,3.7,3.7,0,0,1,1.53.29,2.72,2.72,0,0,1,1,.8,3.08,3.08,0,0,1,.58,1.19,5.83,5.83,0,0,1,.18,1.48v.56h-5.94a4.53,4.53,0,0,0,.17,1.24,2.92,2.92,0,0,0,.49,1,2.39,2.39,0,0,0,.83.68,2.58,2.58,0,0,0,1.14.24,3.56,3.56,0,0,0,1-.11,1.82,1.82,0,0,0,.67-.32,1.67,1.67,0,0,0,.43-.49,2.68,2.68,0,0,0,.25-.62Zm-.77-2.37a4.68,4.68,0,0,0-.13-1.16,2.5,2.5,0,0,0-.42-.9,1.85,1.85,0,0,0-.75-.6,2.68,2.68,0,0,0-1.11-.21,2.38,2.38,0,0,0-1.8.71,3.52,3.52,0,0,0-.81,2.16Z"/><path class="cls-1" d="M584,122.45h.87v10.71H584Z"/><path class="cls-1" d="M586.07,125.44h1l2.63,6.78,2.68-6.78h1l-3.12,7.72h-1Z"/><path class="cls-1" d="M600.92,131.14a2.62,2.62,0,0,1-1,1.63,3.45,3.45,0,0,1-2.22.63,3.21,3.21,0,0,1-2.59-1.07,4.34,4.34,0,0,1-.92-3,5.51,5.51,0,0,1,.26-1.8,3.78,3.78,0,0,1,.73-1.31,3.21,3.21,0,0,1,1.11-.8,3.62,3.62,0,0,1,1.41-.27,3.7,3.7,0,0,1,1.53.29,2.72,2.72,0,0,1,1,.8,3.08,3.08,0,0,1,.58,1.19,5.83,5.83,0,0,1,.18,1.48v.56h-5.94a4.53,4.53,0,0,0,.17,1.24,2.92,2.92,0,0,0,.49,1,2.39,2.39,0,0,0,.83.68,2.58,2.58,0,0,0,1.14.24,3.56,3.56,0,0,0,1-.11,1.82,1.82,0,0,0,.67-.32,1.67,1.67,0,0,0,.43-.49,2.68,2.68,0,0,0,.25-.62Zm-.77-2.37a4.68,4.68,0,0,0-.13-1.16,2.5,2.5,0,0,0-.42-.9,1.85,1.85,0,0,0-.75-.6,2.68,2.68,0,0,0-1.11-.21,2.38,2.38,0,0,0-1.8.71,3.52,3.52,0,0,0-.81,2.16Z"/><path class="cls-1" d="M603.33,131a1.78,1.78,0,0,0,.77,1.27,3.23,3.23,0,0,0,1.71.38,2.37,2.37,0,0,0,1.59-.42,1.35,1.35,0,0,0,.46-1.05,2,2,0,0,0-.06-.5,1.06,1.06,0,0,0-.23-.43,1.36,1.36,0,0,0-.5-.33,3.86,3.86,0,0,0-.83-.23l-.94-.15a9.2,9.2,0,0,1-1.11-.25,2.61,2.61,0,0,1-.82-.4,1.5,1.5,0,0,1-.51-.61,2.08,2.08,0,0,1-.17-.91,1.87,1.87,0,0,1,.22-.92,2,2,0,0,1,.62-.69,2.79,2.79,0,0,1,.92-.43,4.21,4.21,0,0,1,1.15-.15,4.49,4.49,0,0,1,1.32.16,2.35,2.35,0,0,1,.87.42,2,2,0,0,1,.53.63,3.94,3.94,0,0,1,.29.77l-.79.16a3.36,3.36,0,0,0-.28-.6,1.54,1.54,0,0,0-.4-.44,1.84,1.84,0,0,0-.6-.26,3.79,3.79,0,0,0-.9-.09,4,4,0,0,0-1,.11,2,2,0,0,0-.66.31,1.15,1.15,0,0,0-.35.45,1.34,1.34,0,0,0-.1.52,1.83,1.83,0,0,0,.06.49.77.77,0,0,0,.24.38,1.46,1.46,0,0,0,.5.29,4.77,4.77,0,0,0,.85.21l1.18.19a3.8,3.8,0,0,1,1.82.73,2,2,0,0,1,.6,1.58,2.11,2.11,0,0,1-.19.86,2,2,0,0,1-.56.7,2.73,2.73,0,0,1-.92.46,4.11,4.11,0,0,1-1.27.17,5.84,5.84,0,0,1-1.3-.13,3.09,3.09,0,0,1-1-.42,2.25,2.25,0,0,1-.7-.74,2.54,2.54,0,0,1-.33-1.09Z"/><line class="cls-2" x1="519.61" y1="145.88" x2="519.61" y2="254.18"/><path class="cls-3" d="M518.67,254.18a.94.94,0,1,0,.94-.94A.94.94,0,0,0,518.67,254.18Z"/><line class="cls-2" x1="231.18" y1="174.44" x2="231.18" y2="311.34"/><circle class="cls-3" cx="231.18" cy="311.34" r="0.94"/></svg>