<svg id="Layer_1" data-name="Layer 1" xmlns="http://www.w3.org/2000/svg" viewBox="0 0 200 200"><defs><style>.cls-1{fill:#faba20;}.cls-2{fill:#3a3531;}</style></defs><title>thermal_infrared</title><path class="cls-1" d="M146.44,78.46h8.62q5.77,0,8.21,2.16c1.63,1.45,2.44,3.61,2.44,6.5s-.81,5.06-2.44,6.5-4.36,2.16-8.21,2.16h-8.62Zm42-2.85a20.12,20.12,0,0,0-5.53-8.49,27.73,27.73,0,0,0-10.22-5.7A50.18,50.18,0,0,0,157,59.31H122.05v81.38h24.39v-26.1h9.12l13,26.1H195l-16.87-31.23A25.42,25.42,0,0,0,187,100a29.18,29.18,0,0,0,3.14-14,32,32,0,0,0-1.66-10.37M84.21,140.69h25.88V59.31H84.21Z"/><polygon class="cls-2" points="5 59.31 5 81.54 27.68 81.54 27.68 140.69 53.56 140.69 53.56 81.54 76.24 81.54 76.24 59.31 5 59.31"/></svg>