<svg id="Layer_1" data-name="Layer 1" xmlns="http://www.w3.org/2000/svg" width="200" height="200" viewBox="0 0 200 200"><defs><style>.cls-1{fill:#3a3531;}.cls-2{fill:#faba20;}.cls-3{fill:#938e8c;}</style></defs><title>calendar_two_page</title><rect class="cls-1" x="10.15" y="52.69" width="179.71" height="142.31"/><rect class="cls-2" x="72.38" y="74.57" width="12.68" height="12.68"/><rect class="cls-2" x="93.66" y="74.57" width="12.68" height="12.68"/><rect class="cls-2" x="114.94" y="74.57" width="12.68" height="12.68"/><rect class="cls-2" x="114.94" y="96.61" width="12.68" height="12.68"/><rect class="cls-2" x="72.38" y="118.64" width="12.68" height="12.68"/><rect class="cls-2" x="93.66" y="118.64" width="12.68" height="12.68"/><rect class="cls-2" x="114.94" y="118.64" width="12.68" height="12.68"/><rect class="cls-3" x="114.94" y="140.67" width="12.68" height="12.68"/><rect class="cls-2" x="72.38" y="162.7" width="12.68" height="12.68"/><rect class="cls-2" x="93.66" y="162.7" width="12.68" height="12.68"/><rect class="cls-2" x="114.94" y="162.7" width="12.68" height="12.68"/><rect class="cls-3" x="51.11" y="74.57" width="12.68" height="12.68"/><rect class="cls-3" x="136.22" y="74.57" width="12.68" height="12.68"/><rect class="cls-3" x="157.49" y="74.57" width="12.68" height="12.68"/><rect class="cls-3" x="29.83" y="96.61" width="12.68" height="12.68"/><rect class="cls-3" x="51.11" y="96.61" width="12.68" height="12.68"/><rect class="cls-3" x="72.38" y="96.61" width="12.68" height="12.68"/><rect class="cls-3" x="93.66" y="96.61" width="12.68" height="12.68"/><rect class="cls-3" x="136.22" y="96.61" width="12.68" height="12.68"/><rect class="cls-3" x="157.49" y="96.61" width="12.68" height="12.68"/><rect class="cls-3" x="29.83" y="118.64" width="12.68" height="12.68"/><rect class="cls-3" x="51.11" y="118.64" width="12.68" height="12.68"/><rect class="cls-3" x="136.22" y="118.64" width="12.68" height="12.68"/><rect class="cls-3" x="157.49" y="118.64" width="12.68" height="12.68"/><rect class="cls-3" x="29.83" y="140.67" width="12.68" height="12.68"/><rect class="cls-3" x="51.11" y="140.67" width="12.68" height="12.68"/><rect class="cls-2" x="72.38" y="140.67" width="12.68" height="12.68"/><rect class="cls-3" x="93.66" y="140.67" width="12.68" height="12.68"/><rect class="cls-3" x="136.22" y="140.67" width="12.68" height="12.68"/><rect class="cls-3" x="157.49" y="140.67" width="12.68" height="12.68"/><rect class="cls-3" x="29.83" y="162.7" width="12.68" height="12.68"/><rect class="cls-3" x="51.11" y="162.7" width="12.68" height="12.68"/><rect class="cls-3" x="136.22" y="162.7" width="12.68" height="12.68"/></svg>